<?plantuml 1.2026.2?><svg xmlns="http://www.w3.org/2000/svg" xmlns:xlink="http://www.w3.org/1999/xlink" contentStyleType="text/css" data-diagram-type="DESCRIPTION" height="197px" preserveAspectRatio="none" style="width:239px;height:197px;background:#FFFFFF;" version="1.1" viewBox="0 0 239 197" width="239px" zoomAndPan="magnify"><defs/><g><!--cluster Authentication--><g class="cluster" data-qualified-name="Authentication" data-source-line="6" id="ent0004"><rect fill="none" height="145" rx="2.5" ry="2.5" style="stroke:#181818;stroke-width:1;" width="133" x="100.41" y="16.65"/><text fill="#000000" font-family="sans-serif" font-size="14" font-weight="bold" lengthAdjust="spacing" textLength="117.2363" x="108.2918" y="31.6451">Authentication</text></g><!--entity ????--><g class="entity" data-qualified-name="Authentication....." data-source-line="7" id="ent0005"><ellipse cx="166.4127" cy="130.6536" fill="#F1F1F1" rx="26.7627" ry="14.5236" style="stroke:#181818;stroke-width:0.5;"/><text fill="#000000" font-family="sans-serif" font-size="14" lengthAdjust="spacing" textLength="33.6055" x="149.6099" y="135.3021">&#12525;&#12464;&#12452;&#12531;</text></g><!--entity ?????--><g class="entity" data-qualified-name="Authentication......" data-source-line="8" id="ent0006"><ellipse cx="166.4133" cy="66.6536" fill="#F1F1F1" rx="32.7033" ry="14.5236" style="stroke:#181818;stroke-width:0.5;"/><text fill="#000000" font-family="sans-serif" font-size="14" lengthAdjust="spacing" textLength="42.0068" x="145.4099" y="71.3021">&#12525;&#12464;&#12450;&#12454;&#12488;</text></g><!--entity Manager--><g class="entity" data-qualified-name="Manager" data-source-line="3" id="ent0002"><ellipse cx="31.2041" cy="14" fill="#F1F1F1" rx="8" ry="8" style="stroke:#181818;stroke-width:0.5;"/><path d="M31.2041,22 L31.2041,49 M18.2041,30 L44.2041,30 M31.2041,49 L18.2041,64 M31.2041,49 L44.2041,64" fill="none" style="stroke:#181818;stroke-width:0.5;"/><text fill="#000000" font-family="sans-serif" font-size="14" lengthAdjust="spacing" textLength="50.4082" x="6" y="78.4951">&#12510;&#12493;&#12540;&#12472;&#12515;&#12540;</text></g><!--entity Member--><g class="entity" data-qualified-name="Member" data-source-line="4" id="ent0003"><ellipse cx="31.2027" cy="125" fill="#F1F1F1" rx="8" ry="8" style="stroke:#181818;stroke-width:0.5;"/><path d="M31.2027,133 L31.2027,160 M18.2027,141 L44.2027,141 M31.2027,160 L18.2027,175 M31.2027,160 L44.2027,175" fill="none" style="stroke:#181818;stroke-width:0.5;"/><text fill="#000000" font-family="sans-serif" font-size="14" lengthAdjust="spacing" textLength="33.6055" x="14.4" y="189.4951">&#12513;&#12531;&#12496;&#12540;</text></g><!--link Manager to ????--><g class="link" data-entity-1="ent0002" data-entity-2="ent0005" data-link-type="dependency" data-source-line="11" id="lnk7"><path d="M56.74,69.46 C67.11,79.43 79.71,90.39 92.41,98.65 C108.3,108.99 122.472,115.3233 137.432,120.9333" fill="none" id="Manager-to-&#12525;&#12464;&#12452;&#12531;" style="stroke:#181818;stroke-width:1;"/><polygon fill="#181818" points="143.05,123.04,136.0275,116.1346,138.3684,121.2844,133.2185,123.6252,143.05,123.04" style="stroke:#181818;stroke-width:1;"/></g><!--link Manager to ?????--><g class="link" data-entity-1="ent0002" data-entity-2="ent0006" data-link-type="dependency" data-source-line="12" id="lnk8"><path d="M56.64,47.87 C78.87,51.71 105.8372,56.371 129.6272,60.471" fill="none" id="Manager-to-&#12525;&#12464;&#12450;&#12454;&#12488;" style="stroke:#181818;stroke-width:1;"/><polygon fill="#181818" points="135.54,61.49,127.3501,56.0196,130.6126,60.6408,125.9914,63.9034,135.54,61.49" style="stroke:#181818;stroke-width:1;"/></g><!--link Member to ????--><g class="link" data-entity-1="ent0003" data-entity-2="ent0005" data-link-type="dependency" data-source-line="13" id="lnk9"><path d="M48.27,151.76 C71.24,147.62 107.775,141.0333 134.765,136.1733" fill="none" id="Member-to-&#12525;&#12464;&#12452;&#12531;" style="stroke:#181818;stroke-width:1;"/><polygon fill="#181818" points="140.67,135.11,131.1036,132.7683,135.7491,135.9961,132.5213,140.6416,140.67,135.11" style="stroke:#181818;stroke-width:1;"/></g><!--link Member to ?????--><g class="link" data-entity-1="ent0003" data-entity-2="ent0006" data-link-type="dependency" data-source-line="14" id="lnk10"><path d="M48.29,136.82 C59.74,124.89 75.94,109.47 92.41,98.65 C107.1,89 119.5782,83.1995 134.0682,77.6395" fill="none" id="Member-to-&#12525;&#12464;&#12450;&#12454;&#12488;" style="stroke:#181818;stroke-width:1;"/><polygon fill="#181818" points="139.67,75.49,129.8344,74.9797,135.0019,77.2812,132.7003,82.4487,139.67,75.49" style="stroke:#181818;stroke-width:1;"/></g><?plantuml-src ROuz2i9048NxESMmVQuWU00FiQvZiX0ti9bKOhFJs0YUGF07Eq6miV0sSn4Jb0YotS3tllUcfYKZDnXzMJ4kV2J7lWa0rd4JqQWSL7OgBqrFbND_6BGjpcom9SLVwgZoKDcFd5Rp7iDGPqDP4vffnnK5ziuE0mRNWDYrv6nBGy5DqrtJfQynEN3IT5NP6jW0VCUnA2R_PXQDxkUhh9SXe_O6?></g></svg>