<?plantuml 1.2026.2?><svg xmlns="http://www.w3.org/2000/svg" xmlns:xlink="http://www.w3.org/1999/xlink" contentStyleType="text/css" data-diagram-type="DESCRIPTION" height="197px" preserveAspectRatio="none" style="width:239px;height:197px;background:#FFFFFF;" version="1.1" viewBox="0 0 239 197" width="239px" zoomAndPan="magnify"><defs/><g><!--cluster Authentication--><g class="cluster" data-qualified-name="Authentication" data-source-line="6" id="ent0004"><rect fill="none" height="145" rx="2.5" ry="2.5" style="stroke:#181818;stroke-width:1;" width="133" x="100" y="16.5"/><text fill="#000000" font-family="sans-serif" font-size="14" font-weight="bold" lengthAdjust="spacing" textLength="117.2363" x="107.8818" y="31.4951">Authentication</text></g><!--entity ????--><g class="entity" data-qualified-name="Authentication....." data-source-line="7" id="ent0005"><ellipse cx="166.2627" cy="66.5236" fill="#F1F1F1" rx="26.7627" ry="14.5236" style="stroke:#181818;stroke-width:0.5;"/><text fill="#000000" font-family="sans-serif" font-size="14" lengthAdjust="spacing" textLength="33.6055" x="149.4599" y="71.1721">&#12525;&#12464;&#12452;&#12531;</text></g><!--entity ?????--><g class="entity" data-qualified-name="Authentication......" data-source-line="8" id="ent0006"><ellipse cx="166.7033" cy="130.5236" fill="#F1F1F1" rx="32.7033" ry="14.5236" style="stroke:#181818;stroke-width:0.5;"/><text fill="#000000" font-family="sans-serif" font-size="14" lengthAdjust="spacing" textLength="42.0068" x="145.6999" y="135.1721">&#12525;&#12464;&#12450;&#12454;&#12488;</text></g><!--entity Manager--><g class="entity" data-qualified-name="Manager" data-source-line="3" id="ent0002"><ellipse cx="31.2041" cy="14" fill="#F1F1F1" rx="8" ry="8" style="stroke:#181818;stroke-width:0.5;"/><path d="M31.2041,22 L31.2041,49 M18.2041,30 L44.2041,30 M31.2041,49 L18.2041,64 M31.2041,49 L44.2041,64" fill="none" style="stroke:#181818;stroke-width:0.5;"/><text fill="#000000" font-family="sans-serif" font-size="14" lengthAdjust="spacing" textLength="50.4082" x="6" y="78.4951">&#12510;&#12493;&#12540;&#12472;&#12515;&#12540;</text></g><!--entity Member--><g class="entity" data-qualified-name="Member" data-source-line="4" id="ent0003"><ellipse cx="30.8027" cy="125" fill="#F1F1F1" rx="8" ry="8" style="stroke:#181818;stroke-width:0.5;"/><path d="M30.8027,133 L30.8027,160 M17.8027,141 L43.8027,141 M30.8027,160 L17.8027,175 M30.8027,160 L43.8027,175" fill="none" style="stroke:#181818;stroke-width:0.5;"/><text fill="#000000" font-family="sans-serif" font-size="14" lengthAdjust="spacing" textLength="33.6055" x="14" y="189.4951">&#12513;&#12531;&#12496;&#12540;</text></g><!--link Manager to ????--><g class="link" data-entity-1="ent0002" data-entity-2="ent0005" data-link-type="dependency" data-source-line="11" id="lnk7"><path d="M56.18,47.67 C80.07,51.78 110.5472,57.0311 134.6872,61.1911" fill="none" id="Manager-to-&#12525;&#12464;&#12452;&#12531;" style="stroke:#181818;stroke-width:1;"/><polygon fill="#181818" points="140.6,62.21,132.41,56.7397,135.6726,61.3609,131.0514,64.6235,140.6,62.21" style="stroke:#181818;stroke-width:1;"/></g><!--link Manager to ?????--><g class="link" data-entity-1="ent0002" data-entity-2="ent0006" data-link-type="dependency" data-source-line="12" id="lnk8"><path d="M56.14,69.05 C66.53,79.1 79.2,90.18 92,98.5 C107.05,108.28 119.9905,114.2007 134.6905,119.7807" fill="none" id="Manager-to-&#12525;&#12464;&#12450;&#12454;&#12488;" style="stroke:#181818;stroke-width:1;"/><polygon fill="#181818" points="140.3,121.91,133.3053,114.9764,135.6254,120.1356,130.4663,122.4557,140.3,121.91" style="stroke:#181818;stroke-width:1;"/></g><!--link Member to ????--><g class="link" data-entity-1="ent0003" data-entity-2="ent0005" data-link-type="dependency" data-source-line="13" id="lnk9"><path d="M48.01,136.65 C59.41,124.72 75.56,109.29 92,98.5 C108.06,87.96 122.5311,81.5673 137.6511,75.9873" fill="none" id="Member-to-&#12525;&#12464;&#12452;&#12531;" style="stroke:#181818;stroke-width:1;"/><polygon fill="#181818" points="143.28,73.91,133.4517,73.2734,138.5892,75.6411,136.2215,80.7786,143.28,73.91" style="stroke:#181818;stroke-width:1;"/></g><!--link Member to ?????--><g class="link" data-entity-1="ent0003" data-entity-2="ent0006" data-link-type="dependency" data-source-line="14" id="lnk10"><path d="M48.1,151.61 C69.88,147.69 103.1947,141.702 130.2747,136.832" fill="none" id="Member-to-&#12525;&#12464;&#12450;&#12454;&#12488;" style="stroke:#181818;stroke-width:1;"/><polygon fill="#181818" points="136.18,135.77,126.6141,133.4261,131.2589,136.655,128.0301,141.2998,136.18,135.77" style="stroke:#181818;stroke-width:1;"/></g><?plantuml-src ROuz2i9048NxESMmVQuWU00FiQvZiX0ti9bKOhFJs0YUGF07Eq6miV0sSn4Jb0YotS3tllUcfYKZDnXzMJ4kV2J7lWa0rd4JqQWSL7OgBqrFbND_6BGjpcom9SLVwgZoKDcFd5Rp7iDGPqDP4vffnnK5ziuE0mRNWDYrv6nBGy5DqrtJfQynEN3IT5NP6jW0VCUnA2R_PXQDxkUhh9SXe_O6?></g></svg>