<?plantuml 1.2026.2?><svg xmlns="http://www.w3.org/2000/svg" xmlns:xlink="http://www.w3.org/1999/xlink" contentStyleType="text/css" data-diagram-type="DESCRIPTION" height="1070px" preserveAspectRatio="none" style="width:405px;height:1070px;background:#FFFFFF;" version="1.1" viewBox="0 0 405 1070" width="405px" zoomAndPan="magnify"><defs/><g><!--cluster Issue Domain--><g class="cluster" data-qualified-name="Issue Domain" data-source-line="7" id="ent0005"><rect fill="none" height="1057" rx="2.5" ry="2.5" style="stroke:#181818;stroke-width:1;" width="265.37" x="134" y="7"/><text fill="#000000" font-family="sans-serif" font-size="14" font-weight="bold" lengthAdjust="spacing" textLength="98.082" x="217.644" y="22.5352">Issue Domain</text></g><!--entity Issue??--><g class="entity" data-qualified-name="Issue Domain.Issue.." data-source-line="9" id="ent0006"><ellipse cx="266.6927" cy="946.999" fill="#F1F1F1" rx="47.4027" ry="14.659" style="stroke:#181818;stroke-width:0.5;"/><text fill="#000000" font-family="sans-serif" font-size="14" lengthAdjust="spacing" textLength="62.7949" x="235.2953" y="951.7431">Issue&#20316;&#25104;</text></g><!--entity Issue??--><g class="entity" data-qualified-name="Issue Domain.Issue.." data-source-line="10" id="ent0007"><ellipse cx="266.6927" cy="882.999" fill="#F1F1F1" rx="47.4027" ry="14.659" style="stroke:#181818;stroke-width:0.5;"/><text fill="#000000" font-family="sans-serif" font-size="14" lengthAdjust="spacing" textLength="62.7949" x="235.2953" y="887.7431">Issue&#21442;&#29031;</text></g><!--entity Issue??--><g class="entity" data-qualified-name="Issue Domain.Issue.." data-source-line="11" id="ent0008"><ellipse cx="266.6927" cy="818.999" fill="#F1F1F1" rx="47.4027" ry="14.659" style="stroke:#181818;stroke-width:0.5;"/><text fill="#000000" font-family="sans-serif" font-size="14" lengthAdjust="spacing" textLength="62.7949" x="235.2953" y="823.7431">Issue&#26356;&#26032;</text></g><!--entity Issue???????--><g class="entity" data-qualified-name="Issue Domain.Issue......." data-source-line="12" id="ent0009"><ellipse cx="266.6922" cy="751.0004" fill="#F1F1F1" rx="81.1522" ry="18.6304" style="stroke:#181818;stroke-width:0.5;"/><text fill="#000000" font-family="sans-serif" font-size="14" lengthAdjust="spacing" textLength="132.7949" x="200.2948" y="755.7446">Issue&#12473;&#12486;&#12540;&#12479;&#12473;&#26356;&#26032;</text></g><!--entity ??????\n(??/??)--><g class="entity" data-qualified-name="Issue Domain........n......." data-source-line="13" id="ent0010"><ellipse cx="266.6866" cy="1022.0037" fill="#F1F1F1" rx="60.5266" ry="25.5837" style="stroke:#181818;stroke-width:0.5;"/><text fill="#000000" font-family="sans-serif" font-size="14" lengthAdjust="spacing" textLength="84" x="224.6866" y="1019.5596">&#20316;&#26989;&#12525;&#12464;&#35352;&#37682;</text><text fill="#000000" font-family="sans-serif" font-size="14" lengthAdjust="spacing" textLength="72.4473" x="230.463" y="1036.0478">(&#25163;&#21205;/&#33258;&#21205;)</text></g><!--entity Issue?????(????)--><g class="entity" data-qualified-name="Issue Domain.Issue..........." data-source-line="14" id="ent0011"><ellipse cx="266.6929" cy="675.0046" fill="#F1F1F1" rx="97.4229" ry="21.8846" style="stroke:#181818;stroke-width:0.5;"/><text fill="#000000" font-family="sans-serif" font-size="14" lengthAdjust="spacing" textLength="169.9004" x="181.7427" y="679.7487">Issue&#36914;&#25431;&#29575;&#21442;&#29031;(&#20104;&#23455;&#24046;&#20998;)</text></g><!--entity ??Issue??(????????)--><g class="entity" data-qualified-name="Issue Domain...Issue............" data-source-line="15" id="ent0012"><ellipse cx="266.6864" cy="591.9973" fill="#F1F1F1" rx="116.6864" ry="25.7373" style="stroke:#181818;stroke-width:0.5;"/><text fill="#000000" font-family="sans-serif" font-size="14" lengthAdjust="spacing" textLength="211.9004" x="160.7362" y="596.7414">&#12469;&#12502;Issue&#36861;&#21152;(&#20104;&#26399;&#12379;&#12396;&#20316;&#26989;&#21547;&#12416;)</text></g><!--entity ??????(DoD)??--><g class="entity" data-qualified-name="Issue Domain........DoD..." data-source-line="16" id="ent0013"><ellipse cx="266.6884" cy="510.9957" fill="#F1F1F1" rx="88.8784" ry="20.1757" style="stroke:#181818;stroke-width:0.5;"/><text fill="#000000" font-family="sans-serif" font-size="14" lengthAdjust="spacing" textLength="150.6777" x="191.3495" y="515.7398">&#21463;&#12369;&#20837;&#12428;&#26465;&#20214;(DoD)&#31649;&#29702;</text></g><!--entity Issue?????????--><g class="entity" data-qualified-name="Issue Domain.Issue........." data-source-line="18" id="ent0014"><ellipse cx="266.6888" cy="434.9998" fill="#F1F1F1" rx="93.3488" ry="21.0698" style="stroke:#181818;stroke-width:0.5;"/><text fill="#000000" font-family="sans-serif" font-size="14" lengthAdjust="spacing" textLength="160.7949" x="186.2913" y="439.7439">Issue&#12395;&#12481;&#12540;&#12512;&#12434;&#12450;&#12469;&#12452;&#12531;</text></g><!--entity Issue??????????--><g class="entity" data-qualified-name="Issue Domain.Issue.........." data-source-line="19" id="ent0015"><ellipse cx="266.6905" cy="356.9961" fill="#F1F1F1" rx="99.6305" ry="22.3261" style="stroke:#181818;stroke-width:0.5;"/><text fill="#000000" font-family="sans-serif" font-size="14" lengthAdjust="spacing" textLength="174.7949" x="179.2931" y="361.7402">Issue&#12395;&#12513;&#12531;&#12496;&#12540;&#12434;&#12450;&#12469;&#12452;&#12531;</text></g><!--entity Issue?????--><g class="entity" data-qualified-name="Issue Domain.Issue....." data-source-line="20" id="ent0016"><ellipse cx="266.6881" cy="283.0036" fill="#F1F1F1" rx="69.6681" ry="16.3336" style="stroke:#181818;stroke-width:0.5;"/><text fill="#000000" font-family="sans-serif" font-size="14" lengthAdjust="spacing" textLength="104.7949" x="214.2907" y="287.7478">Issue&#12525;&#12540;&#12523;&#21106;&#24403;</text></g><!--entity Issue????????--><g class="entity" data-qualified-name="Issue Domain.Issue........" data-source-line="21" id="ent0017"><ellipse cx="266.6904" cy="211.9961" fill="#F1F1F1" rx="87.1804" ry="19.8361" style="stroke:#181818;stroke-width:0.5;"/><text fill="#000000" font-family="sans-serif" font-size="14" lengthAdjust="spacing" textLength="146.7949" x="193.2929" y="216.7402">Issue&#12525;&#12540;&#12523;&#25285;&#24403;&#32773;&#26356;&#26032;</text></g><!--entity Issue????????--><g class="entity" data-qualified-name="Issue Domain.Issue........" data-source-line="23" id="ent0018"><ellipse cx="266.6904" cy="136.9961" fill="#F1F1F1" rx="87.1804" ry="19.8361" style="stroke:#181818;stroke-width:0.5;"/><text fill="#000000" font-family="sans-serif" font-size="14" lengthAdjust="spacing" textLength="146.7949" x="193.2929" y="141.7402">Issue&#12486;&#12531;&#12503;&#12524;&#12540;&#12488;&#21442;&#29031;</text></g><!--entity Issue????????--><g class="entity" data-qualified-name="Issue Domain.Issue........" data-source-line="24" id="ent0019"><ellipse cx="266.6904" cy="61.9961" fill="#F1F1F1" rx="87.1804" ry="19.8361" style="stroke:#181818;stroke-width:0.5;"/><text fill="#000000" font-family="sans-serif" font-size="14" lengthAdjust="spacing" textLength="146.7949" x="193.2929" y="66.7402">Issue&#12486;&#12531;&#12503;&#12524;&#12540;&#12488;&#20316;&#25104;</text></g><!--entity Member--><g class="entity" data-qualified-name="Member" data-source-line="3" id="ent0002"><ellipse cx="48" cy="466.26" fill="#F1F1F1" rx="8" ry="8" style="stroke:#181818;stroke-width:0.5;"/><path d="M48,474.26 L48,501.26 M35,482.26 L61,482.26 M48,501.26 L35,516.26 M48,501.26 L61,516.26" fill="none" style="stroke:#181818;stroke-width:0.5;"/><text fill="#000000" font-family="sans-serif" font-size="14" lengthAdjust="spacing" textLength="56" x="20" y="531.2952">&#12513;&#12531;&#12496;&#12540;</text></g><!--entity Manager--><g class="entity" data-qualified-name="Manager" data-source-line="4" id="ent0003"><ellipse cx="48" cy="577.26" fill="#F1F1F1" rx="8" ry="8" style="stroke:#181818;stroke-width:0.5;"/><path d="M48,585.26 L48,612.26 M35,593.26 L61,593.26 M48,612.26 L35,627.26 M48,612.26 L61,627.26" fill="none" style="stroke:#181818;stroke-width:0.5;"/><text fill="#000000" font-family="sans-serif" font-size="14" lengthAdjust="spacing" textLength="84" x="6" y="642.2952">&#12510;&#12493;&#12540;&#12472;&#12515;&#12540;</text></g><!--entity GitHub--><g class="entity" data-qualified-name="GitHub" data-source-line="5" id="ent0004"><ellipse cx="48.0042" cy="992.26" fill="#F1F1F1" rx="8" ry="8" style="stroke:#181818;stroke-width:0.5;"/><path d="M48.0042,1000.26 L48.0042,1027.26 M35.0042,1008.26 L61.0042,1008.26 M48.0042,1027.26 L35.0042,1042.26 M48.0042,1027.26 L61.0042,1042.26" fill="none" style="stroke:#181818;stroke-width:0.5;"/><text fill="#000000" font-family="sans-serif" font-size="14" lengthAdjust="spacing" textLength="75.1885" x="10.41" y="1057.2952">GitHub&#36899;&#25658;</text></g><!--link Member to Issue??--><g class="link" data-entity-1="ent0002" data-entity-2="ent0006" data-link-type="dependency" data-source-line="28" id="lnk20"><path d="M76.46,526.82 C81.79,534.28 86.73,542.56 90,551 C119.36,626.8 72.28,854 126,915 C148.94,941.04 182.3639,947.9942 213.4839,949.1142" fill="none" id="Member-to-Issue&#20316;&#25104;" style="stroke:#181818;stroke-width:1;"/><polygon fill="#181818" points="219.48,949.33,210.6297,945.0089,214.4832,949.1502,210.342,953.0037,219.48,949.33" style="stroke:#181818;stroke-width:1;"/></g><!--link Member to Issue??--><g class="link" data-entity-1="ent0002" data-entity-2="ent0007" data-link-type="dependency" data-source-line="29" id="lnk21"><path d="M76.33,526.87 C81.67,534.33 86.64,542.59 90,551 C114.91,613.35 81.1,801.08 126,851 C149.13,876.71 182.3247,883.7021 213.3247,884.9321" fill="none" id="Member-to-Issue&#21442;&#29031;" style="stroke:#181818;stroke-width:1;"/><polygon fill="#181818" points="219.32,885.17,210.4857,880.8163,214.3239,884.9718,210.1685,888.81,219.32,885.17" style="stroke:#181818;stroke-width:1;"/></g><!--link Member to Issue??--><g class="link" data-entity-1="ent0002" data-entity-2="ent0008" data-link-type="dependency" data-source-line="30" id="lnk22"><path d="M76.34,527.24 C81.61,534.63 86.55,542.76 90,551 C130.93,648.89 53.79,709.26 126,787 C149.45,812.25 182.416,819.2717 213.246,820.6517" fill="none" id="Member-to-Issue&#26356;&#26032;" style="stroke:#181818;stroke-width:1;"/><polygon fill="#181818" points="219.24,820.92,210.4279,816.5215,214.245,820.6964,210.0701,824.5135,219.24,820.92" style="stroke:#181818;stroke-width:1;"/></g><!--link Member to Issue???????--><g class="link" data-entity-1="ent0002" data-entity-2="ent0009" data-link-type="dependency" data-source-line="31" id="lnk23"><path d="M76.36,528.01 C81.5,535.22 86.38,543.09 90,551 C120.86,618.47 74.64,660.46 126,714 C142.33,731.02 159.6415,739.1904 182.4315,744.4104" fill="none" id="Member-to-Issue&#12473;&#12486;&#12540;&#12479;&#12473;&#26356;&#26032;" style="stroke:#181818;stroke-width:1;"/><polygon fill="#181818" points="188.28,745.75,180.4002,739.8416,183.4062,744.6337,178.6141,747.6396,188.28,745.75" style="stroke:#181818;stroke-width:1;"/></g><!--link Member to ??????\n(??/??)--><g class="link" data-entity-1="ent0002" data-entity-2="ent0010" data-link-type="dependency" data-source-line="32" id="lnk24"><path d="M76.34,526.49 C81.75,534.03 86.75,542.42 90,551 C123.82,640.25 66.13,904.67 126,979 C145.26,1002.91 171.6044,1012.8272 200.2744,1017.6872" fill="none" id="Member-to-&#20316;&#26989;&#12525;&#12464;&#35352;&#37682;\n(&#25163;&#21205;/&#33258;&#21205;)" style="stroke:#181818;stroke-width:1;"/><polygon fill="#181818" points="206.19,1018.69,197.9851,1013.2421,201.2603,1017.8543,196.6481,1021.1296,206.19,1018.69" style="stroke:#181818;stroke-width:1;"/></g><!--link Member to Issue?????(????)--><g class="link" data-entity-1="ent0002" data-entity-2="ent0011" data-link-type="dependency" data-source-line="33" id="lnk25"><path d="M76.32,530.07 C81.17,536.81 85.96,543.98 90,551 C110.28,586.19 95.53,608.14 126,635 C141.71,648.84 156.1543,656.2253 176.2943,662.1553" fill="none" id="Member-to-Issue&#36914;&#25431;&#29575;&#21442;&#29031;(&#20104;&#23455;&#24046;&#20998;)" style="stroke:#181818;stroke-width:1;"/><polygon fill="#181818" points="182.05,663.85,174.5463,657.4708,177.2536,662.4378,172.2867,665.1451,182.05,663.85" style="stroke:#181818;stroke-width:1;"/></g><!--link Member to ??Issue??(????????)--><g class="link" data-entity-1="ent0002" data-entity-2="ent0012" data-link-type="dependency" data-source-line="34" id="lnk26"><path d="M76.26,517.8 C90.46,528.34 108.47,540.52 126,549 C145.41,558.4 161.6065,564.5216 182.2265,570.8816" fill="none" id="Member-to-&#12469;&#12502;Issue&#36861;&#21152;(&#20104;&#26399;&#12379;&#12396;&#20316;&#26989;&#21547;&#12416;)" style="stroke:#181818;stroke-width:1;"/><polygon fill="#181818" points="187.96,572.65,180.5387,566.1751,183.1821,571.1763,178.1808,573.8197,187.96,572.65" style="stroke:#181818;stroke-width:1;"/></g><!--link Member to ??????(DoD)??--><g class="link" data-entity-1="ent0002" data-entity-2="ent0013" data-link-type="dependency" data-source-line="35" id="lnk27"><path d="M76.44,497.9 C102.75,499.72 137.8543,502.1562 175.0343,504.7262" fill="none" id="Member-to-&#21463;&#12369;&#20837;&#12428;&#26465;&#20214;(DoD)&#31649;&#29702;" style="stroke:#181818;stroke-width:1;"/><polygon fill="#181818" points="181.02,505.14,172.3173,500.5289,176.0319,504.7952,171.7656,508.5099,181.02,505.14" style="stroke:#181818;stroke-width:1;"/></g><!--link Member to Issue?????????--><g class="link" data-entity-1="ent0002" data-entity-2="ent0014" data-link-type="dependency" data-source-line="36" id="lnk28"><path d="M76.39,487.64 C91.08,483.2 109.5,477.71 126,473 C151.86,465.62 174.717,459.3325 199.297,452.7025" fill="none" id="Member-to-Issue&#12395;&#12481;&#12540;&#12512;&#12434;&#12450;&#12469;&#12452;&#12531;" style="stroke:#181818;stroke-width:1;"/><polygon fill="#181818" points="205.09,451.14,195.3589,449.6218,200.2625,452.4421,197.4422,457.3458,205.09,451.14" style="stroke:#181818;stroke-width:1;"/></g><!--link Member to Issue??????????--><g class="link" data-entity-1="ent0002" data-entity-2="ent0015" data-link-type="dependency" data-source-line="37" id="lnk29"><path d="M70.38,457.27 C83.8,436.29 102.93,411.56 126,396 C143.53,384.17 158.8267,377.5437 179.2167,371.7737" fill="none" id="Member-to-Issue&#12395;&#12513;&#12531;&#12496;&#12540;&#12434;&#12450;&#12469;&#12452;&#12531;" style="stroke:#181818;stroke-width:1;"/><polygon fill="#181818" points="184.99,370.14,175.2409,368.7417,180.1789,371.5014,177.4192,376.4395,184.99,370.14" style="stroke:#181818;stroke-width:1;"/></g><!--link Member to Issue?????--><g class="link" data-entity-1="ent0002" data-entity-2="ent0016" data-link-type="dependency" data-source-line="38" id="lnk30"><path d="M55.19,457.51 C63.82,416.59 83.5,352.92 126,317 C146.11,300 167.4613,292.2828 192.5613,287.8528" fill="none" id="Member-to-Issue&#12525;&#12540;&#12523;&#21106;&#24403;" style="stroke:#181818;stroke-width:1;"/><polygon fill="#181818" points="198.47,286.81,188.9118,284.4352,193.5461,287.679,190.3022,292.3134,198.47,286.81" style="stroke:#181818;stroke-width:1;"/></g><!--link Member to Issue????????--><g class="link" data-entity-1="ent0002" data-entity-2="ent0017" data-link-type="dependency" data-source-line="39" id="lnk31"><path d="M49.95,457.5 C53.42,403.21 67.93,304.61 126,249 C141.94,233.73 157.6153,226.0696 178.9553,220.6396" fill="none" id="Member-to-Issue&#12525;&#12540;&#12523;&#25285;&#24403;&#32773;&#26356;&#26032;" style="stroke:#181818;stroke-width:1;"/><polygon fill="#181818" points="184.77,219.16,175.0616,217.5029,179.9244,220.393,177.0343,225.2558,184.77,219.16" style="stroke:#181818;stroke-width:1;"/></g><!--link Manager to Issue??--><g class="link" data-entity-1="ent0003" data-entity-2="ent0006" data-link-type="dependency" data-source-line="41" id="lnk32"><path d="M53.61,645.57 C63.23,719.59 87.77,877.52 126,915 C150.34,938.86 182.6405,945.9947 212.9805,947.7947" fill="none" id="Manager-to-Issue&#20316;&#25104;" style="stroke:#181818;stroke-width:1;"/><polygon fill="#181818" points="218.97,948.15,210.2227,943.624,213.9788,947.8539,209.7489,951.61,218.97,948.15" style="stroke:#181818;stroke-width:1;"/></g><!--link Manager to Issue??--><g class="link" data-entity-1="ent0003" data-entity-2="ent0007" data-link-type="dependency" data-source-line="42" id="lnk33"><path d="M49.85,645.31 C53.2,699.27 67.56,797.08 126,851 C150.96,874.03 183.0337,881.1942 213.1237,883.2342" fill="none" id="Manager-to-Issue&#21442;&#29031;" style="stroke:#181818;stroke-width:1;"/><polygon fill="#181818" points="219.11,883.64,210.4012,879.0404,214.1215,883.3018,209.86,887.0221,219.11,883.64" style="stroke:#181818;stroke-width:1;"/></g><!--link Manager to Issue??--><g class="link" data-entity-1="ent0003" data-entity-2="ent0008" data-link-type="dependency" data-source-line="43" id="lnk34"><path d="M54.96,645.43 C63.41,686.66 82.96,751.05 126,787 C151.78,808.53 183.2311,815.7476 212.8611,818.2376" fill="none" id="Manager-to-Issue&#26356;&#26032;" style="stroke:#181818;stroke-width:1;"/><polygon fill="#181818" points="218.84,818.74,210.2066,814.0004,213.8576,818.3213,209.5366,821.9723,218.84,818.74" style="stroke:#181818;stroke-width:1;"/></g><!--link Manager to Issue???????--><g class="link" data-entity-1="ent0003" data-entity-2="ent0009" data-link-type="dependency" data-source-line="44" id="lnk35"><path d="M68.03,645.67 C81.27,668.74 101.02,696.8 126,714 C146.25,727.94 165.6246,735.2766 189.0346,740.6966" fill="none" id="Manager-to-Issue&#12473;&#12486;&#12540;&#12479;&#12473;&#26356;&#26032;" style="stroke:#181818;stroke-width:1;"/><polygon fill="#181818" points="194.88,742.05,187.0142,736.1231,190.0089,740.9222,185.2097,743.9169,194.88,742.05" style="stroke:#181818;stroke-width:1;"/></g><!--link Manager to ??????\n(??/??)--><g class="link" data-entity-1="ent0003" data-entity-2="ent0010" data-link-type="dependency" data-source-line="45" id="lnk36"><path d="M52.07,645.61 C59.59,730.61 81.62,930.21 126,979 C146.49,1001.52 172.5588,1011.2956 200.7488,1016.4756" fill="none" id="Manager-to-&#20316;&#26989;&#12525;&#12464;&#35352;&#37682;\n(&#25163;&#21205;/&#33258;&#21205;)" style="stroke:#181818;stroke-width:1;"/><polygon fill="#181818" points="206.65,1017.56,198.5211,1011.9993,201.7323,1016.6564,197.0753,1019.8676,206.65,1017.56" style="stroke:#181818;stroke-width:1;"/></g><!--link Manager to Issue?????(????)--><g class="link" data-entity-1="ent0003" data-entity-2="ent0011" data-link-type="dependency" data-source-line="46" id="lnk37"><path d="M90.38,622.65 C101.86,626.82 114.36,631.22 126,635 C151.07,643.14 173.1734,649.6782 197.3934,656.4782" fill="none" id="Manager-to-Issue&#36914;&#25431;&#29575;&#21442;&#29031;(&#20104;&#23455;&#24046;&#20998;)" style="stroke:#181818;stroke-width:1;"/><polygon fill="#181818" points="203.17,658.1,195.5863,651.8161,198.3561,656.7485,193.4238,659.5183,203.17,658.1" style="stroke:#181818;stroke-width:1;"/></g><!--link Manager to ??Issue??(????????)--><g class="link" data-entity-1="ent0003" data-entity-2="ent0012" data-link-type="dependency" data-source-line="47" id="lnk38"><path d="M90.27,604.14 C108.81,602.86 125.6844,601.696 148.7044,600.096" fill="none" id="Manager-to-&#12469;&#12502;Issue&#36861;&#21152;(&#20104;&#26399;&#12379;&#12396;&#20316;&#26989;&#21547;&#12416;)" style="stroke:#181818;stroke-width:1;"/><polygon fill="#181818" points="154.69,599.68,145.4343,596.3137,149.702,600.0267,145.989,604.2944,154.69,599.68" style="stroke:#181818;stroke-width:1;"/></g><!--link Manager to ??????(DoD)??--><g class="link" data-entity-1="ent0003" data-entity-2="ent0013" data-link-type="dependency" data-source-line="48" id="lnk39"><path d="M90.28,571.41 C101.35,563.16 113.68,555.04 126,549 C148.34,538.05 168.4818,531.3557 191.9018,525.4557" fill="none" id="Manager-to-&#21463;&#12369;&#20837;&#12428;&#26465;&#20214;(DoD)&#31649;&#29702;" style="stroke:#181818;stroke-width:1;"/><polygon fill="#181818" points="197.72,523.99,188.0155,522.3098,192.8715,525.2114,189.9698,530.0674,197.72,523.99" style="stroke:#181818;stroke-width:1;"/></g><!--link Manager to Issue?????????--><g class="link" data-entity-1="ent0003" data-entity-2="ent0014" data-link-type="dependency" data-source-line="49" id="lnk40"><path d="M79.39,568.35 C83.15,562.97 86.79,557.43 90,552 C109.64,518.79 96.6,497.99 126,473 C142.18,459.25 157.1142,452.019 177.6142,446.389" fill="none" id="Manager-to-Issue&#12395;&#12481;&#12540;&#12512;&#12434;&#12450;&#12469;&#12452;&#12531;" style="stroke:#181818;stroke-width:1;"/><polygon fill="#181818" points="183.4,444.8,173.662,443.3263,178.5785,446.1241,175.7807,451.0406,183.4,444.8" style="stroke:#181818;stroke-width:1;"/></g><!--link Manager to Issue??????????--><g class="link" data-entity-1="ent0003" data-entity-2="ent0015" data-link-type="dependency" data-source-line="50" id="lnk41"><path d="M80.86,568.28 C84.28,563.01 87.45,557.51 90,552 C119.9,487.43 76.84,447.45 126,396 C139.57,381.8 152.1125,374.4176 170.9525,368.5376" fill="none" id="Manager-to-Issue&#12395;&#12513;&#12531;&#12496;&#12540;&#12434;&#12450;&#12469;&#12452;&#12531;" style="stroke:#181818;stroke-width:1;"/><polygon fill="#181818" points="176.68,366.75,166.897,365.613,171.9071,368.2396,169.2804,373.2497,176.68,366.75" style="stroke:#181818;stroke-width:1;"/></g><!--link Manager to Issue?????--><g class="link" data-entity-1="ent0003" data-entity-2="ent0016" data-link-type="dependency" data-source-line="51" id="lnk42"><path d="M81.26,568.46 C84.62,563.16 87.66,557.6 90,552 C130.79,454.53 54.6,394.88 126,317 C143.96,297.41 165.2328,289.162 190.8628,285.132" fill="none" id="Manager-to-Issue&#12525;&#12540;&#12523;&#21106;&#24403;" style="stroke:#181818;stroke-width:1;"/><polygon fill="#181818" points="196.79,284.2,187.2779,281.6465,191.8507,284.9766,188.5206,289.5494,196.79,284.2" style="stroke:#181818;stroke-width:1;"/></g><!--link Manager to Issue????????--><g class="link" data-entity-1="ent0003" data-entity-2="ent0017" data-link-type="dependency" data-source-line="52" id="lnk43"><path d="M81.44,568.53 C84.77,563.22 87.75,557.64 90,552 C115.11,489.02 81.54,300.2 126,249 C140.39,232.43 155.4556,224.341 176.6956,218.931" fill="none" id="Manager-to-Issue&#12525;&#12540;&#12523;&#25285;&#24403;&#32773;&#26356;&#26032;" style="stroke:#181818;stroke-width:1;"/><polygon fill="#181818" points="182.51,217.45,172.8012,215.7952,177.6647,218.6841,174.7758,223.5477,182.51,217.45" style="stroke:#181818;stroke-width:1;"/></g><!--link Member to Issue????????--><g class="link" data-entity-1="ent0002" data-entity-2="ent0019" data-link-type="dependency" data-source-line="54" id="lnk44"><path d="M51.41,457.49 C57.75,368.42 77.85,151.82 126,100 C141.14,83.7 156.6901,75.6285 178.1701,70.0885" fill="none" id="Member-to-Issue&#12486;&#12531;&#12503;&#12524;&#12540;&#12488;&#20316;&#25104;" style="stroke:#181818;stroke-width:1;"/><polygon fill="#181818" points="183.98,68.59,174.2662,66.9644,179.1384,69.8387,176.2642,74.7109,183.98,68.59" style="stroke:#181818;stroke-width:1;"/></g><!--link Member to Issue????????--><g class="link" data-entity-1="ent0002" data-entity-2="ent0018" data-link-type="dependency" data-source-line="55" id="lnk45"><path d="M53.33,457.43 C62.66,381.21 86.99,215.21 126,175 C141.49,159.04 157.1516,151.0742 178.6216,145.5142" fill="none" id="Member-to-Issue&#12486;&#12531;&#12503;&#12524;&#12540;&#12488;&#21442;&#29031;" style="stroke:#181818;stroke-width:1;"/><polygon fill="#181818" points="184.43,144.01,174.7146,142.394,179.5897,145.2635,176.7202,150.1385,184.43,144.01" style="stroke:#181818;stroke-width:1;"/></g><!--link Manager to Issue????????--><g class="link" data-entity-1="ent0003" data-entity-2="ent0019" data-link-type="dependency" data-source-line="57" id="lnk46"><path d="M81.84,568.3 C85.06,563.07 87.9,557.57 90,552 C125.5,457.7 61.68,177.56 126,100 C140.2,82.88 155.4585,74.5421 176.9585,69.0221" fill="none" id="Manager-to-Issue&#12486;&#12531;&#12503;&#12524;&#12540;&#12488;&#20316;&#25104;" style="stroke:#181818;stroke-width:1;"/><polygon fill="#181818" points="182.77,67.53,173.058,65.8938,177.9271,68.7734,175.0474,73.6425,182.77,67.53" style="stroke:#181818;stroke-width:1;"/></g><!--link Manager to Issue????????--><g class="link" data-entity-1="ent0003" data-entity-2="ent0018" data-link-type="dependency" data-source-line="58" id="lnk47"><path d="M81.76,568.27 C84.99,563.04 87.86,557.56 90,552 C120.27,473.47 71.77,239.36 126,175 C140.33,157.99 155.6391,149.6946 177.1391,144.1646" fill="none" id="Manager-to-Issue&#12486;&#12531;&#12503;&#12524;&#12540;&#12488;&#21442;&#29031;" style="stroke:#181818;stroke-width:1;"/><polygon fill="#181818" points="182.95,142.67,173.2373,141.038,178.1076,143.9155,175.2301,148.7858,182.95,142.67" style="stroke:#181818;stroke-width:1;"/></g><!--link GitHub to ??????\n(??/??)--><g class="link" data-entity-1="ent0004" data-entity-2="ent0010" data-link-type="dependency" data-source-line="60" id="lnk48"><path d="M85.76,1022 C118.6,1022 161.33,1022 199.79,1022" fill="none" id="GitHub-to-&#20316;&#26989;&#12525;&#12464;&#35352;&#37682;\n(&#25163;&#21205;/&#33258;&#21205;)" style="stroke:#181818;stroke-width:1;"/><polygon fill="#181818" points="205.79,1022,196.79,1018,200.79,1022,196.79,1026,205.79,1022" style="stroke:#181818;stroke-width:1;"/></g><?plantuml-src bPNBJjj058RtynGZhy82zGswYaIxw1jqOr8tM09RYfrLLIcUKK8WNDnM9PMWXK1H4O48fNVQY8SvcKdo5lMbJWp7bsHbQ_xld3Cp_ozxNNjfKzka5RsyPjCNUaKhsRff4AAMRBD25U0Tu5-1ky3_AbIrw3DjOrMhpEHFm7Sz3TWlu6TJI3NKyenQqUqdrTL9xKowju4UBX3YJrEDyhf6bQUMLTLeqTnGTKEXhmYXj6ff9TMAjE7WI3PT1QsBVJQgVy7hyl2RFBZ1wy1-0sy4MxxptXCmVzBvDV1hO3VZYm-JdVvpeo2tMgBr_j5uyz9xBE6sarfVxhP7UvlXVWh3swRe7OkVFT5itCU1VGT-41IDxmPY-yHdvT4nE8VWN8N3XTi5LhjV9_RRuBmHzNDWE_9ZP_ZdHw5e5fT6lSx8RIZumi3f0dVyW_8JO6-1dVgJsMVFJoKPdbcTptktutVkYgs-6BpB06IhxW7ZMZswwGIq4Gnk0xyAQfffdc8oIWLvJKWOJRgy_FX1P90GzKT2j4SafAGcpiqL6zGu9pTnVg7Wn0jpaeCFcvMSP3eZEhZWONRI2HoU_v-M99UHChKPALF_a99cT1oSpsdKEi_gUC5YNiShyyp69yvqEndFiXjN8B_JaGJ3SJZIFW9pe54a4lUGsdSETjeu_BSj49H_?></g></svg>