<?plantuml 1.2026.2?><svg xmlns="http://www.w3.org/2000/svg" xmlns:xlink="http://www.w3.org/1999/xlink" contentStyleType="text/css" data-diagram-type="DESCRIPTION" height="994px" preserveAspectRatio="none" style="width:328px;height:994px;background:#FFFFFF;" version="1.1" viewBox="0 0 328 994" width="328px" zoomAndPan="magnify"><defs/><g><!--cluster Issue Domain--><g class="cluster" data-qualified-name="Issue Domain" data-source-line="7" id="ent0005"><rect fill="none" height="981" rx="2.5" ry="2.5" style="stroke:#181818;stroke-width:1;" width="207" x="115" y="7"/><text fill="#000000" font-family="sans-serif" font-size="14" font-weight="bold" lengthAdjust="spacing" textLength="106.251" x="165.3745" y="21.9951">Issue Domain</text></g><!--entity Issue??--><g class="entity" data-qualified-name="Issue Domain.Issue.." data-source-line="9" id="ent0006"><ellipse cx="218.4808" cy="57.0236" fill="#F1F1F1" rx="40.4808" ry="14.5236" style="stroke:#181818;stroke-width:0.5;"/><text fill="#000000" font-family="sans-serif" font-size="14" lengthAdjust="spacing" textLength="53.0059" x="191.9779" y="61.6721">Issue&#20316;&#25104;</text></g><!--entity Issue??--><g class="entity" data-qualified-name="Issue Domain.Issue.." data-source-line="10" id="ent0007"><ellipse cx="218.4808" cy="121.0236" fill="#F1F1F1" rx="40.4808" ry="14.5236" style="stroke:#181818;stroke-width:0.5;"/><text fill="#000000" font-family="sans-serif" font-size="14" lengthAdjust="spacing" textLength="53.0059" x="191.9779" y="125.6721">Issue&#21442;&#29031;</text></g><!--entity Issue??--><g class="entity" data-qualified-name="Issue Domain.Issue.." data-source-line="11" id="ent0008"><ellipse cx="218.4808" cy="185.0236" fill="#F1F1F1" rx="40.4808" ry="14.5236" style="stroke:#181818;stroke-width:0.5;"/><text fill="#000000" font-family="sans-serif" font-size="14" lengthAdjust="spacing" textLength="53.0059" x="191.9779" y="189.6721">Issue&#26356;&#26032;</text></g><!--entity Issue???????--><g class="entity" data-qualified-name="Issue Domain.Issue......." data-source-line="12" id="ent0009"><ellipse cx="218.5842" cy="250.0168" fill="#F1F1F1" rx="65.5842" ry="15.5168" style="stroke:#181818;stroke-width:0.5;"/><text fill="#000000" font-family="sans-serif" font-size="14" lengthAdjust="spacing" textLength="95.0127" x="171.0778" y="254.6653">Issue&#12473;&#12486;&#12540;&#12479;&#12473;&#26356;&#26032;</text></g><!--entity ??????\n(??/??)--><g class="entity" data-qualified-name="Issue Domain........n......." data-source-line="13" id="ent0010"><ellipse cx="218.4415" cy="945.9163" fill="#F1F1F1" rx="38.4415" ry="25.9163" style="stroke:#181818;stroke-width:0.5;"/><text fill="#000000" font-family="sans-serif" font-size="14" lengthAdjust="spacing" textLength="50.4082" x="193.2374" y="942.602">&#20316;&#26989;&#12525;&#12464;&#35352;&#37682;</text><text fill="#000000" font-family="sans-serif" font-size="14" lengthAdjust="spacing" textLength="49.2461" x="193.8185" y="958.8989">(&#25163;&#21205;/&#33258;&#21205;)</text></g><!--entity Issue?????(????)--><g class="entity" data-qualified-name="Issue Domain.Issue..........." data-source-line="14" id="ent0011"><ellipse cx="218.6625" cy="318.2325" fill="#F1F1F1" rx="76.6625" ry="17.7325" style="stroke:#181818;stroke-width:0.5;"/><text fill="#000000" font-family="sans-serif" font-size="14" lengthAdjust="spacing" textLength="122.7393" x="157.2928" y="322.8809">Issue&#36914;&#25431;&#29575;&#21442;&#29031;(&#20104;&#23455;&#24046;&#20998;)</text></g><!--entity ??Issue??(????????)--><g class="entity" data-qualified-name="Issue Domain...Issue............" data-source-line="15" id="ent0012"><ellipse cx="218.4496" cy="390.8899" fill="#F1F1F1" rx="87.4496" ry="19.8899" style="stroke:#181818;stroke-width:0.5;"/><text fill="#000000" font-family="sans-serif" font-size="14" lengthAdjust="spacing" textLength="147.9434" x="144.4779" y="395.5384">&#12469;&#12502;Issue&#36861;&#21152;(&#20104;&#26399;&#12379;&#12396;&#20316;&#26989;&#21547;&#12416;)</text></g><!--entity ??????(DoD)??--><g class="entity" data-qualified-name="Issue Domain........DoD..." data-source-line="16" id="ent0013"><ellipse cx="218.7497" cy="463.0499" fill="#F1F1F1" rx="70.7497" ry="16.5499" style="stroke:#181818;stroke-width:0.5;"/><text fill="#000000" font-family="sans-serif" font-size="14" lengthAdjust="spacing" textLength="108.2607" x="164.6193" y="467.6984">&#21463;&#12369;&#20837;&#12428;&#26465;&#20214;(DoD)&#31649;&#29702;</text></g><!--entity Issue?????????--><g class="entity" data-qualified-name="Issue Domain.Issue........." data-source-line="18" id="ent0014"><ellipse cx="218.678" cy="531.8356" fill="#F1F1F1" rx="72.178" ry="16.8356" style="stroke:#181818;stroke-width:0.5;"/><text fill="#000000" font-family="sans-serif" font-size="14" lengthAdjust="spacing" textLength="111.8154" x="162.7703" y="536.484">Issue&#12395;&#12481;&#12540;&#12512;&#12434;&#12450;&#12469;&#12452;&#12531;</text></g><!--entity Issue??????????--><g class="entity" data-qualified-name="Issue Domain.Issue.........." data-source-line="19" id="ent0015"><ellipse cx="218.615" cy="602.023" fill="#F1F1F1" rx="75.615" ry="17.523" style="stroke:#181818;stroke-width:0.5;"/><text fill="#000000" font-family="sans-serif" font-size="14" lengthAdjust="spacing" textLength="120.2168" x="158.5067" y="606.6714">Issue&#12395;&#12513;&#12531;&#12496;&#12540;&#12434;&#12450;&#12469;&#12452;&#12531;</text></g><!--entity Issue?????--><g class="entity" data-qualified-name="Issue Domain.Issue....." data-source-line="20" id="ent0016"><ellipse cx="218.3028" cy="669.0236" fill="#F1F1F1" rx="58.3028" ry="14.5236" style="stroke:#181818;stroke-width:0.5;"/><text fill="#000000" font-family="sans-serif" font-size="14" lengthAdjust="spacing" textLength="78.21" x="179.1978" y="673.6721">Issue&#12525;&#12540;&#12523;&#21106;&#24403;</text></g><!--entity Issue????????--><g class="entity" data-qualified-name="Issue Domain.Issue........" data-source-line="21" id="ent0017"><ellipse cx="218.3297" cy="735.1659" fill="#F1F1F1" rx="68.8297" ry="16.1659" style="stroke:#181818;stroke-width:0.5;"/><text fill="#000000" font-family="sans-serif" font-size="14" lengthAdjust="spacing" textLength="103.4141" x="166.6226" y="739.8144">Issue&#12525;&#12540;&#12523;&#25285;&#24403;&#32773;&#26356;&#26032;</text></g><!--entity Issue????????--><g class="entity" data-qualified-name="Issue Domain.Issue........" data-source-line="23" id="ent0018"><ellipse cx="218.3297" cy="802.1659" fill="#F1F1F1" rx="68.8297" ry="16.1659" style="stroke:#181818;stroke-width:0.5;"/><text fill="#000000" font-family="sans-serif" font-size="14" lengthAdjust="spacing" textLength="103.4141" x="166.6226" y="806.8144">Issue&#12486;&#12531;&#12503;&#12524;&#12540;&#12488;&#21442;&#29031;</text></g><!--entity Issue????????--><g class="entity" data-qualified-name="Issue Domain.Issue........" data-source-line="24" id="ent0019"><ellipse cx="218.3297" cy="869.1659" fill="#F1F1F1" rx="68.8297" ry="16.1659" style="stroke:#181818;stroke-width:0.5;"/><text fill="#000000" font-family="sans-serif" font-size="14" lengthAdjust="spacing" textLength="103.4141" x="166.6226" y="873.8144">Issue&#12486;&#12531;&#12503;&#12524;&#12540;&#12488;&#20316;&#25104;</text></g><!--entity Member--><g class="entity" data-qualified-name="Member" data-source-line="3" id="ent0002"><ellipse cx="38.3027" cy="412.5" fill="#F1F1F1" rx="8" ry="8" style="stroke:#181818;stroke-width:0.5;"/><path d="M38.3027,420.5 L38.3027,447.5 M25.3027,428.5 L51.3027,428.5 M38.3027,447.5 L25.3027,462.5 M38.3027,447.5 L51.3027,462.5" fill="none" style="stroke:#181818;stroke-width:0.5;"/><text fill="#000000" font-family="sans-serif" font-size="14" lengthAdjust="spacing" textLength="33.6055" x="21.5" y="476.9951">&#12513;&#12531;&#12496;&#12540;</text></g><!--entity Manager--><g class="entity" data-qualified-name="Manager" data-source-line="4" id="ent0003"><ellipse cx="38.7041" cy="523.5" fill="#F1F1F1" rx="8" ry="8" style="stroke:#181818;stroke-width:0.5;"/><path d="M38.7041,531.5 L38.7041,558.5 M25.7041,539.5 L51.7041,539.5 M38.7041,558.5 L25.7041,573.5 M38.7041,558.5 L51.7041,573.5" fill="none" style="stroke:#181818;stroke-width:0.5;"/><text fill="#000000" font-family="sans-serif" font-size="14" lengthAdjust="spacing" textLength="50.4082" x="13.5" y="587.9951">&#12510;&#12493;&#12540;&#12472;&#12515;&#12540;</text></g><!--entity GitHub--><g class="entity" data-qualified-name="GitHub" data-source-line="5" id="ent0004"><ellipse cx="38.6587" cy="916.5" fill="#F1F1F1" rx="8" ry="8" style="stroke:#181818;stroke-width:0.5;"/><path d="M38.6587,924.5 L38.6587,951.5 M25.6587,932.5 L51.6587,932.5 M38.6587,951.5 L25.6587,966.5 M38.6587,951.5 L51.6587,966.5" fill="none" style="stroke:#181818;stroke-width:0.5;"/><text fill="#000000" font-family="sans-serif" font-size="14" lengthAdjust="spacing" textLength="65.3174" x="6" y="980.9951">GitHub&#36899;&#25658;</text></g><!--link Member to Issue??--><g class="link" data-entity-1="ent0002" data-entity-2="ent0006" data-link-type="dependency" data-source-line="28" id="lnk20"><path d="M41.85,403.81 C47.64,322.27 65.24,134.83 107,89 C124.96,69.29 148.287,62.1897 172.187,59.1797" fill="none" id="Member-to-Issue&#20316;&#25104;" style="stroke:#181818;stroke-width:1;"/><polygon fill="#181818" points="178.14,58.43,168.7107,55.5859,173.1792,59.0548,169.7104,63.5232,178.14,58.43" style="stroke:#181818;stroke-width:1;"/></g><!--link Member to Issue??--><g class="link" data-entity-1="ent0002" data-entity-2="ent0007" data-link-type="dependency" data-source-line="29" id="lnk21"><path d="M43.63,403.84 C51.95,333.88 72.91,188.93 107,153 C125.28,133.73 148.4514,126.634 172.2014,123.504" fill="none" id="Member-to-Issue&#21442;&#29031;" style="stroke:#181818;stroke-width:1;"/><polygon fill="#181818" points="178.15,122.72,168.7045,119.9302,173.1929,123.3733,169.7498,127.8616,178.15,122.72" style="stroke:#181818;stroke-width:1;"/></g><!--link Member to Issue??--><g class="link" data-entity-1="ent0002" data-entity-2="ent0008" data-link-type="dependency" data-source-line="30" id="lnk22"><path d="M40.27,403.76 C43.37,353.92 56.29,267.22 107,217 C125.8,198.38 148.7984,191.2951 172.3484,187.9851" fill="none" id="Member-to-Issue&#26356;&#26032;" style="stroke:#181818;stroke-width:1;"/><polygon fill="#181818" points="178.29,187.15,168.8209,184.4416,173.3387,187.8459,169.9343,192.3637,178.29,187.15" style="stroke:#181818;stroke-width:1;"/></g><!--link Member to Issue???????--><g class="link" data-entity-1="ent0002" data-entity-2="ent0009" data-link-type="dependency" data-source-line="31" id="lnk23"><path d="M46.08,403.83 C54.25,367.75 71.68,314.59 107,283 C121.7,269.85 135.6356,263.4208 154.3656,258.6508" fill="none" id="Member-to-Issue&#12473;&#12486;&#12540;&#12479;&#12473;&#26356;&#26032;" style="stroke:#181818;stroke-width:1;"/><polygon fill="#181818" points="160.18,257.17,150.4712,255.5149,155.3347,258.404,152.4456,263.2674,160.18,257.17" style="stroke:#181818;stroke-width:1;"/></g><!--link Member to ??????\n(??/??)--><g class="link" data-entity-1="ent0002" data-entity-2="ent0010" data-link-type="dependency" data-source-line="32" id="lnk24"><path d="M55.5,464.79 C61.39,474.32 67.47,485.77 71,497 C98.08,583.2 53.02,829.54 107,902 C124.21,925.1 149.5977,934.8589 174.4977,940.0789" fill="none" id="Member-to-&#20316;&#26989;&#12525;&#12464;&#35352;&#37682;\n(&#25163;&#21205;/&#33258;&#21205;)" style="stroke:#181818;stroke-width:1;"/><polygon fill="#181818" points="180.37,941.31,172.3822,935.5485,175.4764,940.2841,170.7408,943.3783,180.37,941.31" style="stroke:#181818;stroke-width:1;"/></g><!--link Member to Issue?????(????)--><g class="link" data-entity-1="ent0002" data-entity-2="ent0011" data-link-type="dependency" data-source-line="33" id="lnk25"><path d="M55.62,412.11 C67.48,392.73 85.29,368.31 107,353 C122.46,342.1 135.7053,336.1781 153.5653,330.9081" fill="none" id="Member-to-Issue&#36914;&#25431;&#29575;&#21442;&#29031;(&#20104;&#23455;&#24046;&#20998;)" style="stroke:#181818;stroke-width:1;"/><polygon fill="#181818" points="159.32,329.21,149.5559,327.9206,154.5244,330.625,151.82,335.5936,159.32,329.21" style="stroke:#181818;stroke-width:1;"/></g><!--link Member to ??Issue??(????????)--><g class="link" data-entity-1="ent0002" data-entity-2="ent0012" data-link-type="dependency" data-source-line="34" id="lnk26"><path d="M55.61,437.38 C79.66,430.49 120.3022,418.8529 157.2922,408.2529" fill="none" id="Member-to-&#12469;&#12502;Issue&#36861;&#21152;(&#20104;&#26399;&#12379;&#12396;&#20316;&#26989;&#21547;&#12416;)" style="stroke:#181818;stroke-width:1;"/><polygon fill="#181818" points="163.06,406.6,153.3063,405.2341,158.2535,407.9774,155.5101,412.9245,163.06,406.6" style="stroke:#181818;stroke-width:1;"/></g><!--link Member to ??????(DoD)??--><g class="link" data-entity-1="ent0002" data-entity-2="ent0013" data-link-type="dependency" data-source-line="35" id="lnk27"><path d="M55.61,443.9 C77.95,446.54 113.6213,450.7474 149.0713,454.9274" fill="none" id="Member-to-&#21463;&#12369;&#20837;&#12428;&#26465;&#20214;(DoD)&#31649;&#29702;" style="stroke:#181818;stroke-width:1;"/><polygon fill="#181818" points="155.03,455.63,146.5603,450.6036,150.0644,455.0445,145.6235,458.5486,155.03,455.63" style="stroke:#181818;stroke-width:1;"/></g><!--link Member to Issue?????????--><g class="link" data-entity-1="ent0002" data-entity-2="ent0014" data-link-type="dependency" data-source-line="36" id="lnk28"><path d="M55.69,458.18 C68.62,470.32 87.71,486.58 107,497 C125.41,506.95 141.3352,512.9267 160.6052,518.4867" fill="none" id="Member-to-Issue&#12395;&#12481;&#12540;&#12512;&#12434;&#12450;&#12469;&#12452;&#12531;" style="stroke:#181818;stroke-width:1;"/><polygon fill="#181818" points="166.37,520.15,158.8316,513.8118,161.566,518.7639,156.6139,521.4982,166.37,520.15" style="stroke:#181818;stroke-width:1;"/></g><!--link Member to Issue??????????--><g class="link" data-entity-1="ent0002" data-entity-2="ent0015" data-link-type="dependency" data-source-line="37" id="lnk29"><path d="M55.58,469.58 C60.59,478.31 66.09,488.02 71,497 C87.6,527.35 80.6,543.65 107,566 C121.32,578.12 134.0762,584.4555 151.8262,589.8155" fill="none" id="Member-to-Issue&#12395;&#12513;&#12531;&#12496;&#12540;&#12434;&#12450;&#12469;&#12452;&#12531;" style="stroke:#181818;stroke-width:1;"/><polygon fill="#181818" points="157.57,591.55,150.1106,585.1191,152.7835,590.1046,147.7979,592.7775,157.57,591.55" style="stroke:#181818;stroke-width:1;"/></g><!--link Member to Issue?????--><g class="link" data-entity-1="ent0002" data-entity-2="ent0016" data-link-type="dependency" data-source-line="38" id="lnk30"><path d="M55.56,466.75 C61.03,475.97 66.82,486.7 71,497 C95.18,556.52 62.26,590.89 107,637 C121.6,652.05 136.9548,658.8752 156.8948,663.1752" fill="none" id="Member-to-Issue&#12525;&#12540;&#12523;&#21106;&#24403;" style="stroke:#181818;stroke-width:1;"/><polygon fill="#181818" points="162.76,664.44,154.8054,658.6327,157.8724,663.386,153.119,666.4529,162.76,664.44" style="stroke:#181818;stroke-width:1;"/></g><!--link Member to Issue????????--><g class="link" data-entity-1="ent0002" data-entity-2="ent0017" data-link-type="dependency" data-source-line="39" id="lnk31"><path d="M55.51,465.76 C61.17,475.15 67.1,486.24 71,497 C102.34,583.57 46.05,632 107,701 C119.42,715.07 131.7224,721.8078 149.6824,726.7178" fill="none" id="Member-to-Issue&#12525;&#12540;&#12523;&#25285;&#24403;&#32773;&#26356;&#26032;" style="stroke:#181818;stroke-width:1;"/><polygon fill="#181818" points="155.47,728.3,147.8434,722.0682,150.647,726.9815,145.7337,729.785,155.47,728.3" style="stroke:#181818;stroke-width:1;"/></g><!--link Manager to Issue??--><g class="link" data-entity-1="ent0003" data-entity-2="ent0006" data-link-type="dependency" data-source-line="41" id="lnk32"><path d="M63.6,515.1 C66.52,509.22 69.12,503.07 71,497 C97.92,410.05 49.17,159.29 107,89 C124.07,68.26 147.7373,61.1477 172.0273,58.4277" fill="none" id="Manager-to-Issue&#20316;&#25104;" style="stroke:#181818;stroke-width:1;"/><polygon fill="#181818" points="177.99,57.76,168.6008,54.7864,173.0211,58.3164,169.491,62.7367,177.99,57.76" style="stroke:#181818;stroke-width:1;"/></g><!--link Manager to Issue??--><g class="link" data-entity-1="ent0003" data-entity-2="ent0007" data-link-type="dependency" data-source-line="42" id="lnk33"><path d="M63.51,515.07 C66.44,509.2 69.07,503.06 71,497 C94.33,423.76 57.68,211.96 107,153 C124.17,132.47 147.6792,125.355 171.8692,122.575" fill="none" id="Manager-to-Issue&#21442;&#29031;" style="stroke:#181818;stroke-width:1;"/><polygon fill="#181818" points="177.83,121.89,168.4322,118.9437,172.8627,122.4609,169.3455,126.8914,177.83,121.89" style="stroke:#181818;stroke-width:1;"/></g><!--link Manager to Issue??--><g class="link" data-entity-1="ent0003" data-entity-2="ent0008" data-link-type="dependency" data-source-line="43" id="lnk34"><path d="M63.54,514.72 C66.42,508.94 69.03,502.93 71,497 C90.74,437.45 66.18,264.64 107,217 C124.41,196.68 147.9108,189.5589 172.0408,186.7289" fill="none" id="Manager-to-Issue&#26356;&#26032;" style="stroke:#181818;stroke-width:1;"/><polygon fill="#181818" points="178,186.03,168.5953,183.1056,173.034,186.6124,169.5272,191.0511,178,186.03" style="stroke:#181818;stroke-width:1;"/></g><!--link Manager to Issue???????--><g class="link" data-entity-1="ent0003" data-entity-2="ent0009" data-link-type="dependency" data-source-line="44" id="lnk35"><path d="M63.17,514.96 C66.15,509.1 68.88,503 71,497 C103.12,406.06 43.14,355.28 107,283 C119.79,268.52 132.8214,261.7341 151.3414,257.0741" fill="none" id="Manager-to-Issue&#12473;&#12486;&#12540;&#12479;&#12473;&#26356;&#26032;" style="stroke:#181818;stroke-width:1;"/><polygon fill="#181818" points="157.16,255.61,147.456,253.927,152.3111,256.8301,149.4081,261.6852,157.16,255.61" style="stroke:#181818;stroke-width:1;"/></g><!--link Manager to ??????\n(??/??)--><g class="link" data-entity-1="ent0003" data-entity-2="ent0010" data-link-type="dependency" data-source-line="45" id="lnk36"><path d="M42.3,591.07 C48.92,671.44 67.99,854.88 107,902 C125.24,924.03 150.227,933.7802 174.707,939.3002" fill="none" id="Manager-to-&#20316;&#26989;&#12525;&#12464;&#35352;&#37682;\n(&#25163;&#21205;/&#33258;&#21205;)" style="stroke:#181818;stroke-width:1;"/><polygon fill="#181818" points="180.56,940.62,172.6603,934.7383,175.6825,939.5202,170.9006,942.5423,180.56,940.62" style="stroke:#181818;stroke-width:1;"/></g><!--link Manager to Issue?????(????)--><g class="link" data-entity-1="ent0003" data-entity-2="ent0011" data-link-type="dependency" data-source-line="46" id="lnk37"><path d="M62.75,514.8 C65.78,508.96 68.65,502.91 71,497 C95.39,435.7 61.82,401.07 107,353 C118.99,340.24 129.8593,333.8975 146.5593,328.7175" fill="none" id="Manager-to-Issue&#36914;&#25431;&#29575;&#21442;&#29031;(&#20104;&#23455;&#24046;&#20998;)" style="stroke:#181818;stroke-width:1;"/><polygon fill="#181818" points="152.29,326.94,142.509,325.7859,147.5145,328.4213,144.879,333.4267,152.29,326.94" style="stroke:#181818;stroke-width:1;"/></g><!--link Manager to ??Issue??(????????)--><g class="link" data-entity-1="ent0003" data-entity-2="ent0012" data-link-type="dependency" data-source-line="47" id="lnk38"><path d="M61.15,514.82 C64.47,508.87 67.85,502.78 71,497 C87.38,466.98 81.01,451.23 107,429 C120.03,417.86 130.8207,411.8943 147.0407,406.2743" fill="none" id="Manager-to-&#12469;&#12502;Issue&#36861;&#21152;(&#20104;&#26399;&#12379;&#12396;&#20316;&#26989;&#21547;&#12416;)" style="stroke:#181818;stroke-width:1;"/><polygon fill="#181818" points="152.71,404.31,142.8964,403.477,147.9856,405.947,145.5156,411.0361,152.71,404.31" style="stroke:#181818;stroke-width:1;"/></g><!--link Manager to ??????(DoD)??--><g class="link" data-entity-1="ent0003" data-entity-2="ent0013" data-link-type="dependency" data-source-line="48" id="lnk39"><path d="M63.73,528.89 C75.88,517.9 91.33,505.47 107,497 C125.36,487.07 141.2602,481.2107 160.5302,475.8407" fill="none" id="Manager-to-&#21463;&#12369;&#20837;&#12428;&#26465;&#20214;(DoD)&#31649;&#29702;" style="stroke:#181818;stroke-width:1;"/><polygon fill="#181818" points="166.31,474.23,156.5666,472.7928,161.4935,475.5722,158.7141,480.4992,166.31,474.23" style="stroke:#181818;stroke-width:1;"/></g><!--link Manager to Issue?????????--><g class="link" data-entity-1="ent0003" data-entity-2="ent0014" data-link-type="dependency" data-source-line="49" id="lnk40"><path d="M63.51,550.17 C86.57,547.45 116.4614,543.9239 147.7814,540.2239" fill="none" id="Manager-to-Issue&#12395;&#12481;&#12540;&#12512;&#12434;&#12450;&#12469;&#12452;&#12531;" style="stroke:#181818;stroke-width:1;"/><polygon fill="#181818" points="153.74,539.52,144.3329,536.6035,148.7745,540.1066,145.2714,544.5483,153.74,539.52" style="stroke:#181818;stroke-width:1;"/></g><!--link Manager to Issue??????????--><g class="link" data-entity-1="ent0003" data-entity-2="ent0015" data-link-type="dependency" data-source-line="50" id="lnk41"><path d="M63.51,559.61 C90.46,567.03 129.1051,577.668 163.3351,587.088" fill="none" id="Manager-to-Issue&#12395;&#12513;&#12531;&#12496;&#12540;&#12434;&#12450;&#12469;&#12452;&#12531;" style="stroke:#181818;stroke-width:1;"/><polygon fill="#181818" points="169.12,588.68,161.5039,582.4354,164.2992,587.3533,159.3813,590.1486,169.12,588.68" style="stroke:#181818;stroke-width:1;"/></g><!--link Manager to Issue?????--><g class="link" data-entity-1="ent0003" data-entity-2="ent0016" data-link-type="dependency" data-source-line="51" id="lnk42"><path d="M62.69,591.37 C74.2,607.54 89.41,625.28 107,637 C125.2,649.13 142.2083,655.3708 162.3883,660.1008" fill="none" id="Manager-to-Issue&#12525;&#12540;&#12523;&#21106;&#24403;" style="stroke:#181818;stroke-width:1;"/><polygon fill="#181818" points="168.23,661.47,160.3803,655.5217,163.3619,660.329,158.5547,663.3106,168.23,661.47" style="stroke:#181818;stroke-width:1;"/></g><!--link Manager to Issue????????--><g class="link" data-entity-1="ent0003" data-entity-2="ent0017" data-link-type="dependency" data-source-line="52" id="lnk43"><path d="M47.55,591.09 C56.53,624.57 74.32,672.3 107,701 C121.55,713.78 135.049,720.1901 153.419,725.1701" fill="none" id="Manager-to-Issue&#12525;&#12540;&#12523;&#25285;&#24403;&#32773;&#26356;&#26032;" style="stroke:#181818;stroke-width:1;"/><polygon fill="#181818" points="159.21,726.74,151.5701,720.5245,154.3842,725.4317,149.4769,728.2458,159.21,726.74" style="stroke:#181818;stroke-width:1;"/></g><!--link Member to Issue????????--><g class="link" data-entity-1="ent0002" data-entity-2="ent0019" data-link-type="dependency" data-source-line="54" id="lnk44"><path d="M55.57,465.09 C61.39,474.57 67.41,485.9 71,497 C94.27,568.86 58.97,776.7 107,835 C118.93,849.48 131.0993,856.3492 149.0893,861.2292" fill="none" id="Member-to-Issue&#12486;&#12531;&#12503;&#12524;&#12540;&#12488;&#20316;&#25104;" style="stroke:#181818;stroke-width:1;"/><polygon fill="#181818" points="154.88,862.8,147.2411,856.5833,150.0544,861.491,145.1467,864.3043,154.88,862.8" style="stroke:#181818;stroke-width:1;"/></g><!--link Member to Issue????????--><g class="link" data-entity-1="ent0002" data-entity-2="ent0018" data-link-type="dependency" data-source-line="55" id="lnk45"><path d="M55.59,465.41 C61.33,474.84 67.3,486.05 71,497 C109.92,612.1 28.52,675.24 107,768 C119.12,782.33 131.3403,789.1454 149.3203,794.0354" fill="none" id="Member-to-Issue&#12486;&#12531;&#12503;&#12524;&#12540;&#12488;&#21442;&#29031;" style="stroke:#181818;stroke-width:1;"/><polygon fill="#181818" points="155.11,795.61,147.4752,789.3883,150.2853,794.2978,145.3757,797.1079,155.11,795.61" style="stroke:#181818;stroke-width:1;"/></g><!--link Manager to Issue????????--><g class="link" data-entity-1="ent0003" data-entity-2="ent0019" data-link-type="dependency" data-source-line="57" id="lnk46"><path d="M43.95,591.26 C52.66,659.85 74.06,799.9 107,835 C119.91,848.76 132.451,855.4227 150.471,860.3327" fill="none" id="Manager-to-Issue&#12486;&#12531;&#12503;&#12524;&#12540;&#12488;&#20316;&#25104;" style="stroke:#181818;stroke-width:1;"/><polygon fill="#181818" points="156.26,861.91,148.6281,855.6847,151.4359,860.5955,146.525,863.4033,156.26,861.91" style="stroke:#181818;stroke-width:1;"/></g><!--link Manager to Issue????????--><g class="link" data-entity-1="ent0003" data-entity-2="ent0018" data-link-type="dependency" data-source-line="58" id="lnk47"><path d="M41.05,591.1 C45.05,638.87 59,720.28 107,768 C120.52,781.44 133.4291,788.0197 151.6091,792.9497" fill="none" id="Manager-to-Issue&#12486;&#12531;&#12503;&#12524;&#12540;&#12488;&#21442;&#29031;" style="stroke:#181818;stroke-width:1;"/><polygon fill="#181818" points="157.4,794.52,149.7606,788.3039,152.5743,793.2114,147.6668,796.025,157.4,794.52" style="stroke:#181818;stroke-width:1;"/></g><!--link GitHub to ??????\n(??/??)--><g class="link" data-entity-1="ent0004" data-entity-2="ent0010" data-link-type="dependency" data-source-line="60" id="lnk48"><path d="M71.32,946 C101.72,946 141.56,946 173.78,946" fill="none" id="GitHub-to-&#20316;&#26989;&#12525;&#12464;&#35352;&#37682;\n(&#25163;&#21205;/&#33258;&#21205;)" style="stroke:#181818;stroke-width:1;"/><polygon fill="#181818" points="179.78,946,170.78,942,174.78,946,170.78,950,179.78,946" style="stroke:#181818;stroke-width:1;"/></g><?plantuml-src bPNBJjj058RtynGZhy82zGswYaIxw1jqOr8tM09RYfrLLIcUKK8WNDnM9PMWXK1H4O48fNVQY8SvcKdo5lMbJWp7bsHbQ_xld3Cp_ozxNNjfKzka5RsyPjCNUaKhsRff4AAMRBD25U0Tu5-1ky3_AbIrw3DjOrMhpEHFm7Sz3TWlu6TJI3NKyenQqUqdrTL9xKowju4UBX3YJrEDyhf6bQUMLTLeqTnGTKEXhmYXj6ff9TMAjE7WI3PT1QsBVJQgVy7hyl2RFBZ1wy1-0sy4MxxptXCmVzBvDV1hO3VZYm-JdVvpeo2tMgBr_j5uyz9xBE6sarfVxhP7UvlXVWh3swRe7OkVFT5itCU1VGT-41IDxmPY-yHdvT4nE8VWN8N3XTi5LhjV9_RRuBmHzNDWE_9ZP_ZdHw5e5fT6lSx8RIZumi3f0dVyW_8JO6-1dVgJsMVFJoKPdbcTptktutVkYgs-6BpB06IhxW7ZMZswwGIq4Gnk0xyAQfffdc8oIWLvJKWOJRgy_FX1P90GzKT2j4SafAGcpiqL6zGu9pTnVg7Wn0jpaeCFcvMSP3eZEhZWONRI2HoU_v-M99UHChKPALF_a99cT1oSpsdKEi_gUC5YNiShyyp69yvqEndFiXjN8B_JaGJ3SJZIFW9pe54a4lUGsdSETjeu_BSj49H_?></g></svg>