<?plantuml 1.2026.2?><svg xmlns="http://www.w3.org/2000/svg" xmlns:xlink="http://www.w3.org/1999/xlink" contentStyleType="text/css" data-diagram-type="DESCRIPTION" height="990px" preserveAspectRatio="none" style="width:328px;height:990px;background:#FFFFFF;" version="1.1" viewBox="0 0 328 990" width="328px" zoomAndPan="magnify"><defs/><g><!--cluster Issue Domain--><g class="cluster" data-qualified-name="Issue Domain" data-source-line="7" id="ent0005"><rect fill="none" height="977" rx="2.5" ry="2.5" style="stroke:#181818;stroke-width:1;" width="206.9" x="115.32" y="7"/><text fill="#000000" font-family="sans-serif" font-size="14" font-weight="bold" lengthAdjust="spacing" textLength="106.251" x="165.6445" y="21.9951">Issue Domain</text></g><!--entity Issue??--><g class="entity" data-qualified-name="Issue Domain.Issue.." data-source-line="9" id="ent0006"><ellipse cx="218.7708" cy="867.0036" fill="#F1F1F1" rx="40.4808" ry="14.5236" style="stroke:#181818;stroke-width:0.5;"/><text fill="#000000" font-family="sans-serif" font-size="14" lengthAdjust="spacing" textLength="53.0059" x="192.2679" y="871.6521">Issue&#20316;&#25104;</text></g><!--entity Issue??--><g class="entity" data-qualified-name="Issue Domain.Issue.." data-source-line="10" id="ent0007"><ellipse cx="218.7708" cy="803.0036" fill="#F1F1F1" rx="40.4808" ry="14.5236" style="stroke:#181818;stroke-width:0.5;"/><text fill="#000000" font-family="sans-serif" font-size="14" lengthAdjust="spacing" textLength="53.0059" x="192.2679" y="807.6521">Issue&#21442;&#29031;</text></g><!--entity Issue??--><g class="entity" data-qualified-name="Issue Domain.Issue.." data-source-line="11" id="ent0008"><ellipse cx="218.7708" cy="739.0036" fill="#F1F1F1" rx="40.4808" ry="14.5236" style="stroke:#181818;stroke-width:0.5;"/><text fill="#000000" font-family="sans-serif" font-size="14" lengthAdjust="spacing" textLength="53.0059" x="192.2679" y="743.6521">Issue&#26356;&#26032;</text></g><!--entity Issue???????--><g class="entity" data-qualified-name="Issue Domain.Issue......." data-source-line="12" id="ent0009"><ellipse cx="218.7742" cy="673.9968" fill="#F1F1F1" rx="65.5842" ry="15.5168" style="stroke:#181818;stroke-width:0.5;"/><text fill="#000000" font-family="sans-serif" font-size="14" lengthAdjust="spacing" textLength="95.0127" x="171.2678" y="678.6453">Issue&#12473;&#12486;&#12540;&#12479;&#12473;&#26356;&#26032;</text></g><!--entity ??????\n(??/??)--><g class="entity" data-qualified-name="Issue Domain........n......." data-source-line="13" id="ent0010"><ellipse cx="218.7715" cy="941.9963" fill="#F1F1F1" rx="38.4415" ry="25.9163" style="stroke:#181818;stroke-width:0.5;"/><text fill="#000000" font-family="sans-serif" font-size="14" lengthAdjust="spacing" textLength="50.4082" x="193.5674" y="938.682">&#20316;&#26989;&#12525;&#12464;&#35352;&#37682;</text><text fill="#000000" font-family="sans-serif" font-size="14" lengthAdjust="spacing" textLength="49.2461" x="194.1485" y="954.9789">(&#25163;&#21205;/&#33258;&#21205;)</text></g><!--entity Issue?????(????)--><g class="entity" data-qualified-name="Issue Domain.Issue..........." data-source-line="14" id="ent0011"><ellipse cx="218.7725" cy="606.0025" fill="#F1F1F1" rx="76.6625" ry="17.7325" style="stroke:#181818;stroke-width:0.5;"/><text fill="#000000" font-family="sans-serif" font-size="14" lengthAdjust="spacing" textLength="122.7393" x="157.4028" y="610.6509">Issue&#36914;&#25431;&#29575;&#21442;&#29031;(&#20104;&#23455;&#24046;&#20998;)</text></g><!--entity ??Issue??(????????)--><g class="entity" data-qualified-name="Issue Domain...Issue............" data-source-line="15" id="ent0012"><ellipse cx="218.7696" cy="532.9999" fill="#F1F1F1" rx="87.4496" ry="19.8899" style="stroke:#181818;stroke-width:0.5;"/><text fill="#000000" font-family="sans-serif" font-size="14" lengthAdjust="spacing" textLength="147.9434" x="144.7979" y="537.6484">&#12469;&#12502;Issue&#36861;&#21152;(&#20104;&#26399;&#12379;&#12396;&#20316;&#26989;&#21547;&#12416;)</text></g><!--entity ??????(DoD)??--><g class="entity" data-qualified-name="Issue Domain........DoD..." data-source-line="16" id="ent0013"><ellipse cx="218.7697" cy="461.9999" fill="#F1F1F1" rx="70.7497" ry="16.5499" style="stroke:#181818;stroke-width:0.5;"/><text fill="#000000" font-family="sans-serif" font-size="14" lengthAdjust="spacing" textLength="108.2607" x="164.6393" y="466.6484">&#21463;&#12369;&#20837;&#12428;&#26465;&#20214;(DoD)&#31649;&#29702;</text></g><!--entity Issue?????????--><g class="entity" data-qualified-name="Issue Domain.Issue........." data-source-line="18" id="ent0014"><ellipse cx="218.768" cy="393.9956" fill="#F1F1F1" rx="72.178" ry="16.8356" style="stroke:#181818;stroke-width:0.5;"/><text fill="#000000" font-family="sans-serif" font-size="14" lengthAdjust="spacing" textLength="111.8154" x="162.8603" y="398.644">Issue&#12395;&#12481;&#12540;&#12512;&#12434;&#12450;&#12469;&#12452;&#12531;</text></g><!--entity Issue??????????--><g class="entity" data-qualified-name="Issue Domain.Issue.........." data-source-line="19" id="ent0015"><ellipse cx="218.765" cy="325.003" fill="#F1F1F1" rx="75.615" ry="17.523" style="stroke:#181818;stroke-width:0.5;"/><text fill="#000000" font-family="sans-serif" font-size="14" lengthAdjust="spacing" textLength="120.2168" x="158.6567" y="329.6514">Issue&#12395;&#12513;&#12531;&#12496;&#12540;&#12434;&#12450;&#12469;&#12452;&#12531;</text></g><!--entity Issue?????--><g class="entity" data-qualified-name="Issue Domain.Issue....." data-source-line="20" id="ent0016"><ellipse cx="218.7728" cy="258.0036" fill="#F1F1F1" rx="58.3028" ry="14.5236" style="stroke:#181818;stroke-width:0.5;"/><text fill="#000000" font-family="sans-serif" font-size="14" lengthAdjust="spacing" textLength="78.21" x="179.6678" y="262.6521">Issue&#12525;&#12540;&#12523;&#21106;&#24403;</text></g><!--entity Issue????????--><g class="entity" data-qualified-name="Issue Domain.Issue........" data-source-line="21" id="ent0017"><ellipse cx="218.7697" cy="191.9959" fill="#F1F1F1" rx="68.8297" ry="16.1659" style="stroke:#181818;stroke-width:0.5;"/><text fill="#000000" font-family="sans-serif" font-size="14" lengthAdjust="spacing" textLength="103.4141" x="167.0626" y="196.6444">Issue&#12525;&#12540;&#12523;&#25285;&#24403;&#32773;&#26356;&#26032;</text></g><!--entity Issue????????--><g class="entity" data-qualified-name="Issue Domain.Issue........" data-source-line="23" id="ent0018"><ellipse cx="218.7697" cy="124.9959" fill="#F1F1F1" rx="68.8297" ry="16.1659" style="stroke:#181818;stroke-width:0.5;"/><text fill="#000000" font-family="sans-serif" font-size="14" lengthAdjust="spacing" textLength="103.4141" x="167.0626" y="129.6444">Issue&#12486;&#12531;&#12503;&#12524;&#12540;&#12488;&#21442;&#29031;</text></g><!--entity Issue????????--><g class="entity" data-qualified-name="Issue Domain.Issue........" data-source-line="24" id="ent0019"><ellipse cx="218.7697" cy="57.9959" fill="#F1F1F1" rx="68.8297" ry="16.1659" style="stroke:#181818;stroke-width:0.5;"/><text fill="#000000" font-family="sans-serif" font-size="14" lengthAdjust="spacing" textLength="103.4141" x="167.0626" y="62.6444">Issue&#12486;&#12531;&#12503;&#12524;&#12540;&#12488;&#20316;&#25104;</text></g><!--entity Member--><g class="entity" data-qualified-name="Member" data-source-line="3" id="ent0002"><ellipse cx="38.6627" cy="412.35" fill="#F1F1F1" rx="8" ry="8" style="stroke:#181818;stroke-width:0.5;"/><path d="M38.6627,420.35 L38.6627,447.35 M25.6627,428.35 L51.6627,428.35 M38.6627,447.35 L25.6627,462.35 M38.6627,447.35 L51.6627,462.35" fill="none" style="stroke:#181818;stroke-width:0.5;"/><text fill="#000000" font-family="sans-serif" font-size="14" lengthAdjust="spacing" textLength="33.6055" x="21.86" y="476.8451">&#12513;&#12531;&#12496;&#12540;</text></g><!--entity Manager--><g class="entity" data-qualified-name="Manager" data-source-line="4" id="ent0003"><ellipse cx="38.6541" cy="523.35" fill="#F1F1F1" rx="8" ry="8" style="stroke:#181818;stroke-width:0.5;"/><path d="M38.6541,531.35 L38.6541,558.35 M25.6541,539.35 L51.6541,539.35 M38.6541,558.35 L25.6541,573.35 M38.6541,558.35 L51.6541,573.35" fill="none" style="stroke:#181818;stroke-width:0.5;"/><text fill="#000000" font-family="sans-serif" font-size="14" lengthAdjust="spacing" textLength="50.4082" x="13.45" y="587.8451">&#12510;&#12493;&#12540;&#12472;&#12515;&#12540;</text></g><!--entity GitHub--><g class="entity" data-qualified-name="GitHub" data-source-line="5" id="ent0004"><ellipse cx="38.6587" cy="912.35" fill="#F1F1F1" rx="8" ry="8" style="stroke:#181818;stroke-width:0.5;"/><path d="M38.6587,920.35 L38.6587,947.35 M25.6587,928.35 L51.6587,928.35 M38.6587,947.35 L25.6587,962.35 M38.6587,947.35 L51.6587,962.35" fill="none" style="stroke:#181818;stroke-width:0.5;"/><text fill="#000000" font-family="sans-serif" font-size="14" lengthAdjust="spacing" textLength="65.3174" x="6" y="976.8451">GitHub&#36899;&#25658;</text></g><!--link Member to Issue??--><g class="link" data-entity-1="ent0002" data-entity-2="ent0006" data-link-type="dependency" data-source-line="28" id="lnk20"><path d="M55.81,465.08 C61.66,474.55 67.71,485.89 71.32,497 C94.66,568.84 58.8,777.1 107.32,835 C124.5,855.5 147.9993,862.6244 172.1693,865.4044" fill="none" id="Member-to-Issue&#20316;&#25104;" style="stroke:#181818;stroke-width:1;"/><polygon fill="#181818" points="178.13,866.09,169.646,861.0878,173.1627,865.5187,168.7319,869.0354,178.13,866.09" style="stroke:#181818;stroke-width:1;"/></g><!--link Member to Issue??--><g class="link" data-entity-1="ent0002" data-entity-2="ent0007" data-link-type="dependency" data-source-line="29" id="lnk21"><path d="M55.84,465.4 C61.61,474.82 67.61,486.04 71.32,497 C91.01,555.17 67.3,724.42 107.32,771 C124.68,791.22 148.0122,798.3393 172.0722,801.2093" fill="none" id="Member-to-Issue&#21442;&#29031;" style="stroke:#181818;stroke-width:1;"/><polygon fill="#181818" points="178.03,801.92,169.5671,796.8821,173.0652,801.3278,168.6196,804.8258,178.03,801.92" style="stroke:#181818;stroke-width:1;"/></g><!--link Member to Issue??--><g class="link" data-entity-1="ent0002" data-entity-2="ent0008" data-link-type="dependency" data-source-line="30" id="lnk22"><path d="M55.94,466.01 C61.59,475.34 67.47,486.32 71.32,497 C103.44,586.08 44.22,636.39 107.32,707 C125.01,726.8 148.1764,733.9152 172.0764,736.9052" fill="none" id="Member-to-Issue&#26356;&#26032;" style="stroke:#181818;stroke-width:1;"/><polygon fill="#181818" points="178.03,737.65,169.5962,732.5637,173.0687,737.0293,168.6031,740.5018,178.03,737.65" style="stroke:#181818;stroke-width:1;"/></g><!--link Member to Issue???????--><g class="link" data-entity-1="ent0002" data-entity-2="ent0009" data-link-type="dependency" data-source-line="31" id="lnk23"><path d="M55.84,466.72 C61.35,475.94 67.15,486.68 71.32,497 C96.01,558.17 61.74,593.31 107.32,641 C120.66,654.96 133.8253,661.6104 152.2953,666.3104" fill="none" id="Member-to-Issue&#12473;&#12486;&#12540;&#12479;&#12473;&#26356;&#26032;" style="stroke:#181818;stroke-width:1;"/><polygon fill="#181818" points="158.11,667.79,150.3744,661.6941,153.2644,666.557,148.4015,669.447,158.11,667.79" style="stroke:#181818;stroke-width:1;"/></g><!--link Member to ??????\n(??/??)--><g class="link" data-entity-1="ent0002" data-entity-2="ent0010" data-link-type="dependency" data-source-line="32" id="lnk24"><path d="M55.91,465.05 C61.77,474.52 67.8,485.86 71.32,497 C98.32,582.53 53.44,827.3 107.32,899 C124.5,921.87 149.7086,931.3928 174.5286,936.4028" fill="none" id="Member-to-&#20316;&#26989;&#12525;&#12464;&#35352;&#37682;\n(&#25163;&#21205;/&#33258;&#21205;)" style="stroke:#181818;stroke-width:1;"/><polygon fill="#181818" points="180.41,937.59,172.3794,931.8883,175.5089,936.6007,170.7965,939.7302,180.41,937.59" style="stroke:#181818;stroke-width:1;"/></g><!--link Member to Issue?????(????)--><g class="link" data-entity-1="ent0002" data-entity-2="ent0011" data-link-type="dependency" data-source-line="33" id="lnk25"><path d="M55.95,469.5 C61,478.23 66.49,487.96 71.32,497 C88.35,528.91 79.97,546.31 107.32,570 C121.19,582.02 133.4253,588.2757 150.8153,593.6257" fill="none" id="Member-to-Issue&#36914;&#25431;&#29575;&#21442;&#29031;(&#20104;&#23455;&#24046;&#20998;)" style="stroke:#181818;stroke-width:1;"/><polygon fill="#181818" points="156.55,595.39,149.1241,588.9204,151.771,593.9198,146.7717,596.5667,156.55,595.39" style="stroke:#181818;stroke-width:1;"/></g><!--link Member to ??Issue??(????????)--><g class="link" data-entity-1="ent0002" data-entity-2="ent0012" data-link-type="dependency" data-source-line="34" id="lnk26"><path d="M55.72,457.53 C68.75,469.42 88.04,485.51 107.32,496 C123.66,504.89 136.8143,510.3139 154.2743,515.9939" fill="none" id="Member-to-&#12469;&#12502;Issue&#36861;&#21152;(&#20104;&#26399;&#12379;&#12396;&#20316;&#26989;&#21547;&#12416;)" style="stroke:#181818;stroke-width:1;"/><polygon fill="#181818" points="159.98,517.85,152.6589,511.262,155.2253,516.3032,150.1841,518.8696,159.98,517.85" style="stroke:#181818;stroke-width:1;"/></g><!--link Member to ??????(DoD)??--><g class="link" data-entity-1="ent0002" data-entity-2="ent0013" data-link-type="dependency" data-source-line="35" id="lnk27"><path d="M55.78,443.81 C77.96,446.3 113.1874,450.2609 148.4774,454.2209" fill="none" id="Member-to-&#21463;&#12369;&#20837;&#12428;&#26465;&#20214;(DoD)&#31649;&#29702;" style="stroke:#181818;stroke-width:1;"/><polygon fill="#181818" points="154.44,454.89,145.9422,449.9113,149.4712,454.3324,145.0501,457.8614,154.44,454.89" style="stroke:#181818;stroke-width:1;"/></g><!--link Member to Issue?????????--><g class="link" data-entity-1="ent0002" data-entity-2="ent0014" data-link-type="dependency" data-source-line="36" id="lnk28"><path d="M55.78,437.66 C81.38,430.76 126.5368,418.5916 164.4868,408.3616" fill="none" id="Member-to-Issue&#12395;&#12481;&#12540;&#12512;&#12434;&#12450;&#12469;&#12452;&#12531;" style="stroke:#181818;stroke-width:1;"/><polygon fill="#181818" points="170.28,406.8,160.5491,405.2803,165.4523,408.1014,162.6313,413.0046,170.28,406.8" style="stroke:#181818;stroke-width:1;"/></g><!--link Member to Issue??????????--><g class="link" data-entity-1="ent0002" data-entity-2="ent0015" data-link-type="dependency" data-source-line="37" id="lnk29"><path d="M55.81,415.27 C67.94,397.3 86.06,374.36 107.32,360 C123.15,349.31 136.6943,343.4247 154.6943,338.1247" fill="none" id="Member-to-Issue&#12395;&#12513;&#12531;&#12496;&#12540;&#12434;&#12450;&#12469;&#12452;&#12531;" style="stroke:#181818;stroke-width:1;"/><polygon fill="#181818" points="160.45,336.43,150.6867,335.135,155.6536,337.8423,152.9463,342.8092,160.45,336.43" style="stroke:#181818;stroke-width:1;"/></g><!--link Member to Issue?????--><g class="link" data-entity-1="ent0002" data-entity-2="ent0016" data-link-type="dependency" data-source-line="38" id="lnk30"><path d="M47.18,403.43 C55.88,368.94 73.57,319.42 107.32,290 C123.19,276.16 138.8866,269.6081 158.7366,265.1381" fill="none" id="Member-to-Issue&#12525;&#12540;&#12523;&#21106;&#24403;" style="stroke:#181818;stroke-width:1;"/><polygon fill="#181818" points="164.59,263.82,154.9311,261.8949,159.7121,264.9184,156.6886,269.6995,164.59,263.82" style="stroke:#181818;stroke-width:1;"/></g><!--link Member to Issue????????--><g class="link" data-entity-1="ent0002" data-entity-2="ent0017" data-link-type="dependency" data-source-line="39" id="lnk31"><path d="M41.19,403.73 C45.17,355.74 59.13,273.95 107.32,226 C120.76,212.63 133.5322,206.0714 151.6122,201.1314" fill="none" id="Member-to-Issue&#12525;&#12540;&#12523;&#25285;&#24403;&#32773;&#26356;&#26032;" style="stroke:#181818;stroke-width:1;"/><polygon fill="#181818" points="157.4,199.55,147.664,198.0636,152.5768,200.8678,149.7725,205.7807,157.4,199.55" style="stroke:#181818;stroke-width:1;"/></g><!--link Manager to Issue??--><g class="link" data-entity-1="ent0003" data-entity-2="ent0006" data-link-type="dependency" data-source-line="41" id="lnk32"><path d="M44.11,591.58 C52.8,660.36 74.12,800.22 107.32,835 C125.58,854.13 148.5831,861.2339 172.2631,864.4039" fill="none" id="Manager-to-Issue&#20316;&#25104;" style="stroke:#181818;stroke-width:1;"/><polygon fill="#181818" points="178.21,865.2,169.8203,860.0412,173.2542,864.5366,168.7588,867.9705,178.21,865.2" style="stroke:#181818;stroke-width:1;"/></g><!--link Manager to Issue??--><g class="link" data-entity-1="ent0003" data-entity-2="ent0007" data-link-type="dependency" data-source-line="42" id="lnk33"><path d="M40.92,591.33 C44.61,639.83 58.24,722.85 107.32,771 C126.13,789.46 148.9602,796.5422 172.4302,799.8922" fill="none" id="Manager-to-Issue&#21442;&#29031;" style="stroke:#181818;stroke-width:1;"/><polygon fill="#181818" points="178.37,800.74,170.0255,795.5084,173.4202,800.0335,168.8951,803.4281,178.37,800.74" style="stroke:#181818;stroke-width:1;"/></g><!--link Manager to Issue??--><g class="link" data-entity-1="ent0003" data-entity-2="ent0008" data-link-type="dependency" data-source-line="43" id="lnk34"><path d="M46.88,591.4 C55.42,626.36 73.05,676.98 107.32,707 C127.06,724.3 149.7436,731.333 172.8936,734.993" fill="none" id="Manager-to-Issue&#26356;&#26032;" style="stroke:#181818;stroke-width:1;"/><polygon fill="#181818" points="178.82,735.93,170.5551,730.5736,173.8813,735.1492,169.3058,738.4755,178.82,735.93" style="stroke:#181818;stroke-width:1;"/></g><!--link Manager to Issue???????--><g class="link" data-entity-1="ent0003" data-entity-2="ent0009" data-link-type="dependency" data-source-line="44" id="lnk35"><path d="M61.41,591.35 C73.02,608.74 88.74,628.22 107.32,641 C124.13,652.57 139.2715,658.6562 158.3915,663.6062" fill="none" id="Manager-to-Issue&#12473;&#12486;&#12540;&#12479;&#12473;&#26356;&#26032;" style="stroke:#181818;stroke-width:1;"/><polygon fill="#181818" points="164.2,665.11,156.4898,658.982,159.3596,663.8569,154.4847,666.7267,164.2,665.11" style="stroke:#181818;stroke-width:1;"/></g><!--link Manager to ??????\n(??/??)--><g class="link" data-entity-1="ent0003" data-entity-2="ent0010" data-link-type="dependency" data-source-line="45" id="lnk36"><path d="M42.54,591.38 C49.28,671.41 68.5,852.57 107.32,899 C125.53,920.79 150.3376,930.3023 174.7476,935.6223" fill="none" id="Manager-to-&#20316;&#26989;&#12525;&#12464;&#35352;&#37682;\n(&#25163;&#21205;/&#33258;&#21205;)" style="stroke:#181818;stroke-width:1;"/><polygon fill="#181818" points="180.61,936.9,172.6682,931.0752,175.7247,935.8353,170.9646,938.8918,180.61,936.9" style="stroke:#181818;stroke-width:1;"/></g><!--link Manager to Issue?????(????)--><g class="link" data-entity-1="ent0003" data-entity-2="ent0011" data-link-type="dependency" data-source-line="46" id="lnk37"><path d="M64.05,560.26 C91.3,568.37 130.3192,579.9787 164.5292,590.1587" fill="none" id="Manager-to-Issue&#36914;&#25431;&#29575;&#21442;&#29031;(&#20104;&#23455;&#24046;&#20998;)" style="stroke:#181818;stroke-width:1;"/><polygon fill="#181818" points="170.28,591.87,162.7947,585.4692,165.4877,590.4439,160.513,593.1369,170.28,591.87" style="stroke:#181818;stroke-width:1;"/></g><!--link Manager to ??Issue??(????????)--><g class="link" data-entity-1="ent0003" data-entity-2="ent0012" data-link-type="dependency" data-source-line="47" id="lnk38"><path d="M64.05,550.26 C83.68,548.06 106.4273,545.4979 133.7473,542.4379" fill="none" id="Manager-to-&#12469;&#12502;Issue&#36861;&#21152;(&#20104;&#26399;&#12379;&#12396;&#20316;&#26989;&#21547;&#12416;)" style="stroke:#181818;stroke-width:1;"/><polygon fill="#181818" points="139.71,541.77,130.3207,538.7966,134.7411,542.3265,131.2112,546.7469,139.71,541.77" style="stroke:#181818;stroke-width:1;"/></g><!--link Manager to ??????(DoD)??--><g class="link" data-entity-1="ent0003" data-entity-2="ent0013" data-link-type="dependency" data-source-line="48" id="lnk39"><path d="M64.2,528.16 C76.32,517.04 91.68,504.53 107.32,496 C125.46,486.1 141.1025,480.2888 160.2325,474.9288" fill="none" id="Manager-to-&#21463;&#12369;&#20837;&#12428;&#26465;&#20214;(DoD)&#31649;&#29702;" style="stroke:#181818;stroke-width:1;"/><polygon fill="#181818" points="166.01,473.31,156.2646,471.8865,161.1954,474.659,158.4229,479.5898,166.01,473.31" style="stroke:#181818;stroke-width:1;"/></g><!--link Manager to Issue?????????--><g class="link" data-entity-1="ent0003" data-entity-2="ent0014" data-link-type="dependency" data-source-line="49" id="lnk40"><path d="M62.2,514.37 C65.31,508.9 68.42,503.32 71.32,498 C88.05,467.28 80.5,450.46 107.32,428 C121.55,416.08 134.1395,409.9836 151.7995,404.9536" fill="none" id="Manager-to-Issue&#12395;&#12481;&#12540;&#12512;&#12434;&#12450;&#12469;&#12452;&#12531;" style="stroke:#181818;stroke-width:1;"/><polygon fill="#181818" points="157.57,403.31,147.8185,401.9284,152.7613,404.6796,150.01,409.6224,157.57,403.31" style="stroke:#181818;stroke-width:1;"/></g><!--link Manager to Issue??????????--><g class="link" data-entity-1="ent0003" data-entity-2="ent0015" data-link-type="dependency" data-source-line="50" id="lnk41"><path d="M63.47,514.59 C66.35,509.14 69.06,503.51 71.32,498 C95.34,439.34 63.67,405.96 107.32,360 C119.44,347.24 130.446,340.8767 147.226,335.7067" fill="none" id="Manager-to-Issue&#12395;&#12513;&#12531;&#12496;&#12540;&#12434;&#12450;&#12469;&#12452;&#12531;" style="stroke:#181818;stroke-width:1;"/><polygon fill="#181818" points="152.96,333.94,143.1812,332.7673,148.1817,335.4122,145.5368,340.4127,152.96,333.94" style="stroke:#181818;stroke-width:1;"/></g><!--link Manager to Issue?????--><g class="link" data-entity-1="ent0003" data-entity-2="ent0016" data-link-type="dependency" data-source-line="51" id="lnk42"><path d="M64.06,514.46 C66.81,509.07 69.33,503.49 71.32,498 C103.21,409.77 44.75,359.91 107.32,290 C121.23,274.46 136.3219,267.5213 156.2519,263.2713" fill="none" id="Manager-to-Issue&#12525;&#12540;&#12523;&#21106;&#24403;" style="stroke:#181818;stroke-width:1;"/><polygon fill="#181818" points="162.12,262.02,152.4837,259.985,157.2299,263.0628,154.1521,267.8091,162.12,262.02" style="stroke:#181818;stroke-width:1;"/></g><!--link Manager to Issue????????--><g class="link" data-entity-1="ent0003" data-entity-2="ent0017" data-link-type="dependency" data-source-line="52" id="lnk43"><path d="M64.27,514.53 C66.99,509.13 69.44,503.53 71.32,498 C110.48,382.52 28.58,319.12 107.32,226 C119.36,211.75 131.4536,204.9566 149.3236,200.0566" fill="none" id="Manager-to-Issue&#12525;&#12540;&#12523;&#25285;&#24403;&#32773;&#26356;&#26032;" style="stroke:#181818;stroke-width:1;"/><polygon fill="#181818" points="155.11,198.47,145.3726,196.9924,150.288,199.7922,147.4882,204.7076,155.11,198.47" style="stroke:#181818;stroke-width:1;"/></g><!--link Member to Issue????????--><g class="link" data-entity-1="ent0002" data-entity-2="ent0019" data-link-type="dependency" data-source-line="54" id="lnk44"><path d="M42.13,403.44 C48.12,322.08 66.05,136.62 107.32,91 C119.67,77.35 131.6184,70.8176 149.2784,66.0376" fill="none" id="Member-to-Issue&#12486;&#12531;&#12503;&#12524;&#12540;&#12488;&#20316;&#25104;" style="stroke:#181818;stroke-width:1;"/><polygon fill="#181818" points="155.07,64.47,145.3375,62.9603,150.2437,65.7763,147.4277,70.6825,155.07,64.47" style="stroke:#181818;stroke-width:1;"/></g><!--link Member to Issue????????--><g class="link" data-entity-1="ent0002" data-entity-2="ent0018" data-link-type="dependency" data-source-line="55" id="lnk45"><path d="M44.07,403.45 C52.72,334.32 74.03,193.23 107.32,158 C120.03,144.55 132.1874,138.0741 149.9274,133.2841" fill="none" id="Member-to-Issue&#12486;&#12531;&#12503;&#12524;&#12540;&#12488;&#21442;&#29031;" style="stroke:#181818;stroke-width:1;"/><polygon fill="#181818" points="155.72,131.72,145.9885,130.2044,150.8929,133.0234,148.0739,137.9278,155.72,131.72" style="stroke:#181818;stroke-width:1;"/></g><!--link Manager to Issue????????--><g class="link" data-entity-1="ent0003" data-entity-2="ent0019" data-link-type="dependency" data-source-line="57" id="lnk46"><path d="M64.35,514.91 C67.09,509.4 69.53,503.67 71.32,498 C98.61,411.4 49.92,161.35 107.32,91 C118.89,76.81 130.5081,70.1164 148.1081,65.3564" fill="none" id="Manager-to-Issue&#12486;&#12531;&#12503;&#12524;&#12540;&#12488;&#20316;&#25104;" style="stroke:#181818;stroke-width:1;"/><polygon fill="#181818" points="153.9,63.79,144.1678,62.2784,149.0734,65.0954,146.2564,70.0009,153.9,63.79" style="stroke:#181818;stroke-width:1;"/></g><!--link Manager to Issue????????--><g class="link" data-entity-1="ent0003" data-entity-2="ent0018" data-link-type="dependency" data-source-line="58" id="lnk47"><path d="M64.25,514.88 C67.01,509.38 69.48,503.66 71.32,498 C94.78,425.73 58.78,216.45 107.32,158 C119.02,143.91 130.6683,137.2473 148.2583,132.4873" fill="none" id="Manager-to-Issue&#12486;&#12531;&#12503;&#12524;&#12540;&#12488;&#21442;&#29031;" style="stroke:#181818;stroke-width:1;"/><polygon fill="#181818" points="154.05,130.92,144.3176,129.4098,149.2236,132.2261,146.4073,137.132,154.05,130.92" style="stroke:#181818;stroke-width:1;"/></g><!--link GitHub to ??????\n(??/??)--><g class="link" data-entity-1="ent0004" data-entity-2="ent0010" data-link-type="dependency" data-source-line="60" id="lnk48"><path d="M71.5,942 C101.92,942 141.78,942 174.02,942" fill="none" id="GitHub-to-&#20316;&#26989;&#12525;&#12464;&#35352;&#37682;\n(&#25163;&#21205;/&#33258;&#21205;)" style="stroke:#181818;stroke-width:1;"/><polygon fill="#181818" points="180.02,942,171.02,938,175.02,942,171.02,946,180.02,942" style="stroke:#181818;stroke-width:1;"/></g><?plantuml-src bPNBJjj058RtynGZhy82zGswYaIxw1jqOr8tM09RYfrLLIcUKK8WNDnM9PMWXK1H4O48fNVQY8SvcKdo5lMbJWp7bsHbQ_xld3Cp_ozxNNjfKzka5RsyPjCNUaKhsRff4AAMRBD25U0Tu5-1ky3_AbIrw3DjOrMhpEHFm7Sz3TWlu6TJI3NKyenQqUqdrTL9xKowju4UBX3YJrEDyhf6bQUMLTLeqTnGTKEXhmYXj6ff9TMAjE7WI3PT1QsBVJQgVy7hyl2RFBZ1wy1-0sy4MxxptXCmVzBvDV1hO3VZYm-JdVvpeo2tMgBr_j5uyz9xBE6sarfVxhP7UvlXVWh3swRe7OkVFT5itCU1VGT-41IDxmPY-yHdvT4nE8VWN8N3XTi5LhjV9_RRuBmHzNDWE_9ZP_ZdHw5e5fT6lSx8RIZumi3f0dVyW_8JO6-1dVgJsMVFJoKPdbcTptktutVkYgs-6BpB06IhxW7ZMZswwGIq4Gnk0xyAQfffdc8oIWLvJKWOJRgy_FX1P90GzKT2j4SafAGcpiqL6zGu9pTnVg7Wn0jpaeCFcvMSP3eZEhZWONRI2HoU_v-M99UHChKPALF_a99cT1oSpsdKEi_gUC5YNiShyyp69yvqEndFiXjN8B_JaGJ3SJZIFW9pe54a4lUGsdSETjeu_BSj49H_?></g></svg>