<?plantuml 1.2026.2?><svg xmlns="http://www.w3.org/2000/svg" xmlns:xlink="http://www.w3.org/1999/xlink" contentStyleType="text/css" data-diagram-type="DESCRIPTION" height="197px" preserveAspectRatio="none" style="width:672px;height:197px;background:#FFFFFF;" version="1.1" viewBox="0 0 672 197" width="672px" zoomAndPan="magnify"><defs/><g><!--cluster Profile Domain--><g class="cluster" data-qualified-name="Profile Domain" data-source-line="6" id="ent0004"><rect fill="none" height="87" rx="2.5" ry="2.5" style="stroke:#181818;stroke-width:1;" width="192.47" x="100.41" y="46.65"/><text fill="#000000" font-family="sans-serif" font-size="14" font-weight="bold" lengthAdjust="spacing" textLength="116.8809" x="138.2046" y="61.6451">Profile Domain</text></g><!--entity SelfUpsert--><g class="entity" data-qualified-name="Profile Domain.SelfUpsert" data-source-line="8" id="ent0005"><ellipse cx="196.6477" cy="99.6475" fill="#F1F1F1" rx="80.2377" ry="18.4475" style="stroke:#181818;stroke-width:0.5;"/><text fill="#000000" font-family="sans-serif" font-size="14" lengthAdjust="spacing" textLength="131.2363" x="131.0296" y="104.296">&#12503;&#12525;&#12501;&#12451;&#12540;&#12523;&#30331;&#37682; / &#26356;&#26032;&#65288;&#26412;&#20154;&#65289;</text></g><!--entity Member--><g class="entity" data-qualified-name="Member" data-source-line="3" id="ent0002"><ellipse cx="31.2027" cy="14" fill="#F1F1F1" rx="8" ry="8" style="stroke:#181818;stroke-width:0.5;"/><path d="M31.2027,22 L31.2027,49 M18.2027,30 L44.2027,30 M31.2027,49 L18.2027,64 M31.2027,49 L44.2027,64" fill="none" style="stroke:#181818;stroke-width:0.5;"/><text fill="#000000" font-family="sans-serif" font-size="14" lengthAdjust="spacing" textLength="33.6055" x="14.4" y="78.4951">&#12513;&#12531;&#12496;&#12540;</text></g><!--entity Manager--><g class="entity" data-qualified-name="Manager" data-source-line="4" id="ent0003"><ellipse cx="31.2041" cy="125" fill="#F1F1F1" rx="8" ry="8" style="stroke:#181818;stroke-width:0.5;"/><path d="M31.2041,133 L31.2041,160 M18.2041,141 L44.2041,141 M31.2041,160 L18.2041,175 M31.2041,160 L44.2041,175" fill="none" style="stroke:#181818;stroke-width:0.5;"/><text fill="#000000" font-family="sans-serif" font-size="14" lengthAdjust="spacing" textLength="50.4082" x="6" y="189.4951">&#12510;&#12493;&#12540;&#12472;&#12515;&#12540;</text></g><g class="entity" data-qualified-name="GMN8" data-source-line="16" id="ent0009"><path d="M336.88,41.69 L336.88,95.65 L277.15,99.65 L336.88,103.65 L336.88,157.6197 A0,0 0 0 0 336.88,157.6197 L665.5826,157.6197 A0,0 0 0 0 665.5826,157.6197 L665.5826,51.69 L655.5826,41.69 L336.88,41.69 A0,0 0 0 0 336.88,41.69" fill="#FEFFDD" style="stroke:#181818;stroke-width:0.5;"/><path d="M655.5826,41.69 L655.5826,51.69 L665.5826,51.69 L655.5826,41.69" fill="#FEFFDD" style="stroke:#181818;stroke-width:0.5;"/><text fill="#000000" font-family="sans-serif" font-size="13" lengthAdjust="spacing" textLength="43.3862" x="342.88" y="58.7569">&#29694;&#22312;&#12398;&#23455;&#35013;:</text><text fill="#000000" font-family="sans-serif" font-size="13" lengthAdjust="spacing" textLength="307.7026" x="342.88" y="73.8897">- POST /api/users/me/profile &#12391;&#26412;&#20154;&#12503;&#12525;&#12501;&#12451;&#12540;&#12523;&#12434;&#30331;&#37682; / &#26356;&#26032;</text><text fill="#000000" font-family="sans-serif" font-size="13" lengthAdjust="spacing" textLength="4.1323" x="342.88" y="89.0225">&#160;</text><text fill="#000000" font-family="sans-serif" font-size="13" lengthAdjust="spacing" textLength="35.585" x="342.88" y="104.1553">&#23558;&#26469;&#20104;&#23450;:</text><text fill="#000000" font-family="sans-serif" font-size="13" lengthAdjust="spacing" textLength="118.041" x="342.88" y="119.2881">- &#20182;&#12518;&#12540;&#12470;&#12540;&#12398;&#12503;&#12525;&#12501;&#12451;&#12540;&#12523;&#21442;&#29031;</text><text fill="#000000" font-family="sans-serif" font-size="13" lengthAdjust="spacing" textLength="55.6309" x="342.88" y="134.421">- &#23554;&#38272;&#12479;&#12464;&#34920;&#31034;</text><text fill="#000000" font-family="sans-serif" font-size="13" lengthAdjust="spacing" textLength="86.8359" x="342.88" y="149.5538">- &#12450;&#12496;&#12479;&#12540;&#12450;&#12483;&#12503;&#12525;&#12540;&#12489;</text></g><!--link Member to SelfUpsert--><g class="link" data-entity-1="ent0002" data-entity-2="ent0005" data-link-type="dependency" data-source-line="12" id="lnk6"><path d="M48.47,49.23 C72.05,57.3 110.924,70.625 144.864,82.255" fill="none" id="Member-to-SelfUpsert" style="stroke:#181818;stroke-width:1;"/><polygon fill="#181818" points="150.54,84.2,143.3226,77.4985,145.81,82.5792,140.7293,85.0666,150.54,84.2" style="stroke:#181818;stroke-width:1;"/></g><!--link Manager to SelfUpsert--><g class="link" data-entity-1="ent0003" data-entity-2="ent0005" data-link-type="dependency" data-source-line="13" id="lnk7"><path d="M56.67,146.42 C81.25,138.15 114.0332,127.1132 144.2632,116.9432" fill="none" id="Manager-to-SelfUpsert" style="stroke:#181818;stroke-width:1;"/><polygon fill="#181818" points="149.95,115.03,140.1443,114.1085,145.211,116.6243,142.6952,121.6909,149.95,115.03" style="stroke:#181818;stroke-width:1;"/></g><?plantuml-src PP51Im915CVlyoaUUvUzT-ZKDHAi3p3fh2tehknkfmXo1aEXC8ACoWgpKgYMfI9YbVempztLar-X6RKIlGoFzt_pU___J84P7dWsE6P-nuESwR2iPzeM8JJhsGveA5eetb2SeEXhG5rOPyLjvlpBDoYEfORy4qNxRuXQD2-dYC9HArzWeAKTsp1biMONgMbfi4S8mAxBijHb2dIEuWN56N95GV6KNFH6Hw-WGtpr7ZU2SRyQDvy7OJZkroOxCgnWR9LSvdY4x1CozGMfrEgyCZEos2QMxR5PPjkOLvBwLzJiOjcF_DjXkx92Kf3Uo6o2JakcBjqwhbvaUccM1SkTgQbb-yXF5n8G4WM7yVN38An6_gKY3teD58-Jr_jGPzbVvaHrdbGwSZWA-AXnWFmRUJ1iTPFxK3QHtwc_aKq5aRNu9SYxDSAi7AYev0S0?></g></svg>