<?plantuml 1.2026.2?><svg xmlns="http://www.w3.org/2000/svg" xmlns:xlink="http://www.w3.org/1999/xlink" contentStyleType="text/css" data-diagram-type="DESCRIPTION" height="197px" preserveAspectRatio="none" style="width:671px;height:197px;background:#FFFFFF;" version="1.1" viewBox="0 0 671 197" width="671px" zoomAndPan="magnify"><defs/><g><!--cluster Profile Domain--><g class="cluster" data-qualified-name="Profile Domain" data-source-line="6" id="ent0004"><rect fill="none" height="89" rx="2.5" ry="2.5" style="stroke:#181818;stroke-width:1;" width="192" x="100" y="45.5"/><text fill="#000000" font-family="sans-serif" font-size="14" font-weight="bold" lengthAdjust="spacing" textLength="116.8809" x="137.5596" y="60.4951">Profile Domain</text></g><!--entity SelfUpsert--><g class="entity" data-qualified-name="Profile Domain.SelfUpsert" data-source-line="8" id="ent0005"><ellipse cx="196.2377" cy="99.4475" fill="#F1F1F1" rx="80.2377" ry="18.4475" style="stroke:#181818;stroke-width:0.5;"/><text fill="#000000" font-family="sans-serif" font-size="14" lengthAdjust="spacing" textLength="131.2363" x="130.6196" y="104.096">&#12503;&#12525;&#12501;&#12451;&#12540;&#12523;&#30331;&#37682; / &#26356;&#26032;&#65288;&#26412;&#20154;&#65289;</text></g><!--entity Member--><g class="entity" data-qualified-name="Member" data-source-line="3" id="ent0002"><ellipse cx="30.8027" cy="14" fill="#F1F1F1" rx="8" ry="8" style="stroke:#181818;stroke-width:0.5;"/><path d="M30.8027,22 L30.8027,49 M17.8027,30 L43.8027,30 M30.8027,49 L17.8027,64 M30.8027,49 L43.8027,64" fill="none" style="stroke:#181818;stroke-width:0.5;"/><text fill="#000000" font-family="sans-serif" font-size="14" lengthAdjust="spacing" textLength="33.6055" x="14" y="78.4951">&#12513;&#12531;&#12496;&#12540;</text></g><!--entity Manager--><g class="entity" data-qualified-name="Manager" data-source-line="4" id="ent0003"><ellipse cx="31.2041" cy="125" fill="#F1F1F1" rx="8" ry="8" style="stroke:#181818;stroke-width:0.5;"/><path d="M31.2041,133 L31.2041,160 M18.2041,141 L44.2041,141 M31.2041,160 L18.2041,175 M31.2041,160 L44.2041,175" fill="none" style="stroke:#181818;stroke-width:0.5;"/><text fill="#000000" font-family="sans-serif" font-size="14" lengthAdjust="spacing" textLength="50.4082" x="6" y="189.4951">&#12510;&#12493;&#12540;&#12472;&#12515;&#12540;</text></g><g class="entity" data-qualified-name="GMN8" data-source-line="16" id="ent0009"><path d="M336,41.5 L336,95.5 L276.08,99.5 L336,103.5 L336,157.4297 A0,0 0 0 0 336,157.4297 L664.7026,157.4297 A0,0 0 0 0 664.7026,157.4297 L664.7026,51.5 L654.7026,41.5 L336,41.5 A0,0 0 0 0 336,41.5" fill="#FEFFDD" style="stroke:#181818;stroke-width:0.5;"/><path d="M654.7026,41.5 L654.7026,51.5 L664.7026,51.5 L654.7026,41.5" fill="#FEFFDD" style="stroke:#181818;stroke-width:0.5;"/><text fill="#000000" font-family="sans-serif" font-size="13" lengthAdjust="spacing" textLength="43.3862" x="342" y="58.5669">&#29694;&#22312;&#12398;&#23455;&#35013;:</text><text fill="#000000" font-family="sans-serif" font-size="13" lengthAdjust="spacing" textLength="307.7026" x="342" y="73.6997">- POST /api/users/me/profile &#12391;&#26412;&#20154;&#12503;&#12525;&#12501;&#12451;&#12540;&#12523;&#12434;&#30331;&#37682; / &#26356;&#26032;</text><text fill="#000000" font-family="sans-serif" font-size="13" lengthAdjust="spacing" textLength="4.1323" x="342" y="88.8325">&#160;</text><text fill="#000000" font-family="sans-serif" font-size="13" lengthAdjust="spacing" textLength="35.585" x="342" y="103.9653">&#23558;&#26469;&#20104;&#23450;:</text><text fill="#000000" font-family="sans-serif" font-size="13" lengthAdjust="spacing" textLength="118.041" x="342" y="119.0981">- &#20182;&#12518;&#12540;&#12470;&#12540;&#12398;&#12503;&#12525;&#12501;&#12451;&#12540;&#12523;&#21442;&#29031;</text><text fill="#000000" font-family="sans-serif" font-size="13" lengthAdjust="spacing" textLength="55.6309" x="342" y="134.231">- &#23554;&#38272;&#12479;&#12464;&#34920;&#31034;</text><text fill="#000000" font-family="sans-serif" font-size="13" lengthAdjust="spacing" textLength="86.8359" x="342" y="149.3638">- &#12450;&#12496;&#12479;&#12540;&#12450;&#12483;&#12503;&#12525;&#12540;&#12489;</text></g><!--link Member to SelfUpsert--><g class="link" data-entity-1="ent0002" data-entity-2="ent0005" data-link-type="dependency" data-source-line="12" id="lnk6"><path d="M48.22,49.07 C71.82,57.18 110.8056,70.5705 144.6856,82.2105" fill="none" id="Member-to-SelfUpsert" style="stroke:#181818;stroke-width:1;"/><polygon fill="#181818" points="150.36,84.16,143.148,77.4527,145.6313,82.5354,140.5486,85.0186,150.36,84.16" style="stroke:#181818;stroke-width:1;"/></g><!--link Manager to SelfUpsert--><g class="link" data-entity-1="ent0003" data-entity-2="ent0005" data-link-type="dependency" data-source-line="13" id="lnk7"><path d="M56.05,146.38 C80.67,138.08 113.8351,126.8887 144.2051,116.6387" fill="none" id="Manager-to-SelfUpsert" style="stroke:#181818;stroke-width:1;"/><polygon fill="#181818" points="149.89,114.72,140.0835,113.8081,145.1525,116.3189,142.6417,121.388,149.89,114.72" style="stroke:#181818;stroke-width:1;"/></g><?plantuml-src PP51Im915CVlyoaUUvUzT-ZKDHAi3p3fh2tehknkfmXo1aEXC8ACoWgpKgYMfI9YbVempztLar-X6RKIlGoFzt_pU___J84P7dWsE6P-nuESwR2iPzeM8JJhsGveA5eetb2SeEXhG5rOPyLjvlpBDoYEfORy4qNxRuXQD2-dYC9HArzWeAKTsp1biMONgMbfi4S8mAxBijHb2dIEuWN56N95GV6KNFH6Hw-WGtpr7ZU2SRyQDvy7OJZkroOxCgnWR9LSvdY4x1CozGMfrEgyCZEos2QMxR5PPjkOLvBwLzJiOjcF_DjXkx92Kf3Uo6o2JakcBjqwhbvaUccM1SkTgQbb-yXF5n8G4WM7yVN38An6_gKY3teD58-Jr_jGPzbVvaHrdbGwSZWA-AXnWFmRUJ1iTPFxK3QHtwc_aKq5aRNu9SYxDSAi7AYev0S0?></g></svg>