<?plantuml 1.2026.2?><svg xmlns="http://www.w3.org/2000/svg" xmlns:xlink="http://www.w3.org/1999/xlink" contentStyleType="text/css" data-diagram-type="DESCRIPTION" height="222px" preserveAspectRatio="none" style="width:239px;height:222px;background:#FFFFFF;" version="1.1" viewBox="0 0 239 222" width="239px" zoomAndPan="magnify"><defs/><g><!--cluster Profile Domain--><g class="cluster" data-qualified-name="Profile Domain" data-source-line="6" id="ent0004"><rect fill="none" height="209" rx="2.5" ry="2.5" style="stroke:#181818;stroke-width:1;" width="133.05" x="100.41" y="7"/><text fill="#000000" font-family="sans-serif" font-size="14" font-weight="bold" lengthAdjust="spacing" textLength="116.8809" x="108.4946" y="21.9951">Profile Domain</text></g><!--entity ????????--><g class="entity" data-qualified-name="Profile Domain........." data-source-line="8" id="ent0005"><ellipse cx="166.9253" cy="121.0036" fill="#F1F1F1" rx="50.5253" ry="14.5236" style="stroke:#181818;stroke-width:0.5;"/><text fill="#000000" font-family="sans-serif" font-size="14" lengthAdjust="spacing" textLength="67.2109" x="133.3198" y="125.6521">&#12503;&#12525;&#12501;&#12451;&#12540;&#12523;&#20316;&#25104;</text></g><!--entity ????????--><g class="entity" data-qualified-name="Profile Domain........." data-source-line="9" id="ent0006"><ellipse cx="166.9253" cy="57.0036" fill="#F1F1F1" rx="50.5253" ry="14.5236" style="stroke:#181818;stroke-width:0.5;"/><text fill="#000000" font-family="sans-serif" font-size="14" lengthAdjust="spacing" textLength="67.2109" x="133.3198" y="61.6521">&#12503;&#12525;&#12501;&#12451;&#12540;&#12523;&#21442;&#29031;</text></g><!--entity ????????--><g class="entity" data-qualified-name="Profile Domain........." data-source-line="10" id="ent0007"><ellipse cx="166.9253" cy="185.0036" fill="#F1F1F1" rx="50.5253" ry="14.5236" style="stroke:#181818;stroke-width:0.5;"/><text fill="#000000" font-family="sans-serif" font-size="14" lengthAdjust="spacing" textLength="67.2109" x="133.3198" y="189.6521">&#12503;&#12525;&#12501;&#12451;&#12540;&#12523;&#26356;&#26032;</text></g><!--entity Member--><g class="entity" data-qualified-name="Member" data-source-line="3" id="ent0002"><ellipse cx="31.2027" cy="36.35" fill="#F1F1F1" rx="8" ry="8" style="stroke:#181818;stroke-width:0.5;"/><path d="M31.2027,44.35 L31.2027,71.35 M18.2027,52.35 L44.2027,52.35 M31.2027,71.35 L18.2027,86.35 M31.2027,71.35 L44.2027,86.35" fill="none" style="stroke:#181818;stroke-width:0.5;"/><text fill="#000000" font-family="sans-serif" font-size="14" lengthAdjust="spacing" textLength="33.6055" x="14.4" y="100.8451">&#12513;&#12531;&#12496;&#12540;</text></g><!--entity Manager--><g class="entity" data-qualified-name="Manager" data-source-line="4" id="ent0003"><ellipse cx="31.2041" cy="147.35" fill="#F1F1F1" rx="8" ry="8" style="stroke:#181818;stroke-width:0.5;"/><path d="M31.2041,155.35 L31.2041,182.35 M18.2041,163.35 L44.2041,163.35 M31.2041,182.35 L18.2041,197.35 M31.2041,182.35 L44.2041,197.35" fill="none" style="stroke:#181818;stroke-width:0.5;"/><text fill="#000000" font-family="sans-serif" font-size="14" lengthAdjust="spacing" textLength="50.4082" x="6" y="211.8451">&#12510;&#12493;&#12540;&#12472;&#12515;&#12540;</text></g><!--link Member to ????????--><g class="link" data-entity-1="ent0002" data-entity-2="ent0005" data-link-type="dependency" data-source-line="14" id="lnk8"><path d="M48.33,72.63 C70.22,81.63 104.1411,95.5875 131.2711,106.7475" fill="none" id="Member-to-&#12503;&#12525;&#12501;&#12451;&#12540;&#12523;&#20316;&#25104;" style="stroke:#181818;stroke-width:1;"/><polygon fill="#181818" points="136.82,109.03,130.0184,101.9069,132.1959,107.1279,126.975,109.3054,136.82,109.03" style="stroke:#181818;stroke-width:1;"/></g><!--link Member to ????????--><g class="link" data-entity-1="ent0002" data-entity-2="ent0006" data-link-type="dependency" data-source-line="15" id="lnk9"><path d="M48.33,64.91 C65.35,63.77 87.0235,62.3129 111.2435,60.6829" fill="none" id="Member-to-&#12503;&#12525;&#12501;&#12451;&#12540;&#12523;&#21442;&#29031;" style="stroke:#181818;stroke-width:1;"/><polygon fill="#181818" points="117.23,60.28,107.9817,56.8934,112.2413,60.6157,108.5189,64.8753,117.23,60.28" style="stroke:#181818;stroke-width:1;"/></g><!--link Member to ????????--><g class="link" data-entity-1="ent0002" data-entity-2="ent0007" data-link-type="dependency" data-source-line="16" id="lnk10"><path d="M48.44,97.88 C58.96,115.98 74.1,137.95 92.41,153 C103.7,162.28 112.5096,167.1512 125.5696,172.2412" fill="none" id="Member-to-&#12503;&#12525;&#12501;&#12451;&#12540;&#12523;&#26356;&#26032;" style="stroke:#181818;stroke-width:1;"/><polygon fill="#181818" points="131.16,174.42,124.2269,167.4248,126.5013,172.6043,121.3218,174.8787,131.16,174.42" style="stroke:#181818;stroke-width:1;"/></g><!--link Manager to ????????--><g class="link" data-entity-1="ent0003" data-entity-2="ent0005" data-link-type="dependency" data-source-line="18" id="lnk11"><path d="M56.73,166.73 C79.5,157.19 107.8759,145.318 131.8459,135.278" fill="none" id="Manager-to-&#12503;&#12525;&#12501;&#12451;&#12540;&#12523;&#20316;&#25104;" style="stroke:#181818;stroke-width:1;"/><polygon fill="#181818" points="137.38,132.96,127.5334,132.7476,132.7682,134.8917,130.6241,140.1265,137.38,132.96" style="stroke:#181818;stroke-width:1;"/></g><!--link Manager to ????????--><g class="link" data-entity-1="ent0003" data-entity-2="ent0006" data-link-type="dependency" data-source-line="19" id="lnk12"><path d="M51.94,138.66 C62.18,121.7 76,102.56 92.41,89 C103.68,79.69 112.4781,74.8051 125.5381,69.7251" fill="none" id="Manager-to-&#12503;&#12525;&#12501;&#12451;&#12540;&#12523;&#21442;&#29031;" style="stroke:#181818;stroke-width:1;"/><polygon fill="#181818" points="131.13,67.55,121.2921,67.0847,126.4701,69.3626,124.1923,74.5405,131.13,67.55" style="stroke:#181818;stroke-width:1;"/></g><!--link Manager to ????????--><g class="link" data-entity-1="ent0003" data-entity-2="ent0007" data-link-type="dependency" data-source-line="20" id="lnk13"><path d="M56.73,178.47 C73.55,179.47 90.4408,180.4803 110.9208,181.7103" fill="none" id="Manager-to-&#12503;&#12525;&#12501;&#12451;&#12540;&#12523;&#26356;&#26032;" style="stroke:#181818;stroke-width:1;"/><polygon fill="#181818" points="116.91,182.07,108.166,177.5376,111.919,181.7702,107.6864,185.5233,116.91,182.07" style="stroke:#181818;stroke-width:1;"/></g><?plantuml-src XP0n2i9044NxESMmlLUmiXMymXhNkA1PsAoLs6GGRCGqQg48Oc4XWg25XPvcD5x313LsQpVm7_zzfglQ3fr1gyEEmvQsAd3QH00oSCQYODemdPXIfgj06MDTzPhA_k8rqoJFEBamRKj8HZBCAIZgP1Hs5Og6DMsT7pNJapeIE010xCSgaB4gYXPC1wOP9qKBq_v-MsNZLFYXnpHvZdP_e6nvpkP70J04UC_7IgNgS_gfhzHFbTRFC_uw_LWfzMDVwmi0?></g></svg>