<?plantuml 1.2026.2?><svg xmlns="http://www.w3.org/2000/svg" xmlns:xlink="http://www.w3.org/1999/xlink" contentStyleType="text/css" data-diagram-type="DESCRIPTION" height="236px" preserveAspectRatio="none" style="width:317px;height:236px;background:#FFFFFF;" version="1.1" viewBox="0 0 317 236" width="317px" zoomAndPan="magnify"><defs/><g><!--cluster Profile Domain--><g class="cluster" data-qualified-name="Profile Domain" data-source-line="6" id="ent0004"><rect fill="none" height="223" rx="2.5" ry="2.5" style="stroke:#181818;stroke-width:1;" width="177.07" x="134" y="7"/><text fill="#000000" font-family="sans-serif" font-size="14" font-weight="bold" lengthAdjust="spacing" textLength="107.2148" x="168.9276" y="22.5352">Profile Domain</text></g><!--entity ????????--><g class="entity" data-qualified-name="Profile Domain........." data-source-line="8" id="ent0005"><ellipse cx="222.5352" cy="127.997" fill="#F1F1F1" rx="72.5352" ry="16.907" style="stroke:#181818;stroke-width:0.5;"/><text fill="#000000" font-family="sans-serif" font-size="14" lengthAdjust="spacing" textLength="112" x="166.5352" y="132.7412">&#12503;&#12525;&#12501;&#12451;&#12540;&#12523;&#20316;&#25104;</text></g><!--entity ????????--><g class="entity" data-qualified-name="Profile Domain........." data-source-line="9" id="ent0006"><ellipse cx="222.5352" cy="58.997" fill="#F1F1F1" rx="72.5352" ry="16.907" style="stroke:#181818;stroke-width:0.5;"/><text fill="#000000" font-family="sans-serif" font-size="14" lengthAdjust="spacing" textLength="112" x="166.5352" y="63.7412">&#12503;&#12525;&#12501;&#12451;&#12540;&#12523;&#21442;&#29031;</text></g><!--entity ????????--><g class="entity" data-qualified-name="Profile Domain........." data-source-line="10" id="ent0007"><ellipse cx="222.5352" cy="196.997" fill="#F1F1F1" rx="72.5352" ry="16.907" style="stroke:#181818;stroke-width:0.5;"/><text fill="#000000" font-family="sans-serif" font-size="14" lengthAdjust="spacing" textLength="112" x="166.5352" y="201.7412">&#12503;&#12525;&#12501;&#12451;&#12540;&#12523;&#26356;&#26032;</text></g><!--entity Member--><g class="entity" data-qualified-name="Member" data-source-line="3" id="ent0002"><ellipse cx="48" cy="43.26" fill="#F1F1F1" rx="8" ry="8" style="stroke:#181818;stroke-width:0.5;"/><path d="M48,51.26 L48,78.26 M35,59.26 L61,59.26 M48,78.26 L35,93.26 M48,78.26 L61,93.26" fill="none" style="stroke:#181818;stroke-width:0.5;"/><text fill="#000000" font-family="sans-serif" font-size="14" lengthAdjust="spacing" textLength="56" x="20" y="108.2952">&#12513;&#12531;&#12496;&#12540;</text></g><!--entity Manager--><g class="entity" data-qualified-name="Manager" data-source-line="4" id="ent0003"><ellipse cx="48" cy="154.26" fill="#F1F1F1" rx="8" ry="8" style="stroke:#181818;stroke-width:0.5;"/><path d="M48,162.26 L48,189.26 M35,170.26 L61,170.26 M48,189.26 L35,204.26 M48,189.26 L61,204.26" fill="none" style="stroke:#181818;stroke-width:0.5;"/><text fill="#000000" font-family="sans-serif" font-size="14" lengthAdjust="spacing" textLength="84" x="6" y="219.2952">&#12510;&#12493;&#12540;&#12472;&#12515;&#12540;</text></g><!--link Member to ????????--><g class="link" data-entity-1="ent0002" data-entity-2="ent0005" data-link-type="dependency" data-source-line="14" id="lnk8"><path d="M76.34,81.71 C103.7,90.44 140.5034,102.1679 172.4734,112.3579" fill="none" id="Member-to-&#12503;&#12525;&#12501;&#12451;&#12540;&#12523;&#20316;&#25104;" style="stroke:#181818;stroke-width:1;"/><polygon fill="#181818" points="178.19,114.18,170.8298,107.6358,173.4261,112.6616,168.4003,115.2579,178.19,114.18" style="stroke:#181818;stroke-width:1;"/></g><!--link Member to ????????--><g class="link" data-entity-1="ent0002" data-entity-2="ent0006" data-link-type="dependency" data-source-line="15" id="lnk9"><path d="M76.34,70.78 C97.05,69.1 120.4697,67.2063 147.3997,65.0163" fill="none" id="Member-to-&#12503;&#12525;&#12501;&#12451;&#12540;&#12523;&#21442;&#29031;" style="stroke:#181818;stroke-width:1;"/><polygon fill="#181818" points="153.38,64.53,144.0854,61.2727,148.3965,64.9353,144.7338,69.2463,153.38,64.53" style="stroke:#181818;stroke-width:1;"/></g><!--link Member to ????????--><g class="link" data-entity-1="ent0002" data-entity-2="ent0007" data-link-type="dependency" data-source-line="16" id="lnk10"><path d="M76.36,108.13 C93.55,129.48 114.57,154.11 126,162 C139.95,171.64 151.2062,177.0185 166.9062,182.4185" fill="none" id="Member-to-&#12503;&#12525;&#12501;&#12451;&#12540;&#12523;&#26356;&#26032;" style="stroke:#181818;stroke-width:1;"/><polygon fill="#181818" points="172.58,184.37,165.3703,177.6603,167.8519,182.7438,162.7683,185.2253,172.58,184.37" style="stroke:#181818;stroke-width:1;"/></g><!--link Manager to ????????--><g class="link" data-entity-1="ent0003" data-entity-2="ent0005" data-link-type="dependency" data-source-line="18" id="lnk11"><path d="M90.33,170.59 C117.04,161.91 146.0329,152.5016 173.0329,143.7416" fill="none" id="Manager-to-&#12503;&#12525;&#12501;&#12451;&#12540;&#12523;&#20316;&#25104;" style="stroke:#181818;stroke-width:1;"/><polygon fill="#181818" points="178.74,141.89,168.9449,140.8627,173.9841,143.433,171.4137,148.4722,178.74,141.89" style="stroke:#181818;stroke-width:1;"/></g><!--link Manager to ????????--><g class="link" data-entity-1="ent0003" data-entity-2="ent0006" data-link-type="dependency" data-source-line="19" id="lnk12"><path d="M78.62,145.6 C95.34,124.71 115.02,101.63 126,94 C139.93,84.33 151.1658,78.9404 166.8758,73.5404" fill="none" id="Manager-to-&#12503;&#12525;&#12501;&#12451;&#12540;&#12523;&#21442;&#29031;" style="stroke:#181818;stroke-width:1;"/><polygon fill="#181818" points="172.55,71.59,162.7385,70.7328,167.8215,73.2153,165.339,78.2983,172.55,71.59" style="stroke:#181818;stroke-width:1;"/></g><!--link Manager to ????????--><g class="link" data-entity-1="ent0003" data-entity-2="ent0007" data-link-type="dependency" data-source-line="20" id="lnk13"><path d="M90.33,187.11 C109.07,188.53 125.757,189.778 146.937,191.378" fill="none" id="Manager-to-&#12503;&#12525;&#12501;&#12451;&#12540;&#12523;&#26356;&#26032;" style="stroke:#181818;stroke-width:1;"/><polygon fill="#181818" points="152.92,191.83,144.2469,187.1634,147.9342,191.4534,143.6443,195.1407,152.92,191.83" style="stroke:#181818;stroke-width:1;"/></g><?plantuml-src XP0n2i9044NxESMmlLUmiXMymXhNkA1PsAoLs6GGRCGqQg48Oc4XWg25XPvcD5x313LsQpVm7_zzfglQ3fr1gyEEmvQsAd3QH00oSCQYODemdPXIfgj06MDTzPhA_k8rqoJFEBamRKj8HZBCAIZgP1Hs5Og6DMsT7pNJapeIE010xCSgaB4gYXPC1wOP9qKBq_v-MsNZLFYXnpHvZdP_e6nvpkP70J04UC_7IgNgS_gfhzHFbTRFC_uw_LWfzMDVwmi0?></g></svg>