<?plantuml 1.2026.2?><svg xmlns="http://www.w3.org/2000/svg" xmlns:xlink="http://www.w3.org/1999/xlink" contentStyleType="text/css" data-diagram-type="DESCRIPTION" height="701px" preserveAspectRatio="none" style="width:391px;height:701px;background:#FFFFFF;" version="1.1" viewBox="0 0 391 701" width="391px" zoomAndPan="magnify"><defs/><g><!--cluster Project Domain--><g class="cluster" data-qualified-name="Project Domain" data-source-line="7" id="ent0005"><rect fill="none" height="688" rx="2.5" ry="2.5" style="stroke:#181818;stroke-width:1;" width="177.63" x="208.06" y="7"/><text fill="#000000" font-family="sans-serif" font-size="14" font-weight="bold" lengthAdjust="spacing" textLength="120.9824" x="236.3838" y="21.9951">Project Domain</text></g><!--entity PJ??--><g class="entity" data-qualified-name="Project Domain.PJ.." data-source-line="9" id="ent0006"><ellipse cx="296.8806" cy="57.0036" fill="#F1F1F1" rx="23.7706" ry="14.5236" style="stroke:#181818;stroke-width:0.5;"/><text fill="#000000" font-family="sans-serif" font-size="14" lengthAdjust="spacing" textLength="29.374" x="282.1936" y="61.6521">PJ&#20316;&#25104;</text></g><!--entity PJ????--><g class="entity" data-qualified-name="Project Domain.PJ...." data-source-line="10" id="ent0007"><ellipse cx="296.8819" cy="445.0036" fill="#F1F1F1" rx="35.6519" ry="14.5236" style="stroke:#181818;stroke-width:0.5;"/><text fill="#000000" font-family="sans-serif" font-size="14" lengthAdjust="spacing" textLength="46.1768" x="273.7935" y="449.6521">PJ&#27010;&#35201;&#26356;&#26032;</text></g><!--entity PJ??--><g class="entity" data-qualified-name="Project Domain.PJ.." data-source-line="11" id="ent0008"><ellipse cx="296.8806" cy="381.0036" fill="#F1F1F1" rx="23.7706" ry="14.5236" style="stroke:#181818;stroke-width:0.5;"/><text fill="#000000" font-family="sans-serif" font-size="14" lengthAdjust="spacing" textLength="29.374" x="282.1936" y="385.6521">PJ&#23436;&#20102;</text></g><!--entity PJ???????--><g class="entity" data-qualified-name="Project Domain.PJ......." data-source-line="12" id="ent0009"><ellipse cx="296.8839" cy="317.0036" fill="#F1F1F1" rx="53.4739" ry="14.5236" style="stroke:#181818;stroke-width:0.5;"/><text fill="#000000" font-family="sans-serif" font-size="14" lengthAdjust="spacing" textLength="71.3809" x="261.1935" y="321.6521">PJ&#12395;&#12481;&#12540;&#12512;&#12434;&#36861;&#21152;</text></g><!--entity PJ?????????--><g class="entity" data-qualified-name="Project Domain.PJ........." data-source-line="13" id="ent0010"><ellipse cx="296.8834" cy="576.9967" fill="#F1F1F1" rx="63.0334" ry="15.0067" style="stroke:#181818;stroke-width:0.5;"/><text fill="#000000" font-family="sans-serif" font-size="14" lengthAdjust="spacing" textLength="88.1836" x="252.7916" y="581.6451">PJ&#36914;&#25431;&#31649;&#29702;&#12508;&#12540;&#12489;&#21442;&#29031;</text></g><!--entity PJ?????--><g class="entity" data-qualified-name="Project Domain.PJ....." data-source-line="14" id="ent0011"><ellipse cx="296.8826" cy="253.0036" fill="#F1F1F1" rx="41.5926" ry="14.5236" style="stroke:#181818;stroke-width:0.5;"/><text fill="#000000" font-family="sans-serif" font-size="14" lengthAdjust="spacing" textLength="54.5781" x="269.5935" y="257.6521">PJ&#12525;&#12540;&#12523;&#21106;&#24403;</text></g><!--entity PJ????????--><g class="entity" data-qualified-name="Project Domain.PJ........" data-source-line="15" id="ent0012"><ellipse cx="296.8846" cy="189.0036" fill="#F1F1F1" rx="59.4146" ry="14.5236" style="stroke:#181818;stroke-width:0.5;"/><text fill="#000000" font-family="sans-serif" font-size="14" lengthAdjust="spacing" textLength="79.7822" x="256.9934" y="193.6521">PJ&#12525;&#12540;&#12523;&#25285;&#24403;&#32773;&#26356;&#26032;</text></g><!--entity PJ???????????--><g class="entity" data-qualified-name="Project Domain.PJ..........." data-source-line="16" id="ent0013"><ellipse cx="296.8789" cy="510.9998" fill="#F1F1F1" rx="69.4489" ry="16.2898" style="stroke:#181818;stroke-width:0.5;"/><text fill="#000000" font-family="sans-serif" font-size="14" lengthAdjust="spacing" textLength="104.9863" x="244.3857" y="515.6482">PJ&#12525;&#12540;&#12523;&#25152;&#26377;&#29366;&#27841;&#19968;&#35239;&#21442;&#29031;</text></g><!--entity PJ????????????--><g class="entity" data-qualified-name="Project Domain.PJ............" data-source-line="17" id="ent0014"><ellipse cx="296.8849" cy="123.003" fill="#F1F1F1" rx="72.8149" ry="16.963" style="stroke:#181818;stroke-width:0.5;"/><text fill="#000000" font-family="sans-serif" font-size="14" lengthAdjust="spacing" textLength="113.3877" x="240.191" y="127.6514">PJ&#27598;&#12398;&#12469;&#12540;&#12505;&#12452;&#24179;&#22343;&#32080;&#26524;&#38322;&#35239;</text></g><!--entity ?????????\n??????????--><g class="entity" data-qualified-name="Project Domain...........n.........." data-source-line="18" id="ent0015"><ellipse cx="296.8829" cy="652.9965" fill="#F1F1F1" rx="61.0129" ry="25.5065" style="stroke:#181818;stroke-width:0.5;"/><text fill="#000000" font-family="sans-serif" font-size="14" lengthAdjust="spacing" textLength="75.6123" x="259.0767" y="648.7224">&#26085;&#27425;&#12497;&#12501;&#12457;&#12540;&#12510;&#12531;&#12473;</text><text fill="#000000" font-family="sans-serif" font-size="14" lengthAdjust="spacing" textLength="84.0137" x="254.8761" y="665.0193">&#12473;&#12490;&#12483;&#12503;&#12471;&#12519;&#12483;&#12488;&#35352;&#37682;</text></g><!--entity Manager--><g class="entity" data-qualified-name="Manager" data-source-line="3" id="ent0002"><ellipse cx="85.0341" cy="287.35" fill="#F1F1F1" rx="8" ry="8" style="stroke:#181818;stroke-width:0.5;"/><path d="M85.0341,295.35 L85.0341,322.35 M72.0341,303.35 L98.0341,303.35 M85.0341,322.35 L72.0341,337.35 M85.0341,322.35 L98.0341,337.35" fill="none" style="stroke:#181818;stroke-width:0.5;"/><text fill="#000000" font-family="sans-serif" font-size="14" lengthAdjust="spacing" textLength="50.4082" x="59.83" y="351.8451">&#12510;&#12493;&#12540;&#12472;&#12515;&#12540;</text></g><!--entity Member--><g class="entity" data-qualified-name="Member" data-source-line="4" id="ent0003"><ellipse cx="85.0327" cy="496.35" fill="#F1F1F1" rx="8" ry="8" style="stroke:#181818;stroke-width:0.5;"/><path d="M85.0327,504.35 L85.0327,531.35 M72.0327,512.35 L98.0327,512.35 M85.0327,531.35 L72.0327,546.35 M85.0327,531.35 L98.0327,546.35" fill="none" style="stroke:#181818;stroke-width:0.5;"/><text fill="#000000" font-family="sans-serif" font-size="14" lengthAdjust="spacing" textLength="33.6055" x="68.23" y="560.8451">&#12513;&#12531;&#12496;&#12540;</text></g><!--entity Scheduler--><g class="entity" data-qualified-name="Scheduler" data-source-line="5" id="ent0004"><ellipse cx="85.0303" cy="623.35" fill="#F1F1F1" rx="8" ry="8" style="stroke:#181818;stroke-width:0.5;"/><path d="M85.0303,631.35 L85.0303,658.35 M72.0303,639.35 L98.0303,639.35 M85.0303,658.35 L72.0303,673.35 M85.0303,658.35 L98.0303,673.35" fill="none" style="stroke:#181818;stroke-width:0.5;"/><text fill="#000000" font-family="sans-serif" font-size="14" lengthAdjust="spacing" textLength="158.0605" x="6" y="687.8451">&#12473;&#12465;&#12472;&#12517;&#12540;&#12521;&#12540;(Cron/Worker)</text></g><!--link Manager to PJ??--><g class="link" data-entity-1="ent0002" data-entity-2="ent0006" data-link-type="dependency" data-source-line="22" id="lnk16"><path d="M95.36,278.64 C109.57,228.17 141.39,139.91 200.06,89 C220.86,70.95 246.2585,63.9773 267.3785,60.5273" fill="none" id="Manager-to-PJ&#20316;&#25104;" style="stroke:#181818;stroke-width:1;"/><polygon fill="#181818" points="273.3,59.56,263.7729,57.0633,268.3654,60.3661,265.0626,64.9586,273.3,59.56" style="stroke:#181818;stroke-width:1;"/></g><!--link Manager to PJ????--><g class="link" data-entity-1="ent0002" data-entity-2="ent0007" data-link-type="dependency" data-source-line="23" id="lnk17"><path d="M110.64,342.56 C132.43,363.92 165.98,393.89 200.06,413 C220.56,424.49 240.0566,431.1592 259.5066,436.3992" fill="none" id="Manager-to-PJ&#27010;&#35201;&#26356;&#26032;" style="stroke:#181818;stroke-width:1;"/><polygon fill="#181818" points="265.3,437.96,257.6504,431.7565,260.4721,436.6593,255.5693,439.4811,265.3,437.96" style="stroke:#181818;stroke-width:1;"/></g><!--link Manager to PJ??--><g class="link" data-entity-1="ent0002" data-entity-2="ent0008" data-link-type="dependency" data-source-line="24" id="lnk18"><path d="M110.51,324.47 C152.14,337.16 230.2308,360.9802 269.2608,372.8802" fill="none" id="Manager-to-PJ&#23436;&#20102;" style="stroke:#181818;stroke-width:1;"/><polygon fill="#181818" points="275,374.63,267.5578,368.1791,270.2174,373.1718,265.2247,375.8314,275,374.63" style="stroke:#181818;stroke-width:1;"/></g><!--link Manager to PJ???????--><g class="link" data-entity-1="ent0002" data-entity-2="ent0009" data-link-type="dependency" data-source-line="25" id="lnk19"><path d="M110.51,317 C142.84,317 194.63,317 237.11,317" fill="none" id="Manager-to-PJ&#12395;&#12481;&#12540;&#12512;&#12434;&#36861;&#21152;" style="stroke:#181818;stroke-width:1;"/><polygon fill="#181818" points="243.11,317,234.11,313,238.11,317,234.11,321,243.11,317" style="stroke:#181818;stroke-width:1;"/></g><!--link Manager to PJ?????????--><g class="link" data-entity-1="ent0002" data-entity-2="ent0010" data-link-type="dependency" data-source-line="26" id="lnk20"><path d="M106.01,355.54 C121.93,386.4 144.68,430.85 164.06,470 C180.46,503.14 172.33,520.54 200.06,545 C212.69,556.14 223.5735,561.6942 239.4235,566.4542" fill="none" id="Manager-to-PJ&#36914;&#25431;&#31649;&#29702;&#12508;&#12540;&#12489;&#21442;&#29031;" style="stroke:#181818;stroke-width:1;"/><polygon fill="#181818" points="245.17,568.18,237.7008,561.7604,240.3813,566.7419,235.3998,569.4223,245.17,568.18" style="stroke:#181818;stroke-width:1;"/></g><!--link Manager to PJ?????--><g class="link" data-entity-1="ent0002" data-entity-2="ent0011" data-link-type="dependency" data-source-line="27" id="lnk21"><path d="M110.51,309.53 C148.79,297.86 217.011,277.0504 259.011,264.2404" fill="none" id="Manager-to-PJ&#12525;&#12540;&#12523;&#21106;&#24403;" style="stroke:#181818;stroke-width:1;"/><polygon fill="#181818" points="264.75,262.49,254.9746,261.2896,259.9675,263.9487,257.3084,268.9416,264.75,262.49" style="stroke:#181818;stroke-width:1;"/></g><!--link Manager to PJ????????--><g class="link" data-entity-1="ent0002" data-entity-2="ent0012" data-link-type="dependency" data-source-line="28" id="lnk22"><path d="M110.64,291.44 C132.43,270.08 165.98,240.11 200.06,221 C216.73,211.65 230.8315,206.1789 248.1215,201.0089" fill="none" id="Manager-to-PJ&#12525;&#12540;&#12523;&#25285;&#24403;&#32773;&#26356;&#26032;" style="stroke:#181818;stroke-width:1;"/><polygon fill="#181818" points="253.87,199.29,244.1013,198.036,249.0796,200.7224,246.3932,205.7007,253.87,199.29" style="stroke:#181818;stroke-width:1;"/></g><!--link Manager to PJ???????????--><g class="link" data-entity-1="ent0002" data-entity-2="ent0013" data-link-type="dependency" data-source-line="29" id="lnk23"><path d="M104.64,355.46 C123.89,391.54 157.17,444.65 200.06,477 C213.45,487.1 224.3928,492.4979 240.0428,497.6679" fill="none" id="Manager-to-PJ&#12525;&#12540;&#12523;&#25152;&#26377;&#29366;&#27841;&#19968;&#35239;&#21442;&#29031;" style="stroke:#181818;stroke-width:1;"/><polygon fill="#181818" points="245.74,499.55,238.4489,492.9288,240.9924,497.9816,235.9395,500.525,245.74,499.55" style="stroke:#181818;stroke-width:1;"/></g><!--link Manager to PJ????????????--><g class="link" data-entity-1="ent0002" data-entity-2="ent0014" data-link-type="dependency" data-source-line="30" id="lnk24"><path d="M104.64,278.54 C123.89,242.46 157.17,189.35 200.06,157 C213.02,147.22 223.3558,142.0009 238.5658,136.8609" fill="none" id="Manager-to-PJ&#27598;&#12398;&#12469;&#12540;&#12505;&#12452;&#24179;&#22343;&#32080;&#26524;&#38322;&#35239;" style="stroke:#181818;stroke-width:1;"/><polygon fill="#181818" points="244.25,134.94,234.4431,134.0319,239.5132,136.5407,237.0043,141.6108,244.25,134.94" style="stroke:#181818;stroke-width:1;"/></g><!--link Member to PJ?????????--><g class="link" data-entity-1="ent0003" data-entity-2="ent0010" data-link-type="dependency" data-source-line="32" id="lnk25"><path d="M102.15,529.92 C133.72,537.59 198.8799,553.4221 245.5899,564.7821" fill="none" id="Member-to-PJ&#36914;&#25431;&#31649;&#29702;&#12508;&#12540;&#12489;&#21442;&#29031;" style="stroke:#181818;stroke-width:1;"/><polygon fill="#181818" points="251.42,566.2,243.6202,560.1865,246.5616,565.0184,241.7297,567.9599,251.42,566.2" style="stroke:#181818;stroke-width:1;"/></g><!--link Member to PJ???????????--><g class="link" data-entity-1="ent0003" data-entity-2="ent0013" data-link-type="dependency" data-source-line="33" id="lnk26"><path d="M102.15,524.85 C129.21,522.91 179.2453,519.3381 224.1153,516.1281" fill="none" id="Member-to-PJ&#12525;&#12540;&#12523;&#25152;&#26377;&#29366;&#27841;&#19968;&#35239;&#21442;&#29031;" style="stroke:#181818;stroke-width:1;"/><polygon fill="#181818" points="230.1,515.7,220.8375,512.3524,225.1127,516.0568,221.4084,520.332,230.1,515.7" style="stroke:#181818;stroke-width:1;"/></g><!--link Scheduler to ?????????\n??????????--><g class="link" data-entity-1="ent0004" data-entity-2="ent0015" data-link-type="dependency" data-source-line="35" id="lnk27"><path d="M164.47,653 C187.98,653 207.4,653 229.55,653" fill="none" id="Scheduler-to-&#26085;&#27425;&#12497;&#12501;&#12457;&#12540;&#12510;&#12531;&#12473;\n&#12473;&#12490;&#12483;&#12503;&#12471;&#12519;&#12483;&#12488;&#35352;&#37682;" style="stroke:#181818;stroke-width:1;"/><polygon fill="#181818" points="235.55,653,226.55,649,230.55,653,226.55,657,235.55,653" style="stroke:#181818;stroke-width:1;"/></g><?plantuml-src fPFDJi9058NtynIJhdH1V0CtkZ8nCN7Xnaqj5L5iar9NneJE11JyGusY4Gb41GcA2g9W93xCfTFo5hRr3qPhIDmqqtlEkRsTRoOYp-jOLx4M3YteE1ZMP4aFgmf2egIh6XQ0ve1k0tq1qWHwxYm4B4RnfAY88LdxTXM0re6cltHvUQv79YqWzrw7IxSLBJlFeJ5DLKPcL6r9reQzqBIq80TN8auEkME8IYWYOs5AKnUTDpokBejXHS2h266y4fKbCUgg4vrsbcsaXVuYAnAxQB3J1tPqnqbcTQlpdE2AO5I06jviUI3xzclRJEKvJpTMOziPgrgmqWcWMS-SD7U95I_ntUYDfrRCPCri7_YfR3Fkg7Oi_kkStxPaZ6MJLkgHrOrECsONIxz-bDtkW545ql1I9q0kp5RTF5kt6ccMotQFQawmBy8ob-pQuRO7z118sOlbN8oaDQkuo6WAA0MQ0V84jEIjD-ohu-vMJK1e3Q6FGu03WT5U45ov7mKdViBWoZuuEDUVGFYEF18__GSKNwCl5du31WA3tg_COF_MPnrW8lHrjTv3_qB_1W00?></g></svg>