<?plantuml 1.2026.2?><svg xmlns="http://www.w3.org/2000/svg" xmlns:xlink="http://www.w3.org/1999/xlink" contentStyleType="text/css" data-diagram-type="DESCRIPTION" height="703px" preserveAspectRatio="none" style="width:392px;height:703px;background:#FFFFFF;" version="1.1" viewBox="0 0 392 703" width="392px" zoomAndPan="magnify"><defs/><g><!--cluster Project Domain--><g class="cluster" data-qualified-name="Project Domain" data-source-line="7" id="ent0005"><rect fill="none" height="690" rx="2.5" ry="2.5" style="stroke:#181818;stroke-width:1;" width="178" x="208" y="7"/><text fill="#000000" font-family="sans-serif" font-size="14" font-weight="bold" lengthAdjust="spacing" textLength="120.9824" x="236.5088" y="21.9951">Project Domain</text></g><!--entity PJ??--><g class="entity" data-qualified-name="Project Domain.PJ.." data-source-line="9" id="ent0006"><ellipse cx="296.7706" cy="126.0236" fill="#F1F1F1" rx="23.7706" ry="14.5236" style="stroke:#181818;stroke-width:0.5;"/><text fill="#000000" font-family="sans-serif" font-size="14" lengthAdjust="spacing" textLength="29.374" x="282.0836" y="130.6721">PJ&#20316;&#25104;</text></g><!--entity PJ????--><g class="entity" data-qualified-name="Project Domain.PJ...." data-source-line="10" id="ent0007"><ellipse cx="297.1519" cy="190.0236" fill="#F1F1F1" rx="35.6519" ry="14.5236" style="stroke:#181818;stroke-width:0.5;"/><text fill="#000000" font-family="sans-serif" font-size="14" lengthAdjust="spacing" textLength="46.1768" x="274.0635" y="194.6721">PJ&#27010;&#35201;&#26356;&#26032;</text></g><!--entity PJ??--><g class="entity" data-qualified-name="Project Domain.PJ.." data-source-line="11" id="ent0008"><ellipse cx="296.7706" cy="254.0236" fill="#F1F1F1" rx="23.7706" ry="14.5236" style="stroke:#181818;stroke-width:0.5;"/><text fill="#000000" font-family="sans-serif" font-size="14" lengthAdjust="spacing" textLength="29.374" x="282.0836" y="258.6721">PJ&#23436;&#20102;</text></g><!--entity PJ???????--><g class="entity" data-qualified-name="Project Domain.PJ......." data-source-line="12" id="ent0009"><ellipse cx="296.9739" cy="318.0236" fill="#F1F1F1" rx="53.4739" ry="14.5236" style="stroke:#181818;stroke-width:0.5;"/><text fill="#000000" font-family="sans-serif" font-size="14" lengthAdjust="spacing" textLength="71.3809" x="261.2835" y="322.6721">PJ&#12395;&#12481;&#12540;&#12512;&#12434;&#36861;&#21152;</text></g><!--entity PJ?????????--><g class="entity" data-qualified-name="Project Domain.PJ........." data-source-line="13" id="ent0010"><ellipse cx="297.0334" cy="579.0067" fill="#F1F1F1" rx="63.0334" ry="15.0067" style="stroke:#181818;stroke-width:0.5;"/><text fill="#000000" font-family="sans-serif" font-size="14" lengthAdjust="spacing" textLength="88.1836" x="252.9416" y="583.6551">PJ&#36914;&#25431;&#31649;&#29702;&#12508;&#12540;&#12489;&#21442;&#29031;</text></g><!--entity PJ?????--><g class="entity" data-qualified-name="Project Domain.PJ....." data-source-line="14" id="ent0011"><ellipse cx="297.0926" cy="382.0236" fill="#F1F1F1" rx="41.5926" ry="14.5236" style="stroke:#181818;stroke-width:0.5;"/><text fill="#000000" font-family="sans-serif" font-size="14" lengthAdjust="spacing" textLength="54.5781" x="269.8035" y="386.6721">PJ&#12525;&#12540;&#12523;&#21106;&#24403;</text></g><!--entity PJ????????--><g class="entity" data-qualified-name="Project Domain.PJ........" data-source-line="15" id="ent0012"><ellipse cx="296.9146" cy="446.0236" fill="#F1F1F1" rx="59.4146" ry="14.5236" style="stroke:#181818;stroke-width:0.5;"/><text fill="#000000" font-family="sans-serif" font-size="14" lengthAdjust="spacing" textLength="79.7822" x="257.0234" y="450.6721">PJ&#12525;&#12540;&#12523;&#25285;&#24403;&#32773;&#26356;&#26032;</text></g><!--entity PJ???????????--><g class="entity" data-qualified-name="Project Domain.PJ..........." data-source-line="16" id="ent0013"><ellipse cx="296.9489" cy="511.7898" fill="#F1F1F1" rx="69.4489" ry="16.2898" style="stroke:#181818;stroke-width:0.5;"/><text fill="#000000" font-family="sans-serif" font-size="14" lengthAdjust="spacing" textLength="104.9863" x="244.4557" y="516.4382">PJ&#12525;&#12540;&#12523;&#25152;&#26377;&#29366;&#27841;&#19968;&#35239;&#21442;&#29031;</text></g><!--entity PJ????????????--><g class="entity" data-qualified-name="Project Domain.PJ............" data-source-line="17" id="ent0014"><ellipse cx="296.8149" cy="58.963" fill="#F1F1F1" rx="72.8149" ry="16.963" style="stroke:#181818;stroke-width:0.5;"/><text fill="#000000" font-family="sans-serif" font-size="14" lengthAdjust="spacing" textLength="113.3877" x="240.121" y="63.6114">PJ&#27598;&#12398;&#12469;&#12540;&#12505;&#12452;&#24179;&#22343;&#32080;&#26524;&#38322;&#35239;</text></g><!--entity ?????????\n??????????--><g class="entity" data-qualified-name="Project Domain...........n.........." data-source-line="18" id="ent0015"><ellipse cx="297.0129" cy="655.0065" fill="#F1F1F1" rx="61.0129" ry="25.5065" style="stroke:#181818;stroke-width:0.5;"/><text fill="#000000" font-family="sans-serif" font-size="14" lengthAdjust="spacing" textLength="75.6123" x="259.2067" y="650.7324">&#26085;&#27425;&#12497;&#12501;&#12457;&#12540;&#12510;&#12531;&#12473;</text><text fill="#000000" font-family="sans-serif" font-size="14" lengthAdjust="spacing" textLength="84.0137" x="255.0061" y="667.0293">&#12473;&#12490;&#12483;&#12503;&#12471;&#12519;&#12483;&#12488;&#35352;&#37682;</text></g><!--entity Manager--><g class="entity" data-qualified-name="Manager" data-source-line="3" id="ent0002"><ellipse cx="85.2041" cy="288.5" fill="#F1F1F1" rx="8" ry="8" style="stroke:#181818;stroke-width:0.5;"/><path d="M85.2041,296.5 L85.2041,323.5 M72.2041,304.5 L98.2041,304.5 M85.2041,323.5 L72.2041,338.5 M85.2041,323.5 L98.2041,338.5" fill="none" style="stroke:#181818;stroke-width:0.5;"/><text fill="#000000" font-family="sans-serif" font-size="14" lengthAdjust="spacing" textLength="50.4082" x="60" y="352.9951">&#12510;&#12493;&#12540;&#12472;&#12515;&#12540;</text></g><!--entity Member--><g class="entity" data-qualified-name="Member" data-source-line="4" id="ent0003"><ellipse cx="84.8027" cy="498.5" fill="#F1F1F1" rx="8" ry="8" style="stroke:#181818;stroke-width:0.5;"/><path d="M84.8027,506.5 L84.8027,533.5 M71.8027,514.5 L97.8027,514.5 M84.8027,533.5 L71.8027,548.5 M84.8027,533.5 L97.8027,548.5" fill="none" style="stroke:#181818;stroke-width:0.5;"/><text fill="#000000" font-family="sans-serif" font-size="14" lengthAdjust="spacing" textLength="33.6055" x="68" y="562.9951">&#12513;&#12531;&#12496;&#12540;</text></g><!--entity Scheduler--><g class="entity" data-qualified-name="Scheduler" data-source-line="5" id="ent0004"><ellipse cx="85.0303" cy="625.5" fill="#F1F1F1" rx="8" ry="8" style="stroke:#181818;stroke-width:0.5;"/><path d="M85.0303,633.5 L85.0303,660.5 M72.0303,641.5 L98.0303,641.5 M85.0303,660.5 L72.0303,675.5 M85.0303,660.5 L98.0303,675.5" fill="none" style="stroke:#181818;stroke-width:0.5;"/><text fill="#000000" font-family="sans-serif" font-size="14" lengthAdjust="spacing" textLength="158.0605" x="6" y="689.9951">&#12473;&#12465;&#12472;&#12517;&#12540;&#12521;&#12540;(Cron/Worker)</text></g><!--link Manager to PJ??--><g class="link" data-entity-1="ent0002" data-entity-2="ent0006" data-link-type="dependency" data-source-line="22" id="lnk16"><path d="M104.28,279.7 C123.4,243.48 156.67,190.04 200,158 C222.04,141.7 246.9697,134.5323 267.6997,130.5123" fill="none" id="Manager-to-PJ&#20316;&#25104;" style="stroke:#181818;stroke-width:1;"/><polygon fill="#181818" points="273.59,129.37,263.9931,127.1565,268.6814,130.3219,265.5161,135.0102,273.59,129.37" style="stroke:#181818;stroke-width:1;"/></g><!--link Manager to PJ????--><g class="link" data-entity-1="ent0002" data-entity-2="ent0007" data-link-type="dependency" data-source-line="23" id="lnk17"><path d="M110.17,292.86 C131.93,271.47 165.69,241.23 200,222 C220.69,210.4 240.4531,203.6878 260.0031,198.4678" fill="none" id="Manager-to-PJ&#27010;&#35201;&#26356;&#26032;" style="stroke:#181818;stroke-width:1;"/><polygon fill="#181818" points="265.8,196.92,256.0727,195.3771,260.9692,198.2099,258.1365,203.1063,265.8,196.92" style="stroke:#181818;stroke-width:1;"/></g><!--link Manager to PJ??--><g class="link" data-entity-1="ent0002" data-entity-2="ent0008" data-link-type="dependency" data-source-line="24" id="lnk18"><path d="M110.09,310.66 C151.68,297.98 230.4808,273.9697 269.5808,262.0497" fill="none" id="Manager-to-PJ&#23436;&#20102;" style="stroke:#181818;stroke-width:1;"/><polygon fill="#181818" points="275.32,260.3,265.5447,259.0983,270.5373,261.758,267.8776,266.7506,275.32,260.3" style="stroke:#181818;stroke-width:1;"/></g><!--link Manager to PJ???????--><g class="link" data-entity-1="ent0002" data-entity-2="ent0009" data-link-type="dependency" data-source-line="25" id="lnk19"><path d="M110.09,318 C142.41,318 194.68,318 237.4,318" fill="none" id="Manager-to-PJ&#12395;&#12481;&#12540;&#12512;&#12434;&#36861;&#21152;" style="stroke:#181818;stroke-width:1;"/><polygon fill="#181818" points="243.4,318,234.4,314,238.4,318,234.4,322,243.4,318" style="stroke:#181818;stroke-width:1;"/></g><!--link Manager to PJ?????????--><g class="link" data-entity-1="ent0002" data-entity-2="ent0010" data-link-type="dependency" data-source-line="26" id="lnk20"><path d="M105.56,356.2 C121.44,387.31 144.34,432.41 164,472 C180.26,504.76 172.61,521.76 200,546 C212.93,557.45 224.2895,563.2244 240.4695,568.1444" fill="none" id="Manager-to-PJ&#36914;&#25431;&#31649;&#29702;&#12508;&#12540;&#12489;&#21442;&#29031;" style="stroke:#181818;stroke-width:1;"/><polygon fill="#181818" points="246.21,569.89,238.763,563.4447,241.4263,568.4354,236.4356,571.0986,246.21,569.89" style="stroke:#181818;stroke-width:1;"/></g><!--link Manager to PJ?????--><g class="link" data-entity-1="ent0002" data-entity-2="ent0011" data-link-type="dependency" data-source-line="27" id="lnk21"><path d="M110.09,325.34 C148.34,337 217.1804,357.9816 259.3304,370.8216" fill="none" id="Manager-to-PJ&#12525;&#12540;&#12523;&#21106;&#24403;" style="stroke:#181818;stroke-width:1;"/><polygon fill="#181818" points="265.07,372.57,257.6262,366.121,260.287,371.113,255.295,373.7737,265.07,372.57" style="stroke:#181818;stroke-width:1;"/></g><!--link Manager to PJ????????--><g class="link" data-entity-1="ent0002" data-entity-2="ent0012" data-link-type="dependency" data-source-line="28" id="lnk22"><path d="M110.17,343.14 C131.93,364.53 165.69,394.77 200,414 C216.86,423.45 231.1992,428.9686 248.6392,434.1586" fill="none" id="Manager-to-PJ&#12525;&#12540;&#12523;&#25285;&#24403;&#32773;&#26356;&#26032;" style="stroke:#181818;stroke-width:1;"/><polygon fill="#181818" points="254.39,435.87,246.9048,429.4691,249.5977,434.4439,244.6229,437.1368,254.39,435.87" style="stroke:#181818;stroke-width:1;"/></g><!--link Manager to PJ???????????--><g class="link" data-entity-1="ent0002" data-entity-2="ent0013" data-link-type="dependency" data-source-line="29" id="lnk23"><path d="M104.41,356.13 C123.63,392.21 156.97,445.56 200,478 C213.41,488.11 224.3921,493.5201 240.0621,498.6901" fill="none" id="Manager-to-PJ&#12525;&#12540;&#12523;&#25152;&#26377;&#29366;&#27841;&#19968;&#35239;&#21442;&#29031;" style="stroke:#181818;stroke-width:1;"/><polygon fill="#181818" points="245.76,500.57,238.4664,493.9516,241.0118,499.0034,235.9599,501.5487,245.76,500.57" style="stroke:#181818;stroke-width:1;"/></g><!--link Manager to PJ????????????--><g class="link" data-entity-1="ent0002" data-entity-2="ent0014" data-link-type="dependency" data-source-line="30" id="lnk24"><path d="M95.97,279.7 C110.74,230.22 143,144.48 200,94 C212.09,83.3 222.0408,77.7447 237.1608,72.5047" fill="none" id="Manager-to-PJ&#27598;&#12398;&#12469;&#12540;&#12505;&#12452;&#24179;&#22343;&#32080;&#26524;&#38322;&#35239;" style="stroke:#181818;stroke-width:1;"/><polygon fill="#181818" points="242.83,70.54,233.0164,69.7076,238.1057,72.1773,235.636,77.2666,242.83,70.54" style="stroke:#181818;stroke-width:1;"/></g><!--link Member to PJ?????????--><g class="link" data-entity-1="ent0003" data-entity-2="ent0010" data-link-type="dependency" data-source-line="32" id="lnk25"><path d="M102.13,531.92 C133.92,539.64 199.7995,555.6339 246.5295,566.9839" fill="none" id="Member-to-PJ&#36914;&#25431;&#31649;&#29702;&#12508;&#12540;&#12489;&#21442;&#29031;" style="stroke:#181818;stroke-width:1;"/><polygon fill="#181818" points="252.36,568.4,244.5584,562.3888,247.5013,567.2199,242.6702,570.1628,252.36,568.4" style="stroke:#181818;stroke-width:1;"/></g><!--link Member to PJ???????????--><g class="link" data-entity-1="ent0003" data-entity-2="ent0013" data-link-type="dependency" data-source-line="33" id="lnk26"><path d="M102.13,526.77 C129.31,524.7 179.6874,520.8661 224.6774,517.4361" fill="none" id="Member-to-PJ&#12525;&#12540;&#12523;&#25152;&#26377;&#29366;&#27841;&#19968;&#35239;&#21442;&#29031;" style="stroke:#181818;stroke-width:1;"/><polygon fill="#181818" points="230.66,516.98,221.382,513.6757,225.6745,517.3601,221.9901,521.6526,230.66,516.98" style="stroke:#181818;stroke-width:1;"/></g><!--link Scheduler to ?????????\n??????????--><g class="link" data-entity-1="ent0004" data-entity-2="ent0015" data-link-type="dependency" data-source-line="35" id="lnk27"><path d="M164.2,655 C187.87,655 207.49,655 229.79,655" fill="none" id="Scheduler-to-&#26085;&#27425;&#12497;&#12501;&#12457;&#12540;&#12510;&#12531;&#12473;\n&#12473;&#12490;&#12483;&#12503;&#12471;&#12519;&#12483;&#12488;&#35352;&#37682;" style="stroke:#181818;stroke-width:1;"/><polygon fill="#181818" points="235.79,655,226.79,651,230.79,655,226.79,659,235.79,655" style="stroke:#181818;stroke-width:1;"/></g><?plantuml-src fPFDJi9058NtynIJhdH1V0CtkZ8nCN7Xnaqj5L5iar9NneJE11JyGusY4Gb41GcA2g9W93xCfTFo5hRr3qPhIDmqqtlEkRsTRoOYp-jOLx4M3YteE1ZMP4aFgmf2egIh6XQ0ve1k0tq1qWHwxYm4B4RnfAY88LdxTXM0re6cltHvUQv79YqWzrw7IxSLBJlFeJ5DLKPcL6r9reQzqBIq80TN8auEkME8IYWYOs5AKnUTDpokBejXHS2h266y4fKbCUgg4vrsbcsaXVuYAnAxQB3J1tPqnqbcTQlpdE2AO5I06jviUI3xzclRJEKvJpTMOziPgrgmqWcWMS-SD7U95I_ntUYDfrRCPCri7_YfR3Fkg7Oi_kkStxPaZ6MJLkgHrOrECsONIxz-bDtkW545ql1I9q0kp5RTF5kt6ccMotQFQawmBy8ob-pQuRO7z118sOlbN8oaDQkuo6WAA0MQ0V84jEIjD-ohu-vMJK1e3Q6FGu03WT5U45ov7mKdViBWoZuuEDUVGFYEF18__GSKNwCl5du31WA3tg_COF_MPnrW8lHrjTv3_qB_1W00?></g></svg>