<?plantuml 1.2026.2?><svg xmlns="http://www.w3.org/2000/svg" xmlns:xlink="http://www.w3.org/1999/xlink" contentStyleType="text/css" data-diagram-type="DESCRIPTION" height="744px" preserveAspectRatio="none" style="width:487px;height:744px;background:#FFFFFF;" version="1.1" viewBox="0 0 487 744" width="487px" zoomAndPan="magnify"><defs/><g><!--cluster Project Domain--><g class="cluster" data-qualified-name="Project Domain" data-source-line="7" id="ent0005"><rect fill="none" height="731" rx="2.5" ry="2.5" style="stroke:#181818;stroke-width:1;" width="236.06" x="245.17" y="7"/><text fill="#000000" font-family="sans-serif" font-size="14" font-weight="bold" lengthAdjust="spacing" textLength="110.0928" x="308.1536" y="22.5352">Project Domain</text></g><!--entity PJ??--><g class="entity" data-qualified-name="Project Domain.PJ.." data-source-line="9" id="ent0006"><ellipse cx="363.1999" cy="56.999" fill="#F1F1F1" rx="31.3499" ry="14.659" style="stroke:#181818;stroke-width:0.5;"/><text fill="#000000" font-family="sans-serif" font-size="14" lengthAdjust="spacing" textLength="40.0928" x="343.1535" y="61.7431">PJ&#20316;&#25104;</text></g><!--entity PJ????--><g class="entity" data-qualified-name="Project Domain.PJ...." data-source-line="10" id="ent0007"><ellipse cx="363.1989" cy="468.999" fill="#F1F1F1" rx="51.1489" ry="14.659" style="stroke:#181818;stroke-width:0.5;"/><text fill="#000000" font-family="sans-serif" font-size="14" lengthAdjust="spacing" textLength="68.0928" x="329.1525" y="473.7431">PJ&#27010;&#35201;&#26356;&#26032;</text></g><!--entity PJ??--><g class="entity" data-qualified-name="Project Domain.PJ.." data-source-line="11" id="ent0008"><ellipse cx="363.1999" cy="404.999" fill="#F1F1F1" rx="31.3499" ry="14.659" style="stroke:#181818;stroke-width:0.5;"/><text fill="#000000" font-family="sans-serif" font-size="14" lengthAdjust="spacing" textLength="40.0928" x="343.1535" y="409.7431">PJ&#23436;&#20102;</text></g><!--entity PJ???????--><g class="entity" data-qualified-name="Project Domain.PJ......." data-source-line="12" id="ent0009"><ellipse cx="363.1996" cy="339.0039" fill="#F1F1F1" rx="71.7696" ry="16.7539" style="stroke:#181818;stroke-width:0.5;"/><text fill="#000000" font-family="sans-serif" font-size="14" lengthAdjust="spacing" textLength="110.0928" x="308.1532" y="343.7481">PJ&#12395;&#12481;&#12540;&#12512;&#12434;&#36861;&#21152;</text></g><!--entity PJ?????????--><g class="entity" data-qualified-name="Project Domain.PJ........." data-source-line="13" id="ent0010"><ellipse cx="363.2049" cy="616.003" fill="#F1F1F1" rx="83.4149" ry="19.083" style="stroke:#181818;stroke-width:0.5;"/><text fill="#000000" font-family="sans-serif" font-size="14" lengthAdjust="spacing" textLength="138.0928" x="294.1585" y="620.7471">PJ&#36914;&#25431;&#31649;&#29702;&#12508;&#12540;&#12489;&#21442;&#29031;</text></g><!--entity PJ?????--><g class="entity" data-qualified-name="Project Domain.PJ....." data-source-line="14" id="ent0011"><ellipse cx="363.1984" cy="272.999" fill="#F1F1F1" rx="61.0484" ry="14.659" style="stroke:#181818;stroke-width:0.5;"/><text fill="#000000" font-family="sans-serif" font-size="14" lengthAdjust="spacing" textLength="82.0928" x="322.152" y="277.7431">PJ&#12525;&#12540;&#12523;&#21106;&#24403;</text></g><!--entity PJ????????--><g class="entity" data-qualified-name="Project Domain.PJ........" data-source-line="15" id="ent0012"><ellipse cx="363.2009" cy="204.9982" fill="#F1F1F1" rx="77.4909" ry="17.8982" style="stroke:#181818;stroke-width:0.5;"/><text fill="#000000" font-family="sans-serif" font-size="14" lengthAdjust="spacing" textLength="124.0928" x="301.1546" y="209.7423">PJ&#12525;&#12540;&#12523;&#25285;&#24403;&#32773;&#26356;&#26032;</text></g><!--entity PJ???????????--><g class="entity" data-qualified-name="Project Domain.PJ..........." data-source-line="16" id="ent0013"><ellipse cx="363.2038" cy="540.0028" fill="#F1F1F1" rx="95.7138" ry="21.5428" style="stroke:#181818;stroke-width:0.5;"/><text fill="#000000" font-family="sans-serif" font-size="14" lengthAdjust="spacing" textLength="166.0928" x="280.1574" y="544.7469">PJ&#12525;&#12540;&#12523;&#25152;&#26377;&#29366;&#27841;&#19968;&#35239;&#21442;&#29031;</text></g><!--entity PJ????????????--><g class="entity" data-qualified-name="Project Domain.PJ............" data-source-line="17" id="ent0014"><ellipse cx="363.2028" cy="128.9966" fill="#F1F1F1" rx="102.0328" ry="22.8066" style="stroke:#181818;stroke-width:0.5;"/><text fill="#000000" font-family="sans-serif" font-size="14" lengthAdjust="spacing" textLength="180.0928" x="273.1564" y="133.7407">PJ&#27598;&#12398;&#12469;&#12540;&#12505;&#12452;&#24179;&#22343;&#32080;&#26524;&#38322;&#35239;</text></g><!--entity ?????????\n??????????--><g class="entity" data-qualified-name="Project Domain...........n.........." data-source-line="18" id="ent0015"><ellipse cx="363.2024" cy="696.0009" fill="#F1F1F1" rx="99.6724" ry="25.7709" style="stroke:#181818;stroke-width:0.5;"/><text fill="#000000" font-family="sans-serif" font-size="14" lengthAdjust="spacing" textLength="126" x="300.2024" y="691.7177">&#26085;&#27425;&#12497;&#12501;&#12457;&#12540;&#12510;&#12531;&#12473;</text><text fill="#000000" font-family="sans-serif" font-size="14" lengthAdjust="spacing" textLength="140" x="293.2024" y="708.206">&#12473;&#12490;&#12483;&#12503;&#12471;&#12519;&#12483;&#12488;&#35352;&#37682;</text></g><!--entity Manager--><g class="entity" data-qualified-name="Manager" data-source-line="3" id="ent0002"><ellipse cx="103.58" cy="309.26" fill="#F1F1F1" rx="8" ry="8" style="stroke:#181818;stroke-width:0.5;"/><path d="M103.58,317.26 L103.58,344.26 M90.58,325.26 L116.58,325.26 M103.58,344.26 L90.58,359.26 M103.58,344.26 L116.58,359.26" fill="none" style="stroke:#181818;stroke-width:0.5;"/><text fill="#000000" font-family="sans-serif" font-size="14" lengthAdjust="spacing" textLength="84" x="61.58" y="374.2952">&#12510;&#12493;&#12540;&#12472;&#12515;&#12540;</text></g><!--entity Member--><g class="entity" data-qualified-name="Member" data-source-line="4" id="ent0003"><ellipse cx="103.58" cy="532.26" fill="#F1F1F1" rx="8" ry="8" style="stroke:#181818;stroke-width:0.5;"/><path d="M103.58,540.26 L103.58,567.26 M90.58,548.26 L116.58,548.26 M103.58,567.26 L90.58,582.26 M103.58,567.26 L116.58,582.26" fill="none" style="stroke:#181818;stroke-width:0.5;"/><text fill="#000000" font-family="sans-serif" font-size="14" lengthAdjust="spacing" textLength="56" x="75.58" y="597.2952">&#12513;&#12531;&#12496;&#12540;</text></g><!--entity Scheduler--><g class="entity" data-qualified-name="Scheduler" data-source-line="5" id="ent0004"><ellipse cx="103.583" cy="666.26" fill="#F1F1F1" rx="8" ry="8" style="stroke:#181818;stroke-width:0.5;"/><path d="M103.583,674.26 L103.583,701.26 M90.583,682.26 L116.583,682.26 M103.583,701.26 L90.583,716.26 M103.583,701.26 L116.583,716.26" fill="none" style="stroke:#181818;stroke-width:0.5;"/><text fill="#000000" font-family="sans-serif" font-size="14" lengthAdjust="spacing" textLength="195.166" x="6" y="731.2952">&#12473;&#12465;&#12472;&#12517;&#12540;&#12521;&#12540;(Cron/Worker)</text></g><!--link Manager to PJ??--><g class="link" data-entity-1="ent0002" data-entity-2="ent0006" data-link-type="dependency" data-source-line="22" id="lnk16"><path d="M114.33,300.44 C130.36,245.07 167.68,143.7 237.17,89 C264.37,67.59 298.3024,60.8876 325.6724,58.5176" fill="none" id="Manager-to-PJ&#20316;&#25104;" style="stroke:#181818;stroke-width:1;"/><polygon fill="#181818" points="331.65,58,322.3385,54.7913,326.6686,58.4313,323.0286,62.7615,331.65,58" style="stroke:#181818;stroke-width:1;"/></g><!--link Manager to PJ????--><g class="link" data-entity-1="ent0002" data-entity-2="ent0007" data-link-type="dependency" data-source-line="23" id="lnk17"><path d="M146.05,376.21 C170.93,396.78 204.07,421.28 237.17,437 C262.57,449.07 287.2285,455.8036 311.7685,460.7536" fill="none" id="Manager-to-PJ&#27010;&#35201;&#26356;&#26032;" style="stroke:#181818;stroke-width:1;"/><polygon fill="#181818" points="317.65,461.94,309.6186,456.2394,312.7487,460.9514,308.0368,464.0815,317.65,461.94" style="stroke:#181818;stroke-width:1;"/></g><!--link Manager to PJ??--><g class="link" data-entity-1="ent0002" data-entity-2="ent0008" data-link-type="dependency" data-source-line="24" id="lnk18"><path d="M145.79,349.57 C171.96,356.29 206.55,365.16 237.17,373 C271.03,381.67 304.2373,390.1724 329.5573,396.6524" fill="none" id="Manager-to-PJ&#23436;&#20102;" style="stroke:#181818;stroke-width:1;"/><polygon fill="#181818" points="335.37,398.14,327.6427,392.0335,330.5261,396.9003,325.6593,399.7837,335.37,398.14" style="stroke:#181818;stroke-width:1;"/></g><!--link Manager to PJ???????--><g class="link" data-entity-1="ent0002" data-entity-2="ent0009" data-link-type="dependency" data-source-line="25" id="lnk19"><path d="M145.97,339 C185.02,339 238.35,339 284.99,339" fill="none" id="Manager-to-PJ&#12395;&#12481;&#12540;&#12512;&#12434;&#36861;&#21152;" style="stroke:#181818;stroke-width:1;"/><polygon fill="#181818" points="290.99,339,281.99,335,285.99,339,281.99,343,290.99,339" style="stroke:#181818;stroke-width:1;"/></g><!--link Manager to PJ?????????--><g class="link" data-entity-1="ent0002" data-entity-2="ent0010" data-link-type="dependency" data-source-line="26" id="lnk20"><path d="M127.96,377.73 C147.99,411.32 177.31,461.41 201.17,506 C218.23,537.9 209.5,555.69 237.17,579 C252.57,591.98 266.6078,598.7724 285.8878,604.2424" fill="none" id="Manager-to-PJ&#36914;&#25431;&#31649;&#29702;&#12508;&#12540;&#12489;&#21442;&#29031;" style="stroke:#181818;stroke-width:1;"/><polygon fill="#181818" points="291.66,605.88,284.0935,599.5754,286.8498,604.5153,281.91,607.2717,291.66,605.88" style="stroke:#181818;stroke-width:1;"/></g><!--link Manager to PJ?????--><g class="link" data-entity-1="ent0002" data-entity-2="ent0011" data-link-type="dependency" data-source-line="27" id="lnk21"><path d="M145.79,328.43 C171.96,321.71 206.55,312.84 237.17,305 C264.84,297.91 290.1473,291.4273 314.4173,285.2173" fill="none" id="Manager-to-PJ&#12525;&#12540;&#12523;&#21106;&#24403;" style="stroke:#181818;stroke-width:1;"/><polygon fill="#181818" points="320.23,283.73,310.5194,282.0858,315.3861,284.9694,312.5024,289.8361,320.23,283.73" style="stroke:#181818;stroke-width:1;"/></g><!--link Manager to PJ????????--><g class="link" data-entity-1="ent0002" data-entity-2="ent0012" data-link-type="dependency" data-source-line="28" id="lnk22"><path d="M145.94,302.4 C170.91,281.91 204.18,257.28 237.17,241 C258.23,230.6 277.0157,224.2297 298.7857,218.5297" fill="none" id="Manager-to-PJ&#12525;&#12540;&#12523;&#25285;&#24403;&#32773;&#26356;&#26032;" style="stroke:#181818;stroke-width:1;"/><polygon fill="#181818" points="304.59,217.01,294.8703,215.42,299.753,218.2765,296.8966,223.1592,304.59,217.01" style="stroke:#181818;stroke-width:1;"/></g><!--link Manager to PJ???????????--><g class="link" data-entity-1="ent0002" data-entity-2="ent0013" data-link-type="dependency" data-source-line="29" id="lnk23"><path d="M126.85,377.57 C149.97,414.35 189.42,468.78 237.17,501 C253.19,511.81 266.6241,517.9472 285.0841,523.7272" fill="none" id="Manager-to-PJ&#12525;&#12540;&#12523;&#25152;&#26377;&#29366;&#27841;&#19968;&#35239;&#21442;&#29031;" style="stroke:#181818;stroke-width:1;"/><polygon fill="#181818" points="290.81,525.52,283.4164,519.0135,286.0384,524.026,281.026,526.648,290.81,525.52" style="stroke:#181818;stroke-width:1;"/></g><!--link Manager to PJ????????????--><g class="link" data-entity-1="ent0002" data-entity-2="ent0014" data-link-type="dependency" data-source-line="30" id="lnk24"><path d="M125.71,300.33 C148.48,262.06 188.15,204.35 237.17,170 C252.6,159.18 265.3804,152.985 283.3304,146.975" fill="none" id="Manager-to-PJ&#27598;&#12398;&#12469;&#12540;&#12505;&#12452;&#24179;&#22343;&#32080;&#26524;&#38322;&#35239;" style="stroke:#181818;stroke-width:1;"/><polygon fill="#181818" points="289.02,145.07,279.2157,144.1344,284.2787,146.6575,281.7556,151.7205,289.02,145.07" style="stroke:#181818;stroke-width:1;"/></g><!--link Member to PJ?????????--><g class="link" data-entity-1="ent0003" data-entity-2="ent0010" data-link-type="dependency" data-source-line="32" id="lnk25"><path d="M131.67,567.68 C171.45,576.02 240.9276,590.5791 294.6476,601.8391" fill="none" id="Member-to-PJ&#36914;&#25431;&#31649;&#29702;&#12508;&#12540;&#12489;&#21442;&#29031;" style="stroke:#181818;stroke-width:1;"/><polygon fill="#181818" points="300.52,603.07,292.532,597.3087,295.6263,602.0443,290.8908,605.1386,300.52,603.07" style="stroke:#181818;stroke-width:1;"/></g><!--link Member to PJ???????????--><g class="link" data-entity-1="ent0003" data-entity-2="ent0013" data-link-type="dependency" data-source-line="33" id="lnk26"><path d="M131.67,559.69 C165.06,556.84 217.5217,552.3502 267.2017,548.1102" fill="none" id="Member-to-PJ&#12525;&#12540;&#12523;&#25152;&#26377;&#29366;&#27841;&#19968;&#35239;&#21442;&#29031;" style="stroke:#181818;stroke-width:1;"/><polygon fill="#181818" points="273.18,547.6,263.8725,544.3798,268.1981,548.0252,264.5527,552.3508,273.18,547.6" style="stroke:#181818;stroke-width:1;"/></g><!--link Scheduler to ?????????\n??????????--><g class="link" data-entity-1="ent0004" data-entity-2="ent0015" data-link-type="dependency" data-source-line="35" id="lnk27"><path d="M201.61,696 C221.72,696 236.93,696 257.12,696" fill="none" id="Scheduler-to-&#26085;&#27425;&#12497;&#12501;&#12457;&#12540;&#12510;&#12531;&#12473;\n&#12473;&#12490;&#12483;&#12503;&#12471;&#12519;&#12483;&#12488;&#35352;&#37682;" style="stroke:#181818;stroke-width:1;"/><polygon fill="#181818" points="263.12,696,254.12,692,258.12,696,254.12,700,263.12,696" style="stroke:#181818;stroke-width:1;"/></g><?plantuml-src fPFDJi9058NtynIJhdH1V0CtkZ8nCN7Xnaqj5L5iar9NneJE11JyGusY4Gb41GcA2g9W93xCfTFo5hRr3qPhIDmqqtlEkRsTRoOYp-jOLx4M3YteE1ZMP4aFgmf2egIh6XQ0ve1k0tq1qWHwxYm4B4RnfAY88LdxTXM0re6cltHvUQv79YqWzrw7IxSLBJlFeJ5DLKPcL6r9reQzqBIq80TN8auEkME8IYWYOs5AKnUTDpokBejXHS2h266y4fKbCUgg4vrsbcsaXVuYAnAxQB3J1tPqnqbcTQlpdE2AO5I06jviUI3xzclRJEKvJpTMOziPgrgmqWcWMS-SD7U95I_ntUYDfrRCPCri7_YfR3Fkg7Oi_kkStxPaZ6MJLkgHrOrECsONIxz-bDtkW545ql1I9q0kp5RTF5kt6ccMotQFQawmBy8ob-pQuRO7z118sOlbN8oaDQkuo6WAA0MQ0V84jEIjD-ohu-vMJK1e3Q6FGu03WT5U45ov7mKdViBWoZuuEDUVGFYEF18__GSKNwCl5du31WA3tg_COF_MPnrW8lHrjTv3_qB_1W00?></g></svg>