<?plantuml 1.2026.2?><svg xmlns="http://www.w3.org/2000/svg" xmlns:xlink="http://www.w3.org/1999/xlink" contentStyleType="text/css" data-diagram-type="DESCRIPTION" height="961px" preserveAspectRatio="none" style="width:415px;height:961px;background:#FFFFFF;" version="1.1" viewBox="0 0 415 961" width="415px" zoomAndPan="magnify"><defs/><g><!--cluster Team Domain--><g class="cluster" data-qualified-name="Team Domain" data-source-line="6" id="ent0004"><rect fill="none" height="948" rx="2.5" ry="2.5" style="stroke:#181818;stroke-width:1;" width="275.61" x="134" y="7"/><text fill="#000000" font-family="sans-serif" font-size="14" font-weight="bold" lengthAdjust="spacing" textLength="99.8799" x="221.8651" y="22.5352">Team Domain</text></g><!--entity ?????--><g class="entity" data-qualified-name="Team Domain......" data-source-line="8" id="ent0005"><ellipse cx="271.7975" cy="122.999" fill="#F1F1F1" rx="52.4975" ry="14.659" style="stroke:#181818;stroke-width:0.5;"/><text fill="#000000" font-family="sans-serif" font-size="14" lengthAdjust="spacing" textLength="70" x="236.7975" y="127.7431">&#12481;&#12540;&#12512;&#20316;&#25104;</text></g><!--entity ???????--><g class="entity" data-qualified-name="Team Domain........" data-source-line="9" id="ent0006"><ellipse cx="271.8024" cy="57.9965" fill="#F1F1F1" rx="67.0324" ry="15.8065" style="stroke:#181818;stroke-width:0.5;"/><text fill="#000000" font-family="sans-serif" font-size="14" lengthAdjust="spacing" textLength="98" x="222.8024" y="62.7406">&#12481;&#12540;&#12512;&#27010;&#35201;&#26356;&#26032;</text></g><!--entity ???????????--><g class="entity" data-qualified-name="Team Domain............" data-source-line="11" id="ent0007"><ellipse cx="271.7993" cy="762.9979" fill="#F1F1F1" rx="90.3393" ry="20.4679" style="stroke:#181818;stroke-width:0.5;"/><text fill="#000000" font-family="sans-serif" font-size="14" lengthAdjust="spacing" textLength="154" x="194.7993" y="767.742">&#12481;&#12540;&#12512;&#12395;&#12513;&#12531;&#12496;&#12540;&#12434;&#36861;&#21152;</text></g><!--entity ????????--><g class="entity" data-qualified-name="Team Domain........." data-source-line="12" id="ent0008"><ellipse cx="271.7952" cy="690.997" fill="#F1F1F1" rx="72.5352" ry="16.907" style="stroke:#181818;stroke-width:0.5;"/><text fill="#000000" font-family="sans-serif" font-size="14" lengthAdjust="spacing" textLength="112" x="215.7952" y="695.7412">&#12513;&#12531;&#12496;&#12540;&#29366;&#24907;&#26356;&#26032;</text></g><!--entity ?????????--><g class="entity" data-qualified-name="Team Domain.........." data-source-line="14" id="ent0009"><ellipse cx="271.7971" cy="620.9974" fill="#F1F1F1" rx="78.2871" ry="18.0574" style="stroke:#181818;stroke-width:0.5;"/><text fill="#000000" font-family="sans-serif" font-size="14" lengthAdjust="spacing" textLength="126" x="208.7971" y="625.7416">&#12481;&#12540;&#12512;&#20869;&#12525;&#12540;&#12523;&#20184;&#19982;</text></g><!--entity ?????????--><g class="entity" data-qualified-name="Team Domain.........." data-source-line="15" id="ent0010"><ellipse cx="271.7971" cy="549.9974" fill="#F1F1F1" rx="78.2871" ry="18.0574" style="stroke:#181818;stroke-width:0.5;"/><text fill="#000000" font-family="sans-serif" font-size="14" lengthAdjust="spacing" textLength="126" x="208.7971" y="554.7416">&#12481;&#12540;&#12512;&#20869;&#12525;&#12540;&#12523;&#22793;&#26356;</text></g><!--entity ???????--><g class="entity" data-qualified-name="Team Domain........" data-source-line="16" id="ent0011"><ellipse cx="271.8024" cy="480.9965" fill="#F1F1F1" rx="67.0324" ry="15.8065" style="stroke:#181818;stroke-width:0.5;"/><text fill="#000000" font-family="sans-serif" font-size="14" lengthAdjust="spacing" textLength="98" x="222.8024" y="485.7406">&#12525;&#12540;&#12523;&#23450;&#32681;&#20316;&#25104;</text></g><!--entity ???????--><g class="entity" data-qualified-name="Team Domain........" data-source-line="17" id="ent0012"><ellipse cx="271.8024" cy="413.9965" fill="#F1F1F1" rx="67.0324" ry="15.8065" style="stroke:#181818;stroke-width:0.5;"/><text fill="#000000" font-family="sans-serif" font-size="14" lengthAdjust="spacing" textLength="98" x="222.8024" y="418.7406">&#12525;&#12540;&#12523;&#23450;&#32681;&#26356;&#26032;</text></g><!--entity ???????--><g class="entity" data-qualified-name="Team Domain........" data-source-line="19" id="ent0013"><ellipse cx="271.8024" cy="346.9965" fill="#F1F1F1" rx="67.0324" ry="15.8065" style="stroke:#181818;stroke-width:0.5;"/><text fill="#000000" font-family="sans-serif" font-size="14" lengthAdjust="spacing" textLength="98" x="222.8024" y="351.7406">&#12481;&#12540;&#12512;&#25307;&#24453;&#20316;&#25104;</text></g><!--entity ???????--><g class="entity" data-qualified-name="Team Domain........" data-source-line="20" id="ent0014"><ellipse cx="271.8024" cy="922.9965" fill="#F1F1F1" rx="67.0324" ry="15.8065" style="stroke:#181818;stroke-width:0.5;"/><text fill="#000000" font-family="sans-serif" font-size="14" lengthAdjust="spacing" textLength="98" x="222.8024" y="927.7406">&#12481;&#12540;&#12512;&#25307;&#24453;&#21463;&#35582;</text></g><!--entity ?????????--><g class="entity" data-qualified-name="Team Domain.........." data-source-line="21" id="ent0015"><ellipse cx="271.7971" cy="277.9974" fill="#F1F1F1" rx="78.2871" ry="18.0574" style="stroke:#181818;stroke-width:0.5;"/><text fill="#000000" font-family="sans-serif" font-size="14" lengthAdjust="spacing" textLength="126" x="208.7971" y="282.7416">&#12481;&#12540;&#12512;&#25307;&#24453;&#21462;&#12426;&#28040;&#12375;</text></g><!--entity ??????????????\n(7/14/30/90?)--><g class="entity" data-qualified-name="Team Domain................n.7.14.30.90.." data-source-line="23" id="ent0016"><ellipse cx="271.8027" cy="199.0045" fill="#F1F1F1" rx="118.9727" ry="26.1945" style="stroke:#181818;stroke-width:0.5;"/><text fill="#000000" font-family="sans-serif" font-size="14" lengthAdjust="spacing" textLength="196" x="173.8027" y="199.5901">&#12481;&#12540;&#12512;&#12467;&#12531;&#12487;&#12451;&#12471;&#12519;&#12531;&#35201;&#32004;&#21442;&#29031;</text><text fill="#000000" font-family="sans-serif" font-size="14" lengthAdjust="spacing" textLength="107.0986" x="218.2533" y="216.0784">(7/14/30/90&#26085;)</text></g><!--entity ???????????????\n(??????)--><g class="entity" data-qualified-name="Team Domain.................n........" data-source-line="24" id="ent0017"><ellipse cx="271.8031" cy="845.0006" fill="#F1F1F1" rx="121.8031" ry="26.7606" style="stroke:#181818;stroke-width:0.5;"/><text fill="#000000" font-family="sans-serif" font-size="14" lengthAdjust="spacing" textLength="210" x="166.8031" y="846.8728">&#12513;&#12531;&#12496;&#12540;&#12467;&#12531;&#12487;&#12451;&#12471;&#12519;&#12531;&#23653;&#27508;&#21442;&#29031;</text><text fill="#000000" font-family="sans-serif" font-size="14" lengthAdjust="spacing" textLength="93.1055" x="225.2504" y="863.3611">(&#12473;&#12467;&#12450;&#26178;&#31995;&#21015;)</text></g><!--entity Manager--><g class="entity" data-qualified-name="Manager" data-source-line="3" id="ent0002"><ellipse cx="48" cy="418.26" fill="#F1F1F1" rx="8" ry="8" style="stroke:#181818;stroke-width:0.5;"/><path d="M48,426.26 L48,453.26 M35,434.26 L61,434.26 M48,453.26 L35,468.26 M48,453.26 L61,468.26" fill="none" style="stroke:#181818;stroke-width:0.5;"/><text fill="#000000" font-family="sans-serif" font-size="14" lengthAdjust="spacing" textLength="84" x="6" y="483.2952">&#12510;&#12493;&#12540;&#12472;&#12515;&#12540;</text></g><!--entity Member--><g class="entity" data-qualified-name="Member" data-source-line="4" id="ent0003"><ellipse cx="48" cy="854.26" fill="#F1F1F1" rx="8" ry="8" style="stroke:#181818;stroke-width:0.5;"/><path d="M48,862.26 L48,889.26 M35,870.26 L61,870.26 M48,889.26 L35,904.26 M48,889.26 L61,904.26" fill="none" style="stroke:#181818;stroke-width:0.5;"/><text fill="#000000" font-family="sans-serif" font-size="14" lengthAdjust="spacing" textLength="56" x="20" y="919.2952">&#12513;&#12531;&#12496;&#12540;</text></g><!--link Manager to ?????--><g class="link" data-entity-1="ent0002" data-entity-2="ent0005" data-link-type="dependency" data-source-line="28" id="lnk18"><path d="M54.13,409.34 C64.36,338.08 89.5,190.08 126,155 C150.5,131.45 182.2427,124.0706 213.0527,122.0606" fill="none" id="Manager-to-&#12481;&#12540;&#12512;&#20316;&#25104;" style="stroke:#181818;stroke-width:1;"/><polygon fill="#181818" points="219.04,121.67,209.7987,118.2644,214.0506,121.9955,210.3195,126.2474,219.04,121.67" style="stroke:#181818;stroke-width:1;"/></g><!--link Manager to ???????--><g class="link" data-entity-1="ent0002" data-entity-2="ent0006" data-link-type="dependency" data-source-line="29" id="lnk19"><path d="M52.16,409.46 C59.72,326.7 81.65,135.87 126,91 C146.39,70.37 170.8662,62.2432 198.5862,58.7832" fill="none" id="Manager-to-&#12481;&#12540;&#12512;&#27010;&#35201;&#26356;&#26032;" style="stroke:#181818;stroke-width:1;"/><polygon fill="#181818" points="204.54,58.04,195.1139,55.1855,199.5785,58.6593,196.1047,63.1239,204.54,58.04" style="stroke:#181818;stroke-width:1;"/></g><!--link Manager to ???????????--><g class="link" data-entity-1="ent0002" data-entity-2="ent0007" data-link-type="dependency" data-source-line="30" id="lnk20"><path d="M48.33,486.6 C49.49,546.26 60.77,660.71 126,725 C142.2,740.96 158.4242,748.9749 180.4242,754.5549" fill="none" id="Manager-to-&#12481;&#12540;&#12512;&#12395;&#12513;&#12531;&#12496;&#12540;&#12434;&#36861;&#21152;" style="stroke:#181818;stroke-width:1;"/><polygon fill="#181818" points="186.24,756.03,178.4996,749.9401,181.3935,754.8007,176.5328,757.6946,186.24,756.03" style="stroke:#181818;stroke-width:1;"/></g><!--link Manager to ????????--><g class="link" data-entity-1="ent0002" data-entity-2="ent0008" data-link-type="dependency" data-source-line="31" id="lnk21"><path d="M52.34,486.51 C58.55,533.74 76.18,612.93 126,657 C146.21,674.88 168.1323,682.8395 194.0023,687.1695" fill="none" id="Manager-to-&#12513;&#12531;&#12496;&#12540;&#29366;&#24907;&#26356;&#26032;" style="stroke:#181818;stroke-width:1;"/><polygon fill="#181818" points="199.92,688.16,191.7038,682.7292,194.9886,687.3346,190.3832,690.6194,199.92,688.16" style="stroke:#181818;stroke-width:1;"/></g><!--link Manager to ?????????--><g class="link" data-entity-1="ent0002" data-entity-2="ent0009" data-link-type="dependency" data-source-line="32" id="lnk22"><path d="M60.82,486.58 C72.42,518.01 93.23,561.11 126,586 C146.39,601.49 166.786,609.0561 191.346,613.9561" fill="none" id="Manager-to-&#12481;&#12540;&#12512;&#20869;&#12525;&#12540;&#12523;&#20184;&#19982;" style="stroke:#181818;stroke-width:1;"/><polygon fill="#181818" points="197.23,615.13,189.1866,609.4464,192.3266,614.1517,187.6213,617.2918,197.23,615.13" style="stroke:#181818;stroke-width:1;"/></g><!--link Manager to ?????????--><g class="link" data-entity-1="ent0002" data-entity-2="ent0010" data-link-type="dependency" data-source-line="33" id="lnk23"><path d="M86.77,486.45 C98.52,496.65 112.07,506.82 126,514 C150.29,526.53 173.2821,533.5878 198.8221,539.0378" fill="none" id="Manager-to-&#12481;&#12540;&#12512;&#20869;&#12525;&#12540;&#12523;&#22793;&#26356;" style="stroke:#181818;stroke-width:1;"/><polygon fill="#181818" points="204.69,540.29,196.7229,534.4998,199.8001,539.2465,195.0534,542.3237,204.69,540.29" style="stroke:#181818;stroke-width:1;"/></g><!--link Manager to ???????--><g class="link" data-entity-1="ent0002" data-entity-2="ent0011" data-link-type="dependency" data-source-line="34" id="lnk24"><path d="M90.46,454.17 C125.32,459.35 169.5553,465.937 208.1353,471.677" fill="none" id="Manager-to-&#12525;&#12540;&#12523;&#23450;&#32681;&#20316;&#25104;" style="stroke:#181818;stroke-width:1;"/><polygon fill="#181818" points="214.07,472.56,205.7566,467.2791,209.1244,471.8242,204.5793,475.192,214.07,472.56" style="stroke:#181818;stroke-width:1;"/></g><!--link Manager to ???????--><g class="link" data-entity-1="ent0002" data-entity-2="ent0012" data-link-type="dependency" data-source-line="35" id="lnk25"><path d="M90.46,441.64 C125.57,436.26 170.2793,429.409 208.9693,423.479" fill="none" id="Manager-to-&#12525;&#12540;&#12523;&#23450;&#32681;&#26356;&#26032;" style="stroke:#181818;stroke-width:1;"/><polygon fill="#181818" points="214.9,422.57,205.3979,419.9797,209.9577,423.3275,206.6099,427.8873,214.9,422.57" style="stroke:#181818;stroke-width:1;"/></g><!--link Manager to ???????--><g class="link" data-entity-1="ent0002" data-entity-2="ent0013" data-link-type="dependency" data-source-line="36" id="lnk26"><path d="M85.84,409.54 C97.77,398.94 111.65,388.35 126,381 C152.43,367.46 178.4383,360.3115 205.5583,355.3415" fill="none" id="Manager-to-&#12481;&#12540;&#12512;&#25307;&#24453;&#20316;&#25104;" style="stroke:#181818;stroke-width:1;"/><polygon fill="#181818" points="211.46,354.26,201.8864,351.9478,206.5419,355.1613,203.3285,359.8168,211.46,354.26" style="stroke:#181818;stroke-width:1;"/></g><!--link Manager to ?????????--><g class="link" data-entity-1="ent0002" data-entity-2="ent0015" data-link-type="dependency" data-source-line="37" id="lnk27"><path d="M61.63,409.35 C73.52,378.97 94.3,337.92 126,314 C146.68,298.4 167.4215,290.6913 192.1815,285.6313" fill="none" id="Manager-to-&#12481;&#12540;&#12512;&#25307;&#24453;&#21462;&#12426;&#28040;&#12375;" style="stroke:#181818;stroke-width:1;"/><polygon fill="#181818" points="198.06,284.43,188.4414,282.313,193.1612,285.4311,190.0431,290.151,198.06,284.43" style="stroke:#181818;stroke-width:1;"/></g><!--link Manager to ??????????????\n(7/14/30/90?)--><g class="link" data-entity-1="ent0002" data-entity-2="ent0016" data-link-type="dependency" data-source-line="38" id="lnk28"><path d="M53.1,409.28 C60.05,363.04 78.41,286.41 126,242 C139.52,229.39 150.9223,222.4857 168.5423,216.1657" fill="none" id="Manager-to-&#12481;&#12540;&#12512;&#12467;&#12531;&#12487;&#12451;&#12471;&#12519;&#12531;&#35201;&#32004;&#21442;&#29031;\n(7/14/30/90&#26085;)" style="stroke:#181818;stroke-width:1;"/><polygon fill="#181818" points="174.19,214.14,164.368,213.4135,169.4836,215.8281,167.069,220.9437,174.19,214.14" style="stroke:#181818;stroke-width:1;"/></g><!--link Manager to ???????????????\n(??????)--><g class="link" data-entity-1="ent0002" data-entity-2="ent0017" data-link-type="dependency" data-source-line="39" id="lnk29"><path d="M52.52,486.5 C60.74,568.21 83.78,755.25 126,801 C138.03,814.03 148.1906,821.0685 164.8706,827.5785" fill="none" id="Manager-to-&#12513;&#12531;&#12496;&#12540;&#12467;&#12531;&#12487;&#12451;&#12471;&#12519;&#12531;&#23653;&#27508;&#21442;&#29031;\n(&#12473;&#12467;&#12450;&#26178;&#31995;&#21015;)" style="stroke:#181818;stroke-width:1;"/><polygon fill="#181818" points="170.46,829.76,163.5302,822.7615,165.8022,827.9421,160.6216,830.2141,170.46,829.76" style="stroke:#181818;stroke-width:1;"/></g><!--link Member to ???????--><g class="link" data-entity-1="ent0003" data-entity-2="ent0014" data-link-type="dependency" data-source-line="41" id="lnk30"><path d="M76.2,888.78 C111.13,894.92 166.6505,904.692 211.1705,912.512" fill="none" id="Member-to-&#12481;&#12540;&#12512;&#25307;&#24453;&#21463;&#35582;" style="stroke:#181818;stroke-width:1;"/><polygon fill="#181818" points="217.08,913.55,208.9077,908.0533,212.1554,912.685,207.5237,915.9327,217.08,913.55" style="stroke:#181818;stroke-width:1;"/></g><!--link Member to ???????????????\n(??????)--><g class="link" data-entity-1="ent0003" data-entity-2="ent0017" data-link-type="dependency" data-source-line="42" id="lnk31"><path d="M76.2,879.22 C101.07,874.84 133.4606,869.149 169.5206,862.809" fill="none" id="Member-to-&#12513;&#12531;&#12496;&#12540;&#12467;&#12531;&#12487;&#12451;&#12471;&#12519;&#12531;&#23653;&#27508;&#21442;&#29031;\n(&#12473;&#12467;&#12450;&#26178;&#31995;&#21015;)" style="stroke:#181818;stroke-width:1;"/><polygon fill="#181818" points="175.43,861.77,165.8733,859.3889,170.5055,862.6358,167.2586,867.268,175.43,861.77" style="stroke:#181818;stroke-width:1;"/></g><?plantuml-src hPGnJy9068Rt_efB9nq864sCYvEhcwFBYHMRG4bAdOn3xwmYH24ELCKO584OWj5048FWZpdkoi-m1G7RN4j2tAxvddllkwzF6vSEDA0bWIh73ZMmBwjIL9EJYY30g9PKWKZm0y6N17yHr26uR2z405DW6oem9gapwf7W9i7vQLrAxDbbmOc3IYmk0N57WWcmbKn0MH71iI00S9IIeZ0bETjrvmHS6lJkMJelSckiYePLdHLRhF0cyhSJlVwt4uAkXzyzcYbv0cU4bMap8nkOISyCWXkZTNtGlHbqhiIv77s-i3CztAJsUcVrNxWNTH61JR5iaVQDm6cD29epX_L-C54WACFQQQARVbD5pT70pWag4_H1SCr-j5-5rJgbEMGPjLrbQJsyiXPUZOGt8ioiBFlEcnj5tokiqPf64VJfOEY9tIAhsQLfqyuJJWJXrpaG2crobE5NtTBm6NzhFBoVD_nOdZZpoOaw7f8hJn0Jt9lRdo36xOVF01SGn7UqYoio_kVut6By7RYHVpZq1m00?></g></svg>