<?plantuml 1.2026.2?><svg xmlns="http://www.w3.org/2000/svg" xmlns:xlink="http://www.w3.org/1999/xlink" contentStyleType="text/css" data-diagram-type="DESCRIPTION" height="544px" preserveAspectRatio="none" style="width:267px;height:544px;background:#FFFFFF;" version="1.1" viewBox="0 0 267 544" width="267px" zoomAndPan="magnify"><defs/><g><!--cluster Team Domain--><g class="cluster" data-qualified-name="Team Domain" data-source-line="5" id="ent0003"><rect fill="none" height="531" rx="2.5" ry="2.5" style="stroke:#181818;stroke-width:1;" width="161.21" x="100.41" y="7"/><text fill="#000000" font-family="sans-serif" font-size="14" font-weight="bold" lengthAdjust="spacing" textLength="107.9941" x="127.0179" y="21.9951">Team Domain</text></g><!--entity ?????--><g class="entity" data-qualified-name="Team Domain......" data-source-line="7" id="ent0004"><ellipse cx="181.0133" cy="507.0036" fill="#F1F1F1" rx="32.7033" ry="14.5236" style="stroke:#181818;stroke-width:0.5;"/><text fill="#000000" font-family="sans-serif" font-size="14" lengthAdjust="spacing" textLength="42.0068" x="160.0099" y="511.6521">&#12481;&#12540;&#12512;&#20316;&#25104;</text></g><!--entity ???????--><g class="entity" data-qualified-name="Team Domain........" data-source-line="8" id="ent0005"><ellipse cx="181.0146" cy="443.0036" fill="#F1F1F1" rx="44.5846" ry="14.5236" style="stroke:#181818;stroke-width:0.5;"/><text fill="#000000" font-family="sans-serif" font-size="14" lengthAdjust="spacing" textLength="58.8096" x="151.6099" y="447.6521">&#12481;&#12540;&#12512;&#27010;&#35201;&#26356;&#26032;</text></g><!--entity ?????--><g class="entity" data-qualified-name="Team Domain......" data-source-line="9" id="ent0006"><ellipse cx="181.0133" cy="379.0036" fill="#F1F1F1" rx="32.7033" ry="14.5236" style="stroke:#181818;stroke-width:0.5;"/><text fill="#000000" font-family="sans-serif" font-size="14" lengthAdjust="spacing" textLength="42.0068" x="160.0099" y="383.6521">&#12481;&#12540;&#12512;&#21066;&#38500;</text></g><!--entity ???????????--><g class="entity" data-qualified-name="Team Domain............" data-source-line="11" id="ent0007"><ellipse cx="181.0141" cy="314.0008" fill="#F1F1F1" rx="64.6041" ry="15.3208" style="stroke:#181818;stroke-width:0.5;"/><text fill="#000000" font-family="sans-serif" font-size="14" lengthAdjust="spacing" textLength="92.415" x="134.8065" y="318.6493">&#12481;&#12540;&#12512;&#12395;&#12513;&#12531;&#12496;&#12540;&#12434;&#36861;&#21152;</text></g><!--entity ??????????--><g class="entity" data-qualified-name="Team Domain..........." data-source-line="12" id="ent0008"><ellipse cx="181.0092" cy="249.0038" fill="#F1F1F1" rx="61.5192" ry="14.7038" style="stroke:#181818;stroke-width:0.5;"/><text fill="#000000" font-family="sans-serif" font-size="14" lengthAdjust="spacing" textLength="84.0137" x="139.0024" y="253.6523">&#12481;&#12540;&#12512;&#12513;&#12531;&#12496;&#12540;&#12434;&#21066;&#38500;</text></g><!--entity ????????--><g class="entity" data-qualified-name="Team Domain........." data-source-line="13" id="ent0009"><ellipse cx="181.0053" cy="185.0036" fill="#F1F1F1" rx="50.5253" ry="14.5236" style="stroke:#181818;stroke-width:0.5;"/><text fill="#000000" font-family="sans-serif" font-size="14" lengthAdjust="spacing" textLength="67.2109" x="147.3998" y="189.6521">&#12513;&#12531;&#12496;&#12540;&#29366;&#24907;&#26356;&#26032;</text></g><!--entity ?????????--><g class="entity" data-qualified-name="Team Domain.........." data-source-line="15" id="ent0010"><ellipse cx="181.006" cy="121.0036" fill="#F1F1F1" rx="56.466" ry="14.5236" style="stroke:#181818;stroke-width:0.5;"/><text fill="#000000" font-family="sans-serif" font-size="14" lengthAdjust="spacing" textLength="75.6123" x="143.1998" y="125.6521">&#12481;&#12540;&#12512;&#20869;&#12525;&#12540;&#12523;&#20184;&#19982;</text></g><!--entity ?????????--><g class="entity" data-qualified-name="Team Domain.........." data-source-line="16" id="ent0011"><ellipse cx="181.006" cy="57.0036" fill="#F1F1F1" rx="56.466" ry="14.5236" style="stroke:#181818;stroke-width:0.5;"/><text fill="#000000" font-family="sans-serif" font-size="14" lengthAdjust="spacing" textLength="75.6123" x="143.1998" y="61.6521">&#12481;&#12540;&#12512;&#20869;&#12525;&#12540;&#12523;&#22793;&#26356;</text></g><!--entity Manager--><g class="entity" data-qualified-name="Manager" data-source-line="3" id="ent0002"><ellipse cx="31.2041" cy="252.35" fill="#F1F1F1" rx="8" ry="8" style="stroke:#181818;stroke-width:0.5;"/><path d="M31.2041,260.35 L31.2041,287.35 M18.2041,268.35 L44.2041,268.35 M31.2041,287.35 L18.2041,302.35 M31.2041,287.35 L44.2041,302.35" fill="none" style="stroke:#181818;stroke-width:0.5;"/><text fill="#000000" font-family="sans-serif" font-size="14" lengthAdjust="spacing" textLength="50.4082" x="6" y="316.8451">&#12510;&#12493;&#12540;&#12472;&#12515;&#12540;</text></g><!--link Manager to ?????--><g class="link" data-entity-1="ent0002" data-entity-2="ent0004" data-link-type="dependency" data-source-line="20" id="lnk12"><path d="M34.31,320.38 C38.67,363.37 51.96,432.57 92.41,475 C107.38,490.7 124.8164,497.4681 143.6264,501.5481" fill="none" id="Manager-to-&#12481;&#12540;&#12512;&#20316;&#25104;" style="stroke:#181818;stroke-width:1;"/><polygon fill="#181818" points="149.49,502.82,141.5424,497.0031,144.6036,501.7601,139.8466,504.8213,149.49,502.82" style="stroke:#181818;stroke-width:1;"/></g><!--link Manager to ???????--><g class="link" data-entity-1="ent0002" data-entity-2="ent0005" data-link-type="dependency" data-source-line="21" id="lnk13"><path d="M41.54,320.36 C50.3,348.87 66.09,386.86 92.41,411 C106.01,423.48 119.0943,429.5649 135.8343,434.2749" fill="none" id="Manager-to-&#12481;&#12540;&#12512;&#27010;&#35201;&#26356;&#26032;" style="stroke:#181818;stroke-width:1;"/><polygon fill="#181818" points="141.61,435.9,134.0298,429.6119,136.7969,434.5458,131.863,437.3129,141.61,435.9" style="stroke:#181818;stroke-width:1;"/></g><!--link Manager to ?????--><g class="link" data-entity-1="ent0002" data-entity-2="ent0006" data-link-type="dependency" data-source-line="22" id="lnk14"><path d="M56.88,314.5 C66.89,325.99 79.22,338.23 92.41,347 C110.47,359.02 127.8571,365.5848 145.8271,370.6748" fill="none" id="Manager-to-&#12481;&#12540;&#12512;&#21066;&#38500;" style="stroke:#181818;stroke-width:1;"/><polygon fill="#181818" points="151.6,372.31,144.0308,366.0087,146.7893,370.9474,141.8506,373.7058,151.6,372.31" style="stroke:#181818;stroke-width:1;"/></g><!--link Manager to ???????????--><g class="link" data-entity-1="ent0002" data-entity-2="ent0007" data-link-type="dependency" data-source-line="23" id="lnk15"><path d="M56.61,287.28 C77.11,291.72 101.1456,296.9314 126.3856,302.3914" fill="none" id="Manager-to-&#12481;&#12540;&#12512;&#12395;&#12513;&#12531;&#12496;&#12540;&#12434;&#36861;&#21152;" style="stroke:#181818;stroke-width:1;"/><polygon fill="#181818" points="132.25,303.66,124.2992,297.8475,127.363,302.6028,122.6077,305.6667,132.25,303.66" style="stroke:#181818;stroke-width:1;"/></g><!--link Manager to ??????????--><g class="link" data-entity-1="ent0002" data-entity-2="ent0008" data-link-type="dependency" data-source-line="24" id="lnk16"><path d="M56.61,276.55 C77.85,271.81 103.324,266.1166 129.094,260.3666" fill="none" id="Manager-to-&#12481;&#12540;&#12512;&#12513;&#12531;&#12496;&#12540;&#12434;&#21066;&#38500;" style="stroke:#181818;stroke-width:1;"/><polygon fill="#181818" points="134.95,259.06,125.2949,257.116,130.07,260.1489,127.0371,264.924,134.95,259.06" style="stroke:#181818;stroke-width:1;"/></g><!--link Manager to ????????--><g class="link" data-entity-1="ent0002" data-entity-2="ent0009" data-link-type="dependency" data-source-line="25" id="lnk17"><path d="M56.88,249.5 C66.89,238.01 79.22,225.77 92.41,217 C107.37,207.05 120.1118,201.5273 136.2218,196.4073" fill="none" id="Manager-to-&#12513;&#12531;&#12496;&#12540;&#29366;&#24907;&#26356;&#26032;" style="stroke:#181818;stroke-width:1;"/><polygon fill="#181818" points="141.94,194.59,132.1512,193.5039,137.1749,196.1044,134.5743,201.1281,141.94,194.59" style="stroke:#181818;stroke-width:1;"/></g><!--link Manager to ?????????--><g class="link" data-entity-1="ent0002" data-entity-2="ent0010" data-link-type="dependency" data-source-line="26" id="lnk18"><path d="M41.54,243.64 C50.3,215.13 66.09,177.14 92.41,153 C104.34,142.06 114.6051,136.6077 129.6451,131.7977" fill="none" id="Manager-to-&#12481;&#12540;&#12512;&#20869;&#12525;&#12540;&#12523;&#20184;&#19982;" style="stroke:#181818;stroke-width:1;"/><polygon fill="#181818" points="135.36,129.97,125.5693,128.9016,130.5976,131.4931,128.0062,136.5214,135.36,129.97" style="stroke:#181818;stroke-width:1;"/></g><!--link Manager to ?????????--><g class="link" data-entity-1="ent0002" data-entity-2="ent0011" data-link-type="dependency" data-source-line="27" id="lnk19"><path d="M34.31,243.62 C38.67,200.63 51.96,131.43 92.41,89 C103.47,77.4 113.3584,71.7866 128.3384,67.0566" fill="none" id="Manager-to-&#12481;&#12540;&#12512;&#20869;&#12525;&#12540;&#12523;&#22793;&#26356;" style="stroke:#181818;stroke-width:1;"/><polygon fill="#181818" points="134.06,65.25,124.2733,64.1455,129.292,66.7555,126.6821,71.7743,134.06,65.25" style="stroke:#181818;stroke-width:1;"/></g><?plantuml-src XP31Qi9048Rl-nJ3tdq5JrvxwmiiSPi6D85aUv8Uuc3H58lqK2ejnLBn8eL2YmYjz64csUfRD163A1EyBSp7nxzVIryOC064ddjfeEc5sZ5Uu0kX71E480bV28U4FzHT4hxb3magWZFbArU7GXIyyjsM1dckLHiQGLjvleIE401NaNPKf0jBN2XmagwURNyasPkTTTUps3vzsOSFdiW6oMOybRoQuZdXA-4duMYxztxzkygI2QywGalp0Red_fA5xTsMq_XjDpt2z-rxddu_fiixUPBBfeFScGklXTWLXLgjplJYhuV5UARy6N-jZbR1yzcEuAfm5GkPSgV9ijq_?></g></svg>