<?plantuml 1.2026.2?><svg xmlns="http://www.w3.org/2000/svg" xmlns:xlink="http://www.w3.org/1999/xlink" contentStyleType="text/css" data-diagram-type="DESCRIPTION" height="906px" preserveAspectRatio="none" style="width:306px;height:906px;background:#FFFFFF;" version="1.1" viewBox="0 0 306 906" width="306px" zoomAndPan="magnify"><defs/><g><!--cluster Team Domain--><g class="cluster" data-qualified-name="Team Domain" data-source-line="6" id="ent0004"><rect fill="none" height="893" rx="2.5" ry="2.5" style="stroke:#181818;stroke-width:1;" width="200" x="100" y="7"/><text fill="#000000" font-family="sans-serif" font-size="14" font-weight="bold" lengthAdjust="spacing" textLength="107.9941" x="146.0029" y="21.9951">Team Domain</text></g><!--entity ?????--><g class="entity" data-qualified-name="Team Domain......" data-source-line="8" id="ent0005"><ellipse cx="200.2033" cy="207.0236" fill="#F1F1F1" rx="32.7033" ry="14.5236" style="stroke:#181818;stroke-width:0.5;"/><text fill="#000000" font-family="sans-serif" font-size="14" lengthAdjust="spacing" textLength="42.0068" x="179.1999" y="211.6721">&#12481;&#12540;&#12512;&#20316;&#25104;</text></g><!--entity ???????--><g class="entity" data-qualified-name="Team Domain........" data-source-line="9" id="ent0006"><ellipse cx="200.0846" cy="271.0236" fill="#F1F1F1" rx="44.5846" ry="14.5236" style="stroke:#181818;stroke-width:0.5;"/><text fill="#000000" font-family="sans-serif" font-size="14" lengthAdjust="spacing" textLength="58.8096" x="170.6799" y="275.6721">&#12481;&#12540;&#12512;&#27010;&#35201;&#26356;&#26032;</text></g><!--entity ???????????--><g class="entity" data-qualified-name="Team Domain............" data-source-line="11" id="ent0007"><ellipse cx="200.1041" cy="335.8208" fill="#F1F1F1" rx="64.6041" ry="15.3208" style="stroke:#181818;stroke-width:0.5;"/><text fill="#000000" font-family="sans-serif" font-size="14" lengthAdjust="spacing" textLength="92.415" x="153.8965" y="340.4693">&#12481;&#12540;&#12512;&#12395;&#12513;&#12531;&#12496;&#12540;&#12434;&#36861;&#21152;</text></g><!--entity ????????--><g class="entity" data-qualified-name="Team Domain........." data-source-line="12" id="ent0008"><ellipse cx="200.0253" cy="401.0236" fill="#F1F1F1" rx="50.5253" ry="14.5236" style="stroke:#181818;stroke-width:0.5;"/><text fill="#000000" font-family="sans-serif" font-size="14" lengthAdjust="spacing" textLength="67.2109" x="166.4198" y="405.6721">&#12513;&#12531;&#12496;&#12540;&#29366;&#24907;&#26356;&#26032;</text></g><!--entity ?????????--><g class="entity" data-qualified-name="Team Domain.........." data-source-line="14" id="ent0009"><ellipse cx="199.966" cy="465.0236" fill="#F1F1F1" rx="56.466" ry="14.5236" style="stroke:#181818;stroke-width:0.5;"/><text fill="#000000" font-family="sans-serif" font-size="14" lengthAdjust="spacing" textLength="75.6123" x="162.1598" y="469.6721">&#12481;&#12540;&#12512;&#20869;&#12525;&#12540;&#12523;&#20184;&#19982;</text></g><!--entity ?????????--><g class="entity" data-qualified-name="Team Domain.........." data-source-line="15" id="ent0010"><ellipse cx="199.966" cy="529.0236" fill="#F1F1F1" rx="56.466" ry="14.5236" style="stroke:#181818;stroke-width:0.5;"/><text fill="#000000" font-family="sans-serif" font-size="14" lengthAdjust="spacing" textLength="75.6123" x="162.1598" y="533.6721">&#12481;&#12540;&#12512;&#20869;&#12525;&#12540;&#12523;&#22793;&#26356;</text></g><!--entity ???????--><g class="entity" data-qualified-name="Team Domain........" data-source-line="16" id="ent0011"><ellipse cx="200.0846" cy="593.0236" fill="#F1F1F1" rx="44.5846" ry="14.5236" style="stroke:#181818;stroke-width:0.5;"/><text fill="#000000" font-family="sans-serif" font-size="14" lengthAdjust="spacing" textLength="58.8096" x="170.6799" y="597.6721">&#12525;&#12540;&#12523;&#23450;&#32681;&#20316;&#25104;</text></g><!--entity ???????--><g class="entity" data-qualified-name="Team Domain........" data-source-line="17" id="ent0012"><ellipse cx="200.0846" cy="657.0236" fill="#F1F1F1" rx="44.5846" ry="14.5236" style="stroke:#181818;stroke-width:0.5;"/><text fill="#000000" font-family="sans-serif" font-size="14" lengthAdjust="spacing" textLength="58.8096" x="170.6799" y="661.6721">&#12525;&#12540;&#12523;&#23450;&#32681;&#26356;&#26032;</text></g><!--entity ???????--><g class="entity" data-qualified-name="Team Domain........" data-source-line="19" id="ent0013"><ellipse cx="200.0846" cy="721.0236" fill="#F1F1F1" rx="44.5846" ry="14.5236" style="stroke:#181818;stroke-width:0.5;"/><text fill="#000000" font-family="sans-serif" font-size="14" lengthAdjust="spacing" textLength="58.8096" x="170.6799" y="725.6721">&#12481;&#12540;&#12512;&#25307;&#24453;&#20316;&#25104;</text></g><!--entity ???????--><g class="entity" data-qualified-name="Team Domain........" data-source-line="20" id="ent0014"><ellipse cx="200.0846" cy="869.0236" fill="#F1F1F1" rx="44.5846" ry="14.5236" style="stroke:#181818;stroke-width:0.5;"/><text fill="#000000" font-family="sans-serif" font-size="14" lengthAdjust="spacing" textLength="58.8096" x="170.6799" y="873.6721">&#12481;&#12540;&#12512;&#25307;&#24453;&#21463;&#35582;</text></g><!--entity ?????????--><g class="entity" data-qualified-name="Team Domain.........." data-source-line="21" id="ent0015"><ellipse cx="199.966" cy="57.0236" fill="#F1F1F1" rx="56.466" ry="14.5236" style="stroke:#181818;stroke-width:0.5;"/><text fill="#000000" font-family="sans-serif" font-size="14" lengthAdjust="spacing" textLength="75.6123" x="162.1598" y="61.6721">&#12481;&#12540;&#12512;&#25307;&#24453;&#21462;&#12426;&#28040;&#12375;</text></g><!--entity ??????????????\n(7/14/30/90?)--><g class="entity" data-qualified-name="Team Domain................n.7.14.30.90.." data-source-line="23" id="ent0016"><ellipse cx="199.7504" cy="132.0998" fill="#F1F1F1" rx="82.7504" ry="25.0998" style="stroke:#181818;stroke-width:0.5;"/><text fill="#000000" font-family="sans-serif" font-size="14" lengthAdjust="spacing" textLength="117.6191" x="140.9408" y="129.9697">&#12481;&#12540;&#12512;&#12467;&#12531;&#12487;&#12451;&#12471;&#12519;&#12531;&#35201;&#32004;&#21442;&#29031;</text><text fill="#000000" font-family="sans-serif" font-size="14" lengthAdjust="spacing" textLength="95.8262" x="151.8373" y="146.2666">(7/14/30/90&#26085;)</text></g><!--entity ???????????????\n(??????)--><g class="entity" data-qualified-name="Team Domain.................n........" data-source-line="24" id="ent0017"><ellipse cx="200.0565" cy="794.9643" fill="#F1F1F1" rx="84.0565" ry="23.9643" style="stroke:#181818;stroke-width:0.5;"/><text fill="#000000" font-family="sans-serif" font-size="14" lengthAdjust="spacing" textLength="126.0205" x="137.0462" y="794.5735">&#12513;&#12531;&#12496;&#12540;&#12467;&#12531;&#12487;&#12451;&#12471;&#12519;&#12531;&#23653;&#27508;&#21442;&#29031;</text><text fill="#000000" font-family="sans-serif" font-size="14" lengthAdjust="spacing" textLength="61.332" x="169.3905" y="810.8704">(&#12473;&#12467;&#12450;&#26178;&#31995;&#21015;)</text></g><!--entity Manager--><g class="entity" data-qualified-name="Manager" data-source-line="3" id="ent0002"><ellipse cx="31.2041" cy="403.5" fill="#F1F1F1" rx="8" ry="8" style="stroke:#181818;stroke-width:0.5;"/><path d="M31.2041,411.5 L31.2041,438.5 M18.2041,419.5 L44.2041,419.5 M31.2041,438.5 L18.2041,453.5 M31.2041,438.5 L44.2041,453.5" fill="none" style="stroke:#181818;stroke-width:0.5;"/><text fill="#000000" font-family="sans-serif" font-size="14" lengthAdjust="spacing" textLength="50.4082" x="6" y="467.9951">&#12510;&#12493;&#12540;&#12472;&#12515;&#12540;</text></g><!--entity Member--><g class="entity" data-qualified-name="Member" data-source-line="4" id="ent0003"><ellipse cx="30.8027" cy="802.5" fill="#F1F1F1" rx="8" ry="8" style="stroke:#181818;stroke-width:0.5;"/><path d="M30.8027,810.5 L30.8027,837.5 M17.8027,818.5 L43.8027,818.5 M30.8027,837.5 L17.8027,852.5 M30.8027,837.5 L43.8027,852.5" fill="none" style="stroke:#181818;stroke-width:0.5;"/><text fill="#000000" font-family="sans-serif" font-size="14" lengthAdjust="spacing" textLength="33.6055" x="14" y="866.9951">&#12513;&#12531;&#12496;&#12540;</text></g><!--link Manager to ?????--><g class="link" data-entity-1="ent0002" data-entity-2="ent0005" data-link-type="dependency" data-source-line="28" id="lnk18"><path d="M33.48,394.77 C37.23,351.21 49.92,280.68 92,239 C111.97,219.21 137.6944,212.2984 161.4044,209.3984" fill="none" id="Manager-to-&#12481;&#12540;&#12512;&#20316;&#25104;" style="stroke:#181818;stroke-width:1;"/><polygon fill="#181818" points="167.36,208.67,157.9409,205.7922,162.397,209.277,158.9122,213.7331,167.36,208.67" style="stroke:#181818;stroke-width:1;"/></g><!--link Manager to ???????--><g class="link" data-entity-1="ent0002" data-entity-2="ent0006" data-link-type="dependency" data-source-line="29" id="lnk19"><path d="M40.53,394.79 C48.92,365.72 64.58,326.78 92,303 C110.09,287.31 129.7343,280.4241 151.3243,276.3441" fill="none" id="Manager-to-&#12481;&#12540;&#12512;&#27010;&#35201;&#26356;&#26032;" style="stroke:#181818;stroke-width:1;"/><polygon fill="#181818" points="157.22,275.23,147.6338,272.9708,152.307,276.1584,149.1193,280.8316,157.22,275.23" style="stroke:#181818;stroke-width:1;"/></g><!--link Manager to ???????????--><g class="link" data-entity-1="ent0002" data-entity-2="ent0007" data-link-type="dependency" data-source-line="30" id="lnk20"><path d="M56.13,400.98 C66.15,389.53 78.57,377.39 92,369 C109.31,358.19 124.6261,352.249 143.5061,347.169" fill="none" id="Manager-to-&#12481;&#12540;&#12512;&#12395;&#12513;&#12531;&#12496;&#12540;&#12434;&#36861;&#21152;" style="stroke:#181818;stroke-width:1;"/><polygon fill="#181818" points="149.3,345.61,139.5698,344.0858,144.4717,346.9091,141.6484,351.8111,149.3,345.61" style="stroke:#181818;stroke-width:1;"/></g><!--link Manager to ????????--><g class="link" data-entity-1="ent0002" data-entity-2="ent0008" data-link-type="dependency" data-source-line="31" id="lnk21"><path d="M56.28,428.35 C82.79,423.27 119.8074,416.1804 151.6574,410.0704" fill="none" id="Manager-to-&#12513;&#12531;&#12496;&#12540;&#29366;&#24907;&#26356;&#26032;" style="stroke:#181818;stroke-width:1;"/><polygon fill="#181818" points="157.55,408.94,147.9576,406.7072,152.6395,409.882,149.4648,414.564,157.55,408.94" style="stroke:#181818;stroke-width:1;"/></g><!--link Manager to ?????????--><g class="link" data-entity-1="ent0002" data-entity-2="ent0009" data-link-type="dependency" data-source-line="32" id="lnk22"><path d="M56.28,437.65 C81.88,442.56 116.8973,449.2705 148.3573,455.3005" fill="none" id="Manager-to-&#12481;&#12540;&#12512;&#20869;&#12525;&#12540;&#12523;&#20184;&#19982;" style="stroke:#181818;stroke-width:1;"/><polygon fill="#181818" points="154.25,456.43,146.1639,450.8073,149.3394,455.4888,144.6579,458.6643,154.25,456.43" style="stroke:#181818;stroke-width:1;"/></g><!--link Manager to ?????????--><g class="link" data-entity-1="ent0002" data-entity-2="ent0010" data-link-type="dependency" data-source-line="33" id="lnk23"><path d="M56.09,465.08 C66.1,476.54 78.53,488.67 92,497 C110.47,508.43 127.4345,514.5435 147.2245,519.4235" fill="none" id="Manager-to-&#12481;&#12540;&#12512;&#20869;&#12525;&#12540;&#12523;&#22793;&#26356;" style="stroke:#181818;stroke-width:1;"/><polygon fill="#181818" points="153.05,520.86,145.2694,514.8216,148.1954,519.6629,143.3541,522.5889,153.05,520.86" style="stroke:#181818;stroke-width:1;"/></g><!--link Manager to ???????--><g class="link" data-entity-1="ent0002" data-entity-2="ent0011" data-link-type="dependency" data-source-line="34" id="lnk24"><path d="M40.86,471.22 C49.38,499.78 65.05,537.76 92,561 C110.14,576.64 129.785,583.5122 151.355,587.6022" fill="none" id="Manager-to-&#12525;&#12540;&#12523;&#23450;&#32681;&#20316;&#25104;" style="stroke:#181818;stroke-width:1;"/><polygon fill="#181818" points="157.25,588.72,149.1527,583.1134,152.3375,587.7885,147.6624,590.9733,157.25,588.72" style="stroke:#181818;stroke-width:1;"/></g><!--link Manager to ???????--><g class="link" data-entity-1="ent0002" data-entity-2="ent0012" data-link-type="dependency" data-source-line="35" id="lnk25"><path d="M33.63,471.23 C37.54,514.38 50.38,583.89 92,625 C109.1,641.9 128.8283,648.9042 150.7283,652.7042" fill="none" id="Manager-to-&#12525;&#12540;&#12523;&#23450;&#32681;&#26356;&#26032;" style="stroke:#181818;stroke-width:1;"/><polygon fill="#181818" points="156.64,653.73,148.4563,648.2502,151.7136,652.8752,147.0887,656.1325,156.64,653.73" style="stroke:#181818;stroke-width:1;"/></g><!--link Manager to ???????--><g class="link" data-entity-1="ent0002" data-entity-2="ent0013" data-link-type="dependency" data-source-line="36" id="lnk26"><path d="M36.26,471.23 C44.07,534.67 62.63,657.8 92,689 C108.48,706.51 128.1806,713.5797 150.2206,717.2297" fill="none" id="Manager-to-&#12481;&#12540;&#12512;&#25307;&#24453;&#20316;&#25104;" style="stroke:#181818;stroke-width:1;"/><polygon fill="#181818" points="156.14,718.21,147.9145,712.7933,151.2072,717.3931,146.6074,720.6858,156.14,718.21" style="stroke:#181818;stroke-width:1;"/></g><!--link Manager to ?????????--><g class="link" data-entity-1="ent0002" data-entity-2="ent0015" data-link-type="dependency" data-source-line="37" id="lnk27"><path d="M33.71,394.94 C38.04,315.11 52.14,133.87 92,89 C105.65,73.64 120.4768,66.784 140.0368,62.534" fill="none" id="Manager-to-&#12481;&#12540;&#12512;&#25307;&#24453;&#21462;&#12426;&#28040;&#12375;" style="stroke:#181818;stroke-width:1;"/><polygon fill="#181818" points="145.9,61.26,136.2559,59.2621,141.014,62.3216,137.9545,67.0797,145.9,61.26" style="stroke:#181818;stroke-width:1;"/></g><!--link Manager to ??????????????\n(7/14/30/90?)--><g class="link" data-entity-1="ent0002" data-entity-2="ent0016" data-link-type="dependency" data-source-line="38" id="lnk28"><path d="M36.53,394.75 C44.75,331.25 63.91,207.78 92,175 C102.81,162.38 112.3118,155.7141 127.7118,149.3741" fill="none" id="Manager-to-&#12481;&#12540;&#12512;&#12467;&#12531;&#12487;&#12451;&#12471;&#12519;&#12531;&#35201;&#32004;&#21442;&#29031;\n(7/14/30/90&#26085;)" style="stroke:#181818;stroke-width:1;"/><polygon fill="#181818" points="133.26,147.09,123.4149,146.8174,128.6365,148.9934,126.4604,154.215,133.26,147.09" style="stroke:#181818;stroke-width:1;"/></g><!--link Manager to ???????????????\n(??????)--><g class="link" data-entity-1="ent0002" data-entity-2="ent0017" data-link-type="dependency" data-source-line="39" id="lnk29"><path d="M34.57,471.04 C40.36,546.25 56.79,710.42 92,753 C102.43,765.61 111.6031,772.187 126.8031,778.377" fill="none" id="Manager-to-&#12513;&#12531;&#12496;&#12540;&#12467;&#12531;&#12487;&#12451;&#12471;&#12519;&#12531;&#23653;&#27508;&#21442;&#29031;\n(&#12473;&#12467;&#12450;&#26178;&#31995;&#21015;)" style="stroke:#181818;stroke-width:1;"/><polygon fill="#181818" points="132.36,780.64,125.5333,773.541,127.7293,778.7542,122.516,780.9501,132.36,780.64" style="stroke:#181818;stroke-width:1;"/></g><!--link Member to ???????--><g class="link" data-entity-1="ent0003" data-entity-2="ent0014" data-link-type="dependency" data-source-line="41" id="lnk30"><path d="M48.01,835.55 C74.22,841.35 121.052,851.7326 156.722,859.6326" fill="none" id="Member-to-&#12481;&#12540;&#12512;&#25307;&#24453;&#21463;&#35582;" style="stroke:#181818;stroke-width:1;"/><polygon fill="#181818" points="162.58,860.93,154.6579,855.0785,157.6983,859.8488,152.928,862.8893,162.58,860.93" style="stroke:#181818;stroke-width:1;"/></g><!--link Member to ???????????????\n(??????)--><g class="link" data-entity-1="ent0003" data-entity-2="ent0017" data-link-type="dependency" data-source-line="42" id="lnk31"><path d="M48.01,828.45 C67.61,824.11 96.1519,817.7874 127.1719,810.9174" fill="none" id="Member-to-&#12513;&#12531;&#12496;&#12540;&#12467;&#12531;&#12487;&#12451;&#12471;&#12519;&#12531;&#23653;&#27508;&#21442;&#29031;\n(&#12473;&#12467;&#12450;&#26178;&#31995;&#21015;)" style="stroke:#181818;stroke-width:1;"/><polygon fill="#181818" points="133.03,809.62,123.378,807.6607,128.1483,810.7012,125.1078,815.4714,133.03,809.62" style="stroke:#181818;stroke-width:1;"/></g><?plantuml-src hPGnJy9068Rt_efB9nq864sCYvEhcwFBYHMRG4bAdOn3xwmYH24ELCKO584OWj5048FWZpdkoi-m1G7RN4j2tAxvddllkwzF6vSEDA0bWIh73ZMmBwjIL9EJYY30g9PKWKZm0y6N17yHr26uR2z405DW6oem9gapwf7W9i7vQLrAxDbbmOc3IYmk0N57WWcmbKn0MH71iI00S9IIeZ0bETjrvmHS6lJkMJelSckiYePLdHLRhF0cyhSJlVwt4uAkXzyzcYbv0cU4bMap8nkOISyCWXkZTNtGlHbqhiIv77s-i3CztAJsUcVrNxWNTH61JR5iaVQDm6cD29epX_L-C54WACFQQQARVbD5pT70pWag4_H1SCr-j5-5rJgbEMGPjLrbQJsyiXPUZOGt8ioiBFlEcnj5tokiqPf64VJfOEY9tIAhsQLfqyuJJWJXrpaG2crobE5NtTBm6NzhFBoVD_nOdZZpoOaw7f8hJn0Jt9lRdo36xOVF01SGn7UqYoio_kVut6By7RYHVpZq1m00?></g></svg>