<?plantuml 1.2026.2?><svg xmlns="http://www.w3.org/2000/svg" xmlns:xlink="http://www.w3.org/1999/xlink" contentStyleType="text/css" data-diagram-type="DESCRIPTION" height="584px" preserveAspectRatio="none" style="width:352px;height:584px;background:#FFFFFF;" version="1.1" viewBox="0 0 352 584" width="352px" zoomAndPan="magnify"><defs/><g><!--cluster Team Domain--><g class="cluster" data-qualified-name="Team Domain" data-source-line="5" id="ent0003"><rect fill="none" height="571" rx="2.5" ry="2.5" style="stroke:#181818;stroke-width:1;" width="212.68" x="134" y="7"/><text fill="#000000" font-family="sans-serif" font-size="14" font-weight="bold" lengthAdjust="spacing" textLength="99.8799" x="190.4001" y="22.5352">Team Domain</text></g><!--entity ?????--><g class="entity" data-qualified-name="Team Domain......" data-source-line="7" id="ent0004"><ellipse cx="240.3375" cy="546.999" fill="#F1F1F1" rx="52.4975" ry="14.659" style="stroke:#181818;stroke-width:0.5;"/><text fill="#000000" font-family="sans-serif" font-size="14" lengthAdjust="spacing" textLength="70" x="205.3375" y="551.7431">&#12481;&#12540;&#12512;&#20316;&#25104;</text></g><!--entity ???????--><g class="entity" data-qualified-name="Team Domain........" data-source-line="8" id="ent0005"><ellipse cx="240.3424" cy="481.9965" fill="#F1F1F1" rx="67.0324" ry="15.8065" style="stroke:#181818;stroke-width:0.5;"/><text fill="#000000" font-family="sans-serif" font-size="14" lengthAdjust="spacing" textLength="98" x="191.3424" y="486.7406">&#12481;&#12540;&#12512;&#27010;&#35201;&#26356;&#26032;</text></g><!--entity ?????--><g class="entity" data-qualified-name="Team Domain......" data-source-line="9" id="ent0006"><ellipse cx="240.3375" cy="416.999" fill="#F1F1F1" rx="52.4975" ry="14.659" style="stroke:#181818;stroke-width:0.5;"/><text fill="#000000" font-family="sans-serif" font-size="14" lengthAdjust="spacing" textLength="70" x="205.3375" y="421.7431">&#12481;&#12540;&#12512;&#21066;&#38500;</text></g><!--entity ???????????--><g class="entity" data-qualified-name="Team Domain............" data-source-line="11" id="ent0007"><ellipse cx="240.3393" cy="346.9979" fill="#F1F1F1" rx="90.3393" ry="20.4679" style="stroke:#181818;stroke-width:0.5;"/><text fill="#000000" font-family="sans-serif" font-size="14" lengthAdjust="spacing" textLength="154" x="163.3393" y="351.742">&#12481;&#12540;&#12512;&#12395;&#12513;&#12531;&#12496;&#12540;&#12434;&#36861;&#21152;</text></g><!--entity ??????????--><g class="entity" data-qualified-name="Team Domain..........." data-source-line="12" id="ent0008"><ellipse cx="240.3351" cy="271.997" fill="#F1F1F1" rx="84.2351" ry="19.247" style="stroke:#181818;stroke-width:0.5;"/><text fill="#000000" font-family="sans-serif" font-size="14" lengthAdjust="spacing" textLength="140" x="170.3351" y="276.7412">&#12481;&#12540;&#12512;&#12513;&#12531;&#12496;&#12540;&#12434;&#21066;&#38500;</text></g><!--entity ????????--><g class="entity" data-qualified-name="Team Domain........." data-source-line="13" id="ent0009"><ellipse cx="240.3352" cy="200.997" fill="#F1F1F1" rx="72.5352" ry="16.907" style="stroke:#181818;stroke-width:0.5;"/><text fill="#000000" font-family="sans-serif" font-size="14" lengthAdjust="spacing" textLength="112" x="184.3352" y="205.7412">&#12513;&#12531;&#12496;&#12540;&#29366;&#24907;&#26356;&#26032;</text></g><!--entity ?????????--><g class="entity" data-qualified-name="Team Domain.........." data-source-line="15" id="ent0010"><ellipse cx="240.3371" cy="130.9974" fill="#F1F1F1" rx="78.2871" ry="18.0574" style="stroke:#181818;stroke-width:0.5;"/><text fill="#000000" font-family="sans-serif" font-size="14" lengthAdjust="spacing" textLength="126" x="177.3371" y="135.7416">&#12481;&#12540;&#12512;&#20869;&#12525;&#12540;&#12523;&#20184;&#19982;</text></g><!--entity ?????????--><g class="entity" data-qualified-name="Team Domain.........." data-source-line="16" id="ent0011"><ellipse cx="240.3371" cy="59.9974" fill="#F1F1F1" rx="78.2871" ry="18.0574" style="stroke:#181818;stroke-width:0.5;"/><text fill="#000000" font-family="sans-serif" font-size="14" lengthAdjust="spacing" textLength="126" x="177.3371" y="64.7416">&#12481;&#12540;&#12512;&#20869;&#12525;&#12540;&#12523;&#22793;&#26356;</text></g><!--entity Manager--><g class="entity" data-qualified-name="Manager" data-source-line="3" id="ent0002"><ellipse cx="48" cy="280.26" fill="#F1F1F1" rx="8" ry="8" style="stroke:#181818;stroke-width:0.5;"/><path d="M48,288.26 L48,315.26 M35,296.26 L61,296.26 M48,315.26 L35,330.26 M48,315.26 L61,330.26" fill="none" style="stroke:#181818;stroke-width:0.5;"/><text fill="#000000" font-family="sans-serif" font-size="14" lengthAdjust="spacing" textLength="84" x="6" y="345.2952">&#12510;&#12493;&#12540;&#12472;&#12515;&#12540;</text></g><!--link Manager to ?????--><g class="link" data-entity-1="ent0002" data-entity-2="ent0004" data-link-type="dependency" data-source-line="20" id="lnk12"><path d="M53.06,348.65 C59.97,394.76 78.28,471.13 126,515 C143.24,530.84 161.8324,537.8162 183.6324,541.8962" fill="none" id="Manager-to-&#12481;&#12540;&#12512;&#20316;&#25104;" style="stroke:#181818;stroke-width:1;"/><polygon fill="#181818" points="189.53,543,181.4194,537.4126,184.6153,542.0802,179.9478,545.2761,189.53,543" style="stroke:#181818;stroke-width:1;"/></g><!--link Manager to ???????--><g class="link" data-entity-1="ent0002" data-entity-2="ent0005" data-link-type="dependency" data-source-line="21" id="lnk13"><path d="M61.04,348.47 C72.79,379.89 93.67,423.17 126,449 C141.77,461.6 156.3615,467.9255 175.5115,472.7455" fill="none" id="Manager-to-&#12481;&#12540;&#12512;&#27010;&#35201;&#26356;&#26032;" style="stroke:#181818;stroke-width:1;"/><polygon fill="#181818" points="181.33,474.21,173.5786,468.1342,176.4812,472.9896,171.6259,475.8923,181.33,474.21" style="stroke:#181818;stroke-width:1;"/></g><!--link Manager to ?????--><g class="link" data-entity-1="ent0002" data-entity-2="ent0006" data-link-type="dependency" data-source-line="22" id="lnk14"><path d="M81.17,348.43 C93.94,361.64 109.52,375.48 126,385 C146.89,397.07 166.7545,403.501 188.4045,408.341" fill="none" id="Manager-to-&#12481;&#12540;&#12512;&#21066;&#38500;" style="stroke:#181818;stroke-width:1;"/><polygon fill="#181818" points="194.26,409.65,186.3495,403.7828,189.3804,408.5591,184.6041,411.5901,194.26,409.65" style="stroke:#181818;stroke-width:1;"/></g><!--link Manager to ???????????--><g class="link" data-entity-1="ent0002" data-entity-2="ent0007" data-link-type="dependency" data-source-line="23" id="lnk15"><path d="M90.3,318.03 C113.81,322.6 137.9603,327.2948 164.9103,332.5348" fill="none" id="Manager-to-&#12481;&#12540;&#12512;&#12395;&#12513;&#12531;&#12496;&#12540;&#12434;&#36861;&#21152;" style="stroke:#181818;stroke-width:1;"/><polygon fill="#181818" points="170.8,333.68,162.7289,328.0358,165.8919,332.7257,161.202,335.8887,170.8,333.68" style="stroke:#181818;stroke-width:1;"/></g><!--link Manager to ??????????--><g class="link" data-entity-1="ent0002" data-entity-2="ent0008" data-link-type="dependency" data-source-line="24" id="lnk16"><path d="M90.3,301.75 C115.23,296.78 141.6262,291.5051 169.7662,285.8851" fill="none" id="Manager-to-&#12481;&#12540;&#12512;&#12513;&#12531;&#12496;&#12540;&#12434;&#21066;&#38500;" style="stroke:#181818;stroke-width:1;"/><polygon fill="#181818" points="175.65,284.71,166.0409,282.5501,170.7468,285.6892,167.6077,290.3952,175.65,284.71" style="stroke:#181818;stroke-width:1;"/></g><!--link Manager to ????????--><g class="link" data-entity-1="ent0002" data-entity-2="ent0009" data-link-type="dependency" data-source-line="25" id="lnk17"><path d="M81.64,271.32 C94.34,258.25 109.76,244.56 126,235 C143.62,224.63 158.872,218.7708 178.022,213.5408" fill="none" id="Manager-to-&#12513;&#12531;&#12496;&#12540;&#29366;&#24907;&#26356;&#26032;" style="stroke:#181818;stroke-width:1;"/><polygon fill="#181818" points="183.81,211.96,174.0741,210.4724,178.9866,213.2773,176.1818,218.1898,183.81,211.96" style="stroke:#181818;stroke-width:1;"/></g><!--link Manager to ?????????--><g class="link" data-entity-1="ent0002" data-entity-2="ent0010" data-link-type="dependency" data-source-line="26" id="lnk18"><path d="M60.69,271.28 C72.32,239.04 93.22,194.17 126,167 C140.38,155.07 153.0153,148.8115 170.7653,143.4615" fill="none" id="Manager-to-&#12481;&#12540;&#12512;&#20869;&#12525;&#12540;&#12523;&#20184;&#19982;" style="stroke:#181818;stroke-width:1;"/><polygon fill="#181818" points="176.51,141.73,166.7386,140.4974,171.7227,143.1729,169.0473,148.1571,176.51,141.73" style="stroke:#181818;stroke-width:1;"/></g><!--link Manager to ?????????--><g class="link" data-entity-1="ent0002" data-entity-2="ent0011" data-link-type="dependency" data-source-line="27" id="lnk19"><path d="M52.46,271.39 C58.8,223.46 76.58,142.28 126,95 C138.87,82.69 150.2502,76.4479 167.2602,71.2679" fill="none" id="Manager-to-&#12481;&#12540;&#12512;&#20869;&#12525;&#12540;&#12523;&#22793;&#26356;" style="stroke:#181818;stroke-width:1;"/><polygon fill="#181818" points="173,69.52,163.2251,68.3154,168.2169,70.9766,165.5556,75.9684,173,69.52" style="stroke:#181818;stroke-width:1;"/></g><?plantuml-src XP31Qi9048Rl-nJ3tdq5JrvxwmiiSPi6D85aUv8Uuc3H58lqK2ejnLBn8eL2YmYjz64csUfRD163A1EyBSp7nxzVIryOC064ddjfeEc5sZ5Uu0kX71E480bV28U4FzHT4hxb3magWZFbArU7GXIyyjsM1dckLHiQGLjvleIE401NaNPKf0jBN2XmagwURNyasPkTTTUps3vzsOSFdiW6oMOybRoQuZdXA-4duMYxztxzkygI2QywGalp0Red_fA5xTsMq_XjDpt2z-rxddu_fiixUPBBfeFScGklXTWLXLgjplJYhuV5UARy6N-jZbR1yzcEuAfm5GkPSgV9ijq_?></g></svg>