<?plantuml 1.2026.2?><svg xmlns="http://www.w3.org/2000/svg" xmlns:xlink="http://www.w3.org/1999/xlink" contentStyleType="text/css" data-diagram-type="DESCRIPTION" height="904px" preserveAspectRatio="none" style="width:306px;height:904px;background:#FFFFFF;" version="1.1" viewBox="0 0 306 904" width="306px" zoomAndPan="magnify"><defs/><g><!--cluster Team Domain--><g class="cluster" data-qualified-name="Team Domain" data-source-line="6" id="ent0004"><rect fill="none" height="891" rx="2.5" ry="2.5" style="stroke:#181818;stroke-width:1;" width="200.11" x="100.41" y="7"/><text fill="#000000" font-family="sans-serif" font-size="14" font-weight="bold" lengthAdjust="spacing" textLength="107.9941" x="146.4679" y="21.9951">Team Domain</text></g><!--entity ?????--><g class="entity" data-qualified-name="Team Domain......" data-source-line="8" id="ent0005"><ellipse cx="200.4633" cy="121.0036" fill="#F1F1F1" rx="32.7033" ry="14.5236" style="stroke:#181818;stroke-width:0.5;"/><text fill="#000000" font-family="sans-serif" font-size="14" lengthAdjust="spacing" textLength="42.0068" x="179.4599" y="125.6521">&#12481;&#12540;&#12512;&#20316;&#25104;</text></g><!--entity ???????--><g class="entity" data-qualified-name="Team Domain........" data-source-line="9" id="ent0006"><ellipse cx="200.4646" cy="57.0036" fill="#F1F1F1" rx="44.5846" ry="14.5236" style="stroke:#181818;stroke-width:0.5;"/><text fill="#000000" font-family="sans-serif" font-size="14" lengthAdjust="spacing" textLength="58.8096" x="171.0599" y="61.6521">&#12481;&#12540;&#12512;&#27010;&#35201;&#26356;&#26032;</text></g><!--entity ???????????--><g class="entity" data-qualified-name="Team Domain............" data-source-line="11" id="ent0007"><ellipse cx="200.4641" cy="720.0008" fill="#F1F1F1" rx="64.6041" ry="15.3208" style="stroke:#181818;stroke-width:0.5;"/><text fill="#000000" font-family="sans-serif" font-size="14" lengthAdjust="spacing" textLength="92.415" x="154.2565" y="724.6493">&#12481;&#12540;&#12512;&#12395;&#12513;&#12531;&#12496;&#12540;&#12434;&#36861;&#21152;</text></g><!--entity ????????--><g class="entity" data-qualified-name="Team Domain........." data-source-line="12" id="ent0008"><ellipse cx="200.4553" cy="655.0036" fill="#F1F1F1" rx="50.5253" ry="14.5236" style="stroke:#181818;stroke-width:0.5;"/><text fill="#000000" font-family="sans-serif" font-size="14" lengthAdjust="spacing" textLength="67.2109" x="166.8498" y="659.6521">&#12513;&#12531;&#12496;&#12540;&#29366;&#24907;&#26356;&#26032;</text></g><!--entity ?????????--><g class="entity" data-qualified-name="Team Domain.........." data-source-line="14" id="ent0009"><ellipse cx="200.456" cy="591.0036" fill="#F1F1F1" rx="56.466" ry="14.5236" style="stroke:#181818;stroke-width:0.5;"/><text fill="#000000" font-family="sans-serif" font-size="14" lengthAdjust="spacing" textLength="75.6123" x="162.6498" y="595.6521">&#12481;&#12540;&#12512;&#20869;&#12525;&#12540;&#12523;&#20184;&#19982;</text></g><!--entity ?????????--><g class="entity" data-qualified-name="Team Domain.........." data-source-line="15" id="ent0010"><ellipse cx="200.456" cy="527.0036" fill="#F1F1F1" rx="56.466" ry="14.5236" style="stroke:#181818;stroke-width:0.5;"/><text fill="#000000" font-family="sans-serif" font-size="14" lengthAdjust="spacing" textLength="75.6123" x="162.6498" y="531.6521">&#12481;&#12540;&#12512;&#20869;&#12525;&#12540;&#12523;&#22793;&#26356;</text></g><!--entity ???????--><g class="entity" data-qualified-name="Team Domain........" data-source-line="16" id="ent0011"><ellipse cx="200.4646" cy="463.0036" fill="#F1F1F1" rx="44.5846" ry="14.5236" style="stroke:#181818;stroke-width:0.5;"/><text fill="#000000" font-family="sans-serif" font-size="14" lengthAdjust="spacing" textLength="58.8096" x="171.0599" y="467.6521">&#12525;&#12540;&#12523;&#23450;&#32681;&#20316;&#25104;</text></g><!--entity ???????--><g class="entity" data-qualified-name="Team Domain........" data-source-line="17" id="ent0012"><ellipse cx="200.4646" cy="399.0036" fill="#F1F1F1" rx="44.5846" ry="14.5236" style="stroke:#181818;stroke-width:0.5;"/><text fill="#000000" font-family="sans-serif" font-size="14" lengthAdjust="spacing" textLength="58.8096" x="171.0599" y="403.6521">&#12525;&#12540;&#12523;&#23450;&#32681;&#26356;&#26032;</text></g><!--entity ???????--><g class="entity" data-qualified-name="Team Domain........" data-source-line="19" id="ent0013"><ellipse cx="200.4646" cy="335.0036" fill="#F1F1F1" rx="44.5846" ry="14.5236" style="stroke:#181818;stroke-width:0.5;"/><text fill="#000000" font-family="sans-serif" font-size="14" lengthAdjust="spacing" textLength="58.8096" x="171.0599" y="339.6521">&#12481;&#12540;&#12512;&#25307;&#24453;&#20316;&#25104;</text></g><!--entity ???????--><g class="entity" data-qualified-name="Team Domain........" data-source-line="20" id="ent0014"><ellipse cx="200.4646" cy="867.0036" fill="#F1F1F1" rx="44.5846" ry="14.5236" style="stroke:#181818;stroke-width:0.5;"/><text fill="#000000" font-family="sans-serif" font-size="14" lengthAdjust="spacing" textLength="58.8096" x="171.0599" y="871.6521">&#12481;&#12540;&#12512;&#25307;&#24453;&#21463;&#35582;</text></g><!--entity ?????????--><g class="entity" data-qualified-name="Team Domain.........." data-source-line="21" id="ent0015"><ellipse cx="200.456" cy="271.0036" fill="#F1F1F1" rx="56.466" ry="14.5236" style="stroke:#181818;stroke-width:0.5;"/><text fill="#000000" font-family="sans-serif" font-size="14" lengthAdjust="spacing" textLength="75.6123" x="162.6498" y="275.6521">&#12481;&#12540;&#12512;&#25307;&#24453;&#21462;&#12426;&#28040;&#12375;</text></g><!--entity ??????????????\n(7/14/30/90?)--><g class="entity" data-qualified-name="Team Domain................n.7.14.30.90.." data-source-line="23" id="ent0016"><ellipse cx="200.4604" cy="195.9998" fill="#F1F1F1" rx="82.7504" ry="25.0998" style="stroke:#181818;stroke-width:0.5;"/><text fill="#000000" font-family="sans-serif" font-size="14" lengthAdjust="spacing" textLength="117.6191" x="141.6508" y="193.8697">&#12481;&#12540;&#12512;&#12467;&#12531;&#12487;&#12451;&#12471;&#12519;&#12531;&#35201;&#32004;&#21442;&#29031;</text><text fill="#000000" font-family="sans-serif" font-size="14" lengthAdjust="spacing" textLength="95.8262" x="152.5473" y="210.1666">(7/14/30/90&#26085;)</text></g><!--entity ???????????????\n(??????)--><g class="entity" data-qualified-name="Team Domain.................n........" data-source-line="24" id="ent0017"><ellipse cx="200.4565" cy="794.0043" fill="#F1F1F1" rx="84.0565" ry="23.9643" style="stroke:#181818;stroke-width:0.5;"/><text fill="#000000" font-family="sans-serif" font-size="14" lengthAdjust="spacing" textLength="126.0205" x="137.4462" y="793.6135">&#12513;&#12531;&#12496;&#12540;&#12467;&#12531;&#12487;&#12451;&#12471;&#12519;&#12531;&#23653;&#27508;&#21442;&#29031;</text><text fill="#000000" font-family="sans-serif" font-size="14" lengthAdjust="spacing" textLength="61.332" x="169.7905" y="809.9104">(&#12473;&#12467;&#12450;&#26178;&#31995;&#21015;)</text></g><!--entity Manager--><g class="entity" data-qualified-name="Manager" data-source-line="3" id="ent0002"><ellipse cx="31.2041" cy="401.35" fill="#F1F1F1" rx="8" ry="8" style="stroke:#181818;stroke-width:0.5;"/><path d="M31.2041,409.35 L31.2041,436.35 M18.2041,417.35 L44.2041,417.35 M31.2041,436.35 L18.2041,451.35 M31.2041,436.35 L44.2041,451.35" fill="none" style="stroke:#181818;stroke-width:0.5;"/><text fill="#000000" font-family="sans-serif" font-size="14" lengthAdjust="spacing" textLength="50.4082" x="6" y="465.8451">&#12510;&#12493;&#12540;&#12472;&#12515;&#12540;</text></g><!--entity Member--><g class="entity" data-qualified-name="Member" data-source-line="4" id="ent0003"><ellipse cx="31.2027" cy="800.35" fill="#F1F1F1" rx="8" ry="8" style="stroke:#181818;stroke-width:0.5;"/><path d="M31.2027,808.35 L31.2027,835.35 M18.2027,816.35 L44.2027,816.35 M31.2027,835.35 L18.2027,850.35 M31.2027,835.35 L44.2027,850.35" fill="none" style="stroke:#181818;stroke-width:0.5;"/><text fill="#000000" font-family="sans-serif" font-size="14" lengthAdjust="spacing" textLength="33.6055" x="14.4" y="864.8451">&#12513;&#12531;&#12496;&#12540;</text></g><!--link Manager to ?????--><g class="link" data-entity-1="ent0002" data-entity-2="ent0005" data-link-type="dependency" data-source-line="28" id="lnk18"><path d="M35.74,392.49 C42.72,324.61 60.46,187.52 92.41,153 C111.65,132.22 137.7948,125.3749 161.8448,122.7749" fill="none" id="Manager-to-&#12481;&#12540;&#12512;&#20316;&#25104;" style="stroke:#181818;stroke-width:1;"/><polygon fill="#181818" points="167.81,122.13,158.4322,119.1205,162.839,122.6674,159.2921,127.0742,167.81,122.13" style="stroke:#181818;stroke-width:1;"/></g><!--link Manager to ???????--><g class="link" data-entity-1="ent0002" data-entity-2="ent0006" data-link-type="dependency" data-source-line="29" id="lnk19"><path d="M34,392.55 C38.49,312.88 52.83,133.47 92.41,89 C108.4,71.03 128.0951,63.9065 150.2551,60.3665" fill="none" id="Manager-to-&#12481;&#12540;&#12512;&#27010;&#35201;&#26356;&#26032;" style="stroke:#181818;stroke-width:1;"/><polygon fill="#181818" points="156.18,59.42,146.6617,56.8898,151.2426,60.2087,147.9237,64.7896,156.18,59.42" style="stroke:#181818;stroke-width:1;"/></g><!--link Manager to ???????????--><g class="link" data-entity-1="ent0002" data-entity-2="ent0007" data-link-type="dependency" data-source-line="30" id="lnk20"><path d="M36.55,469.46 C44.48,532.93 63.19,655.72 92.41,687 C105.22,700.71 117.7881,707.251 135.6981,711.971" fill="none" id="Manager-to-&#12481;&#12540;&#12512;&#12395;&#12513;&#12531;&#12496;&#12540;&#12434;&#36861;&#21152;" style="stroke:#181818;stroke-width:1;"/><polygon fill="#181818" points="141.5,713.5,133.8165,707.3385,136.6651,712.2258,131.7778,715.0744,141.5,713.5" style="stroke:#181818;stroke-width:1;"/></g><!--link Manager to ????????--><g class="link" data-entity-1="ent0002" data-entity-2="ent0008" data-link-type="dependency" data-source-line="31" id="lnk21"><path d="M33.92,469.63 C37.91,512.8 50.88,582.03 92.41,623 C108.15,638.53 125.2174,645.3989 145.8374,649.5389" fill="none" id="Manager-to-&#12513;&#12531;&#12496;&#12540;&#29366;&#24907;&#26356;&#26032;" style="stroke:#181818;stroke-width:1;"/><polygon fill="#181818" points="151.72,650.72,143.6835,645.0266,146.8178,649.7358,142.1087,652.8701,151.72,650.72" style="stroke:#181818;stroke-width:1;"/></g><!--link Manager to ?????????--><g class="link" data-entity-1="ent0002" data-entity-2="ent0009" data-link-type="dependency" data-source-line="32" id="lnk22"><path d="M41.21,469.52 C49.8,498.05 65.52,535.85 92.41,559 C108.06,572.48 123.3768,578.9172 142.7568,583.4372" fill="none" id="Manager-to-&#12481;&#12540;&#12512;&#20869;&#12525;&#12540;&#12523;&#20184;&#19982;" style="stroke:#181818;stroke-width:1;"/><polygon fill="#181818" points="148.6,584.8,140.7438,578.8603,143.7307,583.6643,138.9267,586.6512,148.6,584.8" style="stroke:#181818;stroke-width:1;"/></g><!--link Manager to ?????????--><g class="link" data-entity-1="ent0002" data-entity-2="ent0010" data-link-type="dependency" data-source-line="33" id="lnk23"><path d="M56.69,463.41 C66.68,474.77 79.04,486.74 92.41,495 C110.73,506.31 127.4671,512.3831 147.1471,517.2731" fill="none" id="Manager-to-&#12481;&#12540;&#12512;&#20869;&#12525;&#12540;&#12523;&#22793;&#26356;" style="stroke:#181818;stroke-width:1;"/><polygon fill="#181818" points="152.97,518.72,145.2002,512.6678,148.1176,517.5143,143.271,520.4317,152.97,518.72" style="stroke:#181818;stroke-width:1;"/></g><!--link Manager to ???????--><g class="link" data-entity-1="ent0002" data-entity-2="ent0011" data-link-type="dependency" data-source-line="34" id="lnk24"><path d="M56.88,435.72 C84.42,440.99 123.4068,448.4528 155.4568,454.5828" fill="none" id="Manager-to-&#12525;&#12540;&#12523;&#23450;&#32681;&#20316;&#25104;" style="stroke:#181818;stroke-width:1;"/><polygon fill="#181818" points="161.35,455.71,153.2617,450.0905,156.439,454.7707,151.7588,457.9481,161.35,455.71" style="stroke:#181818;stroke-width:1;"/></g><!--link Manager to ???????--><g class="link" data-entity-1="ent0002" data-entity-2="ent0012" data-link-type="dependency" data-source-line="35" id="lnk25"><path d="M56.88,426.28 C84.42,421.01 123.4068,413.5472 155.4568,407.4172" fill="none" id="Manager-to-&#12525;&#12540;&#12523;&#23450;&#32681;&#26356;&#26032;" style="stroke:#181818;stroke-width:1;"/><polygon fill="#181818" points="161.35,406.29,151.7588,404.0519,156.439,407.2293,153.2617,411.9095,161.35,406.29" style="stroke:#181818;stroke-width:1;"/></g><!--link Manager to ???????--><g class="link" data-entity-1="ent0002" data-entity-2="ent0013" data-link-type="dependency" data-source-line="36" id="lnk26"><path d="M56.69,398.59 C66.68,387.23 79.04,375.26 92.41,367 C112.96,354.31 132.9879,347.7241 154.1579,342.9341" fill="none" id="Manager-to-&#12481;&#12540;&#12512;&#25307;&#24453;&#20316;&#25104;" style="stroke:#181818;stroke-width:1;"/><polygon fill="#181818" points="160.01,341.61,150.3492,339.6948,155.1333,342.7134,152.1146,347.4975,160.01,341.61" style="stroke:#181818;stroke-width:1;"/></g><!--link Manager to ?????????--><g class="link" data-entity-1="ent0002" data-entity-2="ent0015" data-link-type="dependency" data-source-line="37" id="lnk27"><path d="M41.21,392.48 C49.8,363.95 65.52,326.15 92.41,303 C108.06,289.52 123.3768,283.0828 142.7568,278.5628" fill="none" id="Manager-to-&#12481;&#12540;&#12512;&#25307;&#24453;&#21462;&#12426;&#28040;&#12375;" style="stroke:#181818;stroke-width:1;"/><polygon fill="#181818" points="148.6,277.2,138.9267,275.3488,143.7307,278.3357,140.7438,283.1397,148.6,277.2" style="stroke:#181818;stroke-width:1;"/></g><!--link Manager to ??????????????\n(7/14/30/90?)--><g class="link" data-entity-1="ent0002" data-entity-2="ent0016" data-link-type="dependency" data-source-line="38" id="lnk28"><path d="M34.65,392.66 C39.33,350.08 52.92,281.7 92.41,239 C103.76,226.72 113.5461,220.1503 129.0561,213.8103" fill="none" id="Manager-to-&#12481;&#12540;&#12512;&#12467;&#12531;&#12487;&#12451;&#12471;&#12519;&#12531;&#35201;&#32004;&#21442;&#29031;\n(7/14/30/90&#26085;)" style="stroke:#181818;stroke-width:1;"/><polygon fill="#181818" points="134.61,211.54,124.7656,211.2428,129.9817,213.4319,127.7926,218.648,134.61,211.54" style="stroke:#181818;stroke-width:1;"/></g><!--link Manager to ???????????????\n(??????)--><g class="link" data-entity-1="ent0002" data-entity-2="ent0017" data-link-type="dependency" data-source-line="39" id="lnk29"><path d="M34.76,469.59 C40.51,545.45 56.86,710.36 92.41,753 C102.6,765.23 111.3224,771.5587 126.1424,777.5887" fill="none" id="Manager-to-&#12513;&#12531;&#12496;&#12540;&#12467;&#12531;&#12487;&#12451;&#12471;&#12519;&#12531;&#23653;&#27508;&#21442;&#29031;\n(&#12473;&#12467;&#12450;&#26178;&#31995;&#21015;)" style="stroke:#181818;stroke-width:1;"/><polygon fill="#181818" points="131.7,779.85,124.8712,772.753,127.0687,777.9656,121.8561,780.1631,131.7,779.85" style="stroke:#181818;stroke-width:1;"/></g><!--link Member to ???????--><g class="link" data-entity-1="ent0003" data-entity-2="ent0014" data-link-type="dependency" data-source-line="41" id="lnk30"><path d="M48.24,833.55 C74.41,839.34 121.0816,849.6643 156.8016,857.5643" fill="none" id="Member-to-&#12481;&#12540;&#12512;&#25307;&#24453;&#21463;&#35582;" style="stroke:#181818;stroke-width:1;"/><polygon fill="#181818" points="162.66,858.86,154.7361,853.0109,157.778,857.7803,153.0086,860.8221,162.66,858.86" style="stroke:#181818;stroke-width:1;"/></g><!--link Member to ???????????????\n(??????)--><g class="link" data-entity-1="ent0003" data-entity-2="ent0017" data-link-type="dependency" data-source-line="42" id="lnk31"><path d="M48.24,826.55 C67.7,822.36 95.8842,816.2921 126.7442,809.6521" fill="none" id="Member-to-&#12513;&#12531;&#12496;&#12540;&#12467;&#12531;&#12487;&#12451;&#12471;&#12519;&#12531;&#23653;&#27508;&#21442;&#29031;\n(&#12473;&#12467;&#12450;&#26178;&#31995;&#21015;)" style="stroke:#181818;stroke-width:1;"/><polygon fill="#181818" points="132.61,808.39,122.97,806.3727,127.7219,809.4418,124.6528,814.1937,132.61,808.39" style="stroke:#181818;stroke-width:1;"/></g><?plantuml-src hPGnJy9068Rt_efB9nq864sCYvEhcwFBYHMRG4bAdOn3xwmYH24ELCKO584OWj5048FWZpdkoi-m1G7RN4j2tAxvddllkwzF6vSEDA0bWIh73ZMmBwjIL9EJYY30g9PKWKZm0y6N17yHr26uR2z405DW6oem9gapwf7W9i7vQLrAxDbbmOc3IYmk0N57WWcmbKn0MH71iI00S9IIeZ0bETjrvmHS6lJkMJelSckiYePLdHLRhF0cyhSJlVwt4uAkXzyzcYbv0cU4bMap8nkOISyCWXkZTNtGlHbqhiIv77s-i3CztAJsUcVrNxWNTH61JR5iaVQDm6cD29epX_L-C54WACFQQQARVbD5pT70pWag4_H1SCr-j5-5rJgbEMGPjLrbQJsyiXPUZOGt8ioiBFlEcnj5tokiqPf64VJfOEY9tIAhsQLfqyuJJWJXrpaG2crobE5NtTBm6NzhFBoVD_nOdZZpoOaw7f8hJn0Jt9lRdo36xOVF01SGn7UqYoio_kVut6By7RYHVpZq1m00?></g></svg>