<?plantuml 1.2026.2?><svg xmlns="http://www.w3.org/2000/svg" xmlns:xlink="http://www.w3.org/1999/xlink" contentStyleType="text/css" data-diagram-type="DESCRIPTION" height="545px" preserveAspectRatio="none" style="width:675px;height:545px;background:#FFFFFF;" version="1.1" viewBox="0 0 675 545" width="675px" zoomAndPan="magnify"><defs/><g><!--cluster TriggerRule--><g class="cluster" data-qualified-name="TriggerRule" data-source-line="8" id="ent0006"><rect fill="none" height="401" rx="2.5" ry="2.5" style="stroke:#181818;stroke-width:1;" width="465" x="204" y="7"/><text fill="#000000" font-family="sans-serif" font-size="14" font-weight="bold" lengthAdjust="spacing" textLength="92.7363" x="390.1318" y="21.9951">TriggerRule</text></g><!--entity ?????????--><g class="entity" data-qualified-name="TriggerRule.........." data-source-line="10" id="ent0007"><ellipse cx="276.466" cy="121.0236" fill="#F1F1F1" rx="56.466" ry="14.5236" style="stroke:#181818;stroke-width:0.5;"/><text fill="#000000" font-family="sans-serif" font-size="14" lengthAdjust="spacing" textLength="75.6123" x="238.6598" y="125.6721">&#12488;&#12522;&#12460;&#12540;&#12523;&#12540;&#12523;&#20316;&#25104;</text></g><!--entity ?????????--><g class="entity" data-qualified-name="TriggerRule.........." data-source-line="11" id="ent0008"><ellipse cx="276.466" cy="185.0236" fill="#F1F1F1" rx="56.466" ry="14.5236" style="stroke:#181818;stroke-width:0.5;"/><text fill="#000000" font-family="sans-serif" font-size="14" lengthAdjust="spacing" textLength="75.6123" x="238.6598" y="189.6721">&#12488;&#12522;&#12460;&#12540;&#12523;&#12540;&#12523;&#26356;&#26032;</text></g><!--entity ?????????--><g class="entity" data-qualified-name="TriggerRule.........." data-source-line="12" id="ent0009"><ellipse cx="276.466" cy="57.0236" fill="#F1F1F1" rx="56.466" ry="14.5236" style="stroke:#181818;stroke-width:0.5;"/><text fill="#000000" font-family="sans-serif" font-size="14" lengthAdjust="spacing" textLength="75.6123" x="238.6598" y="61.6721">&#12488;&#12522;&#12460;&#12540;&#12523;&#12540;&#12523;&#21066;&#38500;</text></g><!--entity ??????--><g class="entity" data-qualified-name="TriggerRule......." data-source-line="14" id="ent0010"><ellipse cx="276.644" cy="249.0236" fill="#F1F1F1" rx="38.644" ry="14.5236" style="stroke:#181818;stroke-width:0.5;"/><text fill="#000000" font-family="sans-serif" font-size="14" lengthAdjust="spacing" textLength="50.4082" x="251.4399" y="253.6721">&#12488;&#12522;&#12460;&#12540;&#35413;&#20385;</text></g><!--entity ??????--><g class="entity" data-qualified-name="TriggerRule......." data-source-line="15" id="ent0011"><ellipse cx="431.644" cy="313.0236" fill="#F1F1F1" rx="38.644" ry="14.5236" style="stroke:#181818;stroke-width:0.5;"/><text fill="#000000" font-family="sans-serif" font-size="14" lengthAdjust="spacing" textLength="50.4082" x="406.4399" y="317.6721">&#12450;&#12521;&#12540;&#12488;&#29983;&#25104;</text></g><!--entity ??????????--><g class="entity" data-qualified-name="TriggerRule..........." data-source-line="16" id="ent0012"><ellipse cx="591.5192" cy="377.2038" fill="#F1F1F1" rx="61.5192" ry="14.7038" style="stroke:#181818;stroke-width:0.5;"/><text fill="#000000" font-family="sans-serif" font-size="14" lengthAdjust="spacing" textLength="84.0137" x="549.5124" y="381.8523">&#12450;&#12463;&#12471;&#12519;&#12531;&#12503;&#12521;&#12531;&#25552;&#31034;</text></g><!--entity ?????????--><g class="entity" data-qualified-name="TriggerRule.........." data-source-line="17" id="ent0013"><ellipse cx="276.466" cy="377.0236" fill="#F1F1F1" rx="56.466" ry="14.5236" style="stroke:#181818;stroke-width:0.5;"/><text fill="#000000" font-family="sans-serif" font-size="14" lengthAdjust="spacing" textLength="75.6123" x="238.6598" y="381.6721">&#12450;&#12521;&#12540;&#12488;&#30906;&#35469;&#12539;&#23550;&#24540;</text></g><!--entity ??????--><g class="entity" data-qualified-name="TriggerRule......." data-source-line="19" id="ent0014"><ellipse cx="276.644" cy="313.0236" fill="#F1F1F1" rx="38.644" ry="14.5236" style="stroke:#181818;stroke-width:0.5;"/><text fill="#000000" font-family="sans-serif" font-size="14" lengthAdjust="spacing" textLength="50.4082" x="251.4399" y="317.6721">&#23455;&#34892;&#12525;&#12464;&#21442;&#29031;</text></g><!--entity Admin--><g class="entity" data-qualified-name="Admin" data-source-line="3" id="ent0002"><ellipse cx="83" cy="100.5" fill="#F1F1F1" rx="8" ry="8" style="stroke:#181818;stroke-width:0.5;"/><path d="M83,108.5 L83,135.5 M70,116.5 L96,116.5 M83,135.5 L70,150.5 M83,135.5 L96,150.5" fill="none" style="stroke:#181818;stroke-width:0.5;"/><text fill="#000000" font-family="sans-serif" font-size="14" lengthAdjust="spacing" textLength="25.2041" x="70.3979" y="164.9951">&#31649;&#29702;&#32773;</text></g><!--entity Manager--><g class="entity" data-qualified-name="Manager" data-source-line="4" id="ent0003"><ellipse cx="83.2041" cy="347.5" fill="#F1F1F1" rx="8" ry="8" style="stroke:#181818;stroke-width:0.5;"/><path d="M83.2041,355.5 L83.2041,382.5 M70.2041,363.5 L96.2041,363.5 M83.2041,382.5 L70.2041,397.5 M83.2041,382.5 L96.2041,397.5" fill="none" style="stroke:#181818;stroke-width:0.5;"/><text fill="#000000" font-family="sans-serif" font-size="14" lengthAdjust="spacing" textLength="50.4082" x="58" y="411.9951">&#12510;&#12493;&#12540;&#12472;&#12515;&#12540;</text></g><!--entity Member--><g class="entity" data-qualified-name="Member" data-source-line="5" id="ent0004"><ellipse cx="82.8027" cy="472.5" fill="#F1F1F1" rx="8" ry="8" style="stroke:#181818;stroke-width:0.5;"/><path d="M82.8027,480.5 L82.8027,507.5 M69.8027,488.5 L95.8027,488.5 M82.8027,507.5 L69.8027,522.5 M82.8027,507.5 L95.8027,522.5" fill="none" style="stroke:#181818;stroke-width:0.5;"/><text fill="#000000" font-family="sans-serif" font-size="14" lengthAdjust="spacing" textLength="33.6055" x="66" y="536.9951">&#12513;&#12531;&#12496;&#12540;</text></g><!--entity Event--><g class="entity" data-qualified-name="Event" data-source-line="6" id="ent0005"><ellipse cx="83.147" cy="219.5" fill="#F1F1F1" rx="8" ry="8" style="stroke:#181818;stroke-width:0.5;"/><path d="M83.147,227.5 L83.147,254.5 M70.147,235.5 L96.147,235.5 M83.147,254.5 L70.147,269.5 M83.147,254.5 L96.147,269.5" fill="none" style="stroke:#181818;stroke-width:0.5;"/><text fill="#000000" font-family="sans-serif" font-size="14" lengthAdjust="spacing" textLength="154.2939" x="6" y="283.9951">Domain Event Stream</text></g><!--link Admin to ?????????--><g class="link" data-entity-1="ent0002" data-entity-2="ent0007" data-link-type="dependency" data-source-line="23" id="lnk15"><path d="M96.56,129.41 C121.36,128.24 171.9166,125.8719 214.8566,123.8519" fill="none" id="Admin-to-&#12488;&#12522;&#12460;&#12540;&#12523;&#12540;&#12523;&#20316;&#25104;" style="stroke:#181818;stroke-width:1;"/><polygon fill="#181818" points="220.85,123.57,211.672,119.9973,215.8555,123.805,212.0479,127.9885,220.85,123.57" style="stroke:#181818;stroke-width:1;"/></g><!--link Admin to ?????????--><g class="link" data-entity-1="ent0002" data-entity-2="ent0008" data-link-type="dependency" data-source-line="24" id="lnk16"><path d="M96.56,133.61 C124.86,141.73 188.7132,160.0736 232.3032,172.5936" fill="none" id="Admin-to-&#12488;&#12522;&#12460;&#12540;&#12523;&#12540;&#12523;&#26356;&#26032;" style="stroke:#181818;stroke-width:1;"/><polygon fill="#181818" points="238.07,174.25,230.524,167.9209,233.2643,172.8697,228.3155,175.61,238.07,174.25" style="stroke:#181818;stroke-width:1;"/></g><!--link Admin to ?????????--><g class="link" data-entity-1="ent0002" data-entity-2="ent0009" data-link-type="dependency" data-source-line="25" id="lnk17"><path d="M96.56,125.21 C126.19,113.92 195.5135,87.4871 238.4335,71.1271" fill="none" id="Admin-to-&#12488;&#12522;&#12460;&#12540;&#12523;&#12540;&#12523;&#21066;&#38500;" style="stroke:#181818;stroke-width:1;"/><polygon fill="#181818" points="244.04,68.99,234.2055,68.4579,239.3679,70.7709,237.0549,75.9333,244.04,68.99" style="stroke:#181818;stroke-width:1;"/></g><!--link Admin to ??????--><g class="link" data-entity-1="ent0002" data-entity-2="ent0014" data-link-type="dependency" data-source-line="26" id="lnk18"><path d="M96.68,137.67 C113.25,148.26 142.25,168.83 160,193 C185.01,227.06 166.04,251.2 196,281 C208.55,293.48 220.8772,299.5422 236.6072,304.3022" fill="none" id="Admin-to-&#23455;&#34892;&#12525;&#12464;&#21442;&#29031;" style="stroke:#181818;stroke-width:1;"/><polygon fill="#181818" points="242.35,306.04,234.8943,299.6047,237.5643,304.5918,232.5772,307.2618,242.35,306.04" style="stroke:#181818;stroke-width:1;"/></g><!--link Manager to ??????--><g class="link" data-entity-1="ent0003" data-entity-2="ent0014" data-link-type="dependency" data-source-line="27" id="lnk19"><path d="M108.25,368.89 C143.68,357.05 203.7594,336.9819 241.3994,324.4019" fill="none" id="Manager-to-&#23455;&#34892;&#12525;&#12464;&#21442;&#29031;" style="stroke:#181818;stroke-width:1;"/><polygon fill="#181818" points="247.09,322.5,237.2862,321.5591,242.3478,324.0849,239.8221,329.1466,247.09,322.5" style="stroke:#181818;stroke-width:1;"/></g><!--link Event to ??????--><g class="link" data-entity-1="ent0005" data-entity-2="ent0010" data-link-type="dependency" data-source-line="29" id="lnk20"><path d="M160.24,249 C186.94,249 209.75,249 231.89,249" fill="none" id="Event-to-&#12488;&#12522;&#12460;&#12540;&#35413;&#20385;" style="stroke:#181818;stroke-width:1;"/><polygon fill="#181818" points="237.89,249,228.89,245,232.89,249,228.89,253,237.89,249" style="stroke:#181818;stroke-width:1;"/></g><!--link ?????? to ??????--><g class="link" data-entity-1="ent0010" data-entity-2="ent0011" data-link-type="dependency" data-source-line="30" id="lnk21"><path d="M303.11,259.71 C331.44,271.56 371.2647,288.2248 399.5247,300.0448" fill="none" id="&#12488;&#12522;&#12460;&#12540;&#35413;&#20385;-to-&#12450;&#12521;&#12540;&#12488;&#29983;&#25104;" style="stroke:#181818;stroke-width:1;"/><polygon fill="#181818" points="405.06,302.36,398.3005,295.197,400.4472,300.4307,395.2135,302.5774,405.06,302.36" style="stroke:#181818;stroke-width:1;"/></g><!--link ?????? to ??????????--><g class="link" data-entity-1="ent0011" data-entity-2="ent0012" data-link-type="dependency" data-source-line="31" id="lnk22"><path d="M458.59,323.57 C486.38,334.82 524.7592,350.3666 554.1992,362.2966" fill="none" id="&#12450;&#12521;&#12540;&#12488;&#29983;&#25104;-to-&#12450;&#12463;&#12471;&#12519;&#12531;&#12503;&#12521;&#12531;&#25552;&#31034;" style="stroke:#181818;stroke-width:1;"/><polygon fill="#181818" points="559.76,364.55,552.9211,357.4627,555.126,362.6722,549.9166,364.8771,559.76,364.55" style="stroke:#181818;stroke-width:1;"/></g><!--link Manager to ??????????--><g class="link" data-entity-1="ent0003" data-entity-2="ent0012" data-link-type="dependency" data-source-line="33" id="lnk23"><path d="M108.05,385.98 C130.45,393.84 164.96,404.65 196,409 C322.4,426.7 467.1916,403.0719 540.3616,388.1119" fill="none" id="Manager-to-&#12450;&#12463;&#12471;&#12519;&#12531;&#12503;&#12521;&#12531;&#25552;&#31034;" style="stroke:#181818;stroke-width:1;"/><polygon fill="#181818" points="546.24,386.91,536.6212,384.7939,541.3413,387.9116,538.2237,392.6317,546.24,386.91" style="stroke:#181818;stroke-width:1;"/></g><!--link Member to ??????????--><g class="link" data-entity-1="ent0004" data-entity-2="ent0012" data-link-type="dependency" data-source-line="34" id="lnk24"><path d="M100.34,499.13 C153.87,489.6 328.59,457.31 470,418 C500.13,409.63 528.1203,400.0278 552.1903,391.2878" fill="none" id="Member-to-&#12450;&#12463;&#12471;&#12519;&#12531;&#12503;&#12521;&#12531;&#25552;&#31034;" style="stroke:#181818;stroke-width:1;"/><polygon fill="#181818" points="557.83,389.24,548.0052,388.5519,553.1302,390.9465,550.7356,396.0715,557.83,389.24" style="stroke:#181818;stroke-width:1;"/></g><!--link Manager to ?????????--><g class="link" data-entity-1="ent0003" data-entity-2="ent0013" data-link-type="dependency" data-source-line="36" id="lnk25"><path d="M108.25,377 C136.13,377 176.8,377 213.76,377" fill="none" id="Manager-to-&#12450;&#12521;&#12540;&#12488;&#30906;&#35469;&#12539;&#23550;&#24540;" style="stroke:#181818;stroke-width:1;"/><polygon fill="#181818" points="219.76,377,210.76,373,214.76,377,210.76,381,219.76,377" style="stroke:#181818;stroke-width:1;"/></g><!--link Member to ?????????--><g class="link" data-entity-1="ent0004" data-entity-2="ent0013" data-link-type="dependency" data-source-line="37" id="lnk26"><path d="M100.33,491.34 C135.15,468.61 211.6254,418.6893 249.9154,393.6993" fill="none" id="Member-to-&#12450;&#12521;&#12540;&#12488;&#30906;&#35469;&#12539;&#23550;&#24540;" style="stroke:#181818;stroke-width:1;"/><polygon fill="#181818" points="254.94,390.42,245.217,391.9892,250.7529,393.1527,249.5893,398.6886,254.94,390.42" style="stroke:#181818;stroke-width:1;"/></g><?plantuml-src dPBDIiD058NtynH3zdq5GT2b6_K5ndQCWIQ1TEf62Z93fOhIBFn1B9RKGcdLjb11gLeVvZO_leNfjB7M9WRSXE6UB_SUphrvkiimCx6bgNiCvpIBPfbc6WYHB3CjhFXTnxUFWiEoWaa1h-PqpOWa4BSWpa2y0Ny1SHS-9BD13A9IQquv80OWx6-TwZjpUStKYMRWzNrgCBp5B4fqISa2GXCxn53p52lReSMmxsOnJnLyW136nGBDaWATpAY0w01_c9WHzzFl-BtcLMmbbVDkdhpBVZhd7fzyNZULnC51-s8ySXRxy0Q8jlozuf_Nb-o4Cky1VmRHaXbTINhWLMs_EKpkr1W6dJ3tLxStSZzgYuxSRZrmJa4y0k-xLUwNMw5UGaXk3cSoAobffN5HMcbSbDOFBixQx5YI0JIzZAL1KTfnnHaT4tvSSKx_jOj5fsdqzCR_spbnqR_R9e9V?></g></svg>