<?plantuml 1.2026.2?><svg xmlns="http://www.w3.org/2000/svg" xmlns:xlink="http://www.w3.org/1999/xlink" contentStyleType="text/css" data-diagram-type="DESCRIPTION" height="572px" preserveAspectRatio="none" style="width:801px;height:572px;background:#FFFFFF;" version="1.1" viewBox="0 0 801 572" width="801px" zoomAndPan="magnify"><defs/><g><!--cluster TriggerRule--><g class="cluster" data-qualified-name="TriggerRule" data-source-line="8" id="ent0006"><rect fill="none" height="430" rx="2.5" ry="2.5" style="stroke:#181818;stroke-width:1;" width="600.74" x="195.15" y="7"/><text fill="#000000" font-family="sans-serif" font-size="14" font-weight="bold" lengthAdjust="spacing" textLength="85.2236" x="452.9082" y="22.5352">TriggerRule</text></g><!--entity ?????????--><g class="entity" data-qualified-name="TriggerRule.........." data-source-line="10" id="ent0007"><ellipse cx="289.4271" cy="59.9974" fill="#F1F1F1" rx="78.2871" ry="18.0574" style="stroke:#181818;stroke-width:0.5;"/><text fill="#000000" font-family="sans-serif" font-size="14" lengthAdjust="spacing" textLength="126" x="226.4271" y="64.7416">&#12488;&#12522;&#12460;&#12540;&#12523;&#12540;&#12523;&#20316;&#25104;</text></g><!--entity ?????????--><g class="entity" data-qualified-name="TriggerRule.........." data-source-line="11" id="ent0008"><ellipse cx="289.4271" cy="201.9974" fill="#F1F1F1" rx="78.2871" ry="18.0574" style="stroke:#181818;stroke-width:0.5;"/><text fill="#000000" font-family="sans-serif" font-size="14" lengthAdjust="spacing" textLength="126" x="226.4271" y="206.7416">&#12488;&#12522;&#12460;&#12540;&#12523;&#12540;&#12523;&#26356;&#26032;</text></g><!--entity ?????????--><g class="entity" data-qualified-name="TriggerRule.........." data-source-line="12" id="ent0009"><ellipse cx="289.4271" cy="130.9974" fill="#F1F1F1" rx="78.2871" ry="18.0574" style="stroke:#181818;stroke-width:0.5;"/><text fill="#000000" font-family="sans-serif" font-size="14" lengthAdjust="spacing" textLength="126" x="226.4271" y="135.7416">&#12488;&#12522;&#12460;&#12540;&#12523;&#12540;&#12523;&#21066;&#38500;</text></g><!--entity ??????--><g class="entity" data-qualified-name="TriggerRule......." data-source-line="14" id="ent0010"><ellipse cx="289.4285" cy="269.9997" fill="#F1F1F1" rx="61.8485" ry="14.7697" style="stroke:#181818;stroke-width:0.5;"/><text fill="#000000" font-family="sans-serif" font-size="14" lengthAdjust="spacing" textLength="84" x="247.4285" y="274.7438">&#12488;&#12522;&#12460;&#12540;&#35413;&#20385;</text></g><!--entity ??????--><g class="entity" data-qualified-name="TriggerRule......." data-source-line="15" id="ent0011"><ellipse cx="489.5685" cy="335.9997" fill="#F1F1F1" rx="61.8485" ry="14.7697" style="stroke:#181818;stroke-width:0.5;"/><text fill="#000000" font-family="sans-serif" font-size="14" lengthAdjust="spacing" textLength="84" x="447.5685" y="340.7438">&#12450;&#12521;&#12540;&#12488;&#29983;&#25104;</text></g><!--entity ??????????--><g class="entity" data-qualified-name="TriggerRule..........." data-source-line="16" id="ent0012"><ellipse cx="695.6451" cy="401.997" fill="#F1F1F1" rx="84.2351" ry="19.247" style="stroke:#181818;stroke-width:0.5;"/><text fill="#000000" font-family="sans-serif" font-size="14" lengthAdjust="spacing" textLength="140" x="625.6451" y="406.7412">&#12450;&#12463;&#12471;&#12519;&#12531;&#12503;&#12521;&#12531;&#25552;&#31034;</text></g><!--entity ?????????--><g class="entity" data-qualified-name="TriggerRule.........." data-source-line="17" id="ent0013"><ellipse cx="289.4271" cy="402.9974" fill="#F1F1F1" rx="78.2871" ry="18.0574" style="stroke:#181818;stroke-width:0.5;"/><text fill="#000000" font-family="sans-serif" font-size="14" lengthAdjust="spacing" textLength="126" x="226.4271" y="407.7416">&#12450;&#12521;&#12540;&#12488;&#30906;&#35469;&#12539;&#23550;&#24540;</text></g><!--entity ??????--><g class="entity" data-qualified-name="TriggerRule......." data-source-line="19" id="ent0014"><ellipse cx="289.4285" cy="334.9997" fill="#F1F1F1" rx="61.8485" ry="14.7697" style="stroke:#181818;stroke-width:0.5;"/><text fill="#000000" font-family="sans-serif" font-size="14" lengthAdjust="spacing" textLength="84" x="247.4285" y="339.7438">&#23455;&#34892;&#12525;&#12464;&#21442;&#29031;</text></g><!--entity Admin--><g class="entity" data-qualified-name="Admin" data-source-line="3" id="ent0002"><ellipse cx="78.57" cy="115.25" fill="#F1F1F1" rx="8" ry="8" style="stroke:#181818;stroke-width:0.5;"/><path d="M78.57,123.25 L78.57,150.25 M65.57,131.25 L91.57,131.25 M78.57,150.25 L65.57,165.25 M78.57,150.25 L91.57,165.25" fill="none" style="stroke:#181818;stroke-width:0.5;"/><text fill="#000000" font-family="sans-serif" font-size="14" lengthAdjust="spacing" textLength="42" x="57.57" y="180.2852">&#31649;&#29702;&#32773;</text></g><!--entity Manager--><g class="entity" data-qualified-name="Manager" data-source-line="4" id="ent0003"><ellipse cx="78.57" cy="373.25" fill="#F1F1F1" rx="8" ry="8" style="stroke:#181818;stroke-width:0.5;"/><path d="M78.57,381.25 L78.57,408.25 M65.57,389.25 L91.57,389.25 M78.57,408.25 L65.57,423.25 M78.57,408.25 L91.57,423.25" fill="none" style="stroke:#181818;stroke-width:0.5;"/><text fill="#000000" font-family="sans-serif" font-size="14" lengthAdjust="spacing" textLength="84" x="36.57" y="438.2852">&#12510;&#12493;&#12540;&#12472;&#12515;&#12540;</text></g><!--entity Member--><g class="entity" data-qualified-name="Member" data-source-line="5" id="ent0004"><ellipse cx="78.57" cy="499.25" fill="#F1F1F1" rx="8" ry="8" style="stroke:#181818;stroke-width:0.5;"/><path d="M78.57,507.25 L78.57,534.25 M65.57,515.25 L91.57,515.25 M78.57,534.25 L65.57,549.25 M78.57,534.25 L91.57,549.25" fill="none" style="stroke:#181818;stroke-width:0.5;"/><text fill="#000000" font-family="sans-serif" font-size="14" lengthAdjust="spacing" textLength="56" x="50.57" y="564.2852">&#12513;&#12531;&#12496;&#12540;</text></g><!--entity Event--><g class="entity" data-qualified-name="Event" data-source-line="6" id="ent0005"><ellipse cx="78.5737" cy="240.25" fill="#F1F1F1" rx="8" ry="8" style="stroke:#181818;stroke-width:0.5;"/><path d="M78.5737,248.25 L78.5737,275.25 M65.5737,256.25 L91.5737,256.25 M78.5737,275.25 L65.5737,290.25 M78.5737,275.25 L91.5737,290.25" fill="none" style="stroke:#181818;stroke-width:0.5;"/><text fill="#000000" font-family="sans-serif" font-size="14" lengthAdjust="spacing" textLength="145.1475" x="6" y="305.2852">Domain Event Stream</text></g><!--link Admin to ?????????--><g class="link" data-entity-1="ent0002" data-entity-2="ent0007" data-link-type="dependency" data-source-line="23" id="lnk15"><path d="M99.92,134.78 C121.35,124.2 156.21,107.49 187.15,95 C205,87.78 219.2958,82.6008 236.7558,76.7008" fill="none" id="Admin-to-&#12488;&#12522;&#12460;&#12540;&#12523;&#12540;&#12523;&#20316;&#25104;" style="stroke:#181818;stroke-width:1;"/><polygon fill="#181818" points="242.44,74.78,232.6331,73.8717,237.7031,76.3807,235.1942,81.4507,242.44,74.78" style="stroke:#181818;stroke-width:1;"/></g><!--link Admin to ?????????--><g class="link" data-entity-1="ent0002" data-entity-2="ent0008" data-link-type="dependency" data-source-line="24" id="lnk16"><path d="M99.98,150.57 C131.6,159.19 187.5818,174.4697 231.7918,186.5397" fill="none" id="Admin-to-&#12488;&#12522;&#12460;&#12540;&#12523;&#12540;&#12523;&#26356;&#26032;" style="stroke:#181818;stroke-width:1;"/><polygon fill="#181818" points="237.58,188.12,229.9513,181.8908,232.7565,186.8031,227.8443,189.6084,237.58,188.12" style="stroke:#181818;stroke-width:1;"/></g><!--link Admin to ?????????--><g class="link" data-entity-1="ent0002" data-entity-2="ent0009" data-link-type="dependency" data-source-line="25" id="lnk17"><path d="M99.98,143.63 C126.26,141.87 167.3835,139.1116 207.9335,136.3916" fill="none" id="Admin-to-&#12488;&#12522;&#12460;&#12540;&#12523;&#12540;&#12523;&#21066;&#38500;" style="stroke:#181818;stroke-width:1;"/><polygon fill="#181818" points="213.92,135.99,204.6725,132.6013,208.9312,136.3246,205.2079,140.5834,213.92,135.99" style="stroke:#181818;stroke-width:1;"/></g><!--link Admin to ??????--><g class="link" data-entity-1="ent0002" data-entity-2="ent0014" data-link-type="dependency" data-source-line="26" id="lnk18"><path d="M100.03,160.72 C115.71,173.63 137,193.14 151.15,214 C174.87,248.97 156.19,273.23 187.15,302 C200.63,314.52 213.1492,320.6931 230.4892,325.5131" fill="none" id="Admin-to-&#23455;&#34892;&#12525;&#12464;&#21442;&#29031;" style="stroke:#181818;stroke-width:1;"/><polygon fill="#181818" points="236.27,327.12,228.67,320.8558,231.4526,325.7809,226.5275,328.5635,236.27,327.12" style="stroke:#181818;stroke-width:1;"/></g><!--link Manager to ??????--><g class="link" data-entity-1="ent0003" data-entity-2="ent0014" data-link-type="dependency" data-source-line="27" id="lnk19"><path d="M120.9,388.98 C140.88,382.26 165.24,374.12 187.15,367 C208.02,360.21 225.6454,354.6168 244.6654,348.6468" fill="none" id="Manager-to-&#23455;&#34892;&#12525;&#12464;&#21442;&#29031;" style="stroke:#181818;stroke-width:1;"/><polygon fill="#181818" points="250.39,346.85,240.6052,345.7289,245.6195,348.3474,243.001,353.3617,250.39,346.85" style="stroke:#181818;stroke-width:1;"/></g><!--link Event to ??????--><g class="link" data-entity-1="ent0005" data-entity-2="ent0010" data-link-type="dependency" data-source-line="29" id="lnk20"><path d="M151.45,270 C176.11,270 197.47,270 221.2,270" fill="none" id="Event-to-&#12488;&#12522;&#12460;&#12540;&#35413;&#20385;" style="stroke:#181818;stroke-width:1;"/><polygon fill="#181818" points="227.2,270,218.2,266,222.2,270,218.2,274,227.2,270" style="stroke:#181818;stroke-width:1;"/></g><!--link ?????? to ??????--><g class="link" data-entity-1="ent0010" data-entity-2="ent0011" data-link-type="dependency" data-source-line="30" id="lnk21"><path d="M326.78,282.1 C362.41,293.97 410.7579,310.0726 446.4279,321.9626" fill="none" id="&#12488;&#12522;&#12460;&#12540;&#35413;&#20385;-to-&#12450;&#12521;&#12540;&#12488;&#29983;&#25104;" style="stroke:#181818;stroke-width:1;"/><polygon fill="#181818" points="452.12,323.86,444.8468,317.2192,447.3766,322.2789,442.3169,324.8087,452.12,323.86" style="stroke:#181818;stroke-width:1;"/></g><!--link ?????? to ??????????--><g class="link" data-entity-1="ent0011" data-entity-2="ent0012" data-link-type="dependency" data-source-line="31" id="lnk22"><path d="M527.53,347.95 C560.61,358.65 603.6413,372.5632 639.9613,384.3132" fill="none" id="&#12450;&#12521;&#12540;&#12488;&#29983;&#25104;-to-&#12450;&#12463;&#12471;&#12519;&#12531;&#12503;&#12521;&#12531;&#25552;&#31034;" style="stroke:#181818;stroke-width:1;"/><polygon fill="#181818" points="645.67,386.16,638.3382,379.5839,640.9128,384.621,635.8757,387.1955,645.67,386.16" style="stroke:#181818;stroke-width:1;"/></g><!--link Manager to ??????????--><g class="link" data-entity-1="ent0003" data-entity-2="ent0012" data-link-type="dependency" data-source-line="33" id="lnk23"><path d="M120.93,420.32 C140.61,427.65 164.7,435.34 187.15,439 C347.15,465.06 532.6483,435.9355 628.2083,416.6755" fill="none" id="Manager-to-&#12450;&#12463;&#12471;&#12519;&#12531;&#12503;&#12521;&#12531;&#25552;&#31034;" style="stroke:#181818;stroke-width:1;"/><polygon fill="#181818" points="634.09,415.49,624.4771,413.347,629.1886,416.4779,626.0577,421.1893,634.09,415.49" style="stroke:#181818;stroke-width:1;"/></g><!--link Member to ??????????--><g class="link" data-entity-1="ent0004" data-entity-2="ent0012" data-link-type="dependency" data-source-line="34" id="lnk24"><path d="M107.04,526.21 C180.16,518.42 385.3,494.2 551.42,452 C586.01,443.21 618.5035,431.8472 646.7035,421.0972" fill="none" id="Member-to-&#12450;&#12463;&#12471;&#12519;&#12531;&#12503;&#12521;&#12531;&#25552;&#31034;" style="stroke:#181818;stroke-width:1;"/><polygon fill="#181818" points="652.31,418.96,642.4755,418.4282,647.638,420.741,645.3251,425.9035,652.31,418.96" style="stroke:#181818;stroke-width:1;"/></g><!--link Manager to ?????????--><g class="link" data-entity-1="ent0003" data-entity-2="ent0013" data-link-type="dependency" data-source-line="36" id="lnk25"><path d="M120.84,403 C146.52,403 174.36,403 204.9,403" fill="none" id="Manager-to-&#12450;&#12521;&#12540;&#12488;&#30906;&#35469;&#12539;&#23550;&#24540;" style="stroke:#181818;stroke-width:1;"/><polygon fill="#181818" points="210.9,403,201.9,399,205.9,403,201.9,407,210.9,403" style="stroke:#181818;stroke-width:1;"/></g><!--link Member to ?????????--><g class="link" data-entity-1="ent0004" data-entity-2="ent0013" data-link-type="dependency" data-source-line="37" id="lnk26"><path d="M106.88,512.52 C146.57,488.58 214.722,447.4586 254.982,423.1786" fill="none" id="Member-to-&#12450;&#12521;&#12540;&#12488;&#30906;&#35469;&#12539;&#23550;&#24540;" style="stroke:#181818;stroke-width:1;"/><polygon fill="#181818" points="260.12,420.08,250.3473,421.3026,255.8384,422.6622,254.4788,428.1532,260.12,420.08" style="stroke:#181818;stroke-width:1;"/></g><?plantuml-src dPBDIiD058NtynH3zdq5GT2b6_K5ndQCWIQ1TEf62Z93fOhIBFn1B9RKGcdLjb11gLeVvZO_leNfjB7M9WRSXE6UB_SUphrvkiimCx6bgNiCvpIBPfbc6WYHB3CjhFXTnxUFWiEoWaa1h-PqpOWa4BSWpa2y0Ny1SHS-9BD13A9IQquv80OWx6-TwZjpUStKYMRWzNrgCBp5B4fqISa2GXCxn53p52lReSMmxsOnJnLyW136nGBDaWATpAY0w01_c9WHzzFl-BtcLMmbbVDkdhpBVZhd7fzyNZULnC51-s8ySXRxy0Q8jlozuf_Nb-o4Cky1VmRHaXbTINhWLMs_EKpkr1W6dJ3tLxStSZzgYuxSRZrmJa4y0k-xLUwNMw5UGaXk3cSoAobffN5HMcbSbDOFBixQx5YI0JIzZAL1KTfnnHaT4tvSSKx_jOj5fsdqzCR_spbnqR_R9e9V?></g></svg>