<?plantuml 1.2026.2?><svg xmlns="http://www.w3.org/2000/svg" xmlns:xlink="http://www.w3.org/1999/xlink" contentStyleType="text/css" data-diagram-type="DESCRIPTION" height="545px" preserveAspectRatio="none" style="width:675px;height:545px;background:#FFFFFF;" version="1.1" viewBox="0 0 675 545" width="675px" zoomAndPan="magnify"><defs/><g><!--cluster TriggerRule--><g class="cluster" data-qualified-name="TriggerRule" data-source-line="8" id="ent0006"><rect fill="none" height="401" rx="2.5" ry="2.5" style="stroke:#181818;stroke-width:1;" width="465.26" x="204.29" y="7"/><text fill="#000000" font-family="sans-serif" font-size="14" font-weight="bold" lengthAdjust="spacing" textLength="92.7363" x="390.5518" y="21.9951">TriggerRule</text></g><!--entity ?????????--><g class="entity" data-qualified-name="TriggerRule.........." data-source-line="10" id="ent0007"><ellipse cx="276.756" cy="57.0036" fill="#F1F1F1" rx="56.466" ry="14.5236" style="stroke:#181818;stroke-width:0.5;"/><text fill="#000000" font-family="sans-serif" font-size="14" lengthAdjust="spacing" textLength="75.6123" x="238.9498" y="61.6521">&#12488;&#12522;&#12460;&#12540;&#12523;&#12540;&#12523;&#20316;&#25104;</text></g><!--entity ?????????--><g class="entity" data-qualified-name="TriggerRule.........." data-source-line="11" id="ent0008"><ellipse cx="276.756" cy="185.0036" fill="#F1F1F1" rx="56.466" ry="14.5236" style="stroke:#181818;stroke-width:0.5;"/><text fill="#000000" font-family="sans-serif" font-size="14" lengthAdjust="spacing" textLength="75.6123" x="238.9498" y="189.6521">&#12488;&#12522;&#12460;&#12540;&#12523;&#12540;&#12523;&#26356;&#26032;</text></g><!--entity ?????????--><g class="entity" data-qualified-name="TriggerRule.........." data-source-line="12" id="ent0009"><ellipse cx="276.756" cy="121.0036" fill="#F1F1F1" rx="56.466" ry="14.5236" style="stroke:#181818;stroke-width:0.5;"/><text fill="#000000" font-family="sans-serif" font-size="14" lengthAdjust="spacing" textLength="75.6123" x="238.9498" y="125.6521">&#12488;&#12522;&#12460;&#12540;&#12523;&#12540;&#12523;&#21066;&#38500;</text></g><!--entity ??????--><g class="entity" data-qualified-name="TriggerRule......." data-source-line="14" id="ent0010"><ellipse cx="276.764" cy="249.0036" fill="#F1F1F1" rx="38.644" ry="14.5236" style="stroke:#181818;stroke-width:0.5;"/><text fill="#000000" font-family="sans-serif" font-size="14" lengthAdjust="spacing" textLength="50.4082" x="251.5599" y="253.6521">&#12488;&#12522;&#12460;&#12540;&#35413;&#20385;</text></g><!--entity ??????--><g class="entity" data-qualified-name="TriggerRule......." data-source-line="15" id="ent0011"><ellipse cx="431.874" cy="313.0036" fill="#F1F1F1" rx="38.644" ry="14.5236" style="stroke:#181818;stroke-width:0.5;"/><text fill="#000000" font-family="sans-serif" font-size="14" lengthAdjust="spacing" textLength="50.4082" x="406.6699" y="317.6521">&#12450;&#12521;&#12540;&#12488;&#29983;&#25104;</text></g><!--entity ??????????--><g class="entity" data-qualified-name="TriggerRule..........." data-source-line="16" id="ent0012"><ellipse cx="592.0292" cy="377.0038" fill="#F1F1F1" rx="61.5192" ry="14.7038" style="stroke:#181818;stroke-width:0.5;"/><text fill="#000000" font-family="sans-serif" font-size="14" lengthAdjust="spacing" textLength="84.0137" x="550.0224" y="381.6523">&#12450;&#12463;&#12471;&#12519;&#12531;&#12503;&#12521;&#12531;&#25552;&#31034;</text></g><!--entity ?????????--><g class="entity" data-qualified-name="TriggerRule.........." data-source-line="17" id="ent0013"><ellipse cx="276.756" cy="377.0036" fill="#F1F1F1" rx="56.466" ry="14.5236" style="stroke:#181818;stroke-width:0.5;"/><text fill="#000000" font-family="sans-serif" font-size="14" lengthAdjust="spacing" textLength="75.6123" x="238.9498" y="381.6521">&#12450;&#12521;&#12540;&#12488;&#30906;&#35469;&#12539;&#23550;&#24540;</text></g><!--entity ??????--><g class="entity" data-qualified-name="TriggerRule......." data-source-line="19" id="ent0014"><ellipse cx="276.764" cy="313.0036" fill="#F1F1F1" rx="38.644" ry="14.5236" style="stroke:#181818;stroke-width:0.5;"/><text fill="#000000" font-family="sans-serif" font-size="14" lengthAdjust="spacing" textLength="50.4082" x="251.5599" y="317.6521">&#23455;&#34892;&#12525;&#12464;&#21442;&#29031;</text></g><!--entity Admin--><g class="entity" data-qualified-name="Admin" data-source-line="3" id="ent0002"><ellipse cx="83.15" cy="100.35" fill="#F1F1F1" rx="8" ry="8" style="stroke:#181818;stroke-width:0.5;"/><path d="M83.15,108.35 L83.15,135.35 M70.15,116.35 L96.15,116.35 M83.15,135.35 L70.15,150.35 M83.15,135.35 L96.15,150.35" fill="none" style="stroke:#181818;stroke-width:0.5;"/><text fill="#000000" font-family="sans-serif" font-size="14" lengthAdjust="spacing" textLength="25.2041" x="70.5479" y="164.8451">&#31649;&#29702;&#32773;</text></g><!--entity Manager--><g class="entity" data-qualified-name="Manager" data-source-line="4" id="ent0003"><ellipse cx="83.1441" cy="347.35" fill="#F1F1F1" rx="8" ry="8" style="stroke:#181818;stroke-width:0.5;"/><path d="M83.1441,355.35 L83.1441,382.35 M70.1441,363.35 L96.1441,363.35 M83.1441,382.35 L70.1441,397.35 M83.1441,382.35 L96.1441,397.35" fill="none" style="stroke:#181818;stroke-width:0.5;"/><text fill="#000000" font-family="sans-serif" font-size="14" lengthAdjust="spacing" textLength="50.4082" x="57.94" y="411.8451">&#12510;&#12493;&#12540;&#12472;&#12515;&#12540;</text></g><!--entity Member--><g class="entity" data-qualified-name="Member" data-source-line="5" id="ent0004"><ellipse cx="83.1427" cy="472.35" fill="#F1F1F1" rx="8" ry="8" style="stroke:#181818;stroke-width:0.5;"/><path d="M83.1427,480.35 L83.1427,507.35 M70.1427,488.35 L96.1427,488.35 M83.1427,507.35 L70.1427,522.35 M83.1427,507.35 L96.1427,522.35" fill="none" style="stroke:#181818;stroke-width:0.5;"/><text fill="#000000" font-family="sans-serif" font-size="14" lengthAdjust="spacing" textLength="33.6055" x="66.34" y="536.8451">&#12513;&#12531;&#12496;&#12540;</text></g><!--entity Event--><g class="entity" data-qualified-name="Event" data-source-line="6" id="ent0005"><ellipse cx="83.147" cy="219.35" fill="#F1F1F1" rx="8" ry="8" style="stroke:#181818;stroke-width:0.5;"/><path d="M83.147,227.35 L83.147,254.35 M70.147,235.35 L96.147,235.35 M83.147,254.35 L70.147,269.35 M83.147,254.35 L96.147,269.35" fill="none" style="stroke:#181818;stroke-width:0.5;"/><text fill="#000000" font-family="sans-serif" font-size="14" lengthAdjust="spacing" textLength="154.2939" x="6" y="283.8451">Domain Event Stream</text></g><!--link Admin to ?????????--><g class="link" data-entity-1="ent0002" data-entity-2="ent0007" data-link-type="dependency" data-source-line="23" id="lnk15"><path d="M97.02,125.1 C126.72,113.78 195.1931,87.6961 238.0831,71.3561" fill="none" id="Admin-to-&#12488;&#12522;&#12460;&#12540;&#12523;&#12540;&#12523;&#20316;&#25104;" style="stroke:#181818;stroke-width:1;"/><polygon fill="#181818" points="243.69,69.22,233.8556,68.6862,239.0176,71.0001,236.7037,76.162,243.69,69.22" style="stroke:#181818;stroke-width:1;"/></g><!--link Admin to ?????????--><g class="link" data-entity-1="ent0002" data-entity-2="ent0008" data-link-type="dependency" data-source-line="24" id="lnk16"><path d="M97.02,133.7 C125.38,141.84 188.4227,159.9354 231.9227,172.4154" fill="none" id="Admin-to-&#12488;&#12522;&#12460;&#12540;&#12523;&#12540;&#12523;&#26356;&#26032;" style="stroke:#181818;stroke-width:1;"/><polygon fill="#181818" points="237.69,174.07,230.1421,167.7432,232.8839,172.6911,227.9359,175.4329,237.69,174.07" style="stroke:#181818;stroke-width:1;"/></g><!--link Admin to ?????????--><g class="link" data-entity-1="ent0002" data-entity-2="ent0009" data-link-type="dependency" data-source-line="25" id="lnk17"><path d="M97.02,129.4 C121.94,128.23 172.0966,125.8717 214.8666,123.8617" fill="none" id="Admin-to-&#12488;&#12522;&#12460;&#12540;&#12523;&#12540;&#12523;&#21066;&#38500;" style="stroke:#181818;stroke-width:1;"/><polygon fill="#181818" points="220.86,123.58,211.6821,120.0069,215.8655,123.8147,212.0577,127.9981,220.86,123.58" style="stroke:#181818;stroke-width:1;"/></g><!--link Admin to ??????--><g class="link" data-entity-1="ent0002" data-entity-2="ent0014" data-link-type="dependency" data-source-line="26" id="lnk18"><path d="M97.14,137.85 C113.79,148.49 142.61,168.95 160.29,193 C185.32,227.05 166.33,251.2 196.29,281 C208.84,293.48 221.1582,299.5288 236.8882,304.2988" fill="none" id="Admin-to-&#23455;&#34892;&#12525;&#12464;&#21442;&#29031;" style="stroke:#181818;stroke-width:1;"/><polygon fill="#181818" points="242.63,306.04,235.1781,299.6004,237.8452,304.589,232.8565,307.2561,242.63,306.04" style="stroke:#181818;stroke-width:1;"/></g><!--link Manager to ??????--><g class="link" data-entity-1="ent0003" data-entity-2="ent0014" data-link-type="dependency" data-source-line="27" id="lnk19"><path d="M108.8,368.77 C144.18,356.95 203.519,337.1305 241.129,324.5705" fill="none" id="Manager-to-&#23455;&#34892;&#12525;&#12464;&#21442;&#29031;" style="stroke:#181818;stroke-width:1;"/><polygon fill="#181818" points="246.82,322.67,237.0164,321.7268,242.0775,324.2538,239.5505,329.3148,246.82,322.67" style="stroke:#181818;stroke-width:1;"/></g><!--link Event to ??????--><g class="link" data-entity-1="ent0005" data-entity-2="ent0010" data-link-type="dependency" data-source-line="29" id="lnk20"><path d="M160.7,249 C187.18,249 209.7,249 231.73,249" fill="none" id="Event-to-&#12488;&#12522;&#12460;&#12540;&#35413;&#20385;" style="stroke:#181818;stroke-width:1;"/><polygon fill="#181818" points="237.73,249,228.73,245,232.73,249,228.73,253,237.73,249" style="stroke:#181818;stroke-width:1;"/></g><!--link ?????? to ??????--><g class="link" data-entity-1="ent0010" data-entity-2="ent0011" data-link-type="dependency" data-source-line="30" id="lnk21"><path d="M303.73,259.86 C331.97,271.66 371.3039,288.1066 399.4939,299.8866" fill="none" id="&#12488;&#12522;&#12460;&#12540;&#35413;&#20385;-to-&#12450;&#12521;&#12540;&#12488;&#29983;&#25104;" style="stroke:#181818;stroke-width:1;"/><polygon fill="#181818" points="405.03,302.2,398.2682,295.0392,400.4166,300.2722,395.1836,302.4206,405.03,302.2" style="stroke:#181818;stroke-width:1;"/></g><!--link ?????? to ??????????--><g class="link" data-entity-1="ent0011" data-entity-2="ent0012" data-link-type="dependency" data-source-line="31" id="lnk22"><path d="M458.99,323.57 C486.54,334.72 524.398,350.0395 553.858,361.9595" fill="none" id="&#12450;&#12521;&#12540;&#12488;&#29983;&#25104;-to-&#12450;&#12463;&#12471;&#12519;&#12531;&#12503;&#12521;&#12531;&#25552;&#31034;" style="stroke:#181818;stroke-width:1;"/><polygon fill="#181818" points="559.42,364.21,552.5774,357.1263,554.785,362.3346,549.5767,364.5423,559.42,364.21" style="stroke:#181818;stroke-width:1;"/></g><!--link Manager to ??????????--><g class="link" data-entity-1="ent0003" data-entity-2="ent0012" data-link-type="dependency" data-source-line="33" id="lnk23"><path d="M108.66,386.14 C131.1,393.98 165.41,404.68 196.29,409 C322.27,426.62 466.4306,403.2568 539.9706,388.2868" fill="none" id="Manager-to-&#12450;&#12463;&#12471;&#12519;&#12531;&#12503;&#12521;&#12531;&#25552;&#31034;" style="stroke:#181818;stroke-width:1;"/><polygon fill="#181818" points="545.85,387.09,536.233,384.9656,540.9505,388.0874,537.8288,392.8049,545.85,387.09" style="stroke:#181818;stroke-width:1;"/></g><!--link Member to ??????????--><g class="link" data-entity-1="ent0004" data-entity-2="ent0012" data-link-type="dependency" data-source-line="34" id="lnk24"><path d="M100.13,499.2 C153.26,489.75 328.64,457.42 470.51,418 C500.33,409.72 527.9389,400.274 551.9489,391.574" fill="none" id="Member-to-&#12450;&#12463;&#12471;&#12519;&#12531;&#12503;&#12521;&#12531;&#25552;&#31034;" style="stroke:#181818;stroke-width:1;"/><polygon fill="#181818" points="557.59,389.53,547.7657,388.8353,552.8891,391.2334,550.4911,396.3568,557.59,389.53" style="stroke:#181818;stroke-width:1;"/></g><!--link Manager to ?????????--><g class="link" data-entity-1="ent0003" data-entity-2="ent0013" data-link-type="dependency" data-source-line="36" id="lnk25"><path d="M108.8,377 C136.7,377 177.04,377 213.83,377" fill="none" id="Manager-to-&#12450;&#12521;&#12540;&#12488;&#30906;&#35469;&#12539;&#23550;&#24540;" style="stroke:#181818;stroke-width:1;"/><polygon fill="#181818" points="219.83,377,210.83,373,214.83,377,210.83,381,219.83,377" style="stroke:#181818;stroke-width:1;"/></g><!--link Member to ?????????--><g class="link" data-entity-1="ent0004" data-entity-2="ent0013" data-link-type="dependency" data-source-line="37" id="lnk26"><path d="M100.15,491.56 C134.69,469.03 211.1741,419.1272 249.7741,393.9572" fill="none" id="Member-to-&#12450;&#12521;&#12540;&#12488;&#30906;&#35469;&#12539;&#23550;&#24540;" style="stroke:#181818;stroke-width:1;"/><polygon fill="#181818" points="254.8,390.68,245.0763,392.2453,250.6118,393.411,249.446,398.9465,254.8,390.68" style="stroke:#181818;stroke-width:1;"/></g><?plantuml-src dPBDIiD058NtynH3zdq5GT2b6_K5ndQCWIQ1TEf62Z93fOhIBFn1B9RKGcdLjb11gLeVvZO_leNfjB7M9WRSXE6UB_SUphrvkiimCx6bgNiCvpIBPfbc6WYHB3CjhFXTnxUFWiEoWaa1h-PqpOWa4BSWpa2y0Ny1SHS-9BD13A9IQquv80OWx6-TwZjpUStKYMRWzNrgCBp5B4fqISa2GXCxn53p52lReSMmxsOnJnLyW136nGBDaWATpAY0w01_c9WHzzFl-BtcLMmbbVDkdhpBVZhd7fzyNZULnC51-s8ySXRxy0Q8jlozuf_Nb-o4Cky1VmRHaXbTINhWLMs_EKpkr1W6dJ3tLxStSZzgYuxSRZrmJa4y0k-xLUwNMw5UGaXk3cSoAobffN5HMcbSbDOFBixQx5YI0JIzZAL1KTfnnHaT4tvSSKx_jOj5fsdqzCR_spbnqR_R9e9V?></g></svg>