<?plantuml 1.2026.2?><svg xmlns="http://www.w3.org/2000/svg" xmlns:xlink="http://www.w3.org/1999/xlink" contentStyleType="text/css" data-diagram-type="CLASS" height="663px" preserveAspectRatio="none" style="width:1042px;height:663px;background:#FFFFFF;" version="1.1" viewBox="0 0 1042 663" width="1042px" zoomAndPan="magnify"><defs/><g><!--cluster Alert Aggregate--><g class="cluster" data-qualified-name="Alert Aggregate" data-source-line="1" id="ent0002"><path d="M8.5,6 L136.0332,6 A3.75,3.75 0 0 1 138.5332,8.5 L145.5332,28.2969 L474.5,28.2969 A2.5,2.5 0 0 1 477,30.7969 L477,653.5 A2.5,2.5 0 0 1 474.5,656 L8.5,656 A2.5,2.5 0 0 1 6,653.5 L6,8.5 A2.5,2.5 0 0 1 8.5,6" fill="none" style="stroke:#000000;stroke-width:1.5;"/><line style="stroke:#000000;stroke-width:1.5;" x1="6" x2="145.5332" y1="28.2969" y2="28.2969"/><text fill="#000000" font-family="sans-serif" font-size="14" font-weight="bold" lengthAdjust="spacing" textLength="126.5332" x="10" y="20.9951">Alert Aggregate</text></g><!--class Alert--><g class="entity" data-qualified-name="Alert Aggregate.Alert" data-source-line="3" id="ent0003"><rect fill="#F1F1F1" height="186.6406" rx="2.5" ry="2.5" style="stroke:#181818;stroke-width:0.5;" width="243.3965" x="216.5" y="41"/><ellipse cx="281.3623" cy="61.1328" fill="#ADD1B2" rx="11" ry="11" style="stroke:#181818;stroke-width:1;"/><path d="M284.3311,66.7734 Q283.7529,67.0703 283.1123,67.2109 Q282.4717,67.3672 281.7686,67.3672 Q279.2686,67.3672 277.9404,65.7266 Q276.6279,64.0703 276.6279,60.9453 Q276.6279,57.8203 277.9404,56.1641 Q279.2686,54.5078 281.7686,54.5078 Q282.4717,54.5078 283.1123,54.6641 Q283.7686,54.8203 284.3311,55.1172 L284.3311,57.8359 Q283.7061,57.2578 283.1123,56.9922 Q282.5186,56.7109 281.8936,56.7109 Q280.5498,56.7109 279.8623,57.7891 Q279.1748,58.8516 279.1748,60.9453 Q279.1748,63.0391 279.8623,64.1172 Q280.5498,65.1797 281.8936,65.1797 Q282.5186,65.1797 283.1123,64.9141 Q283.7061,64.6328 284.3311,64.0547 L284.3311,66.7734 Z " fill="#000000"/><text fill="#000000" font-family="sans-serif" font-size="12" font-style="italic" lengthAdjust="spacing" textLength="109.1719" x="299.8623" y="57.1387">&#171;Aggregate Root&#187;</text><text fill="#000000" font-family="sans-serif" font-size="14" lengthAdjust="spacing" textLength="33.3252" x="337.7856" y="72.9639">Alert</text><line style="stroke:#181818;stroke-width:0.5;" x1="217.5" x2="458.8965" y1="81.2656" y2="81.2656"/><g data-visibility-modifier="PUBLIC_FIELD"><ellipse cx="227.5" cy="94.9141" fill="none" rx="3" ry="3" style="stroke:#038048;stroke-width:1;"/></g><text fill="#000000" font-family="sans-serif" font-size="14" lengthAdjust="spacing" textLength="57.3467" x="236.5" y="98.2607">id: UUID</text><g data-visibility-modifier="PUBLIC_FIELD"><ellipse cx="227.5" cy="111.2109" fill="none" rx="3" ry="3" style="stroke:#038048;stroke-width:1;"/></g><text fill="#000000" font-family="sans-serif" font-size="14" lengthAdjust="spacing" textLength="106.4834" x="236.5" y="114.5576">projectId: UUID</text><g data-visibility-modifier="PUBLIC_FIELD"><ellipse cx="227.5" cy="127.5078" fill="none" rx="3" ry="3" style="stroke:#038048;stroke-width:1;"/></g><text fill="#000000" font-family="sans-serif" font-size="14" lengthAdjust="spacing" textLength="128.7891" x="236.5" y="130.8545">description: String</text><g data-visibility-modifier="PUBLIC_FIELD"><ellipse cx="227.5" cy="143.8047" fill="none" rx="3" ry="3" style="stroke:#038048;stroke-width:1;"/></g><text fill="#000000" font-family="sans-serif" font-size="14" lengthAdjust="spacing" textLength="112.9844" x="236.5" y="147.1514">level: AlertLevel</text><g data-visibility-modifier="PUBLIC_FIELD"><ellipse cx="227.5" cy="160.1016" fill="none" rx="3" ry="3" style="stroke:#038048;stroke-width:1;"/></g><text fill="#000000" font-family="sans-serif" font-size="14" lengthAdjust="spacing" textLength="140.916" x="236.5" y="163.4482">isResolved: Boolean</text><g data-visibility-modifier="PUBLIC_FIELD"><ellipse cx="227.5" cy="176.3984" fill="none" rx="3" ry="3" style="stroke:#038048;stroke-width:1;"/></g><text fill="#000000" font-family="sans-serif" font-size="14" lengthAdjust="spacing" textLength="146.0225" x="236.5" y="179.7451">createdAt: DateTime</text><line style="stroke:#181818;stroke-width:1;" x1="217.5" x2="458.8965" y1="187.0469" y2="187.0469"/><g data-visibility-modifier="PUBLIC_METHOD"><ellipse cx="227.5" cy="200.6953" fill="#84BE84" rx="3" ry="3" style="stroke:#038048;stroke-width:1;"/></g><text fill="#000000" font-family="sans-serif" font-size="14" lengthAdjust="spacing" textLength="214.2314" x="236.5" y="204.042">resolve(resolvedAt: DateTime)</text><g data-visibility-modifier="PUBLIC_METHOD"><ellipse cx="227.5" cy="216.9922" fill="#84BE84" rx="3" ry="3" style="stroke:#038048;stroke-width:1;"/></g><text fill="#000000" font-family="sans-serif" font-size="14" lengthAdjust="spacing" textLength="217.3965" x="236.5" y="220.3389">reopen(triggeredAt: DateTime)</text></g><!--class AlertLevel--><g class="entity" data-qualified-name="Alert Aggregate.AlertLevel" data-source-line="15" id="ent0004"><rect fill="#F1F1F1" height="80.5938" rx="2.5" ry="2.5" style="stroke:#181818;stroke-width:0.5;" width="102.5264" x="51.5" y="94"/><ellipse cx="66.5" cy="110" fill="#EB937F" rx="11" ry="11" style="stroke:#181818;stroke-width:1;"/><path d="M70.6094,116 L62.8906,116 L62.8906,103.6094 L70.6094,103.6094 L70.6094,105.7656 L65.3438,105.7656 L65.3438,108.4375 L70.1094,108.4375 L70.1094,110.5938 L65.3438,110.5938 L65.3438,113.8438 L70.6094,113.8438 L70.6094,116 Z " fill="#000000"/><text fill="#000000" font-family="sans-serif" font-size="14" lengthAdjust="spacing" textLength="70.5264" x="80.5" y="114.8467">AlertLevel</text><line style="stroke:#181818;stroke-width:0.5;" x1="52.5" x2="153.0264" y1="126" y2="126"/><text fill="#000000" font-family="sans-serif" font-size="14" lengthAdjust="spacing" textLength="23.2559" x="57.5" y="142.9951">red</text><text fill="#000000" font-family="sans-serif" font-size="14" lengthAdjust="spacing" textLength="44.6934" x="57.5" y="159.292">yellow</text><line style="stroke:#181818;stroke-width:0.5;" x1="52.5" x2="153.0264" y1="166.5938" y2="166.5938"/></g><!--class AlertLog--><g class="entity" data-qualified-name="Alert Aggregate.AlertLog" data-source-line="20" id="ent0005"><rect fill="#F1F1F1" height="121.4531" rx="2.5" ry="2.5" style="stroke:#181818;stroke-width:0.5;" width="185.7217" x="22" y="296.5"/><ellipse cx="81.3223" cy="316.6328" fill="#ADD1B2" rx="11" ry="11" style="stroke:#181818;stroke-width:1;"/><path d="M84.291,322.2734 Q83.7129,322.5703 83.0723,322.7109 Q82.4316,322.8672 81.7285,322.8672 Q79.2285,322.8672 77.9004,321.2266 Q76.5879,319.5703 76.5879,316.4453 Q76.5879,313.3203 77.9004,311.6641 Q79.2285,310.0078 81.7285,310.0078 Q82.4316,310.0078 83.0723,310.1641 Q83.7285,310.3203 84.291,310.6172 L84.291,313.3359 Q83.666,312.7578 83.0723,312.4922 Q82.4785,312.2109 81.8535,312.2109 Q80.5098,312.2109 79.8223,313.2891 Q79.1348,314.3516 79.1348,316.4453 Q79.1348,318.5391 79.8223,319.6172 Q80.5098,320.6797 81.8535,320.6797 Q82.4785,320.6797 83.0723,320.4141 Q83.666,320.1328 84.291,319.5547 L84.291,322.2734 Z " fill="#000000"/><text fill="#000000" font-family="sans-serif" font-size="12" font-style="italic" lengthAdjust="spacing" textLength="49.8457" x="106.188" y="312.6387">&#171;Entity&#187;</text><text fill="#000000" font-family="sans-serif" font-size="14" lengthAdjust="spacing" textLength="58.5771" x="101.8223" y="328.4639">AlertLog</text><line style="stroke:#181818;stroke-width:0.5;" x1="23" x2="206.7217" y1="336.7656" y2="336.7656"/><g data-visibility-modifier="PUBLIC_FIELD"><ellipse cx="33" cy="350.4141" fill="none" rx="3" ry="3" style="stroke:#038048;stroke-width:1;"/></g><text fill="#000000" font-family="sans-serif" font-size="14" lengthAdjust="spacing" textLength="62.8154" x="42" y="353.7607">id: BigInt</text><g data-visibility-modifier="PUBLIC_FIELD"><ellipse cx="33" cy="366.7109" fill="none" rx="3" ry="3" style="stroke:#038048;stroke-width:1;"/></g><text fill="#000000" font-family="sans-serif" font-size="14" lengthAdjust="spacing" textLength="89.9131" x="42" y="370.0576">alertId: UUID</text><g data-visibility-modifier="PUBLIC_FIELD"><ellipse cx="33" cy="383.0078" fill="none" rx="3" ry="3" style="stroke:#038048;stroke-width:1;"/></g><text fill="#000000" font-family="sans-serif" font-size="14" lengthAdjust="spacing" textLength="157.165" x="42" y="386.3545">triggeredAt: DateTime</text><g data-visibility-modifier="PUBLIC_FIELD"><ellipse cx="33" cy="399.3047" fill="none" rx="3" ry="3" style="stroke:#038048;stroke-width:1;"/></g><text fill="#000000" font-family="sans-serif" font-size="14" lengthAdjust="spacing" textLength="159.7217" x="42" y="402.6514">resolvedAt: DateTime?</text><line style="stroke:#181818;stroke-width:0.5;" x1="23" x2="206.7217" y1="409.9531" y2="409.9531"/></g><!--class ActionPlan--><g class="entity" data-qualified-name="Alert Aggregate.ActionPlan" data-source-line="27" id="ent0006"><rect fill="#F1F1F1" height="154.0469" rx="2.5" ry="2.5" style="stroke:#181818;stroke-width:0.5;" width="176.6025" x="263.5" y="486"/><ellipse cx="310.6133" cy="506.1328" fill="#ADD1B2" rx="11" ry="11" style="stroke:#181818;stroke-width:1;"/><path d="M313.582,511.7734 Q313.0039,512.0703 312.3633,512.2109 Q311.7227,512.3672 311.0195,512.3672 Q308.5195,512.3672 307.1914,510.7266 Q305.8789,509.0703 305.8789,505.9453 Q305.8789,502.8203 307.1914,501.1641 Q308.5195,499.5078 311.0195,499.5078 Q311.7227,499.5078 312.3633,499.6641 Q313.0195,499.8203 313.582,500.1172 L313.582,502.8359 Q312.957,502.2578 312.3633,501.9922 Q311.7695,501.7109 311.1445,501.7109 Q309.8008,501.7109 309.1133,502.7891 Q308.4258,503.8516 308.4258,505.9453 Q308.4258,508.0391 309.1133,509.1172 Q309.8008,510.1797 311.1445,510.1797 Q311.7695,510.1797 312.3633,509.9141 Q312.957,509.6328 313.582,509.0547 L313.582,511.7734 Z " fill="#000000"/><text fill="#000000" font-family="sans-serif" font-size="12" font-style="italic" lengthAdjust="spacing" textLength="49.8457" x="343.1284" y="502.1387">&#171;Entity&#187;</text><text fill="#000000" font-family="sans-serif" font-size="14" lengthAdjust="spacing" textLength="73.876" x="331.1133" y="517.9639">ActionPlan</text><line style="stroke:#181818;stroke-width:0.5;" x1="264.5" x2="439.1025" y1="526.2656" y2="526.2656"/><g data-visibility-modifier="PUBLIC_FIELD"><ellipse cx="274.5" cy="539.9141" fill="none" rx="3" ry="3" style="stroke:#038048;stroke-width:1;"/></g><text fill="#000000" font-family="sans-serif" font-size="14" lengthAdjust="spacing" textLength="57.3467" x="283.5" y="543.2607">id: UUID</text><g data-visibility-modifier="PUBLIC_FIELD"><ellipse cx="274.5" cy="556.2109" fill="none" rx="3" ry="3" style="stroke:#038048;stroke-width:1;"/></g><text fill="#000000" font-family="sans-serif" font-size="14" lengthAdjust="spacing" textLength="84.7109" x="283.5" y="559.5576">code: String</text><g data-visibility-modifier="PUBLIC_FIELD"><ellipse cx="274.5" cy="572.5078" fill="none" rx="3" ry="3" style="stroke:#038048;stroke-width:1;"/></g><text fill="#000000" font-family="sans-serif" font-size="14" lengthAdjust="spacing" textLength="78.3193" x="283.5" y="575.8545">title: String</text><g data-visibility-modifier="PUBLIC_FIELD"><ellipse cx="274.5" cy="588.8047" fill="none" rx="3" ry="3" style="stroke:#038048;stroke-width:1;"/></g><text fill="#000000" font-family="sans-serif" font-size="14" lengthAdjust="spacing" textLength="128.7891" x="283.5" y="592.1514">description: String</text><g data-visibility-modifier="PUBLIC_FIELD"><ellipse cx="274.5" cy="605.1016" fill="none" rx="3" ry="3" style="stroke:#038048;stroke-width:1;"/></g><text fill="#000000" font-family="sans-serif" font-size="14" lengthAdjust="spacing" textLength="146.0225" x="283.5" y="608.4482">createdAt: DateTime</text><g data-visibility-modifier="PUBLIC_FIELD"><ellipse cx="274.5" cy="621.3984" fill="none" rx="3" ry="3" style="stroke:#038048;stroke-width:1;"/></g><text fill="#000000" font-family="sans-serif" font-size="14" lengthAdjust="spacing" textLength="150.6025" x="283.5" y="624.7451">updatedAt: DateTime</text><line style="stroke:#181818;stroke-width:0.5;" x1="264.5" x2="439.1025" y1="632.0469" y2="632.0469"/></g><!--class AlertActionPlanSuggestion--><g class="entity" data-qualified-name="Alert Aggregate.AlertActionPlanSuggestion" data-source-line="36" id="ent0007"><rect fill="#F1F1F1" height="137.75" rx="2.5" ry="2.5" style="stroke:#181818;stroke-width:0.5;" width="217.459" x="243.5" y="288"/><ellipse cx="258.5" cy="308.1328" fill="#ADD1B2" rx="11" ry="11" style="stroke:#181818;stroke-width:1;"/><path d="M261.4688,313.7734 Q260.8906,314.0703 260.25,314.2109 Q259.6094,314.3672 258.9063,314.3672 Q256.4063,314.3672 255.0781,312.7266 Q253.7656,311.0703 253.7656,307.9453 Q253.7656,304.8203 255.0781,303.1641 Q256.4063,301.5078 258.9063,301.5078 Q259.6094,301.5078 260.25,301.6641 Q260.9063,301.8203 261.4688,302.1172 L261.4688,304.8359 Q260.8438,304.2578 260.25,303.9922 Q259.6563,303.7109 259.0313,303.7109 Q257.6875,303.7109 257,304.7891 Q256.3125,305.8516 256.3125,307.9453 Q256.3125,310.0391 257,311.1172 Q257.6875,312.1797 259.0313,312.1797 Q259.6563,312.1797 260.25,311.9141 Q260.8438,311.6328 261.4688,311.0547 L261.4688,313.7734 Z " fill="#000000"/><text fill="#000000" font-family="sans-serif" font-size="12" font-style="italic" lengthAdjust="spacing" textLength="49.8457" x="340.3066" y="304.1387">&#171;Entity&#187;</text><text fill="#000000" font-family="sans-serif" font-size="14" lengthAdjust="spacing" textLength="185.459" x="272.5" y="319.9639">AlertActionPlanSuggestion</text><line style="stroke:#181818;stroke-width:0.5;" x1="244.5" x2="459.959" y1="328.2656" y2="328.2656"/><g data-visibility-modifier="PUBLIC_FIELD"><ellipse cx="254.5" cy="341.9141" fill="none" rx="3" ry="3" style="stroke:#038048;stroke-width:1;"/></g><text fill="#000000" font-family="sans-serif" font-size="14" lengthAdjust="spacing" textLength="89.9131" x="263.5" y="345.2607">alertId: UUID</text><g data-visibility-modifier="PUBLIC_FIELD"><ellipse cx="254.5" cy="358.2109" fill="none" rx="3" ry="3" style="stroke:#038048;stroke-width:1;"/></g><text fill="#000000" font-family="sans-serif" font-size="14" lengthAdjust="spacing" textLength="130.4639" x="263.5" y="361.5576">actionPlanId: UUID</text><g data-visibility-modifier="PUBLIC_FIELD"><ellipse cx="254.5" cy="374.5078" fill="none" rx="3" ry="3" style="stroke:#038048;stroke-width:1;"/></g><text fill="#000000" font-family="sans-serif" font-size="14" lengthAdjust="spacing" textLength="78.1758" x="263.5" y="377.8545">priority: Int</text><g data-visibility-modifier="PUBLIC_FIELD"><ellipse cx="254.5" cy="390.8047" fill="none" rx="3" ry="3" style="stroke:#038048;stroke-width:1;"/></g><text fill="#000000" font-family="sans-serif" font-size="14" lengthAdjust="spacing" textLength="107.6934" x="263.5" y="394.1514">rationale: Json?</text><g data-visibility-modifier="PUBLIC_FIELD"><ellipse cx="254.5" cy="407.1016" fill="none" rx="3" ry="3" style="stroke:#038048;stroke-width:1;"/></g><text fill="#000000" font-family="sans-serif" font-size="14" lengthAdjust="spacing" textLength="165.2246" x="263.5" y="410.4482">suggestedAt: DateTime</text><line style="stroke:#181818;stroke-width:0.5;" x1="244.5" x2="459.959" y1="417.75" y2="417.75"/></g><g class="entity" data-qualified-name="GMN11" data-source-line="50" id="ent0012"><path d="M494.5,76.5 L494.5,130.5 L459.76,134.5 L494.5,138.5 L494.5,192.4297 A0,0 0 0 0 494.5,192.4297 L1035.5063,192.4297 A0,0 0 0 0 1035.5063,192.4297 L1035.5063,86.5 L1025.5063,76.5 L494.5,76.5 A0,0 0 0 0 494.5,76.5" fill="#FEFFDD" style="stroke:#181818;stroke-width:0.5;"/><path d="M1025.5063,76.5 L1025.5063,86.5 L1035.5063,86.5 L1025.5063,76.5" fill="#FEFFDD" style="stroke:#181818;stroke-width:0.5;"/><text fill="#000000" font-family="sans-serif" font-size="13" lengthAdjust="spacing" textLength="94.6118" x="500.5" y="93.5669">Domain Rules:</text><text fill="#000000" font-family="sans-serif" font-size="13" lengthAdjust="spacing" textLength="303.6719" x="500.5" y="108.6997">- Alert is always scoped to exactly one Project.</text><text fill="#000000" font-family="sans-serif" font-size="13" lengthAdjust="spacing" textLength="238.2275" x="500.5" y="123.8325">- `level` is immutable after creation.</text><text fill="#000000" font-family="sans-serif" font-size="13" lengthAdjust="spacing" textLength="520.0063" x="500.5" y="138.9653">- Resolving an alert sets `isResolved=true` and closes the latest open AlertLog.</text><text fill="#000000" font-family="sans-serif" font-size="13" lengthAdjust="spacing" textLength="452.4229" x="500.5" y="154.0981">- Reopening an alert creates a new AlertLog with `resolvedAt = null`.</text><text fill="#000000" font-family="sans-serif" font-size="13" lengthAdjust="spacing" textLength="335.3721" x="500.5" y="169.231">- Each Alert must suggest one or more ActionPlans.</text><text fill="#000000" font-family="sans-serif" font-size="13" lengthAdjust="spacing" textLength="319.2427" x="500.5" y="184.3638">- ActionPlans are reusable across multiple Alerts.</text></g><!--reverse link Alert to AlertLog--><g class="link" data-entity-1="ent0003" data-entity-2="ent0005" data-link-type="composition" data-source-line="44" id="lnk8"><path codeLine="44" d="M235.8674,236.4877 C212.5074,259.5877 196.6,275.32 175.33,296.35" fill="none" id="Alert-backto-AlertLog" style="stroke:#181818;stroke-width:1;"/><polygon fill="#181818" points="244.4,228.05,237.3211,229.4246,235.8674,236.4877,242.9462,235.113,244.4,228.05" style="stroke:#181818;stroke-width:1;"/><text fill="#000000" font-family="sans-serif" font-size="13" lengthAdjust="spacing" textLength="8.271" x="229.2279" y="247.5558">1</text><text fill="#000000" font-family="sans-serif" font-size="13" lengthAdjust="spacing" textLength="23.0356" x="157.9941" y="285.5185">0..*</text></g><!--reverse link Alert to AlertActionPlanSuggestion--><g class="link" data-entity-1="ent0003" data-entity-2="ent0007" data-link-type="composition" data-source-line="45" id="lnk9"><path codeLine="45" d="M344.639,240.026 C345.909,260.066 346.47,268.93 347.67,287.82" fill="none" id="Alert-backto-AlertActionPlanSuggestion" style="stroke:#181818;stroke-width:1;"/><polygon fill="#181818" points="343.88,228.05,340.2675,234.291,344.639,240.026,348.2515,233.785,343.88,228.05" style="stroke:#181818;stroke-width:1;"/><text fill="#000000" font-family="sans-serif" font-size="13" lengthAdjust="spacing" textLength="8.271" x="336.0135" y="247.5558">1</text><text fill="#000000" font-family="sans-serif" font-size="13" lengthAdjust="spacing" textLength="23.0356" x="323.0157" y="276.999">1..*</text></g><!--link AlertActionPlanSuggestion to ActionPlan--><g class="link" data-entity-1="ent0007" data-entity-2="ent0006" data-link-type="dependency" data-source-line="46" id="lnk10"><path codeLine="46" d="M352,426.21 C352,445.32 352,460.22 352,479.77" fill="none" id="AlertActionPlanSuggestion-to-ActionPlan" style="stroke:#181818;stroke-width:1;"/><polygon fill="#181818" points="352,485.77,356,476.77,352,480.77,348,476.77,352,485.77" style="stroke:#181818;stroke-width:1;"/><text fill="#000000" font-family="sans-serif" font-size="13" lengthAdjust="spacing" textLength="6.5" x="345.7067" y="445.8469">*</text><text fill="#000000" font-family="sans-serif" font-size="13" lengthAdjust="spacing" textLength="8.271" x="343.6621" y="475.0298">1</text></g><?plantuml-src TLDDRzim3BtxLn0-TIqSh5UZJP4YFMJeeKZNkpMPTTJ9eY79pO9X_tsKvTXnwlWYI-_nwv5iXFmjAeHqfT5wM5MLnKfuJE5laW18BPo3YDtT3IXiYVnooHpWxqQLERozRTRnrbZwGEataySIdRIgyOfC3g_UAbD5GECdwZo6U0x_lKktHKVw4zdB8v56OI8WBN82vShdiEQVdwh63iYoYDjeTjMV4-At8uKQD5USH5MX_Khv5of7qzOdMVMbChix3wWrxO_S4vMUgMAXdenN_Z0Lw55L6-FZNGJgLA3PR2ObJP27izWoAFkYXRaGVGmagSHf2vYjpvukjkkI_3TjKyu0v_ACURwsNAuBjvcCP_GHW-NcRDeKMJREOL3NYa0LeQOVZin3V7Knu7oASSBJsnIkimpIxul5TJeqz2j-E-9p5HqDPgjDsJBBbfspaP1m6ePuitWCTXxeFNf8rbGBPM3RQdHvalM9A0T2xyN1WPCyooLu0lp34ka3a45uYIkuO8EYMx0YcAYwRhtufH74kqSBNIyvVg35RUCs0uzG9pyuz0wASH7llMsnOBpaZf931tw7e5b9nmdpHWs2HOVXQU8mpWwd3WRtuxhibTz1CGuvt8DfjIw2boSXTttDTSjX-YPsHPA5cYoUYEY2oSaL1CCMMnUBbfPu3kjMUzNmlNFB9iW51UcJ_m00?></g></svg>