<?plantuml 1.2026.2?><svg xmlns="http://www.w3.org/2000/svg" xmlns:xlink="http://www.w3.org/1999/xlink" contentStyleType="text/css" data-diagram-type="CLASS" height="712px" preserveAspectRatio="none" style="width:2649px;height:712px;background:#FFFFFF;" version="1.1" viewBox="0 0 2649 712" width="2649px" zoomAndPan="magnify"><defs/><g><!--cluster Survey Aggregate--><g class="cluster" data-qualified-name="Survey Aggregate" data-source-line="1" id="ent0002"><path d="M8.5,72.73 L152.0088,72.73 A3.75,3.75 0 0 1 154.5088,75.23 L161.5088,95.0269 L2152.5,95.0269 A2.5,2.5 0 0 1 2155,97.5269 L2155,703.37 A2.5,2.5 0 0 1 2152.5,705.87 L8.5,705.87 A2.5,2.5 0 0 1 6,703.37 L6,75.23 A2.5,2.5 0 0 1 8.5,72.73" fill="none" style="stroke:#000000;stroke-width:1.5;"/><line style="stroke:#000000;stroke-width:1.5;" x1="6" x2="161.5088" y1="95.0269" y2="95.0269"/><text fill="#000000" font-family="sans-serif" font-size="14" font-weight="bold" lengthAdjust="spacing" textLength="142.5088" x="10" y="87.7251">Survey Aggregate</text></g><!--class SurveyTemplate--><g class="entity" data-qualified-name="Survey Aggregate.SurveyTemplate" data-source-line="3" id="ent0003"><rect fill="#F1F1F1" height="137.75" rx="2.5" ry="2.5" style="stroke:#181818;stroke-width:0.5;" width="479.1406" x="963.43" y="132.17"/><ellipse cx="1141.2703" cy="152.3028" fill="#ADD1B2" rx="11" ry="11" style="stroke:#181818;stroke-width:1;"/><path d="M1144.2391,157.9434 Q1143.661,158.2403 1143.0203,158.3809 Q1142.3797,158.5372 1141.6766,158.5372 Q1139.1766,158.5372 1137.8485,156.8966 Q1136.536,155.2403 1136.536,152.1153 Q1136.536,148.9903 1137.8485,147.3341 Q1139.1766,145.6778 1141.6766,145.6778 Q1142.3797,145.6778 1143.0203,145.8341 Q1143.6766,145.9903 1144.2391,146.2872 L1144.2391,149.0059 Q1143.6141,148.4278 1143.0203,148.1622 Q1142.4266,147.8809 1141.8016,147.8809 Q1140.4578,147.8809 1139.7703,148.9591 Q1139.0828,150.0216 1139.0828,152.1153 Q1139.0828,154.2091 1139.7703,155.2872 Q1140.4578,156.3497 1141.8016,156.3497 Q1142.4266,156.3497 1143.0203,156.0841 Q1143.6141,155.8028 1144.2391,155.2247 L1144.2391,157.9434 Z " fill="#000000"/><text fill="#000000" font-family="sans-serif" font-size="12" font-style="italic" lengthAdjust="spacing" textLength="109.1719" x="1164.6644" y="148.3087">&#171;Aggregate Root&#187;</text><text fill="#000000" font-family="sans-serif" font-size="14" lengthAdjust="spacing" textLength="114.96" x="1161.7703" y="164.1339">SurveyTemplate</text><line style="stroke:#181818;stroke-width:0.5;" x1="964.43" x2="1441.5706" y1="172.4356" y2="172.4356"/><g data-visibility-modifier="PUBLIC_FIELD"><ellipse cx="974.43" cy="186.0841" fill="none" rx="3" ry="3" style="stroke:#038048;stroke-width:1;"/></g><text fill="#000000" font-family="sans-serif" font-size="14" lengthAdjust="spacing" textLength="57.3467" x="983.43" y="189.4307">id: UUID</text><g data-visibility-modifier="PUBLIC_FIELD"><ellipse cx="974.43" cy="202.3809" fill="none" rx="3" ry="3" style="stroke:#038048;stroke-width:1;"/></g><text fill="#000000" font-family="sans-serif" font-size="14" lengthAdjust="spacing" textLength="90.6514" x="983.43" y="205.7276">name: String</text><g data-visibility-modifier="PUBLIC_FIELD"><ellipse cx="974.43" cy="218.6778" fill="none" rx="3" ry="3" style="stroke:#038048;stroke-width:1;"/></g><text fill="#000000" font-family="sans-serif" font-size="14" lengthAdjust="spacing" textLength="136.2197" x="983.43" y="222.0245">description: String?</text><g data-visibility-modifier="PUBLIC_FIELD"><ellipse cx="974.43" cy="234.9747" fill="none" rx="3" ry="3" style="stroke:#038048;stroke-width:1;"/></g><text fill="#000000" font-family="sans-serif" font-size="14" lengthAdjust="spacing" textLength="146.0225" x="983.43" y="238.3214">createdAt: DateTime</text><line style="stroke:#181818;stroke-width:1;" x1="964.43" x2="1441.5706" y1="245.6231" y2="245.6231"/><g data-visibility-modifier="PUBLIC_METHOD"><ellipse cx="974.43" cy="259.2716" fill="#84BE84" rx="3" ry="3" style="stroke:#038048;stroke-width:1;"/></g><text fill="#000000" font-family="sans-serif" font-size="14" lengthAdjust="spacing" textLength="453.1406" x="983.43" y="262.6182">addQuestion(question: String, explanation: String?, position: Int)</text></g><!--class SurveyQuestion--><g class="entity" data-qualified-name="Survey Aggregate.SurveyQuestion" data-source-line="12" id="ent0004"><rect fill="#F1F1F1" height="154.0469" rx="2.5" ry="2.5" style="stroke:#181818;stroke-width:0.5;" width="196.9531" x="1104.52" y="354.37"/><ellipse cx="1143.6565" cy="374.5028" fill="#ADD1B2" rx="11" ry="11" style="stroke:#181818;stroke-width:1;"/><path d="M1146.6253,380.1434 Q1146.0471,380.4403 1145.4065,380.5809 Q1144.7659,380.7372 1144.0628,380.7372 Q1141.5628,380.7372 1140.2346,379.0966 Q1138.9221,377.4403 1138.9221,374.3153 Q1138.9221,371.1903 1140.2346,369.5341 Q1141.5628,367.8778 1144.0628,367.8778 Q1144.7659,367.8778 1145.4065,368.0341 Q1146.0628,368.1903 1146.6253,368.4872 L1146.6253,371.2059 Q1146.0003,370.6278 1145.4065,370.3622 Q1144.8128,370.0809 1144.1878,370.0809 Q1142.844,370.0809 1142.1565,371.1591 Q1141.469,372.2216 1141.469,374.3153 Q1141.469,376.4091 1142.1565,377.4872 Q1142.844,378.5497 1144.1878,378.5497 Q1144.8128,378.5497 1145.4065,378.2841 Q1146.0003,378.0028 1146.6253,377.4247 L1146.6253,380.1434 Z " fill="#000000"/><text fill="#000000" font-family="sans-serif" font-size="12" font-style="italic" lengthAdjust="spacing" textLength="49.8457" x="1193.7555" y="370.5087">&#171;Entity&#187;</text><text fill="#000000" font-family="sans-serif" font-size="14" lengthAdjust="spacing" textLength="111.3164" x="1163.0202" y="386.3339">SurveyQuestion</text><line style="stroke:#181818;stroke-width:0.5;" x1="1105.52" x2="1300.4731" y1="394.6356" y2="394.6356"/><g data-visibility-modifier="PUBLIC_FIELD"><ellipse cx="1115.52" cy="408.2841" fill="none" rx="3" ry="3" style="stroke:#038048;stroke-width:1;"/></g><text fill="#000000" font-family="sans-serif" font-size="14" lengthAdjust="spacing" textLength="57.3467" x="1124.52" y="411.6307">id: UUID</text><g data-visibility-modifier="PUBLIC_FIELD"><ellipse cx="1115.52" cy="424.5809" fill="none" rx="3" ry="3" style="stroke:#038048;stroke-width:1;"/></g><text fill="#000000" font-family="sans-serif" font-size="14" lengthAdjust="spacing" textLength="170.9531" x="1124.52" y="427.9276">surveyTemplateId: UUID</text><g data-visibility-modifier="PUBLIC_FIELD"><ellipse cx="1115.52" cy="440.8778" fill="none" rx="3" ry="3" style="stroke:#038048;stroke-width:1;"/></g><text fill="#000000" font-family="sans-serif" font-size="14" lengthAdjust="spacing" textLength="111.4326" x="1124.52" y="444.2245">question: String</text><g data-visibility-modifier="PUBLIC_FIELD"><ellipse cx="1115.52" cy="457.1747" fill="none" rx="3" ry="3" style="stroke:#038048;stroke-width:1;"/></g><text fill="#000000" font-family="sans-serif" font-size="14" lengthAdjust="spacing" textLength="140.9023" x="1124.52" y="460.5214">explanation: String?</text><g data-visibility-modifier="PUBLIC_FIELD"><ellipse cx="1115.52" cy="473.4716" fill="none" rx="3" ry="3" style="stroke:#038048;stroke-width:1;"/></g><text fill="#000000" font-family="sans-serif" font-size="14" lengthAdjust="spacing" textLength="83.1113" x="1124.52" y="476.8182">position: Int</text><g data-visibility-modifier="PUBLIC_FIELD"><ellipse cx="1115.52" cy="489.7684" fill="none" rx="3" ry="3" style="stroke:#038048;stroke-width:1;"/></g><text fill="#000000" font-family="sans-serif" font-size="14" lengthAdjust="spacing" textLength="146.0225" x="1124.52" y="493.1151">createdAt: DateTime</text><line style="stroke:#181818;stroke-width:0.5;" x1="1105.52" x2="1300.4731" y1="500.4169" y2="500.4169"/></g><!--class SurveyQuestionOption--><g class="entity" data-qualified-name="Survey Aggregate.SurveyQuestionOption" data-source-line="21" id="ent0005"><rect fill="#F1F1F1" height="121.4531" rx="2.5" ry="2.5" style="stroke:#181818;stroke-width:0.5;" width="193.3096" x="1106.35" y="568.42"/><ellipse cx="1122.8213" cy="588.5528" fill="#ADD1B2" rx="11" ry="11" style="stroke:#181818;stroke-width:1;"/><path d="M1125.79,594.1934 Q1125.2119,594.4903 1124.5713,594.6309 Q1123.9307,594.7872 1123.2275,594.7872 Q1120.7275,594.7872 1119.3994,593.1466 Q1118.0869,591.4903 1118.0869,588.3653 Q1118.0869,585.2403 1119.3994,583.5841 Q1120.7275,581.9278 1123.2275,581.9278 Q1123.9307,581.9278 1124.5713,582.0841 Q1125.2275,582.2403 1125.79,582.5372 L1125.79,585.2559 Q1125.165,584.6778 1124.5713,584.4122 Q1123.9775,584.1309 1123.3525,584.1309 Q1122.0088,584.1309 1121.3213,585.2091 Q1120.6338,586.2716 1120.6338,588.3653 Q1120.6338,590.4591 1121.3213,591.5372 Q1122.0088,592.5997 1123.3525,592.5997 Q1123.9775,592.5997 1124.5713,592.3341 Q1125.165,592.0528 1125.79,591.4747 L1125.79,594.1934 Z " fill="#000000"/><text fill="#000000" font-family="sans-serif" font-size="12" font-style="italic" lengthAdjust="spacing" textLength="49.8457" x="1191.2454" y="584.5587">&#171;Entity&#187;</text><text fill="#000000" font-family="sans-serif" font-size="14" lengthAdjust="spacing" textLength="158.04" x="1137.1482" y="600.3839">SurveyQuestionOption</text><line style="stroke:#181818;stroke-width:0.5;" x1="1107.35" x2="1298.6596" y1="608.6856" y2="608.6856"/><g data-visibility-modifier="PUBLIC_FIELD"><ellipse cx="1117.35" cy="622.3341" fill="none" rx="3" ry="3" style="stroke:#038048;stroke-width:1;"/></g><text fill="#000000" font-family="sans-serif" font-size="14" lengthAdjust="spacing" textLength="57.3467" x="1126.35" y="625.6807">id: UUID</text><g data-visibility-modifier="PUBLIC_FIELD"><ellipse cx="1117.35" cy="638.6309" fill="none" rx="3" ry="3" style="stroke:#038048;stroke-width:1;"/></g><text fill="#000000" font-family="sans-serif" font-size="14" lengthAdjust="spacing" textLength="167.3096" x="1126.35" y="641.9776">surveyQuestionId: UUID</text><g data-visibility-modifier="PUBLIC_FIELD"><ellipse cx="1117.35" cy="654.9278" fill="none" rx="3" ry="3" style="stroke:#038048;stroke-width:1;"/></g><text fill="#000000" font-family="sans-serif" font-size="14" lengthAdjust="spacing" textLength="84.8066" x="1126.35" y="658.2745">label: String</text><g data-visibility-modifier="PUBLIC_FIELD"><ellipse cx="1117.35" cy="671.2247" fill="none" rx="3" ry="3" style="stroke:#038048;stroke-width:1;"/></g><text fill="#000000" font-family="sans-serif" font-size="14" lengthAdjust="spacing" textLength="83.1113" x="1126.35" y="674.5714">position: Int</text><line style="stroke:#181818;stroke-width:0.5;" x1="1107.35" x2="1298.6596" y1="681.8731" y2="681.8731"/></g><!--class SurveySetting--><g class="entity" data-qualified-name="Survey Aggregate.SurveySetting" data-source-line="28" id="ent0006"><rect fill="#F1F1F1" height="186.6406" rx="2.5" ry="2.5" style="stroke:#181818;stroke-width:0.5;" width="393.1445" x="22.43" y="107.73"/><ellipse cx="162.1663" cy="127.8628" fill="#ADD1B2" rx="11" ry="11" style="stroke:#181818;stroke-width:1;"/><path d="M165.1351,133.5034 Q164.557,133.8003 163.9163,133.9409 Q163.2757,134.0972 162.5726,134.0972 Q160.0726,134.0972 158.7445,132.4566 Q157.432,130.8003 157.432,127.6753 Q157.432,124.5503 158.7445,122.8941 Q160.0726,121.2378 162.5726,121.2378 Q163.2757,121.2378 163.9163,121.3941 Q164.5726,121.5503 165.1351,121.8472 L165.1351,124.5659 Q164.5101,123.9878 163.9163,123.7222 Q163.3226,123.4409 162.6976,123.4409 Q161.3538,123.4409 160.6663,124.5191 Q159.9788,125.5816 159.9788,127.6753 Q159.9788,129.7691 160.6663,130.8472 Q161.3538,131.9097 162.6976,131.9097 Q163.3226,131.9097 163.9163,131.6441 Q164.5101,131.3628 165.1351,130.7847 L165.1351,133.5034 Z " fill="#000000"/><text fill="#000000" font-family="sans-serif" font-size="12" font-style="italic" lengthAdjust="spacing" textLength="109.1719" x="180.6663" y="123.8687">&#171;Aggregate Root&#187;</text><text fill="#000000" font-family="sans-serif" font-size="14" lengthAdjust="spacing" textLength="98.8271" x="185.8387" y="139.6939">SurveySetting</text><line style="stroke:#181818;stroke-width:0.5;" x1="23.43" x2="414.5745" y1="147.9956" y2="147.9956"/><g data-visibility-modifier="PUBLIC_FIELD"><ellipse cx="33.43" cy="161.6441" fill="none" rx="3" ry="3" style="stroke:#038048;stroke-width:1;"/></g><text fill="#000000" font-family="sans-serif" font-size="14" lengthAdjust="spacing" textLength="57.3467" x="42.43" y="164.9907">id: UUID</text><g data-visibility-modifier="PUBLIC_FIELD"><ellipse cx="33.43" cy="177.9409" fill="none" rx="3" ry="3" style="stroke:#038048;stroke-width:1;"/></g><text fill="#000000" font-family="sans-serif" font-size="14" lengthAdjust="spacing" textLength="93.9053" x="42.43" y="181.2876">teamId: UUID</text><g data-visibility-modifier="PUBLIC_FIELD"><ellipse cx="33.43" cy="194.2378" fill="none" rx="3" ry="3" style="stroke:#038048;stroke-width:1;"/></g><text fill="#000000" font-family="sans-serif" font-size="14" lengthAdjust="spacing" textLength="170.9531" x="42.43" y="197.5845">surveyTemplateId: UUID</text><g data-visibility-modifier="PUBLIC_FIELD"><ellipse cx="33.43" cy="210.5347" fill="none" rx="3" ry="3" style="stroke:#038048;stroke-width:1;"/></g><text fill="#000000" font-family="sans-serif" font-size="14" lengthAdjust="spacing" textLength="98.8408" x="42.43" y="213.8814">setterId: UUID</text><g data-visibility-modifier="PUBLIC_FIELD"><ellipse cx="33.43" cy="226.8316" fill="none" rx="3" ry="3" style="stroke:#038048;stroke-width:1;"/></g><text fill="#000000" font-family="sans-serif" font-size="14" lengthAdjust="spacing" textLength="367.1445" x="42.43" y="230.1782">recurringIntervalDays: SurveyRecurringIntervalDays</text><g data-visibility-modifier="PUBLIC_FIELD"><ellipse cx="33.43" cy="243.1284" fill="none" rx="3" ry="3" style="stroke:#038048;stroke-width:1;"/></g><text fill="#000000" font-family="sans-serif" font-size="14" lengthAdjust="spacing" textLength="146.0225" x="42.43" y="246.4751">createdAt: DateTime</text><line style="stroke:#181818;stroke-width:1;" x1="23.43" x2="414.5745" y1="253.7769" y2="253.7769"/><g data-visibility-modifier="PUBLIC_METHOD"><ellipse cx="33.43" cy="267.4253" fill="#84BE84" rx="3" ry="3" style="stroke:#038048;stroke-width:1;"/></g><text fill="#000000" font-family="sans-serif" font-size="14" lengthAdjust="spacing" textLength="264.8516" x="42.43" y="270.772">addDeliveryTime(deliveryTime: Time)</text><g data-visibility-modifier="PUBLIC_METHOD"><ellipse cx="33.43" cy="283.7222" fill="#84BE84" rx="3" ry="3" style="stroke:#038048;stroke-width:1;"/></g><text fill="#000000" font-family="sans-serif" font-size="14" lengthAdjust="spacing" textLength="299.6602" x="42.43" y="287.0689">changeTemplate(surveyTemplateId: UUID)</text></g><!--class SurveyRecurringIntervalDays--><g class="entity" data-qualified-name="Survey Aggregate.SurveyRecurringIntervalDays" data-source-line="40" id="ent0007"><rect fill="#F1F1F1" height="162.0781" rx="2.5" ry="2.5" style="stroke:#181818;stroke-width:0.5;" width="237.3242" x="450.34" y="120.01"/><ellipse cx="465.34" cy="136.01" fill="#EB937F" rx="11" ry="11" style="stroke:#181818;stroke-width:1;"/><path d="M469.4494,142.01 L461.7306,142.01 L461.7306,129.6194 L469.4494,129.6194 L469.4494,131.7756 L464.1838,131.7756 L464.1838,134.4475 L468.9494,134.4475 L468.9494,136.6038 L464.1838,136.6038 L464.1838,139.8538 L469.4494,139.8538 L469.4494,142.01 Z " fill="#000000"/><text fill="#000000" font-family="sans-serif" font-size="14" lengthAdjust="spacing" textLength="205.3242" x="479.34" y="140.8567">SurveyRecurringIntervalDays</text><line style="stroke:#181818;stroke-width:0.5;" x1="451.34" x2="686.6642" y1="152.01" y2="152.01"/><text fill="#000000" font-family="sans-serif" font-size="14" lengthAdjust="spacing" textLength="8.9072" x="456.34" y="169.0051">1</text><text fill="#000000" font-family="sans-serif" font-size="14" lengthAdjust="spacing" textLength="8.9072" x="456.34" y="185.302">7</text><text fill="#000000" font-family="sans-serif" font-size="14" lengthAdjust="spacing" textLength="17.8145" x="456.34" y="201.5989">14</text><text fill="#000000" font-family="sans-serif" font-size="14" lengthAdjust="spacing" textLength="17.8145" x="456.34" y="217.8957">30</text><text fill="#000000" font-family="sans-serif" font-size="14" lengthAdjust="spacing" textLength="17.8145" x="456.34" y="234.1926">90</text><text fill="#000000" font-family="sans-serif" font-size="14" lengthAdjust="spacing" textLength="26.7217" x="456.34" y="250.4895">180</text><text fill="#000000" font-family="sans-serif" font-size="14" lengthAdjust="spacing" textLength="26.7217" x="456.34" y="266.7864">365</text><line style="stroke:#181818;stroke-width:0.5;" x1="451.34" x2="686.6642" y1="274.0881" y2="274.0881"/></g><!--class SurveySettingTime--><g class="entity" data-qualified-name="Survey Aggregate.SurveySettingTime" data-source-line="50" id="ent0008"><rect fill="#F1F1F1" height="105.1563" rx="2.5" ry="2.5" style="stroke:#181818;stroke-width:0.5;" width="180.8203" x="128.59" y="378.82"/><ellipse cx="150.4754" cy="398.9528" fill="#ADD1B2" rx="11" ry="11" style="stroke:#181818;stroke-width:1;"/><path d="M153.4441,404.5934 Q152.866,404.8903 152.2254,405.0309 Q151.5847,405.1872 150.8816,405.1872 Q148.3816,405.1872 147.0535,403.5466 Q145.741,401.8903 145.741,398.7653 Q145.741,395.6403 147.0535,393.9841 Q148.3816,392.3278 150.8816,392.3278 Q151.5847,392.3278 152.2254,392.4841 Q152.8816,392.6403 153.4441,392.9372 L153.4441,395.6559 Q152.8191,395.0778 152.2254,394.8122 Q151.6316,394.5309 151.0066,394.5309 Q149.6629,394.5309 148.9754,395.6091 Q148.2879,396.6716 148.2879,398.7653 Q148.2879,400.8591 148.9754,401.9372 Q149.6629,402.9997 151.0066,402.9997 Q151.6316,402.9997 152.2254,402.7341 Q152.8191,402.4528 153.4441,401.8747 L153.4441,404.5934 Z " fill="#000000"/><text fill="#000000" font-family="sans-serif" font-size="12" font-style="italic" lengthAdjust="spacing" textLength="49.8457" x="207.8423" y="394.9587">&#171;Entity&#187;</text><text fill="#000000" font-family="sans-serif" font-size="14" lengthAdjust="spacing" textLength="133.5195" x="166.0054" y="410.7839">SurveySettingTime</text><line style="stroke:#181818;stroke-width:0.5;" x1="129.59" x2="308.4103" y1="419.0856" y2="419.0856"/><g data-visibility-modifier="PUBLIC_FIELD"><ellipse cx="139.59" cy="432.7341" fill="none" rx="3" ry="3" style="stroke:#038048;stroke-width:1;"/></g><text fill="#000000" font-family="sans-serif" font-size="14" lengthAdjust="spacing" textLength="57.3467" x="148.59" y="436.0807">id: UUID</text><g data-visibility-modifier="PUBLIC_FIELD"><ellipse cx="139.59" cy="449.0309" fill="none" rx="3" ry="3" style="stroke:#038048;stroke-width:1;"/></g><text fill="#000000" font-family="sans-serif" font-size="14" lengthAdjust="spacing" textLength="154.8203" x="148.59" y="452.3776">surveySettingId: UUID</text><g data-visibility-modifier="PUBLIC_FIELD"><ellipse cx="139.59" cy="465.3278" fill="none" rx="3" ry="3" style="stroke:#038048;stroke-width:1;"/></g><text fill="#000000" font-family="sans-serif" font-size="14" lengthAdjust="spacing" textLength="134.7705" x="148.59" y="468.6745">deliveryTime: Time</text><line style="stroke:#181818;stroke-width:0.5;" x1="129.59" x2="308.4103" y1="475.9763" y2="475.9763"/></g><!--class Survey--><g class="entity" data-qualified-name="Survey Aggregate.Survey" data-source-line="56" id="ent0009"><rect fill="#F1F1F1" height="186.6406" rx="2.5" ry="2.5" style="stroke:#181818;stroke-width:0.5;" width="661.3867" x="1477.31" y="107.73"/><ellipse cx="1751.1674" cy="127.8628" fill="#ADD1B2" rx="11" ry="11" style="stroke:#181818;stroke-width:1;"/><path d="M1754.1362,133.5034 Q1753.558,133.8003 1752.9174,133.9409 Q1752.2768,134.0972 1751.5737,134.0972 Q1749.0737,134.0972 1747.7455,132.4566 Q1746.433,130.8003 1746.433,127.6753 Q1746.433,124.5503 1747.7455,122.8941 Q1749.0737,121.2378 1751.5737,121.2378 Q1752.2768,121.2378 1752.9174,121.3941 Q1753.5737,121.5503 1754.1362,121.8472 L1754.1362,124.5659 Q1753.5112,123.9878 1752.9174,123.7222 Q1752.3237,123.4409 1751.6987,123.4409 Q1750.3549,123.4409 1749.6674,124.5191 Q1748.9799,125.5816 1748.9799,127.6753 Q1748.9799,129.7691 1749.6674,130.8472 Q1750.3549,131.9097 1751.6987,131.9097 Q1752.3237,131.9097 1752.9174,131.6441 Q1753.5112,131.3628 1754.1362,130.7847 L1754.1362,133.5034 Z " fill="#000000"/><text fill="#000000" font-family="sans-serif" font-size="12" font-style="italic" lengthAdjust="spacing" textLength="109.1719" x="1769.6674" y="123.8687">&#171;Aggregate Root&#187;</text><text fill="#000000" font-family="sans-serif" font-size="14" lengthAdjust="spacing" textLength="48.6992" x="1799.9038" y="139.6939">Survey</text><line style="stroke:#181818;stroke-width:0.5;" x1="1478.31" x2="2137.6967" y1="147.9956" y2="147.9956"/><g data-visibility-modifier="PUBLIC_FIELD"><ellipse cx="1488.31" cy="161.6441" fill="none" rx="3" ry="3" style="stroke:#038048;stroke-width:1;"/></g><text fill="#000000" font-family="sans-serif" font-size="14" lengthAdjust="spacing" textLength="57.3467" x="1497.31" y="164.9907">id: UUID</text><g data-visibility-modifier="PUBLIC_FIELD"><ellipse cx="1488.31" cy="177.9409" fill="none" rx="3" ry="3" style="stroke:#038048;stroke-width:1;"/></g><text fill="#000000" font-family="sans-serif" font-size="14" lengthAdjust="spacing" textLength="154.8203" x="1497.31" y="181.2876">surveySettingId: UUID</text><g data-visibility-modifier="PUBLIC_FIELD"><ellipse cx="1488.31" cy="194.2378" fill="none" rx="3" ry="3" style="stroke:#038048;stroke-width:1;"/></g><text fill="#000000" font-family="sans-serif" font-size="14" lengthAdjust="spacing" textLength="119.2939" x="1497.31" y="197.5845">recipientId: UUID</text><g data-visibility-modifier="PUBLIC_FIELD"><ellipse cx="1488.31" cy="210.5347" fill="none" rx="3" ry="3" style="stroke:#038048;stroke-width:1;"/></g><text fill="#000000" font-family="sans-serif" font-size="14" lengthAdjust="spacing" textLength="157.8213" x="1497.31" y="213.8814">deliveredAt: DateTime</text><g data-visibility-modifier="PUBLIC_FIELD"><ellipse cx="1488.31" cy="226.8316" fill="none" rx="3" ry="3" style="stroke:#038048;stroke-width:1;"/></g><text fill="#000000" font-family="sans-serif" font-size="14" lengthAdjust="spacing" textLength="194.1338" x="1497.31" y="230.1782">lastAnsweredAt: DateTime?</text><g data-visibility-modifier="PUBLIC_FIELD"><ellipse cx="1488.31" cy="243.1284" fill="none" rx="3" ry="3" style="stroke:#038048;stroke-width:1;"/></g><text fill="#000000" font-family="sans-serif" font-size="14" lengthAdjust="spacing" textLength="146.0225" x="1497.31" y="246.4751">createdAt: DateTime</text><line style="stroke:#181818;stroke-width:1;" x1="1478.31" x2="2137.6967" y1="253.7769" y2="253.7769"/><g data-visibility-modifier="PUBLIC_METHOD"><ellipse cx="1488.31" cy="267.4253" fill="#84BE84" rx="3" ry="3" style="stroke:#038048;stroke-width:1;"/></g><text fill="#000000" font-family="sans-serif" font-size="14" lengthAdjust="spacing" textLength="521.2197" x="1497.31" y="270.772">answer(questionId: UUID, selectedOptionId: UUID, answeredAt: DateTime)</text><g data-visibility-modifier="PUBLIC_METHOD"><ellipse cx="1488.31" cy="283.7222" fill="#84BE84" rx="3" ry="3" style="stroke:#038048;stroke-width:1;"/></g><text fill="#000000" font-family="sans-serif" font-size="14" lengthAdjust="spacing" textLength="635.3867" x="1497.31" y="287.0689">getMemberConditionHistory(recipientId: UUID, windowDays: Int): MemberConditionHistory</text></g><!--class SurveyAnswer--><g class="entity" data-qualified-name="Survey Aggregate.SurveyAnswer" data-source-line="68" id="ent0010"><rect fill="#F1F1F1" height="121.4531" rx="2.5" ry="2.5" style="stroke:#181818;stroke-width:0.5;" width="193.3096" x="1711.35" y="370.67"/><ellipse cx="1753.8211" cy="390.8028" fill="#ADD1B2" rx="11" ry="11" style="stroke:#181818;stroke-width:1;"/><path d="M1756.7898,396.4434 Q1756.2117,396.7403 1755.5711,396.8809 Q1754.9305,397.0372 1754.2273,397.0372 Q1751.7273,397.0372 1750.3992,395.3966 Q1749.0867,393.7403 1749.0867,390.6153 Q1749.0867,387.4903 1750.3992,385.8341 Q1751.7273,384.1778 1754.2273,384.1778 Q1754.9305,384.1778 1755.5711,384.3341 Q1756.2273,384.4903 1756.7898,384.7872 L1756.7898,387.5059 Q1756.1648,386.9278 1755.5711,386.6622 Q1754.9773,386.3809 1754.3523,386.3809 Q1753.0086,386.3809 1752.3211,387.4591 Q1751.6336,388.5216 1751.6336,390.6153 Q1751.6336,392.7091 1752.3211,393.7872 Q1753.0086,394.8497 1754.3523,394.8497 Q1754.9773,394.8497 1755.5711,394.5841 Q1756.1648,394.3028 1756.7898,393.7247 L1756.7898,396.4434 Z " fill="#000000"/><text fill="#000000" font-family="sans-serif" font-size="12" font-style="italic" lengthAdjust="spacing" textLength="49.8457" x="1799.1343" y="386.8087">&#171;Entity&#187;</text><text fill="#000000" font-family="sans-serif" font-size="14" lengthAdjust="spacing" textLength="100.2627" x="1773.9258" y="402.6339">SurveyAnswer</text><line style="stroke:#181818;stroke-width:0.5;" x1="1712.35" x2="1903.6596" y1="410.9356" y2="410.9356"/><g data-visibility-modifier="PUBLIC_FIELD"><ellipse cx="1722.35" cy="424.5841" fill="none" rx="3" ry="3" style="stroke:#038048;stroke-width:1;"/></g><text fill="#000000" font-family="sans-serif" font-size="14" lengthAdjust="spacing" textLength="104.6924" x="1731.35" y="427.9307">surveyId: UUID</text><g data-visibility-modifier="PUBLIC_FIELD"><ellipse cx="1722.35" cy="440.8809" fill="none" rx="3" ry="3" style="stroke:#038048;stroke-width:1;"/></g><text fill="#000000" font-family="sans-serif" font-size="14" lengthAdjust="spacing" textLength="167.3096" x="1731.35" y="444.2276">surveyQuestionId: UUID</text><g data-visibility-modifier="PUBLIC_FIELD"><ellipse cx="1722.35" cy="457.1778" fill="none" rx="3" ry="3" style="stroke:#038048;stroke-width:1;"/></g><text fill="#000000" font-family="sans-serif" font-size="14" lengthAdjust="spacing" textLength="163.4063" x="1731.35" y="460.5245">selectedOptionId: UUID</text><g data-visibility-modifier="PUBLIC_FIELD"><ellipse cx="1722.35" cy="473.4747" fill="none" rx="3" ry="3" style="stroke:#038048;stroke-width:1;"/></g><text fill="#000000" font-family="sans-serif" font-size="14" lengthAdjust="spacing" textLength="160.4531" x="1731.35" y="476.8214">answeredAt: DateTime</text><line style="stroke:#181818;stroke-width:0.5;" x1="1712.35" x2="1903.6596" y1="484.1231" y2="484.1231"/></g><!--class TeamConditionSummary--><g class="entity" data-qualified-name="Survey Aggregate.TeamConditionSummary" data-source-line="75" id="ent0011"><rect fill="#F1F1F1" height="121.4531" rx="2.5" ry="2.5" style="stroke:#181818;stroke-width:0.5;" width="205.8447" x="723.08" y="140.32"/><ellipse cx="738.08" cy="160.4528" fill="#ADD1B2" rx="11" ry="11" style="stroke:#181818;stroke-width:1;"/><path d="M741.0488,166.0934 Q740.4706,166.3903 739.83,166.5309 Q739.1894,166.6872 738.4863,166.6872 Q735.9863,166.6872 734.6581,165.0466 Q733.3456,163.3903 733.3456,160.2653 Q733.3456,157.1403 734.6581,155.4841 Q735.9863,153.8278 738.4863,153.8278 Q739.1894,153.8278 739.83,153.9841 Q740.4863,154.1403 741.0488,154.4372 L741.0488,157.1559 Q740.4238,156.5778 739.83,156.3122 Q739.2363,156.0309 738.6113,156.0309 Q737.2675,156.0309 736.58,157.1091 Q735.8925,158.1716 735.8925,160.2653 Q735.8925,162.3591 736.58,163.4372 Q737.2675,164.4997 738.6113,164.4997 Q739.2363,164.4997 739.83,164.2341 Q740.4238,163.9528 741.0488,163.3747 L741.0488,166.0934 Z " fill="#000000"/><text fill="#000000" font-family="sans-serif" font-size="12" font-style="italic" lengthAdjust="spacing" textLength="91.5938" x="793.2055" y="156.4587">&#171;Value Object&#187;</text><text fill="#000000" font-family="sans-serif" font-size="14" lengthAdjust="spacing" textLength="173.8447" x="752.08" y="172.2839">TeamConditionSummary</text><line style="stroke:#181818;stroke-width:0.5;" x1="724.08" x2="927.9247" y1="180.5856" y2="180.5856"/><g data-visibility-modifier="PUBLIC_FIELD"><ellipse cx="734.08" cy="194.2341" fill="none" rx="3" ry="3" style="stroke:#038048;stroke-width:1;"/></g><text fill="#000000" font-family="sans-serif" font-size="14" lengthAdjust="spacing" textLength="93.9053" x="743.08" y="197.5807">teamId: UUID</text><g data-visibility-modifier="PUBLIC_FIELD"><ellipse cx="734.08" cy="210.5309" fill="none" rx="3" ry="3" style="stroke:#038048;stroke-width:1;"/></g><text fill="#000000" font-family="sans-serif" font-size="14" lengthAdjust="spacing" textLength="115.7119" x="743.08" y="213.8776">windowDays: Int</text><g data-visibility-modifier="PUBLIC_FIELD"><ellipse cx="734.08" cy="226.8278" fill="none" rx="3" ry="3" style="stroke:#038048;stroke-width:1;"/></g><text fill="#000000" font-family="sans-serif" font-size="14" lengthAdjust="spacing" textLength="163.085" x="743.08" y="230.1745">averageScore: Decimal</text><g data-visibility-modifier="PUBLIC_FIELD"><ellipse cx="734.08" cy="243.1247" fill="none" rx="3" ry="3" style="stroke:#038048;stroke-width:1;"/></g><text fill="#000000" font-family="sans-serif" font-size="14" lengthAdjust="spacing" textLength="162.5586" x="743.08" y="246.4714">responseRate: Decimal</text><line style="stroke:#181818;stroke-width:0.5;" x1="724.08" x2="927.9247" y1="253.7731" y2="253.7731"/></g><!--class MemberConditionHistory--><g class="entity" data-qualified-name="Survey Aggregate.MemberConditionHistory" data-source-line="82" id="ent0012"><rect fill="#F1F1F1" height="105.1563" rx="2.5" ry="2.5" style="stroke:#181818;stroke-width:0.5;" width="230.6748" x="453.66" y="378.82"/><ellipse cx="479.6736" cy="398.9528" fill="#ADD1B2" rx="11" ry="11" style="stroke:#181818;stroke-width:1;"/><path d="M482.6423,404.5934 Q482.0642,404.8903 481.4236,405.0309 Q480.7829,405.1872 480.0798,405.1872 Q477.5798,405.1872 476.2517,403.5466 Q474.9392,401.8903 474.9392,398.7653 Q474.9392,395.6403 476.2517,393.9841 Q477.5798,392.3278 480.0798,392.3278 Q480.7829,392.3278 481.4236,392.4841 Q482.0798,392.6403 482.6423,392.9372 L482.6423,395.6559 Q482.0173,395.0778 481.4236,394.8122 Q480.8298,394.5309 480.2048,394.5309 Q478.8611,394.5309 478.1736,395.6091 Q477.4861,396.6716 477.4861,398.7653 Q477.4861,400.8591 478.1736,401.9372 Q478.8611,402.9997 480.2048,402.9997 Q480.8298,402.9997 481.4236,402.7341 Q482.0173,402.4528 482.6423,401.8747 L482.6423,404.5934 Z " fill="#000000"/><text fill="#000000" font-family="sans-serif" font-size="12" font-style="italic" lengthAdjust="spacing" textLength="91.5938" x="537.4243" y="394.9587">&#171;Value Object&#187;</text><text fill="#000000" font-family="sans-serif" font-size="14" lengthAdjust="spacing" textLength="174.2002" x="496.121" y="410.7839">MemberConditionHistory</text><line style="stroke:#181818;stroke-width:0.5;" x1="454.66" x2="683.3348" y1="419.0856" y2="419.0856"/><g data-visibility-modifier="PUBLIC_FIELD"><ellipse cx="464.66" cy="432.7341" fill="none" rx="3" ry="3" style="stroke:#038048;stroke-width:1;"/></g><text fill="#000000" font-family="sans-serif" font-size="14" lengthAdjust="spacing" textLength="151.4912" x="473.66" y="436.0807">teamMemberId: UUID</text><g data-visibility-modifier="PUBLIC_FIELD"><ellipse cx="464.66" cy="449.0309" fill="none" rx="3" ry="3" style="stroke:#038048;stroke-width:1;"/></g><text fill="#000000" font-family="sans-serif" font-size="14" lengthAdjust="spacing" textLength="115.7119" x="473.66" y="452.3776">windowDays: Int</text><g data-visibility-modifier="PUBLIC_FIELD"><ellipse cx="464.66" cy="465.3278" fill="none" rx="3" ry="3" style="stroke:#038048;stroke-width:1;"/></g><text fill="#000000" font-family="sans-serif" font-size="14" lengthAdjust="spacing" textLength="204.6748" x="473.66" y="468.6745">points: ConditionScorePoint[]</text><line style="stroke:#181818;stroke-width:0.5;" x1="454.66" x2="683.3348" y1="475.9763" y2="475.9763"/></g><!--class ConditionScorePoint--><g class="entity" data-qualified-name="Survey Aggregate.ConditionScorePoint" data-source-line="88" id="ent0013"><rect fill="#F1F1F1" height="105.1563" rx="2.5" ry="2.5" style="stroke:#181818;stroke-width:0.5;" width="186.4531" x="719.77" y="378.82"/><ellipse cx="740.5602" cy="398.9528" fill="#ADD1B2" rx="11" ry="11" style="stroke:#181818;stroke-width:1;"/><path d="M743.529,404.5934 Q742.9509,404.8903 742.3102,405.0309 Q741.6696,405.1872 740.9665,405.1872 Q738.4665,405.1872 737.1384,403.5466 Q735.8259,401.8903 735.8259,398.7653 Q735.8259,395.6403 737.1384,393.9841 Q738.4665,392.3278 740.9665,392.3278 Q741.6696,392.3278 742.3102,392.4841 Q742.9665,392.6403 743.529,392.9372 L743.529,395.6559 Q742.904,395.0778 742.3102,394.8122 Q741.7165,394.5309 741.0915,394.5309 Q739.7477,394.5309 739.0602,395.6091 Q738.3727,396.6716 738.3727,398.7653 Q738.3727,400.8591 739.0602,401.9372 Q739.7477,402.9997 741.0915,402.9997 Q741.7165,402.9997 742.3102,402.7341 Q742.904,402.4528 743.529,401.8747 L743.529,404.5934 Z " fill="#000000"/><text fill="#000000" font-family="sans-serif" font-size="12" font-style="italic" lengthAdjust="spacing" textLength="91.5938" x="780.843" y="394.9587">&#171;Value Object&#187;</text><text fill="#000000" font-family="sans-serif" font-size="14" lengthAdjust="spacing" textLength="141.5859" x="755.847" y="410.7839">ConditionScorePoint</text><line style="stroke:#181818;stroke-width:0.5;" x1="720.77" x2="905.2231" y1="419.0856" y2="419.0856"/><g data-visibility-modifier="PUBLIC_FIELD"><ellipse cx="730.77" cy="432.7341" fill="none" rx="3" ry="3" style="stroke:#038048;stroke-width:1;"/></g><text fill="#000000" font-family="sans-serif" font-size="14" lengthAdjust="spacing" textLength="104.6924" x="739.77" y="436.0807">surveyId: UUID</text><g data-visibility-modifier="PUBLIC_FIELD"><ellipse cx="730.77" cy="449.0309" fill="none" rx="3" ry="3" style="stroke:#038048;stroke-width:1;"/></g><text fill="#000000" font-family="sans-serif" font-size="14" lengthAdjust="spacing" textLength="160.4531" x="739.77" y="452.3776">answeredAt: DateTime</text><g data-visibility-modifier="PUBLIC_FIELD"><ellipse cx="730.77" cy="465.3278" fill="none" rx="3" ry="3" style="stroke:#038048;stroke-width:1;"/></g><text fill="#000000" font-family="sans-serif" font-size="14" lengthAdjust="spacing" textLength="104.1797" x="739.77" y="468.6745">score: Decimal</text><line style="stroke:#181818;stroke-width:0.5;" x1="720.77" x2="905.2231" y1="475.9763" y2="475.9763"/></g><g class="entity" data-qualified-name="GMN18" data-source-line="101" id="ent0019"><path d="M2173.25,143.08 L2173.25,259.0097 L2642.7437,259.0097 L2642.7437,153.08 L2632.7437,143.08 L2173.25,143.08" fill="#FEFFDD" style="stroke:#181818;stroke-width:0.5;"/><path d="M2632.7437,143.08 L2632.7437,153.08 L2642.7437,153.08 L2632.7437,143.08" fill="#FEFFDD" style="stroke:#181818;stroke-width:1;"/><text fill="#000000" font-family="sans-serif" font-size="13" lengthAdjust="spacing" textLength="94.6118" x="2179.25" y="160.1469">Domain Rules:</text><text fill="#000000" font-family="sans-serif" font-size="13" lengthAdjust="spacing" textLength="289.8594" x="2179.25" y="175.2797">- Only active team members receive survey.</text><text fill="#000000" font-family="sans-serif" font-size="13" lengthAdjust="spacing" textLength="245.4004" x="2179.25" y="190.4125">- One active SurveySetting per Team.</text><text fill="#000000" font-family="sans-serif" font-size="13" lengthAdjust="spacing" textLength="362.2734" x="2179.25" y="205.5453">- `setterId` must be a TeamMember of the same Team.</text><text fill="#000000" font-family="sans-serif" font-size="13" lengthAdjust="spacing" textLength="335.334" x="2179.25" y="220.6781">- Delivery times are interpreted in Team time zone.</text><text fill="#000000" font-family="sans-serif" font-size="13" lengthAdjust="spacing" textLength="414.7559" x="2179.25" y="235.811">- Condition windows support 7/14/30/90 days (default 14 days).</text><text fill="#000000" font-family="sans-serif" font-size="13" lengthAdjust="spacing" textLength="448.4937" x="2179.25" y="250.9438">- Member condition history returns score timeline (not raw answers).</text></g><!--reverse link SurveyTemplate to SurveyQuestion--><g class="link" data-entity-1="ent0003" data-entity-2="ent0004" data-link-type="composition" data-source-line="94" id="lnk14"><path codeLine="94" d="M1203,282.25 C1203,308.67 1203,327.02 1203,354.15" fill="none" id="SurveyTemplate-backto-SurveyQuestion" style="stroke:#181818;stroke-width:1;"/><polygon fill="#181818" points="1203,270.25,1199,276.25,1203,282.25,1207,276.25,1203,270.25" style="stroke:#181818;stroke-width:1;"/><text fill="#000000" font-family="sans-serif" font-size="13" lengthAdjust="spacing" textLength="8.271" x="1194.6196" y="289.8741">1</text><text fill="#000000" font-family="sans-serif" font-size="13" lengthAdjust="spacing" textLength="23.0356" x="1178.9418" y="343.4107">1..*</text></g><!--reverse link SurveyQuestion to SurveyQuestionOption--><g class="link" data-entity-1="ent0004" data-entity-2="ent0005" data-link-type="composition" data-source-line="95" id="lnk15"><path codeLine="95" d="M1203,520.92 C1203,540.54 1203,549.37 1203,568.03" fill="none" id="SurveyQuestion-backto-SurveyQuestionOption" style="stroke:#181818;stroke-width:1;"/><polygon fill="#181818" points="1203,508.92,1199,514.92,1203,520.92,1207,514.92,1203,508.92" style="stroke:#181818;stroke-width:1;"/><text fill="#000000" font-family="sans-serif" font-size="13" lengthAdjust="spacing" textLength="8.271" x="1194.6561" y="528.5655">1</text><text fill="#000000" font-family="sans-serif" font-size="13" lengthAdjust="spacing" textLength="23.0356" x="1178.6718" y="557.1708">1..*</text></g><!--reverse link SurveySetting to SurveySettingTime--><g class="link" data-entity-1="ent0006" data-entity-2="ent0008" data-link-type="composition" data-source-line="96" id="lnk16"><path codeLine="96" d="M219,306.6 C219,335.15 219,353.59 219,378.39" fill="none" id="SurveySetting-backto-SurveySettingTime" style="stroke:#181818;stroke-width:1;"/><polygon fill="#181818" points="219,294.6,215,300.6,219,306.6,223,300.6,219,294.6" style="stroke:#181818;stroke-width:1;"/><text fill="#000000" font-family="sans-serif" font-size="13" lengthAdjust="spacing" textLength="8.271" x="210.704" y="314.4086">1</text><text fill="#000000" font-family="sans-serif" font-size="13" lengthAdjust="spacing" textLength="23.0356" x="194.5288" y="367.7128">1..*</text></g><!--reverse link Survey to SurveyAnswer--><g class="link" data-entity-1="ent0009" data-entity-2="ent0010" data-link-type="composition" data-source-line="97" id="lnk17"><path codeLine="97" d="M1808,306.6 C1808,332.19 1808,347.28 1808,370.48" fill="none" id="Survey-backto-SurveyAnswer" style="stroke:#181818;stroke-width:1;"/><polygon fill="#181818" points="1808,294.6,1804,300.6,1808,306.6,1812,300.6,1808,294.6" style="stroke:#181818;stroke-width:1;"/><text fill="#000000" font-family="sans-serif" font-size="13" lengthAdjust="spacing" textLength="8.271" x="1799.7039" y="314.4086">1</text><text fill="#000000" font-family="sans-serif" font-size="13" lengthAdjust="spacing" textLength="23.0356" x="1783.6718" y="359.6439">0..*</text></g><!--link SurveySetting to GMN18--><g class="link" data-entity-1="ent0006" data-entity-2="ent0019" data-link-type="association" data-source-line="101" id="lnk20"><path d="M320.51,107.27 C358.45,78.16 403.75,49.78 450.5,34.73 C539.71,6 2047.32,9.22 2137.5,34.73 C2211.9,55.77 2285.97,103.68 2337.74,142.7" fill="none" id="SurveySetting-GMN18" style="stroke:#181818;stroke-width:1;stroke-dasharray:7,7;"/></g><?plantuml-src bLPRRzCm57xlhpZgKpVQhTM0iMeQcYWIVK23TkC58SrDpb93OWVRMIc8_yvndAHDwaQX3t5ohj-vkYaBVh08eR_Cr3DkuJQA54RCO1_-z7e0GSoq1iUynoIDYGNNrvKOBAGqDpSa3FHxmSCfF3pCP-vBi0Idi3IAYyXHGjI1ugdXKfICjuuJA2HpuQsPmenUxdc2EMCqSdmMXfypr5PpyBDuAKqC0NyHCi5gTeUGIiqTQIxC2TdvsmofD4aXlHU6c-snK7Gj0_CQhmd7KNsG7AS6gotwet3lqly0NIhLGSTiXN4TSHFNWVib6aFIdUjla2NppcdKP1rLdQOmo9H5I8XGFRDunhPwMi1P-9YTksc6CNz6jRMyGRZtCGNxF2aChPc8i0GyyEElMWj5bhI1Az8qoP-NxlrbVboCy-FA7PCtxhnu_Qgb3XPcnnueDEh9FGpQvwnpjLiyKHbvob4OBm1FdQWzjRaLUjFaTjqMkMgrA4gtGz0OOq2QRe9sTERnLRH0XEOZ9YjKxwG8ym7vmBMHQZiu26i86ov2kN5TQfVE5FowlaoxU3qLTPcTTvvjVv3xcMbRDVSqjHNSPPOaJDac-CBY3E5kzPrCxw0TZdWZ0uLNAZDTCyj0Acgr6UKjON7P6pgLGkE2mEopzX3vKzYAoQbqG9PABWmHTX5RZ9yizUktEWoFo54Clf8TIRsLRkObzzguTVkJFfoEHdIUdPts6pT29LxTQAtYhZCgfNAnUtNsjasbi9CSxqcw1kuHU249iEBHse1ygjlfpMJ2k8155gEUzaPm9-8jiC3GAW1REaZosccWyK9BTBayoqMnbAm3JsbkRDzQeSVo8dc49DC6LgIJCrrFM41cJLRfpqcbKru6O2XA3KmXSBktKuKqH_IUI-PS-2q5Mfsg7OgXrmGqJQKoS7a-UNb-CJw_6aDejpvTBqyiYmqj-vnmOjKBD45bPLsqDRdCb21hjYbobp6dk0UKKr1iKwmgQmH523RJlNy0?></g></svg>