<?plantuml 1.2026.2?><svg xmlns="http://www.w3.org/2000/svg" xmlns:xlink="http://www.w3.org/1999/xlink" contentStyleType="text/css" data-diagram-type="CLASS" height="717px" preserveAspectRatio="none" style="width:2562px;height:717px;background:#FFFFFF;" version="1.1" viewBox="0 0 2562 717" width="2562px" zoomAndPan="magnify"><defs/><g><!--cluster Survey Aggregate--><g class="cluster" data-qualified-name="Survey Aggregate" data-source-line="1" id="ent0002"><path d="M8.5,72.8 L137.0313,72.8 A3.75,3.75 0 0 1 139.5313,75.3 L146.5313,95.2883 L2076.5,95.2883 A2.5,2.5 0 0 1 2079,97.7883 L2079,707.95 A2.5,2.5 0 0 1 2076.5,710.45 L8.5,710.45 A2.5,2.5 0 0 1 6,707.95 L6,75.3 A2.5,2.5 0 0 1 8.5,72.8" fill="none" style="stroke:#000000;stroke-width:1.5;"/><line style="stroke:#000000;stroke-width:1.5;" x1="6" x2="146.5313" y1="95.2883" y2="95.2883"/><text fill="#000000" font-family="sans-serif" font-size="14" font-weight="bold" lengthAdjust="spacing" textLength="127.5313" x="10" y="88.3352">Survey Aggregate</text></g><!--class SurveyTemplate--><g class="entity" data-qualified-name="Survey Aggregate.SurveyTemplate" data-source-line="3" id="ent0003"><rect fill="#F1F1F1" height="139.0625" rx="2.5" ry="2.5" style="stroke:#181818;stroke-width:0.5;" width="463.7734" x="924.11" y="132.53"/><ellipse cx="1097.9137" cy="152.8405" fill="#ADD1B2" rx="11" ry="11" style="stroke:#181818;stroke-width:1;"/><path d="M1100.3869,158.9836 Q1099.8058,159.2824 1099.1666,159.4319 Q1098.5275,159.5813 1097.8219,159.5813 Q1095.3151,159.5813 1093.9953,157.9294 Q1092.6754,156.2776 1092.6754,153.1565 Q1092.6754,150.0271 1093.9953,148.3752 Q1095.3151,146.7234 1097.8219,146.7234 Q1098.5275,146.7234 1099.1749,146.8728 Q1099.8224,147.0222 1100.3869,147.321 L1100.3869,150.0437 Q1099.756,149.4626 1099.1625,149.1928 Q1098.569,148.9231 1097.9381,148.9231 Q1096.5934,148.9231 1095.9086,149.9897 Q1095.2238,151.0564 1095.2238,153.1565 Q1095.2238,155.2483 1095.9086,156.3149 Q1096.5934,157.3816 1097.9381,157.3816 Q1098.569,157.3816 1099.1625,157.1118 Q1099.756,156.842 1100.3869,156.261 Z " fill="#000000"/><text fill="#000000" font-family="sans-serif" font-size="12" font-style="italic" lengthAdjust="spacing" textLength="103.3125" x="1120.5905" y="149.1316">&#171;Aggregate Root&#187;</text><text fill="#000000" font-family="sans-serif" font-size="14" lengthAdjust="spacing" textLength="107.666" x="1118.4137" y="165.198">SurveyTemplate</text><line style="stroke:#181818;stroke-width:0.5;" x1="925.11" x2="1386.8834" y1="173.1511" y2="173.1511"/><g data-visibility-modifier="PUBLIC_FIELD"><ellipse cx="935.11" cy="186.8952" fill="none" rx="3" ry="3" style="stroke:#038048;stroke-width:1;"/></g><text fill="#000000" font-family="sans-serif" font-size="14" lengthAdjust="spacing" textLength="55.6377" x="944.11" y="190.6863">id: UUID</text><g data-visibility-modifier="PUBLIC_FIELD"><ellipse cx="935.11" cy="203.3835" fill="none" rx="3" ry="3" style="stroke:#038048;stroke-width:1;"/></g><text fill="#000000" font-family="sans-serif" font-size="14" lengthAdjust="spacing" textLength="86.1191" x="944.11" y="207.1745">name: String</text><g data-visibility-modifier="PUBLIC_FIELD"><ellipse cx="935.11" cy="219.8718" fill="none" rx="3" ry="3" style="stroke:#038048;stroke-width:1;"/></g><text fill="#000000" font-family="sans-serif" font-size="14" lengthAdjust="spacing" textLength="130.8125" x="944.11" y="223.6628">description: String?</text><g data-visibility-modifier="PUBLIC_FIELD"><ellipse cx="935.11" cy="236.3601" fill="none" rx="3" ry="3" style="stroke:#038048;stroke-width:1;"/></g><text fill="#000000" font-family="sans-serif" font-size="14" lengthAdjust="spacing" textLength="139.0566" x="944.11" y="240.1511">createdAt: DateTime</text><line style="stroke:#181818;stroke-width:1;" x1="925.11" x2="1386.8834" y1="247.1042" y2="247.1042"/><g data-visibility-modifier="PUBLIC_METHOD"><ellipse cx="935.11" cy="260.8484" fill="#84BE84" rx="3" ry="3" style="stroke:#038048;stroke-width:1;"/></g><text fill="#000000" font-family="sans-serif" font-size="14" lengthAdjust="spacing" textLength="437.7734" x="944.11" y="264.6394">addQuestion(question: String, explanation: String?, position: Int)</text></g><!--class SurveyQuestion--><g class="entity" data-qualified-name="Survey Aggregate.SurveyQuestion" data-source-line="12" id="ent0004"><rect fill="#F1F1F1" height="155.5508" rx="2.5" ry="2.5" style="stroke:#181818;stroke-width:0.5;" width="188.8867" x="1061.56" y="356.32"/><ellipse cx="1099.7337" cy="376.6305" fill="#ADD1B2" rx="11" ry="11" style="stroke:#181818;stroke-width:1;"/><path d="M1102.2068,382.7736 Q1101.6258,383.0724 1100.9866,383.2219 Q1100.3475,383.3713 1099.6419,383.3713 Q1097.135,383.3713 1095.8152,381.7194 Q1094.4954,380.0676 1094.4954,376.9465 Q1094.4954,373.8171 1095.8152,372.1652 Q1097.135,370.5134 1099.6419,370.5134 Q1100.3475,370.5134 1100.9949,370.6628 Q1101.6424,370.8122 1102.2068,371.111 L1102.2068,373.8337 Q1101.576,373.2526 1100.9825,372.9828 Q1100.389,372.7131 1099.7581,372.7131 Q1098.4134,372.7131 1097.7286,373.7797 Q1097.0437,374.8464 1097.0437,376.9465 Q1097.0437,379.0383 1097.7286,380.1049 Q1098.4134,381.1716 1099.7581,381.1716 Q1100.389,381.1716 1100.9825,380.9018 Q1101.576,380.632 1102.2068,380.051 Z " fill="#000000"/><text fill="#000000" font-family="sans-serif" font-size="12" font-style="italic" lengthAdjust="spacing" textLength="45.2402" x="1148.9581" y="372.9216">&#171;Entity&#187;</text><text fill="#000000" font-family="sans-serif" font-size="14" lengthAdjust="spacing" textLength="105.3896" x="1118.8834" y="388.988">SurveyQuestion</text><line style="stroke:#181818;stroke-width:0.5;" x1="1062.56" x2="1249.4467" y1="396.9411" y2="396.9411"/><g data-visibility-modifier="PUBLIC_FIELD"><ellipse cx="1072.56" cy="410.6852" fill="none" rx="3" ry="3" style="stroke:#038048;stroke-width:1;"/></g><text fill="#000000" font-family="sans-serif" font-size="14" lengthAdjust="spacing" textLength="55.6377" x="1081.56" y="414.4763">id: UUID</text><g data-visibility-modifier="PUBLIC_FIELD"><ellipse cx="1072.56" cy="427.1735" fill="none" rx="3" ry="3" style="stroke:#038048;stroke-width:1;"/></g><text fill="#000000" font-family="sans-serif" font-size="14" lengthAdjust="spacing" textLength="162.8867" x="1081.56" y="430.9645">surveyTemplateId: UUID</text><g data-visibility-modifier="PUBLIC_FIELD"><ellipse cx="1072.56" cy="443.6618" fill="none" rx="3" ry="3" style="stroke:#038048;stroke-width:1;"/></g><text fill="#000000" font-family="sans-serif" font-size="14" lengthAdjust="spacing" textLength="107.8369" x="1081.56" y="447.4528">question: String</text><g data-visibility-modifier="PUBLIC_FIELD"><ellipse cx="1072.56" cy="460.1501" fill="none" rx="3" ry="3" style="stroke:#038048;stroke-width:1;"/></g><text fill="#000000" font-family="sans-serif" font-size="14" lengthAdjust="spacing" textLength="134.7021" x="1081.56" y="463.9411">explanation: String?</text><g data-visibility-modifier="PUBLIC_FIELD"><ellipse cx="1072.56" cy="476.6384" fill="none" rx="3" ry="3" style="stroke:#038048;stroke-width:1;"/></g><text fill="#000000" font-family="sans-serif" font-size="14" lengthAdjust="spacing" textLength="81.9834" x="1081.56" y="480.4294">position: Int</text><g data-visibility-modifier="PUBLIC_FIELD"><ellipse cx="1072.56" cy="493.1266" fill="none" rx="3" ry="3" style="stroke:#038048;stroke-width:1;"/></g><text fill="#000000" font-family="sans-serif" font-size="14" lengthAdjust="spacing" textLength="139.0566" x="1081.56" y="496.9177">createdAt: DateTime</text><line style="stroke:#181818;stroke-width:0.5;" x1="1062.56" x2="1249.4467" y1="503.8708" y2="503.8708"/></g><!--class SurveyQuestionOption--><g class="entity" data-qualified-name="Survey Aggregate.SurveyQuestionOption" data-source-line="21" id="ent0005"><rect fill="#F1F1F1" height="122.5742" rx="2.5" ry="2.5" style="stroke:#181818;stroke-width:0.5;" width="186.6104" x="1062.69" y="571.88"/><ellipse cx="1079.0229" cy="592.1905" fill="#ADD1B2" rx="11" ry="11" style="stroke:#181818;stroke-width:1;"/><path d="M1081.496,598.3336 Q1080.915,598.6324 1080.2758,598.7819 Q1079.6366,598.9313 1078.9311,598.9313 Q1076.4242,598.9313 1075.1044,597.2794 Q1073.7846,595.6276 1073.7846,592.5065 Q1073.7846,589.3771 1075.1044,587.7252 Q1076.4242,586.0734 1078.9311,586.0734 Q1079.6366,586.0734 1080.2841,586.2228 Q1080.9316,586.3722 1081.496,586.671 L1081.496,589.3937 Q1080.8651,588.8126 1080.2716,588.5428 Q1079.6781,588.2731 1079.0473,588.2731 Q1077.7025,588.2731 1077.0177,589.3397 Q1076.3329,590.4064 1076.3329,592.5065 Q1076.3329,594.5983 1077.0177,595.6649 Q1077.7025,596.7316 1079.0473,596.7316 Q1079.6781,596.7316 1080.2716,596.4618 Q1080.8651,596.192 1081.496,595.611 Z " fill="#000000"/><text fill="#000000" font-family="sans-serif" font-size="12" font-style="italic" lengthAdjust="spacing" textLength="45.2402" x="1146.5232" y="588.4816">&#171;Entity&#187;</text><text fill="#000000" font-family="sans-serif" font-size="14" lengthAdjust="spacing" textLength="151.6484" x="1093.3191" y="604.548">SurveyQuestionOption</text><line style="stroke:#181818;stroke-width:0.5;" x1="1063.69" x2="1248.3004" y1="612.5011" y2="612.5011"/><g data-visibility-modifier="PUBLIC_FIELD"><ellipse cx="1073.69" cy="626.2452" fill="none" rx="3" ry="3" style="stroke:#038048;stroke-width:1;"/></g><text fill="#000000" font-family="sans-serif" font-size="14" lengthAdjust="spacing" textLength="55.6377" x="1082.69" y="630.0363">id: UUID</text><g data-visibility-modifier="PUBLIC_FIELD"><ellipse cx="1073.69" cy="642.7335" fill="none" rx="3" ry="3" style="stroke:#038048;stroke-width:1;"/></g><text fill="#000000" font-family="sans-serif" font-size="14" lengthAdjust="spacing" textLength="160.6104" x="1082.69" y="646.5245">surveyQuestionId: UUID</text><g data-visibility-modifier="PUBLIC_FIELD"><ellipse cx="1073.69" cy="659.2218" fill="none" rx="3" ry="3" style="stroke:#038048;stroke-width:1;"/></g><text fill="#000000" font-family="sans-serif" font-size="14" lengthAdjust="spacing" textLength="81.2656" x="1082.69" y="663.0128">label: String</text><g data-visibility-modifier="PUBLIC_FIELD"><ellipse cx="1073.69" cy="675.7101" fill="none" rx="3" ry="3" style="stroke:#038048;stroke-width:1;"/></g><text fill="#000000" font-family="sans-serif" font-size="14" lengthAdjust="spacing" textLength="81.9834" x="1082.69" y="679.5011">position: Int</text><line style="stroke:#181818;stroke-width:0.5;" x1="1063.69" x2="1248.3004" y1="686.4542" y2="686.4542"/></g><!--class SurveySetting--><g class="entity" data-qualified-name="Survey Aggregate.SurveySetting" data-source-line="28" id="ent0006"><rect fill="#F1F1F1" height="188.5273" rx="2.5" ry="2.5" style="stroke:#181818;stroke-width:0.5;" width="373.2793" x="22.36" y="107.8"/><ellipse cx="155.0934" cy="128.1105" fill="#ADD1B2" rx="11" ry="11" style="stroke:#181818;stroke-width:1;"/><path d="M157.5665,134.2536 Q156.9855,134.5524 156.3463,134.7019 Q155.7072,134.8513 155.0016,134.8513 Q152.4948,134.8513 151.1749,133.1994 Q149.8551,131.5476 149.8551,128.4265 Q149.8551,125.2971 151.1749,123.6452 Q152.4948,121.9934 155.0016,121.9934 Q155.7072,121.9934 156.3546,122.1428 Q157.0021,122.2922 157.5665,122.591 L157.5665,125.3137 Q156.9357,124.7326 156.3422,124.4628 Q155.7487,124.1931 155.1178,124.1931 Q153.7731,124.1931 153.0883,125.2597 Q152.4035,126.3264 152.4035,128.4265 Q152.4035,130.5183 153.0883,131.5849 Q153.7731,132.6516 155.1178,132.6516 Q155.7487,132.6516 156.3422,132.3818 Q156.9357,132.112 157.5665,131.531 Z " fill="#000000"/><text fill="#000000" font-family="sans-serif" font-size="12" font-style="italic" lengthAdjust="spacing" textLength="103.3125" x="173.5934" y="124.4016">&#171;Aggregate Root&#187;</text><text fill="#000000" font-family="sans-serif" font-size="14" lengthAdjust="spacing" textLength="91.5947" x="179.4523" y="140.468">SurveySetting</text><line style="stroke:#181818;stroke-width:0.5;" x1="23.36" x2="394.6393" y1="148.4211" y2="148.4211"/><g data-visibility-modifier="PUBLIC_FIELD"><ellipse cx="33.36" cy="162.1652" fill="none" rx="3" ry="3" style="stroke:#038048;stroke-width:1;"/></g><text fill="#000000" font-family="sans-serif" font-size="14" lengthAdjust="spacing" textLength="55.6377" x="42.36" y="165.9563">id: UUID</text><g data-visibility-modifier="PUBLIC_FIELD"><ellipse cx="33.36" cy="178.6535" fill="none" rx="3" ry="3" style="stroke:#038048;stroke-width:1;"/></g><text fill="#000000" font-family="sans-serif" font-size="14" lengthAdjust="spacing" textLength="89.4619" x="42.36" y="182.4445">teamId: UUID</text><g data-visibility-modifier="PUBLIC_FIELD"><ellipse cx="33.36" cy="195.1418" fill="none" rx="3" ry="3" style="stroke:#038048;stroke-width:1;"/></g><text fill="#000000" font-family="sans-serif" font-size="14" lengthAdjust="spacing" textLength="162.8867" x="42.36" y="198.9328">surveyTemplateId: UUID</text><g data-visibility-modifier="PUBLIC_FIELD"><ellipse cx="33.36" cy="211.6301" fill="none" rx="3" ry="3" style="stroke:#038048;stroke-width:1;"/></g><text fill="#000000" font-family="sans-serif" font-size="14" lengthAdjust="spacing" textLength="94.5615" x="42.36" y="215.4211">setterId: UUID</text><g data-visibility-modifier="PUBLIC_FIELD"><ellipse cx="33.36" cy="228.1184" fill="none" rx="3" ry="3" style="stroke:#038048;stroke-width:1;"/></g><text fill="#000000" font-family="sans-serif" font-size="14" lengthAdjust="spacing" textLength="347.2793" x="42.36" y="231.9094">recurringIntervalDays: SurveyRecurringIntervalDays</text><g data-visibility-modifier="PUBLIC_FIELD"><ellipse cx="33.36" cy="244.6066" fill="none" rx="3" ry="3" style="stroke:#038048;stroke-width:1;"/></g><text fill="#000000" font-family="sans-serif" font-size="14" lengthAdjust="spacing" textLength="139.0566" x="42.36" y="248.3977">createdAt: DateTime</text><line style="stroke:#181818;stroke-width:1;" x1="23.36" x2="394.6393" y1="255.3508" y2="255.3508"/><g data-visibility-modifier="PUBLIC_METHOD"><ellipse cx="33.36" cy="269.0949" fill="#84BE84" rx="3" ry="3" style="stroke:#038048;stroke-width:1;"/></g><text fill="#000000" font-family="sans-serif" font-size="14" lengthAdjust="spacing" textLength="251.8906" x="42.36" y="272.8859">addDeliveryTime(deliveryTime: Time)</text><g data-visibility-modifier="PUBLIC_METHOD"><ellipse cx="33.36" cy="285.5832" fill="#84BE84" rx="3" ry="3" style="stroke:#038048;stroke-width:1;"/></g><text fill="#000000" font-family="sans-serif" font-size="14" lengthAdjust="spacing" textLength="284.1494" x="42.36" y="289.3742">changeTemplate(surveyTemplateId: UUID)</text></g><!--class SurveyRecurringIntervalDays--><g class="entity" data-qualified-name="Survey Aggregate.SurveyRecurringIntervalDays" data-source-line="40" id="ent0007"><rect fill="#F1F1F1" height="163.418" rx="2.5" ry="2.5" style="stroke:#181818;stroke-width:0.5;" width="224.9307" x="430.53" y="120.35"/><ellipse cx="445.53" cy="136.35" fill="#EB937F" rx="11" ry="11" style="stroke:#181818;stroke-width:1;"/><path d="M449.1443,142.85 L441.4245,142.85 L441.4245,130.4569 L449.1443,130.4569 L449.1443,132.6151 L443.8733,132.6151 L443.8733,135.288 L448.6462,135.288 L448.6462,137.4462 L443.8733,137.4462 L443.8733,140.6918 L449.1443,140.6918 Z " fill="#000000"/><text fill="#000000" font-family="sans-serif" font-size="14" lengthAdjust="spacing" textLength="192.9307" x="459.53" y="141.641">SurveyRecurringIntervalDays</text><line style="stroke:#181818;stroke-width:0.5;" x1="431.53" x2="654.4607" y1="152.35" y2="152.35"/><text fill="#000000" font-family="sans-serif" font-size="14" lengthAdjust="spacing" textLength="8.8525" x="436.53" y="169.8852">1</text><text fill="#000000" font-family="sans-serif" font-size="14" lengthAdjust="spacing" textLength="8.8525" x="436.53" y="186.3734">7</text><text fill="#000000" font-family="sans-serif" font-size="14" lengthAdjust="spacing" textLength="17.7051" x="436.53" y="202.8617">14</text><text fill="#000000" font-family="sans-serif" font-size="14" lengthAdjust="spacing" textLength="17.7051" x="436.53" y="219.35">30</text><text fill="#000000" font-family="sans-serif" font-size="14" lengthAdjust="spacing" textLength="17.7051" x="436.53" y="235.8383">90</text><text fill="#000000" font-family="sans-serif" font-size="14" lengthAdjust="spacing" textLength="26.5576" x="436.53" y="252.3266">180</text><text fill="#000000" font-family="sans-serif" font-size="14" lengthAdjust="spacing" textLength="26.5576" x="436.53" y="268.8148">365</text><line style="stroke:#181818;stroke-width:0.5;" x1="431.53" x2="654.4607" y1="275.768" y2="275.768"/></g><!--class SurveySettingTime--><g class="entity" data-qualified-name="Survey Aggregate.SurveySettingTime" data-source-line="50" id="ent0008"><rect fill="#F1F1F1" height="106.0859" rx="2.5" ry="2.5" style="stroke:#181818;stroke-width:0.5;" width="172.8154" x="122.59" y="381.06"/><ellipse cx="144.543" cy="401.3705" fill="#ADD1B2" rx="11" ry="11" style="stroke:#181818;stroke-width:1;"/><path d="M147.0162,407.5136 Q146.4351,407.8124 145.796,407.9619 Q145.1568,408.1113 144.4512,408.1113 Q141.9444,408.1113 140.6246,406.4594 Q139.3047,404.8076 139.3047,401.6865 Q139.3047,398.5571 140.6246,396.9052 Q141.9444,395.2534 144.4512,395.2534 Q145.1568,395.2534 145.8043,395.4028 Q146.4517,395.5522 147.0162,395.851 L147.0162,398.5737 Q146.3853,397.9926 145.7918,397.7228 Q145.1983,397.4531 144.5674,397.4531 Q143.2227,397.4531 142.5379,398.5197 Q141.8531,399.5864 141.8531,401.6865 Q141.8531,403.7783 142.5379,404.8449 Q143.2227,405.9116 144.5674,405.9116 Q145.1983,405.9116 145.7918,405.6418 Q146.3853,405.372 147.0162,404.791 Z " fill="#000000"/><text fill="#000000" font-family="sans-serif" font-size="12" font-style="italic" lengthAdjust="spacing" textLength="45.2402" x="200.1502" y="397.6616">&#171;Entity&#187;</text><text fill="#000000" font-family="sans-serif" font-size="14" lengthAdjust="spacing" textLength="125.3643" x="160.0881" y="413.728">SurveySettingTime</text><line style="stroke:#181818;stroke-width:0.5;" x1="123.59" x2="294.4054" y1="421.6811" y2="421.6811"/><g data-visibility-modifier="PUBLIC_FIELD"><ellipse cx="133.59" cy="435.4252" fill="none" rx="3" ry="3" style="stroke:#038048;stroke-width:1;"/></g><text fill="#000000" font-family="sans-serif" font-size="14" lengthAdjust="spacing" textLength="55.6377" x="142.59" y="439.2163">id: UUID</text><g data-visibility-modifier="PUBLIC_FIELD"><ellipse cx="133.59" cy="451.9135" fill="none" rx="3" ry="3" style="stroke:#038048;stroke-width:1;"/></g><text fill="#000000" font-family="sans-serif" font-size="14" lengthAdjust="spacing" textLength="146.8154" x="142.59" y="455.7045">surveySettingId: UUID</text><g data-visibility-modifier="PUBLIC_FIELD"><ellipse cx="133.59" cy="468.4018" fill="none" rx="3" ry="3" style="stroke:#038048;stroke-width:1;"/></g><text fill="#000000" font-family="sans-serif" font-size="14" lengthAdjust="spacing" textLength="129.1924" x="142.59" y="472.1928">deliveryTime: Time</text><line style="stroke:#181818;stroke-width:0.5;" x1="123.59" x2="294.4054" y1="479.1459" y2="479.1459"/></g><!--class Survey--><g class="entity" data-qualified-name="Survey Aggregate.Survey" data-source-line="56" id="ent0009"><rect fill="#F1F1F1" height="188.5273" rx="2.5" ry="2.5" style="stroke:#181818;stroke-width:0.5;" width="640.7969" x="1422.6" y="107.8"/><ellipse cx="1689.0922" cy="128.1105" fill="#ADD1B2" rx="11" ry="11" style="stroke:#181818;stroke-width:1;"/><path d="M1691.5653,134.2536 Q1690.9843,134.5524 1690.3451,134.7019 Q1689.706,134.8513 1689.0004,134.8513 Q1686.4936,134.8513 1685.1737,133.1994 Q1683.8539,131.5476 1683.8539,128.4265 Q1683.8539,125.2971 1685.1737,123.6452 Q1686.4936,121.9934 1689.0004,121.9934 Q1689.706,121.9934 1690.3534,122.1428 Q1691.0009,122.2922 1691.5653,122.591 L1691.5653,125.3137 Q1690.9345,124.7326 1690.341,124.4628 Q1689.7475,124.1931 1689.1166,124.1931 Q1687.7719,124.1931 1687.0871,125.2597 Q1686.4022,126.3264 1686.4022,128.4265 Q1686.4022,130.5183 1687.0871,131.5849 Q1687.7719,132.6516 1689.1166,132.6516 Q1689.7475,132.6516 1690.341,132.3818 Q1690.9345,132.112 1691.5653,131.531 Z " fill="#000000"/><text fill="#000000" font-family="sans-serif" font-size="12" font-style="italic" lengthAdjust="spacing" textLength="103.3125" x="1707.5922" y="124.4016">&#171;Aggregate Root&#187;</text><text fill="#000000" font-family="sans-serif" font-size="14" lengthAdjust="spacing" textLength="44.3174" x="1737.0897" y="140.468">Survey</text><line style="stroke:#181818;stroke-width:0.5;" x1="1423.6" x2="2062.3969" y1="148.4211" y2="148.4211"/><g data-visibility-modifier="PUBLIC_FIELD"><ellipse cx="1433.6" cy="162.1652" fill="none" rx="3" ry="3" style="stroke:#038048;stroke-width:1;"/></g><text fill="#000000" font-family="sans-serif" font-size="14" lengthAdjust="spacing" textLength="55.6377" x="1442.6" y="165.9563">id: UUID</text><g data-visibility-modifier="PUBLIC_FIELD"><ellipse cx="1433.6" cy="178.6535" fill="none" rx="3" ry="3" style="stroke:#038048;stroke-width:1;"/></g><text fill="#000000" font-family="sans-serif" font-size="14" lengthAdjust="spacing" textLength="146.8154" x="1442.6" y="182.4445">surveySettingId: UUID</text><g data-visibility-modifier="PUBLIC_FIELD"><ellipse cx="1433.6" cy="195.1418" fill="none" rx="3" ry="3" style="stroke:#038048;stroke-width:1;"/></g><text fill="#000000" font-family="sans-serif" font-size="14" lengthAdjust="spacing" textLength="114.9531" x="1442.6" y="198.9328">recipientId: UUID</text><g data-visibility-modifier="PUBLIC_FIELD"><ellipse cx="1433.6" cy="211.6301" fill="none" rx="3" ry="3" style="stroke:#038048;stroke-width:1;"/></g><text fill="#000000" font-family="sans-serif" font-size="14" lengthAdjust="spacing" textLength="150.8691" x="1442.6" y="215.4211">deliveredAt: DateTime</text><g data-visibility-modifier="PUBLIC_FIELD"><ellipse cx="1433.6" cy="228.1184" fill="none" rx="3" ry="3" style="stroke:#038048;stroke-width:1;"/></g><text fill="#000000" font-family="sans-serif" font-size="14" lengthAdjust="spacing" textLength="185.2471" x="1442.6" y="231.9094">lastAnsweredAt: DateTime?</text><g data-visibility-modifier="PUBLIC_FIELD"><ellipse cx="1433.6" cy="244.6066" fill="none" rx="3" ry="3" style="stroke:#038048;stroke-width:1;"/></g><text fill="#000000" font-family="sans-serif" font-size="14" lengthAdjust="spacing" textLength="139.0566" x="1442.6" y="248.3977">createdAt: DateTime</text><line style="stroke:#181818;stroke-width:1;" x1="1423.6" x2="2062.3969" y1="255.3508" y2="255.3508"/><g data-visibility-modifier="PUBLIC_METHOD"><ellipse cx="1433.6" cy="269.0949" fill="#84BE84" rx="3" ry="3" style="stroke:#038048;stroke-width:1;"/></g><text fill="#000000" font-family="sans-serif" font-size="14" lengthAdjust="spacing" textLength="500.2744" x="1442.6" y="272.8859">answer(questionId: UUID, selectedOptionId: UUID, answeredAt: DateTime)</text><g data-visibility-modifier="PUBLIC_METHOD"><ellipse cx="1433.6" cy="285.5832" fill="#84BE84" rx="3" ry="3" style="stroke:#038048;stroke-width:1;"/></g><text fill="#000000" font-family="sans-serif" font-size="14" lengthAdjust="spacing" textLength="614.7969" x="1442.6" y="289.3742">getMemberConditionHistory(recipientId: UUID, windowDays: Int): MemberConditionHistory</text></g><!--class SurveyAnswer--><g class="entity" data-qualified-name="Survey Aggregate.SurveyAnswer" data-source-line="68" id="ent0010"><rect fill="#F1F1F1" height="122.5742" rx="2.5" ry="2.5" style="stroke:#181818;stroke-width:0.5;" width="186.6104" x="1649.69" y="372.81"/><ellipse cx="1691.9119" cy="393.1205" fill="#ADD1B2" rx="11" ry="11" style="stroke:#181818;stroke-width:1;"/><path d="M1694.3851,399.2636 Q1693.804,399.5624 1693.1649,399.7119 Q1692.5257,399.8613 1691.8201,399.8613 Q1689.3133,399.8613 1687.9935,398.2094 Q1686.6736,396.5576 1686.6736,393.4365 Q1686.6736,390.3071 1687.9935,388.6552 Q1689.3133,387.0034 1691.8201,387.0034 Q1692.5257,387.0034 1693.1732,387.1528 Q1693.8206,387.3022 1694.3851,387.601 L1694.3851,390.3237 Q1693.7542,389.7426 1693.1607,389.4728 Q1692.5672,389.2031 1691.9363,389.2031 Q1690.5916,389.2031 1689.9068,390.2697 Q1689.222,391.3364 1689.222,393.4365 Q1689.222,395.5283 1689.9068,396.5949 Q1690.5916,397.6616 1691.9363,397.6616 Q1692.5672,397.6616 1693.1607,397.3918 Q1693.7542,397.122 1694.3851,396.541 Z " fill="#000000"/><text fill="#000000" font-family="sans-serif" font-size="12" font-style="italic" lengthAdjust="spacing" textLength="45.2402" x="1736.3997" y="389.4116">&#171;Entity&#187;</text><text fill="#000000" font-family="sans-serif" font-size="14" lengthAdjust="spacing" textLength="94.1172" x="1711.9612" y="405.478">SurveyAnswer</text><line style="stroke:#181818;stroke-width:0.5;" x1="1650.69" x2="1835.3004" y1="413.4311" y2="413.4311"/><g data-visibility-modifier="PUBLIC_FIELD"><ellipse cx="1660.69" cy="427.1752" fill="none" rx="3" ry="3" style="stroke:#038048;stroke-width:1;"/></g><text fill="#000000" font-family="sans-serif" font-size="14" lengthAdjust="spacing" textLength="99.5381" x="1669.69" y="430.9663">surveyId: UUID</text><g data-visibility-modifier="PUBLIC_FIELD"><ellipse cx="1660.69" cy="443.6635" fill="none" rx="3" ry="3" style="stroke:#038048;stroke-width:1;"/></g><text fill="#000000" font-family="sans-serif" font-size="14" lengthAdjust="spacing" textLength="160.6104" x="1669.69" y="447.4545">surveyQuestionId: UUID</text><g data-visibility-modifier="PUBLIC_FIELD"><ellipse cx="1660.69" cy="460.1518" fill="none" rx="3" ry="3" style="stroke:#038048;stroke-width:1;"/></g><text fill="#000000" font-family="sans-serif" font-size="14" lengthAdjust="spacing" textLength="157.6846" x="1669.69" y="463.9428">selectedOptionId: UUID</text><g data-visibility-modifier="PUBLIC_FIELD"><ellipse cx="1660.69" cy="476.6401" fill="none" rx="3" ry="3" style="stroke:#038048;stroke-width:1;"/></g><text fill="#000000" font-family="sans-serif" font-size="14" lengthAdjust="spacing" textLength="153.2617" x="1669.69" y="480.4311">answeredAt: DateTime</text><line style="stroke:#181818;stroke-width:0.5;" x1="1650.69" x2="1835.3004" y1="487.3842" y2="487.3842"/></g><!--class TeamConditionSummary--><g class="entity" data-qualified-name="Survey Aggregate.TeamConditionSummary" data-source-line="75" id="ent0011"><rect fill="#F1F1F1" height="122.5742" rx="2.5" ry="2.5" style="stroke:#181818;stroke-width:0.5;" width="199.002" x="690.5" y="140.77"/><ellipse cx="705.5" cy="161.0805" fill="#ADD1B2" rx="11" ry="11" style="stroke:#181818;stroke-width:1;"/><path d="M707.9731,167.2236 Q707.3921,167.5224 706.7529,167.6719 Q706.1138,167.8213 705.4082,167.8213 Q702.9014,167.8213 701.5815,166.1694 Q700.2617,164.5176 700.2617,161.3965 Q700.2617,158.2671 701.5815,156.6152 Q702.9014,154.9634 705.4082,154.9634 Q706.1138,154.9634 706.7612,155.1128 Q707.4087,155.2622 707.9731,155.561 L707.9731,158.2837 Q707.3423,157.7026 706.7488,157.4328 Q706.1553,157.1631 705.5244,157.1631 Q704.1797,157.1631 703.4949,158.2297 Q702.8101,159.2964 702.8101,161.3965 Q702.8101,163.4883 703.4949,164.5549 Q704.1797,165.6216 705.5244,165.6216 Q706.1553,165.6216 706.7488,165.3518 Q707.3423,165.082 707.9731,164.501 Z " fill="#000000"/><text fill="#000000" font-family="sans-serif" font-size="12" font-style="italic" lengthAdjust="spacing" textLength="86.291" x="759.8555" y="157.3716">&#171;Value Object&#187;</text><text fill="#000000" font-family="sans-serif" font-size="14" lengthAdjust="spacing" textLength="167.002" x="719.5" y="173.438">TeamConditionSummary</text><line style="stroke:#181818;stroke-width:0.5;" x1="691.5" x2="888.502" y1="181.3911" y2="181.3911"/><g data-visibility-modifier="PUBLIC_FIELD"><ellipse cx="701.5" cy="195.1352" fill="none" rx="3" ry="3" style="stroke:#038048;stroke-width:1;"/></g><text fill="#000000" font-family="sans-serif" font-size="14" lengthAdjust="spacing" textLength="89.4619" x="710.5" y="198.9263">teamId: UUID</text><g data-visibility-modifier="PUBLIC_FIELD"><ellipse cx="701.5" cy="211.6235" fill="none" rx="3" ry="3" style="stroke:#038048;stroke-width:1;"/></g><text fill="#000000" font-family="sans-serif" font-size="14" lengthAdjust="spacing" textLength="111.207" x="710.5" y="215.4145">windowDays: Int</text><g data-visibility-modifier="PUBLIC_FIELD"><ellipse cx="701.5" cy="228.1118" fill="none" rx="3" ry="3" style="stroke:#038048;stroke-width:1;"/></g><text fill="#000000" font-family="sans-serif" font-size="14" lengthAdjust="spacing" textLength="152.8174" x="710.5" y="231.9028">averageScore: Decimal</text><g data-visibility-modifier="PUBLIC_FIELD"><ellipse cx="701.5" cy="244.6001" fill="none" rx="3" ry="3" style="stroke:#038048;stroke-width:1;"/></g><text fill="#000000" font-family="sans-serif" font-size="14" lengthAdjust="spacing" textLength="154.5332" x="710.5" y="248.3911">responseRate: Decimal</text><line style="stroke:#181818;stroke-width:0.5;" x1="691.5" x2="888.502" y1="255.3442" y2="255.3442"/></g><!--class MemberConditionHistory--><g class="entity" data-qualified-name="Survey Aggregate.MemberConditionHistory" data-source-line="82" id="ent0012"><rect fill="#F1F1F1" height="106.0859" rx="2.5" ry="2.5" style="stroke:#181818;stroke-width:0.5;" width="224.0371" x="430.98" y="381.06"/><ellipse cx="455.8862" cy="401.3705" fill="#ADD1B2" rx="11" ry="11" style="stroke:#181818;stroke-width:1;"/><path d="M458.3593,407.5136 Q457.7782,407.8124 457.1391,407.9619 Q456.4999,408.1113 455.7944,408.1113 Q453.2875,408.1113 451.9677,406.4594 Q450.6479,404.8076 450.6479,401.6865 Q450.6479,398.5571 451.9677,396.9052 Q453.2875,395.2534 455.7944,395.2534 Q456.4999,395.2534 457.1474,395.4028 Q457.7948,395.5522 458.3593,395.851 L458.3593,398.5737 Q457.7284,397.9926 457.1349,397.7228 Q456.5414,397.4531 455.9106,397.4531 Q454.5658,397.4531 453.881,398.5197 Q453.1962,399.5864 453.1962,401.6865 Q453.1962,403.7783 453.881,404.8449 Q454.5658,405.9116 455.9106,405.9116 Q456.5414,405.9116 457.1349,405.6418 Q457.7284,405.372 458.3593,404.791 Z " fill="#000000"/><text fill="#000000" font-family="sans-serif" font-size="12" font-style="italic" lengthAdjust="spacing" textLength="86.291" x="513.9537" y="397.6616">&#171;Value Object&#187;</text><text fill="#000000" font-family="sans-serif" font-size="14" lengthAdjust="spacing" textLength="170.0234" x="472.0875" y="413.728">MemberConditionHistory</text><line style="stroke:#181818;stroke-width:0.5;" x1="431.98" x2="654.0171" y1="421.6811" y2="421.6811"/><g data-visibility-modifier="PUBLIC_FIELD"><ellipse cx="441.98" cy="435.4252" fill="none" rx="3" ry="3" style="stroke:#038048;stroke-width:1;"/></g><text fill="#000000" font-family="sans-serif" font-size="14" lengthAdjust="spacing" textLength="144.7305" x="450.98" y="439.2163">teamMemberId: UUID</text><g data-visibility-modifier="PUBLIC_FIELD"><ellipse cx="441.98" cy="451.9135" fill="none" rx="3" ry="3" style="stroke:#038048;stroke-width:1;"/></g><text fill="#000000" font-family="sans-serif" font-size="14" lengthAdjust="spacing" textLength="111.207" x="450.98" y="455.7045">windowDays: Int</text><g data-visibility-modifier="PUBLIC_FIELD"><ellipse cx="441.98" cy="468.4018" fill="none" rx="3" ry="3" style="stroke:#038048;stroke-width:1;"/></g><text fill="#000000" font-family="sans-serif" font-size="14" lengthAdjust="spacing" textLength="198.0371" x="450.98" y="472.1928">points: ConditionScorePoint[]</text><line style="stroke:#181818;stroke-width:0.5;" x1="431.98" x2="654.0171" y1="479.1459" y2="479.1459"/></g><!--class ConditionScorePoint--><g class="entity" data-qualified-name="Survey Aggregate.ConditionScorePoint" data-source-line="88" id="ent0013"><rect fill="#F1F1F1" height="106.0859" rx="2.5" ry="2.5" style="stroke:#181818;stroke-width:0.5;" width="179.2617" x="690.37" y="381.06"/><ellipse cx="709.739" cy="401.3705" fill="#ADD1B2" rx="11" ry="11" style="stroke:#181818;stroke-width:1;"/><path d="M712.2122,407.5136 Q711.6311,407.8124 710.992,407.9619 Q710.3528,408.1113 709.6472,408.1113 Q707.1404,408.1113 705.8206,406.4594 Q704.5008,404.8076 704.5008,401.6865 Q704.5008,398.5571 705.8206,396.9052 Q707.1404,395.2534 709.6472,395.2534 Q710.3528,395.2534 711.0003,395.4028 Q711.6477,395.5522 712.2122,395.851 L712.2122,398.5737 Q711.5813,397.9926 710.9878,397.7228 Q710.3943,397.4531 709.7635,397.4531 Q708.4187,397.4531 707.7339,398.5197 Q707.0491,399.5864 707.0491,401.6865 Q707.0491,403.7783 707.7339,404.8449 Q708.4187,405.9116 709.7635,405.9116 Q710.3943,405.9116 710.9878,405.6418 Q711.5813,405.372 712.2122,404.791 Z " fill="#000000"/><text fill="#000000" font-family="sans-serif" font-size="12" font-style="italic" lengthAdjust="spacing" textLength="86.291" x="750.3408" y="397.6616">&#171;Value Object&#187;</text><text fill="#000000" font-family="sans-serif" font-size="14" lengthAdjust="spacing" textLength="137.5527" x="724.7099" y="413.728">ConditionScorePoint</text><line style="stroke:#181818;stroke-width:0.5;" x1="691.37" x2="868.6317" y1="421.6811" y2="421.6811"/><g data-visibility-modifier="PUBLIC_FIELD"><ellipse cx="701.37" cy="435.4252" fill="none" rx="3" ry="3" style="stroke:#038048;stroke-width:1;"/></g><text fill="#000000" font-family="sans-serif" font-size="14" lengthAdjust="spacing" textLength="99.5381" x="710.37" y="439.2163">surveyId: UUID</text><g data-visibility-modifier="PUBLIC_FIELD"><ellipse cx="701.37" cy="451.9135" fill="none" rx="3" ry="3" style="stroke:#038048;stroke-width:1;"/></g><text fill="#000000" font-family="sans-serif" font-size="14" lengthAdjust="spacing" textLength="153.2617" x="710.37" y="455.7045">answeredAt: DateTime</text><g data-visibility-modifier="PUBLIC_FIELD"><ellipse cx="701.37" cy="468.4018" fill="none" rx="3" ry="3" style="stroke:#038048;stroke-width:1;"/></g><text fill="#000000" font-family="sans-serif" font-size="14" lengthAdjust="spacing" textLength="99.6475" x="710.37" y="472.1928">score: Decimal</text><line style="stroke:#181818;stroke-width:0.5;" x1="691.37" x2="868.6317" y1="479.1459" y2="479.1459"/></g><g class="entity" data-qualified-name="GMN18" data-source-line="101" id="ent0019"><path d="M2098.58,143.47 L2098.58,260.6438 L2555.4228,260.6438 L2555.4228,153.47 L2545.4228,143.47 L2098.58,143.47" fill="#FEFFDD" style="stroke:#181818;stroke-width:0.5;"/><path d="M2545.4228,143.47 L2545.4228,153.47 L2555.4228,153.47 L2545.4228,143.47" fill="#FEFFDD" style="stroke:#181818;stroke-width:1;"/><text fill="#000000" font-family="sans-serif" font-size="13" lengthAdjust="spacing" textLength="91.0063" x="2104.58" y="161.0384">Domain Rules:</text><text fill="#000000" font-family="sans-serif" font-size="13" lengthAdjust="spacing" textLength="276.7388" x="2104.58" y="176.3489">- Only active team members receive survey.</text><text fill="#000000" font-family="sans-serif" font-size="13" lengthAdjust="spacing" textLength="234.6157" x="2104.58" y="191.6595">- One active SurveySetting per Team.</text><text fill="#000000" font-family="sans-serif" font-size="13" lengthAdjust="spacing" textLength="354.0088" x="2104.58" y="206.97">- `setterId` must be a TeamMember of the same Team.</text><text fill="#000000" font-family="sans-serif" font-size="13" lengthAdjust="spacing" textLength="325.1206" x="2104.58" y="222.2805">- Delivery times are interpreted in Team time zone.</text><text fill="#000000" font-family="sans-serif" font-size="13" lengthAdjust="spacing" textLength="414.6035" x="2104.58" y="237.5911">- Condition windows support 7/14/30/90 days (default 14 days).</text><text fill="#000000" font-family="sans-serif" font-size="13" lengthAdjust="spacing" textLength="435.8428" x="2104.58" y="252.9016">- Member condition history returns score timeline (not raw answers).</text></g><!--reverse link SurveyTemplate to SurveyQuestion--><g class="link" data-entity-1="ent0003" data-entity-2="ent0004" data-link-type="composition" data-source-line="94" id="lnk14"><path codeLine="94" d="M1156,284.08 C1156,310.55 1156,328.91 1156,356.08" fill="none" id="SurveyTemplate-backto-SurveyQuestion" style="stroke:#181818;stroke-width:1;"/><polygon fill="#181818" points="1156,272.08,1152,278.08,1156,284.08,1160,278.08,1156,272.08" style="stroke:#181818;stroke-width:1;"/><text fill="#000000" font-family="sans-serif" font-size="13" lengthAdjust="spacing" textLength="8.2202" x="1147.6296" y="292.0517">1</text><text fill="#000000" font-family="sans-serif" font-size="13" lengthAdjust="spacing" textLength="22.7119" x="1132.9852" y="345.5125">1..*</text></g><!--reverse link SurveyQuestion to SurveyQuestionOption--><g class="link" data-entity-1="ent0004" data-entity-2="ent0005" data-link-type="composition" data-source-line="95" id="lnk15"><path codeLine="95" d="M1156,524.14 C1156,543.89 1156,552.86 1156,571.65" fill="none" id="SurveyQuestion-backto-SurveyQuestionOption" style="stroke:#181818;stroke-width:1;"/><polygon fill="#181818" points="1156,512.14,1152,518.14,1156,524.14,1160,518.14,1156,512.14" style="stroke:#181818;stroke-width:1;"/><text fill="#000000" font-family="sans-serif" font-size="13" lengthAdjust="spacing" textLength="8.2202" x="1147.6533" y="532.341">1</text><text fill="#000000" font-family="sans-serif" font-size="13" lengthAdjust="spacing" textLength="22.7119" x="1132.7698" y="561.2562">1..*</text></g><!--reverse link SurveySetting to SurveySettingTime--><g class="link" data-entity-1="ent0006" data-entity-2="ent0008" data-link-type="composition" data-source-line="96" id="lnk16"><path codeLine="96" d="M209,308.63 C209,337.36 209,355.95 209,380.86" fill="none" id="SurveySetting-backto-SurveySettingTime" style="stroke:#181818;stroke-width:1;"/><polygon fill="#181818" points="209,296.63,205,302.63,209,308.63,213,302.63,209,296.63" style="stroke:#181818;stroke-width:1;"/><text fill="#000000" font-family="sans-serif" font-size="13" lengthAdjust="spacing" textLength="8.2202" x="200.7022" y="317.0247">1</text><text fill="#000000" font-family="sans-serif" font-size="13" lengthAdjust="spacing" textLength="22.7119" x="185.57" y="370.2869">1..*</text></g><!--reverse link Survey to SurveyAnswer--><g class="link" data-entity-1="ent0009" data-entity-2="ent0010" data-link-type="composition" data-source-line="97" id="lnk17"><path codeLine="97" d="M1743,308.63 C1743,334.25 1743,349.35 1743,372.59" fill="none" id="Survey-backto-SurveyAnswer" style="stroke:#181818;stroke-width:1;"/><polygon fill="#181818" points="1743,296.63,1739,302.63,1743,308.63,1747,302.63,1743,296.63" style="stroke:#181818;stroke-width:1;"/><text fill="#000000" font-family="sans-serif" font-size="13" lengthAdjust="spacing" textLength="8.2202" x="1734.7023" y="317.0247">1</text><text fill="#000000" font-family="sans-serif" font-size="13" lengthAdjust="spacing" textLength="22.7119" x="1719.7698" y="362.1974">0..*</text></g><!--link SurveySetting to GMN18--><g class="link" data-entity-1="ent0006" data-entity-2="ent0019" data-link-type="association" data-source-line="101" id="lnk20"><path d="M305.98,107.38 C342.11,78.26 385.38,49.92 430.5,34.8 C516.41,6 1974.45,9.66 2061.5,34.8 C2134.65,55.92 2207.05,103.82 2257.73,142.98" fill="none" id="SurveySetting-GMN18" style="stroke:#181818;stroke-width:1;stroke-dasharray:7,7;"/></g><?plantuml-src bLPRRzCm57xlhpZgKpVQhTM0iMeQcYWIVK23TkC58SrDpb93OWVRMIc8_yvndAHDwaQX3t5ohj-vkYaBVh08eR_Cr3DkuJQA54RCO1_-z7e0GSoq1iUynoIDYGNNrvKOBAGqDpSa3FHxmSCfF3pCP-vBi0Idi3IAYyXHGjI1ugdXKfICjuuJA2HpuQsPmenUxdc2EMCqSdmMXfypr5PpyBDuAKqC0NyHCi5gTeUGIiqTQIxC2TdvsmofD4aXlHU6c-snK7Gj0_CQhmd7KNsG7AS6gotwet3lqly0NIhLGSTiXN4TSHFNWVib6aFIdUjla2NppcdKP1rLdQOmo9H5I8XGFRDunhPwMi1P-9YTksc6CNz6jRMyGRZtCGNxF2aChPc8i0GyyEElMWj5bhI1Az8qoP-NxlrbVboCy-FA7PCtxhnu_Qgb3XPcnnueDEh9FGpQvwnpjLiyKHbvob4OBm1FdQWzjRaLUjFaTjqMkMgrA4gtGz0OOq2QRe9sTERnLRH0XEOZ9YjKxwG8ym7vmBMHQZiu26i86ov2kN5TQfVE5FowlaoxU3qLTPcTTvvjVv3xcMbRDVSqjHNSPPOaJDac-CBY3E5kzPrCxw0TZdWZ0uLNAZDTCyj0Acgr6UKjON7P6pgLGkE2mEopzX3vKzYAoQbqG9PABWmHTX5RZ9yizUktEWoFo54Clf8TIRsLRkObzzguTVkJFfoEHdIUdPts6pT29LxTQAtYhZCgfNAnUtNsjasbi9CSxqcw1kuHU249iEBHse1ygjlfpMJ2k8155gEUzaPm9-8jiC3GAW1REaZosccWyK9BTBayoqMnbAm3JsbkRDzQeSVo8dc49DC6LgIJCrrFM41cJLRfpqcbKru6O2XA3KmXSBktKuKqH_IUI-PS-2q5Mfsg7OgXrmGqJQKoS7a-UNb-CJw_6aDejpvTBqyiYmqj-vnmOjKBD45bPLsqDRdCb21hjYbobp6dk0UKKr1iKwmgQmH523RJlNy0?></g></svg>