<?plantuml 1.2026.2?><svg xmlns="http://www.w3.org/2000/svg" xmlns:xlink="http://www.w3.org/1999/xlink" contentStyleType="text/css" data-diagram-type="CLASS" height="581px" preserveAspectRatio="none" style="width:1427px;height:581px;background:#FFFFFF;" version="1.1" viewBox="0 0 1427 581" width="1427px" zoomAndPan="magnify"><defs/><g><!--cluster TriggerRule Aggregate--><g class="cluster" data-qualified-name="TriggerRule Aggregate" data-source-line="1" id="ent0002"><path d="M8.5,73.8 L190.0439,73.8 A3.75,3.75 0 0 1 192.5439,76.3 L199.5439,96.0969 L862.5,96.0969 A2.5,2.5 0 0 1 865,98.5969 L865,571.88 A2.5,2.5 0 0 1 862.5,574.38 L8.5,574.38 A2.5,2.5 0 0 1 6,571.88 L6,76.3 A2.5,2.5 0 0 1 8.5,73.8" fill="none" style="stroke:#000000;stroke-width:1.5;"/><line style="stroke:#000000;stroke-width:1.5;" x1="6" x2="199.5439" y1="96.0969" y2="96.0969"/><text fill="#000000" font-family="sans-serif" font-size="14" font-weight="bold" lengthAdjust="spacing" textLength="180.5439" x="10" y="88.7951">TriggerRule Aggregate</text></g><!--class TriggerDefinition--><g class="entity" data-qualified-name="TriggerRule Aggregate.TriggerDefinition" data-source-line="3" id="ent0003"><rect fill="#F1F1F1" height="235.5313" rx="2.5" ry="2.5" style="stroke:#181818;stroke-width:0.5;" width="393.0078" x="22.5" y="108.8"/><ellipse cx="155.688" cy="128.9328" fill="#ADD1B2" rx="11" ry="11" style="stroke:#181818;stroke-width:1;"/><path d="M158.6567,134.5734 Q158.0786,134.8703 157.438,135.0109 Q156.7974,135.1672 156.0942,135.1672 Q153.5942,135.1672 152.2661,133.5266 Q150.9536,131.8703 150.9536,128.7453 Q150.9536,125.6203 152.2661,123.9641 Q153.5942,122.3078 156.0942,122.3078 Q156.7974,122.3078 157.438,122.4641 Q158.0942,122.6203 158.6567,122.9172 L158.6567,125.6359 Q158.0317,125.0578 157.438,124.7922 Q156.8442,124.5109 156.2192,124.5109 Q154.8755,124.5109 154.188,125.5891 Q153.5005,126.6516 153.5005,128.7453 Q153.5005,130.8391 154.188,131.9172 Q154.8755,132.9797 156.2192,132.9797 Q156.8442,132.9797 157.438,132.7141 Q158.0317,132.4328 158.6567,131.8547 L158.6567,134.5734 Z " fill="#000000"/><text fill="#000000" font-family="sans-serif" font-size="12" font-style="italic" lengthAdjust="spacing" textLength="109.1719" x="180.668" y="124.9387">&#171;Aggregate Root&#187;</text><text fill="#000000" font-family="sans-serif" font-size="14" lengthAdjust="spacing" textLength="118.1318" x="176.188" y="140.7639">TriggerDefinition</text><line style="stroke:#181818;stroke-width:0.5;" x1="23.5" x2="414.5078" y1="149.0656" y2="149.0656"/><g data-visibility-modifier="PUBLIC_FIELD"><ellipse cx="33.5" cy="162.7141" fill="none" rx="3" ry="3" style="stroke:#038048;stroke-width:1;"/></g><text fill="#000000" font-family="sans-serif" font-size="14" lengthAdjust="spacing" textLength="57.3467" x="42.5" y="166.0607">id: UUID</text><g data-visibility-modifier="PUBLIC_FIELD"><ellipse cx="33.5" cy="179.0109" fill="none" rx="3" ry="3" style="stroke:#038048;stroke-width:1;"/></g><text fill="#000000" font-family="sans-serif" font-size="14" lengthAdjust="spacing" textLength="90.6514" x="42.5" y="182.3576">name: String</text><g data-visibility-modifier="PUBLIC_FIELD"><ellipse cx="33.5" cy="195.3078" fill="none" rx="3" ry="3" style="stroke:#038048;stroke-width:1;"/></g><text fill="#000000" font-family="sans-serif" font-size="14" lengthAdjust="spacing" textLength="216.8701" x="42.5" y="198.6545">targetType: TriggerTargetType</text><g data-visibility-modifier="PUBLIC_FIELD"><ellipse cx="33.5" cy="211.6047" fill="none" rx="3" ry="3" style="stroke:#038048;stroke-width:1;"/></g><text fill="#000000" font-family="sans-serif" font-size="14" lengthAdjust="spacing" textLength="259.7178" x="42.5" y="214.9514">conditionType: TriggerConditionType</text><g data-visibility-modifier="PUBLIC_FIELD"><ellipse cx="33.5" cy="227.9016" fill="none" rx="3" ry="3" style="stroke:#038048;stroke-width:1;"/></g><text fill="#000000" font-family="sans-serif" font-size="14" lengthAdjust="spacing" textLength="131.9199" x="42.5" y="231.2482">conditionValue: Int</text><g data-visibility-modifier="PUBLIC_FIELD"><ellipse cx="33.5" cy="244.1984" fill="none" rx="3" ry="3" style="stroke:#038048;stroke-width:1;"/></g><text fill="#000000" font-family="sans-serif" font-size="14" lengthAdjust="spacing" textLength="149.2217" x="42.5" y="247.5451">alertLevel: AlertLevel</text><g data-visibility-modifier="PUBLIC_FIELD"><ellipse cx="33.5" cy="260.4953" fill="none" rx="3" ry="3" style="stroke:#038048;stroke-width:1;"/></g><text fill="#000000" font-family="sans-serif" font-size="14" lengthAdjust="spacing" textLength="120.5928" x="42.5" y="263.842">isActive: Boolean</text><g data-visibility-modifier="PUBLIC_FIELD"><ellipse cx="33.5" cy="276.7922" fill="none" rx="3" ry="3" style="stroke:#038048;stroke-width:1;"/></g><text fill="#000000" font-family="sans-serif" font-size="14" lengthAdjust="spacing" textLength="146.0225" x="42.5" y="280.1389">createdAt: DateTime</text><line style="stroke:#181818;stroke-width:1;" x1="23.5" x2="414.5078" y1="287.4406" y2="287.4406"/><g data-visibility-modifier="PUBLIC_METHOD"><ellipse cx="33.5" cy="301.0891" fill="#84BE84" rx="3" ry="3" style="stroke:#038048;stroke-width:1;"/></g><text fill="#000000" font-family="sans-serif" font-size="14" lengthAdjust="spacing" textLength="67.5459" x="42.5" y="304.4357">activate()</text><g data-visibility-modifier="PUBLIC_METHOD"><ellipse cx="33.5" cy="317.3859" fill="#84BE84" rx="3" ry="3" style="stroke:#038048;stroke-width:1;"/></g><text fill="#000000" font-family="sans-serif" font-size="14" lengthAdjust="spacing" textLength="85.0459" x="42.5" y="320.7326">deactivate()</text><g data-visibility-modifier="PUBLIC_METHOD"><ellipse cx="33.5" cy="333.6828" fill="#84BE84" rx="3" ry="3" style="stroke:#038048;stroke-width:1;"/></g><text fill="#000000" font-family="sans-serif" font-size="14" lengthAdjust="spacing" textLength="367.0078" x="42.5" y="337.0295">evaluate(targetEntityId: UUID): TriggerExecutionLog</text></g><!--class TriggerConditionType--><g class="entity" data-qualified-name="TriggerRule Aggregate.TriggerConditionType" data-source-line="18" id="ent0004"><rect fill="#F1F1F1" height="145.7813" rx="2.5" ry="2.5" style="stroke:#181818;stroke-width:0.5;" width="200.7197" x="450.64" y="153.68"/><ellipse cx="473.3959" cy="169.68" fill="#EB937F" rx="11" ry="11" style="stroke:#181818;stroke-width:1;"/><path d="M477.5053,175.68 L469.7865,175.68 L469.7865,163.2894 L477.5053,163.2894 L477.5053,165.4456 L472.2397,165.4456 L472.2397,168.1175 L477.0053,168.1175 L477.0053,170.2738 L472.2397,170.2738 L472.2397,173.5238 L477.5053,173.5238 L477.5053,175.68 Z " fill="#000000"/><text fill="#000000" font-family="sans-serif" font-size="14" lengthAdjust="spacing" textLength="151.4844" x="489.1194" y="174.5267">TriggerConditionType</text><line style="stroke:#181818;stroke-width:0.5;" x1="451.64" x2="650.3597" y1="185.68" y2="185.68"/><text fill="#000000" font-family="sans-serif" font-size="14" lengthAdjust="spacing" textLength="147.458" x="456.64" y="202.6751">not_answered_within</text><text fill="#000000" font-family="sans-serif" font-size="14" lengthAdjust="spacing" textLength="159.4072" x="456.64" y="218.972">progress_gap_exceeds</text><text fill="#000000" font-family="sans-serif" font-size="14" lengthAdjust="spacing" textLength="178.4795" x="456.64" y="235.2689">workload_below_required</text><text fill="#000000" font-family="sans-serif" font-size="14" lengthAdjust="spacing" textLength="151.5459" x="456.64" y="251.5657">document_stale_days</text><text fill="#000000" font-family="sans-serif" font-size="14" lengthAdjust="spacing" textLength="188.7197" x="456.64" y="267.8626">assignee_missing_duration</text><text fill="#000000" font-family="sans-serif" font-size="14" lengthAdjust="spacing" textLength="183.0254" x="456.64" y="284.1595">absence_impact_detected</text><line style="stroke:#181818;stroke-width:0.5;" x1="451.64" x2="650.3597" y1="291.4613" y2="291.4613"/></g><!--class TriggerTargetType--><g class="entity" data-qualified-name="TriggerRule Aggregate.TriggerTargetType" data-source-line="27" id="ent0005"><rect fill="#F1F1F1" height="113.1875" rx="2.5" ry="2.5" style="stroke:#181818;stroke-width:0.5;" width="162.5527" x="686.72" y="169.97"/><ellipse cx="701.72" cy="185.97" fill="#EB937F" rx="11" ry="11" style="stroke:#181818;stroke-width:1;"/><path d="M705.8294,191.97 L698.1106,191.97 L698.1106,179.5794 L705.8294,179.5794 L705.8294,181.7356 L700.5638,181.7356 L700.5638,184.4075 L705.3294,184.4075 L705.3294,186.5637 L700.5638,186.5637 L700.5638,189.8137 L705.8294,189.8137 L705.8294,191.97 Z " fill="#000000"/><text fill="#000000" font-family="sans-serif" font-size="14" lengthAdjust="spacing" textLength="130.5527" x="715.72" y="190.8167">TriggerTargetType</text><line style="stroke:#181818;stroke-width:0.5;" x1="687.72" x2="848.2727" y1="201.97" y2="201.97"/><text fill="#000000" font-family="sans-serif" font-size="14" lengthAdjust="spacing" textLength="47.1064" x="692.72" y="218.9651">survey</text><text fill="#000000" font-family="sans-serif" font-size="14" lengthAdjust="spacing" textLength="35.9639" x="692.72" y="235.262">issue</text><text fill="#000000" font-family="sans-serif" font-size="14" lengthAdjust="spacing" textLength="48.8975" x="692.72" y="251.5589">project</text><text fill="#000000" font-family="sans-serif" font-size="14" lengthAdjust="spacing" textLength="102.4639" x="692.72" y="267.8557">team_member</text><line style="stroke:#181818;stroke-width:0.5;" x1="687.72" x2="848.2727" y1="275.1575" y2="275.1575"/></g><!--class AlertLevel--><g class="entity" data-qualified-name="TriggerRule Aggregate.AlertLevel" data-source-line="34" id="ent0006"><rect fill="#F1F1F1" height="80.5938" rx="2.5" ry="2.5" style="stroke:#181818;stroke-width:0.5;" width="102.5264" x="499.74" y="441.06"/><ellipse cx="514.74" cy="457.06" fill="#EB937F" rx="11" ry="11" style="stroke:#181818;stroke-width:1;"/><path d="M518.8494,463.06 L511.1306,463.06 L511.1306,450.6694 L518.8494,450.6694 L518.8494,452.8256 L513.5838,452.8256 L513.5838,455.4975 L518.3494,455.4975 L518.3494,457.6538 L513.5838,457.6538 L513.5838,460.9038 L518.8494,460.9038 L518.8494,463.06 Z " fill="#000000"/><text fill="#000000" font-family="sans-serif" font-size="14" lengthAdjust="spacing" textLength="70.5264" x="528.74" y="461.9067">AlertLevel</text><line style="stroke:#181818;stroke-width:0.5;" x1="500.74" x2="601.2664" y1="473.06" y2="473.06"/><text fill="#000000" font-family="sans-serif" font-size="14" lengthAdjust="spacing" textLength="23.2559" x="505.74" y="490.0551">red</text><text fill="#000000" font-family="sans-serif" font-size="14" lengthAdjust="spacing" textLength="44.6934" x="505.74" y="506.352">yellow</text><line style="stroke:#181818;stroke-width:0.5;" x1="500.74" x2="601.2664" y1="513.6538" y2="513.6538"/></g><!--class TriggerExecutionLog--><g class="entity" data-qualified-name="TriggerRule Aggregate.TriggerExecutionLog" data-source-line="39" id="ent0007"><rect fill="#F1F1F1" height="154.0469" rx="2.5" ry="2.5" style="stroke:#181818;stroke-width:0.5;" width="242.2686" x="97.87" y="404.33"/><ellipse cx="142.3925" cy="424.4628" fill="#ADD1B2" rx="11" ry="11" style="stroke:#181818;stroke-width:1;"/><path d="M145.3612,430.1034 Q144.7831,430.4003 144.1425,430.5409 Q143.5018,430.6972 142.7987,430.6972 Q140.2987,430.6972 138.9706,429.0566 Q137.6581,427.4003 137.6581,424.2753 Q137.6581,421.1503 138.9706,419.4941 Q140.2987,417.8378 142.7987,417.8378 Q143.5018,417.8378 144.1425,417.9941 Q144.7987,418.1503 145.3612,418.4472 L145.3612,421.1659 Q144.7362,420.5878 144.1425,420.3222 Q143.5487,420.0409 142.9237,420.0409 Q141.58,420.0409 140.8925,421.1191 Q140.205,422.1816 140.205,424.2753 Q140.205,426.3691 140.8925,427.4472 Q141.58,428.5097 142.9237,428.5097 Q143.5487,428.5097 144.1425,428.2441 Q144.7362,427.9628 145.3612,427.3847 L145.3612,430.1034 Z " fill="#000000"/><text fill="#000000" font-family="sans-serif" font-size="12" font-style="italic" lengthAdjust="spacing" textLength="49.8457" x="210.3314" y="420.4687">&#171;Entity&#187;</text><text fill="#000000" font-family="sans-serif" font-size="14" lengthAdjust="spacing" textLength="144.7236" x="162.8925" y="436.2939">TriggerExecutionLog</text><line style="stroke:#181818;stroke-width:0.5;" x1="98.87" x2="339.1386" y1="444.5956" y2="444.5956"/><g data-visibility-modifier="PUBLIC_FIELD"><ellipse cx="108.87" cy="458.2441" fill="none" rx="3" ry="3" style="stroke:#038048;stroke-width:1;"/></g><text fill="#000000" font-family="sans-serif" font-size="14" lengthAdjust="spacing" textLength="62.8154" x="117.87" y="461.5907">id: BigInt</text><g data-visibility-modifier="PUBLIC_FIELD"><ellipse cx="108.87" cy="474.5409" fill="none" rx="3" ry="3" style="stroke:#038048;stroke-width:1;"/></g><text fill="#000000" font-family="sans-serif" font-size="14" lengthAdjust="spacing" textLength="172.6553" x="117.87" y="477.8876">triggerDefinitionId: UUID</text><g data-visibility-modifier="PUBLIC_FIELD"><ellipse cx="108.87" cy="490.8378" fill="none" rx="3" ry="3" style="stroke:#038048;stroke-width:1;"/></g><text fill="#000000" font-family="sans-serif" font-size="14" lengthAdjust="spacing" textLength="141.2715" x="117.87" y="494.1845">targetEntityId: UUID</text><g data-visibility-modifier="PUBLIC_FIELD"><ellipse cx="108.87" cy="507.1347" fill="none" rx="3" ry="3" style="stroke:#038048;stroke-width:1;"/></g><text fill="#000000" font-family="sans-serif" font-size="14" lengthAdjust="spacing" textLength="157.165" x="117.87" y="510.4814">triggeredAt: DateTime</text><g data-visibility-modifier="PUBLIC_FIELD"><ellipse cx="108.87" cy="523.4316" fill="none" rx="3" ry="3" style="stroke:#038048;stroke-width:1;"/></g><text fill="#000000" font-family="sans-serif" font-size="14" lengthAdjust="spacing" textLength="216.2686" x="117.87" y="526.7782">status: TriggerExecutionStatus</text><g data-visibility-modifier="PUBLIC_FIELD"><ellipse cx="108.87" cy="539.7284" fill="none" rx="3" ry="3" style="stroke:#038048;stroke-width:1;"/></g><text fill="#000000" font-family="sans-serif" font-size="14" lengthAdjust="spacing" textLength="105.8818" x="117.87" y="543.0751">metadata: Json</text><line style="stroke:#181818;stroke-width:0.5;" x1="98.87" x2="339.1386" y1="550.3769" y2="550.3769"/></g><!--class TriggerExecutionStatus--><g class="entity" data-qualified-name="TriggerRule Aggregate.TriggerExecutionStatus" data-source-line="48" id="ent0008"><rect fill="#F1F1F1" height="129.4844" rx="2.5" ry="2.5" style="stroke:#181818;stroke-width:0.5;" width="196.083" x="636.96" y="416.61"/><ellipse cx="651.96" cy="432.61" fill="#EB937F" rx="11" ry="11" style="stroke:#181818;stroke-width:1;"/><path d="M656.0694,438.61 L648.3506,438.61 L648.3506,426.2194 L656.0694,426.2194 L656.0694,428.3756 L650.8038,428.3756 L650.8038,431.0475 L655.5694,431.0475 L655.5694,433.2038 L650.8038,433.2038 L650.8038,436.4538 L656.0694,436.4538 L656.0694,438.61 Z " fill="#000000"/><text fill="#000000" font-family="sans-serif" font-size="14" lengthAdjust="spacing" textLength="164.083" x="665.96" y="437.4567">TriggerExecutionStatus</text><line style="stroke:#181818;stroke-width:0.5;" x1="637.96" x2="832.043" y1="448.61" y2="448.61"/><text fill="#000000" font-family="sans-serif" font-size="14" lengthAdjust="spacing" textLength="52.7461" x="642.96" y="465.6051">queued</text><text fill="#000000" font-family="sans-serif" font-size="14" lengthAdjust="spacing" textLength="69.8086" x="642.96" y="481.902">evaluated</text><text fill="#000000" font-family="sans-serif" font-size="14" lengthAdjust="spacing" textLength="64.7773" x="642.96" y="498.1989">triggered</text><text fill="#000000" font-family="sans-serif" font-size="14" lengthAdjust="spacing" textLength="54.5645" x="642.96" y="514.4957">skipped</text><text fill="#000000" font-family="sans-serif" font-size="14" lengthAdjust="spacing" textLength="38.7871" x="642.96" y="530.7926">failed</text><line style="stroke:#181818;stroke-width:0.5;" x1="637.96" x2="832.043" y1="538.0944" y2="538.0944"/></g><g class="entity" data-qualified-name="GMN10" data-source-line="60" id="ent0011"><path d="M883.99,183.74 L883.99,269.4041 L1420.0134,269.4041 L1420.0134,193.74 L1410.0134,183.74 L883.99,183.74" fill="#FEFFDD" style="stroke:#181818;stroke-width:0.5;"/><path d="M1410.0134,183.74 L1410.0134,193.74 L1420.0134,193.74 L1410.0134,183.74" fill="#FEFFDD" style="stroke:#181818;stroke-width:1;"/><text fill="#000000" font-family="sans-serif" font-size="13" lengthAdjust="spacing" textLength="94.6118" x="889.99" y="200.8069">Domain Rules:</text><text fill="#000000" font-family="sans-serif" font-size="13" lengthAdjust="spacing" textLength="394.4561" x="889.99" y="215.9397">- `conditionType` and `conditionValue` must be compatible.</text><text fill="#000000" font-family="sans-serif" font-size="13" lengthAdjust="spacing" textLength="350.1431" x="889.99" y="231.0725">- Disabled rules cannot produce TriggerExecutionLog.</text><text fill="#000000" font-family="sans-serif" font-size="13" lengthAdjust="spacing" textLength="480.1875" x="889.99" y="246.2053">- Evaluation should be idempotent for same rule + target + time window.</text><text fill="#000000" font-family="sans-serif" font-size="13" lengthAdjust="spacing" textLength="515.0234" x="889.99" y="261.3381">- TriggerDefinition lifecycle (create/update/delete) is managed by Admin actor.</text></g><!--reverse link TriggerDefinition to TriggerExecutionLog--><g class="link" data-entity-1="ent0003" data-entity-2="ent0007" data-link-type="composition" data-source-line="56" id="lnk9"><path codeLine="56" d="M219,356.71 C219,376.86 219,385.32 219,404.04" fill="none" id="TriggerDefinition-backto-TriggerExecutionLog" style="stroke:#181818;stroke-width:1;"/><polygon fill="#181818" points="219,344.71,215,350.71,219,356.71,223,350.71,219,344.71" style="stroke:#181818;stroke-width:1;"/><text fill="#000000" font-family="sans-serif" font-size="13" lengthAdjust="spacing" textLength="8.271" x="210.7643" y="364.4374">1</text><text fill="#000000" font-family="sans-serif" font-size="13" lengthAdjust="spacing" textLength="23.0356" x="194.9411" y="393.2943">0..*</text></g><!--link TriggerDefinition to GMN10--><g class="link" data-entity-1="ent0003" data-entity-2="ent0011" data-link-type="association" data-source-line="60" id="lnk12"><path d="M330.92,108.43 C366.07,78.98 407.12,51.37 450.5,35.8 C533.54,6 762.71,11.44 847.5,35.8 C947.33,64.49 1046.11,136.56 1102.97,183.44" fill="none" id="TriggerDefinition-GMN10" style="stroke:#181818;stroke-width:1;stroke-dasharray:7,7;"/></g><?plantuml-src RLHDRzim3BtdLn0vzGF9jcjG54YN7ZBqrAQxkeh4k5hruKfKKcFOVnzbEMcTn1TJ5Fb4FZwf4V9Dr0ZZLT1rZU4n6OHvNGUi1U4O_ev60DA86A6FME16EqtQExYvEKJ2e_TqUylnmD-rLZDuVbukoie9YpDueg1TNJmaGesqQXlszxYhWwk4IEzKTymWwkTNxr7WRs4IHouTbGrXCD03Rj7CO7wm-mBZN9BUSlYTzmQ5wx42SZDgJZDOiB7IjXmocVIGEOatBYxBMk6n1xTSHLwN5kyTQMgNFHsNXpxkFr2cNFI3pvJyopIZI_PidpshpbCbNDnXG5NjDBtgKdKJF4yXngeMJOKV4b75RcFdmvlnGbLhD7vN1NnFcdExFULbikYeYiGyLKgq9OSdhMk7M5dDbgihbOB8XPJTTKGdiTAsuSOhXOIIEiIJ3ZxdsPSVKzXYsvaCdN1V-n-6w6n2OIkBTerX0FWvknvftqEBXllQnmvK-fLVrcaPmr2VTxe-I8MEjRqS2FZSB0U9PoHppSHIYgSJV-hy9SOY2IL8pE1Nx2W-eV4ehM_WFM7gITWBhgmEzHJAttJJzFP6QFCvgTFBFFunXgl91CRVfzEhyLcTSYPh486tNWdyvXHbjF1MQ0Vv6OcpqGHU1jVu1OHJNtpTZNq1coB16a5wbXNfjS4ffovq56mg21aCf71yU1QCIXBFrPUJxWiRkQ7uwfDH6LShj0qNxWWsFa3avwW3XMieayq6pmrssYc_opYd_1YzGTbApheehyItrAZyKsZu6boogC4Anuyfdzd2N5dcWI-93zCHSjUPkT5_?></g></svg>