<?plantuml 1.2026.2?><svg xmlns="http://www.w3.org/2000/svg" xmlns:xlink="http://www.w3.org/1999/xlink" contentStyleType="text/css" data-diagram-type="CLASS" height="585px" preserveAspectRatio="none" style="width:1386px;height:585px;background:#FFFFFF;" version="1.1" viewBox="0 0 1386 585" width="1386px" zoomAndPan="magnify"><defs/><g><!--cluster TriggerRule Aggregate--><g class="cluster" data-qualified-name="TriggerRule Aggregate" data-source-line="1" id="ent0002"><path d="M8.5,73.97 L174.0273,73.97 A3.75,3.75 0 0 1 176.5273,76.47 L183.5273,96.4583 L834.5,96.4583 A2.5,2.5 0 0 1 837,98.9583 L837,576.01 A2.5,2.5 0 0 1 834.5,578.51 L8.5,578.51 A2.5,2.5 0 0 1 6,576.01 L6,76.47 A2.5,2.5 0 0 1 8.5,73.97" fill="none" style="stroke:#000000;stroke-width:1.5;"/><line style="stroke:#000000;stroke-width:1.5;" x1="6" x2="183.5273" y1="96.4583" y2="96.4583"/><text fill="#000000" font-family="sans-serif" font-size="14" font-weight="bold" lengthAdjust="spacing" textLength="164.5273" x="10" y="89.5052">TriggerRule Aggregate</text></g><!--class TriggerDefinition--><g class="entity" data-qualified-name="TriggerRule Aggregate.TriggerDefinition" data-source-line="3" id="ent0003"><rect fill="#F1F1F1" height="237.9922" rx="2.5" ry="2.5" style="stroke:#181818;stroke-width:0.5;" width="375.2549" x="22.37" y="108.97"/><ellipse cx="147.5463" cy="129.2805" fill="#ADD1B2" rx="11" ry="11" style="stroke:#181818;stroke-width:1;"/><path d="M150.0194,135.4236 Q149.4384,135.7224 148.7992,135.8719 Q148.16,136.0213 147.4545,136.0213 Q144.9476,136.0213 143.6278,134.3694 Q142.308,132.7176 142.308,129.5965 Q142.308,126.4671 143.6278,124.8152 Q144.9476,123.1634 147.4545,123.1634 Q148.16,123.1634 148.8075,123.3128 Q149.455,123.4622 150.0194,123.761 L150.0194,126.4837 Q149.3886,125.9026 148.795,125.6328 Q148.2015,125.3631 147.5707,125.3631 Q146.226,125.3631 145.5411,126.4297 Q144.8563,127.4964 144.8563,129.5965 Q144.8563,131.6883 145.5411,132.7549 Q146.226,133.8216 147.5707,133.8216 Q148.2015,133.8216 148.795,133.5518 Q149.3886,133.282 150.0194,132.701 Z " fill="#000000"/><text fill="#000000" font-family="sans-serif" font-size="12" font-style="italic" lengthAdjust="spacing" textLength="103.3125" x="174.5912" y="125.5716">&#171;Aggregate Root&#187;</text><text fill="#000000" font-family="sans-serif" font-size="14" lengthAdjust="spacing" textLength="116.4023" x="168.0463" y="141.638">TriggerDefinition</text><line style="stroke:#181818;stroke-width:0.5;" x1="23.37" x2="396.6249" y1="149.5911" y2="149.5911"/><g data-visibility-modifier="PUBLIC_FIELD"><ellipse cx="33.37" cy="163.3352" fill="none" rx="3" ry="3" style="stroke:#038048;stroke-width:1;"/></g><text fill="#000000" font-family="sans-serif" font-size="14" lengthAdjust="spacing" textLength="55.6377" x="42.37" y="167.1262">id: UUID</text><g data-visibility-modifier="PUBLIC_FIELD"><ellipse cx="33.37" cy="179.8235" fill="none" rx="3" ry="3" style="stroke:#038048;stroke-width:1;"/></g><text fill="#000000" font-family="sans-serif" font-size="14" lengthAdjust="spacing" textLength="86.1191" x="42.37" y="183.6145">name: String</text><g data-visibility-modifier="PUBLIC_FIELD"><ellipse cx="33.37" cy="196.3118" fill="none" rx="3" ry="3" style="stroke:#038048;stroke-width:1;"/></g><text fill="#000000" font-family="sans-serif" font-size="14" lengthAdjust="spacing" textLength="208.5713" x="42.37" y="200.1028">targetType: TriggerTargetType</text><g data-visibility-modifier="PUBLIC_FIELD"><ellipse cx="33.37" cy="212.8001" fill="none" rx="3" ry="3" style="stroke:#038048;stroke-width:1;"/></g><text fill="#000000" font-family="sans-serif" font-size="14" lengthAdjust="spacing" textLength="254.3242" x="42.37" y="216.5911">conditionType: TriggerConditionType</text><g data-visibility-modifier="PUBLIC_FIELD"><ellipse cx="33.37" cy="229.2884" fill="none" rx="3" ry="3" style="stroke:#038048;stroke-width:1;"/></g><text fill="#000000" font-family="sans-serif" font-size="14" lengthAdjust="spacing" textLength="128.126" x="42.37" y="233.0794">conditionValue: Int</text><g data-visibility-modifier="PUBLIC_FIELD"><ellipse cx="33.37" cy="245.7766" fill="none" rx="3" ry="3" style="stroke:#038048;stroke-width:1;"/></g><text fill="#000000" font-family="sans-serif" font-size="14" lengthAdjust="spacing" textLength="140.5879" x="42.37" y="249.5677">alertLevel: AlertLevel</text><g data-visibility-modifier="PUBLIC_FIELD"><ellipse cx="33.37" cy="262.2649" fill="none" rx="3" ry="3" style="stroke:#038048;stroke-width:1;"/></g><text fill="#000000" font-family="sans-serif" font-size="14" lengthAdjust="spacing" textLength="114.7207" x="42.37" y="266.0559">isActive: Boolean</text><g data-visibility-modifier="PUBLIC_FIELD"><ellipse cx="33.37" cy="278.7532" fill="none" rx="3" ry="3" style="stroke:#038048;stroke-width:1;"/></g><text fill="#000000" font-family="sans-serif" font-size="14" lengthAdjust="spacing" textLength="139.0566" x="42.37" y="282.5442">createdAt: DateTime</text><line style="stroke:#181818;stroke-width:1;" x1="23.37" x2="396.6249" y1="289.4973" y2="289.4973"/><g data-visibility-modifier="PUBLIC_METHOD"><ellipse cx="33.37" cy="303.2415" fill="#84BE84" rx="3" ry="3" style="stroke:#038048;stroke-width:1;"/></g><text fill="#000000" font-family="sans-serif" font-size="14" lengthAdjust="spacing" textLength="61.3047" x="42.37" y="307.0325">activate()</text><g data-visibility-modifier="PUBLIC_METHOD"><ellipse cx="33.37" cy="319.7298" fill="#84BE84" rx="3" ry="3" style="stroke:#038048;stroke-width:1;"/></g><text fill="#000000" font-family="sans-serif" font-size="14" lengthAdjust="spacing" textLength="77.916" x="42.37" y="323.5208">deactivate()</text><g data-visibility-modifier="PUBLIC_METHOD"><ellipse cx="33.37" cy="336.218" fill="#84BE84" rx="3" ry="3" style="stroke:#038048;stroke-width:1;"/></g><text fill="#000000" font-family="sans-serif" font-size="14" lengthAdjust="spacing" textLength="349.2549" x="42.37" y="340.0091">evaluate(targetEntityId: UUID): TriggerExecutionLog</text></g><!--class TriggerConditionType--><g class="entity" data-qualified-name="TriggerRule Aggregate.TriggerConditionType" data-source-line="18" id="ent0004"><rect fill="#F1F1F1" height="146.9297" rx="2.5" ry="2.5" style="stroke:#181818;stroke-width:0.5;" width="195.4561" x="432.27" y="154.5"/><ellipse cx="453.8662" cy="170.5" fill="#EB937F" rx="11" ry="11" style="stroke:#181818;stroke-width:1;"/><path d="M457.4804,177 L449.7607,177 L449.7607,164.6069 L457.4804,164.6069 L457.4804,166.7651 L452.2095,166.7651 L452.2095,169.438 L456.9824,169.438 L456.9824,171.5962 L452.2095,171.5962 L452.2095,174.8418 L457.4804,174.8418 Z " fill="#000000"/><text fill="#000000" font-family="sans-serif" font-size="14" lengthAdjust="spacing" textLength="148.7979" x="469.332" y="175.791">TriggerConditionType</text><line style="stroke:#181818;stroke-width:0.5;" x1="433.27" x2="626.7261" y1="186.5" y2="186.5"/><text fill="#000000" font-family="sans-serif" font-size="14" lengthAdjust="spacing" textLength="142.502" x="438.27" y="204.0352">not_answered_within</text><text fill="#000000" font-family="sans-serif" font-size="14" lengthAdjust="spacing" textLength="154.0479" x="438.27" y="220.5234">progress_gap_exceeds</text><text fill="#000000" font-family="sans-serif" font-size="14" lengthAdjust="spacing" textLength="173.9473" x="438.27" y="237.0117">workload_below_required</text><text fill="#000000" font-family="sans-serif" font-size="14" lengthAdjust="spacing" textLength="145.0107" x="438.27" y="253.5">document_stale_days</text><text fill="#000000" font-family="sans-serif" font-size="14" lengthAdjust="spacing" textLength="183.4561" x="438.27" y="269.9883">assignee_missing_duration</text><text fill="#000000" font-family="sans-serif" font-size="14" lengthAdjust="spacing" textLength="173.8721" x="438.27" y="286.4766">absence_impact_detected</text><line style="stroke:#181818;stroke-width:0.5;" x1="433.27" x2="626.7261" y1="293.4297" y2="293.4297"/></g><!--class TriggerTargetType--><g class="entity" data-qualified-name="TriggerRule Aggregate.TriggerTargetType" data-source-line="27" id="ent0005"><rect fill="#F1F1F1" height="113.9531" rx="2.5" ry="2.5" style="stroke:#181818;stroke-width:0.5;" width="158.4717" x="662.76" y="170.99"/><ellipse cx="677.76" cy="186.99" fill="#EB937F" rx="11" ry="11" style="stroke:#181818;stroke-width:1;"/><path d="M681.3743,193.49 L673.6545,193.49 L673.6545,181.0969 L681.3743,181.0969 L681.3743,183.2551 L676.1033,183.2551 L676.1033,185.928 L680.8762,185.928 L680.8762,188.0862 L676.1033,188.0862 L676.1033,191.3318 L681.3743,191.3318 Z " fill="#000000"/><text fill="#000000" font-family="sans-serif" font-size="14" lengthAdjust="spacing" textLength="126.4717" x="691.76" y="192.281">TriggerTargetType</text><line style="stroke:#181818;stroke-width:0.5;" x1="663.76" x2="820.2317" y1="202.99" y2="202.99"/><text fill="#000000" font-family="sans-serif" font-size="14" lengthAdjust="spacing" textLength="43.9141" x="668.76" y="220.5252">survey</text><text fill="#000000" font-family="sans-serif" font-size="14" lengthAdjust="spacing" textLength="34.8086" x="668.76" y="237.0134">issue</text><text fill="#000000" font-family="sans-serif" font-size="14" lengthAdjust="spacing" textLength="47.6055" x="668.76" y="253.5017">project</text><text fill="#000000" font-family="sans-serif" font-size="14" lengthAdjust="spacing" textLength="97.1182" x="668.76" y="269.99">team_member</text><line style="stroke:#181818;stroke-width:0.5;" x1="663.76" x2="820.2317" y1="276.9431" y2="276.9431"/></g><!--class AlertLevel--><g class="entity" data-qualified-name="TriggerRule Aggregate.AlertLevel" data-source-line="34" id="ent0006"><rect fill="#F1F1F1" height="80.9766" rx="2.5" ry="2.5" style="stroke:#181818;stroke-width:0.5;" width="98.8281" x="480.59" y="444.25"/><ellipse cx="495.59" cy="460.25" fill="#EB937F" rx="11" ry="11" style="stroke:#181818;stroke-width:1;"/><path d="M499.2043,466.75 L491.4845,466.75 L491.4845,454.3569 L499.2043,454.3569 L499.2043,456.5151 L493.9333,456.5151 L493.9333,459.188 L498.7062,459.188 L498.7062,461.3462 L493.9333,461.3462 L493.9333,464.5918 L499.2043,464.5918 Z " fill="#000000"/><text fill="#000000" font-family="sans-serif" font-size="14" lengthAdjust="spacing" textLength="66.8281" x="509.59" y="465.541">AlertLevel</text><line style="stroke:#181818;stroke-width:0.5;" x1="481.59" x2="578.4181" y1="476.25" y2="476.25"/><text fill="#000000" font-family="sans-serif" font-size="14" lengthAdjust="spacing" textLength="22.3398" x="486.59" y="493.7852">red</text><text fill="#000000" font-family="sans-serif" font-size="14" lengthAdjust="spacing" textLength="42.5947" x="486.59" y="510.2734">yellow</text><line style="stroke:#181818;stroke-width:0.5;" x1="481.59" x2="578.4181" y1="517.2266" y2="517.2266"/></g><!--class TriggerExecutionLog--><g class="entity" data-qualified-name="TriggerRule Aggregate.TriggerExecutionLog" data-source-line="39" id="ent0007"><rect fill="#F1F1F1" height="155.5508" rx="2.5" ry="2.5" style="stroke:#181818;stroke-width:0.5;" width="233.6143" x="93.19" y="406.96"/><ellipse cx="135.5504" cy="427.2705" fill="#ADD1B2" rx="11" ry="11" style="stroke:#181818;stroke-width:1;"/><path d="M138.0235,433.4136 Q137.4424,433.7124 136.8033,433.8619 Q136.1641,434.0113 135.4586,434.0113 Q132.9517,434.0113 131.6319,432.3594 Q130.3121,430.7076 130.3121,427.5865 Q130.3121,424.4571 131.6319,422.8052 Q132.9517,421.1534 135.4586,421.1534 Q136.1641,421.1534 136.8116,421.3028 Q137.459,421.4522 138.0235,421.751 L138.0235,424.4737 Q137.3926,423.8926 136.7991,423.6228 Q136.2056,423.3531 135.5748,423.3531 Q134.23,423.3531 133.5452,424.4197 Q132.8604,425.4864 132.8604,427.5865 Q132.8604,429.6783 133.5452,430.7449 Q134.23,431.8116 135.5748,431.8116 Q136.2056,431.8116 136.7991,431.5418 Q137.3926,431.272 138.0235,430.691 Z " fill="#000000"/><text fill="#000000" font-family="sans-serif" font-size="12" font-style="italic" lengthAdjust="spacing" textLength="45.2402" x="203.4171" y="423.5616">&#171;Entity&#187;</text><text fill="#000000" font-family="sans-serif" font-size="14" lengthAdjust="spacing" textLength="140.8135" x="155.6304" y="439.628">TriggerExecutionLog</text><line style="stroke:#181818;stroke-width:0.5;" x1="94.19" x2="325.8043" y1="447.5811" y2="447.5811"/><g data-visibility-modifier="PUBLIC_FIELD"><ellipse cx="104.19" cy="461.3252" fill="none" rx="3" ry="3" style="stroke:#038048;stroke-width:1;"/></g><text fill="#000000" font-family="sans-serif" font-size="14" lengthAdjust="spacing" textLength="60.5049" x="113.19" y="465.1163">id: BigInt</text><g data-visibility-modifier="PUBLIC_FIELD"><ellipse cx="104.19" cy="477.8135" fill="none" rx="3" ry="3" style="stroke:#038048;stroke-width:1;"/></g><text fill="#000000" font-family="sans-serif" font-size="14" lengthAdjust="spacing" textLength="168.4102" x="113.19" y="481.6045">triggerDefinitionId: UUID</text><g data-visibility-modifier="PUBLIC_FIELD"><ellipse cx="104.19" cy="494.3018" fill="none" rx="3" ry="3" style="stroke:#038048;stroke-width:1;"/></g><text fill="#000000" font-family="sans-serif" font-size="14" lengthAdjust="spacing" textLength="134.1963" x="113.19" y="498.0928">targetEntityId: UUID</text><g data-visibility-modifier="PUBLIC_FIELD"><ellipse cx="104.19" cy="510.7901" fill="none" rx="3" ry="3" style="stroke:#038048;stroke-width:1;"/></g><text fill="#000000" font-family="sans-serif" font-size="14" lengthAdjust="spacing" textLength="151.3887" x="113.19" y="514.5811">triggeredAt: DateTime</text><g data-visibility-modifier="PUBLIC_FIELD"><ellipse cx="104.19" cy="527.2784" fill="none" rx="3" ry="3" style="stroke:#038048;stroke-width:1;"/></g><text fill="#000000" font-family="sans-serif" font-size="14" lengthAdjust="spacing" textLength="207.6143" x="113.19" y="531.0694">status: TriggerExecutionStatus</text><g data-visibility-modifier="PUBLIC_FIELD"><ellipse cx="104.19" cy="543.7666" fill="none" rx="3" ry="3" style="stroke:#038048;stroke-width:1;"/></g><text fill="#000000" font-family="sans-serif" font-size="14" lengthAdjust="spacing" textLength="100.9873" x="113.19" y="547.5577">metadata: Json</text><line style="stroke:#181818;stroke-width:0.5;" x1="94.19" x2="325.8043" y1="554.5108" y2="554.5108"/></g><!--class TriggerExecutionStatus--><g class="entity" data-qualified-name="TriggerRule Aggregate.TriggerExecutionStatus" data-source-line="48" id="ent0008"><rect fill="#F1F1F1" height="130.4414" rx="2.5" ry="2.5" style="stroke:#181818;stroke-width:0.5;" width="189.5889" x="614.21" y="419.51"/><ellipse cx="629.21" cy="435.51" fill="#EB937F" rx="11" ry="11" style="stroke:#181818;stroke-width:1;"/><path d="M632.8243,442.01 L625.1045,442.01 L625.1045,429.6169 L632.8243,429.6169 L632.8243,431.7751 L627.5533,431.7751 L627.5533,434.448 L632.3262,434.448 L632.3262,436.6062 L627.5533,436.6062 L627.5533,439.8518 L632.8243,439.8518 Z " fill="#000000"/><text fill="#000000" font-family="sans-serif" font-size="14" lengthAdjust="spacing" textLength="157.5889" x="643.21" y="440.801">TriggerExecutionStatus</text><line style="stroke:#181818;stroke-width:0.5;" x1="615.21" x2="802.7989" y1="451.51" y2="451.51"/><text fill="#000000" font-family="sans-serif" font-size="14" lengthAdjust="spacing" textLength="50.5996" x="620.21" y="469.0452">queued</text><text fill="#000000" font-family="sans-serif" font-size="14" lengthAdjust="spacing" textLength="65.0918" x="620.21" y="485.5334">evaluated</text><text fill="#000000" font-family="sans-serif" font-size="14" lengthAdjust="spacing" textLength="62.6104" x="620.21" y="502.0217">triggered</text><text fill="#000000" font-family="sans-serif" font-size="14" lengthAdjust="spacing" textLength="53.6006" x="620.21" y="518.51">skipped</text><text fill="#000000" font-family="sans-serif" font-size="14" lengthAdjust="spacing" textLength="37.584" x="620.21" y="534.9983">failed</text><line style="stroke:#181818;stroke-width:0.5;" x1="615.21" x2="802.7989" y1="541.9514" y2="541.9514"/></g><g class="entity" data-qualified-name="GMN10" data-source-line="60" id="ent0011"><path d="M856.16,184.69 L856.16,271.2427 L1379.8499,271.2427 L1379.8499,194.69 L1369.8499,184.69 L856.16,184.69" fill="#FEFFDD" style="stroke:#181818;stroke-width:0.5;"/><path d="M1369.8499,184.69 L1369.8499,194.69 L1379.8499,194.69 L1369.8499,184.69" fill="#FEFFDD" style="stroke:#181818;stroke-width:1;"/><text fill="#000000" font-family="sans-serif" font-size="13" lengthAdjust="spacing" textLength="91.0063" x="862.16" y="202.2584">Domain Rules:</text><text fill="#000000" font-family="sans-serif" font-size="13" lengthAdjust="spacing" textLength="392.5835" x="862.16" y="217.5689">- `conditionType` and `conditionValue` must be compatible.</text><text fill="#000000" font-family="sans-serif" font-size="13" lengthAdjust="spacing" textLength="343.0972" x="862.16" y="232.8795">- Disabled rules cannot produce TriggerExecutionLog.</text><text fill="#000000" font-family="sans-serif" font-size="13" lengthAdjust="spacing" textLength="466.1846" x="862.16" y="248.19">- Evaluation should be idempotent for same rule + target + time window.</text><text fill="#000000" font-family="sans-serif" font-size="13" lengthAdjust="spacing" textLength="502.6899" x="862.16" y="263.5005">- TriggerDefinition lifecycle (create/update/delete) is managed by Admin actor.</text></g><!--reverse link TriggerDefinition to TriggerExecutionLog--><g class="link" data-entity-1="ent0003" data-entity-2="ent0007" data-link-type="composition" data-source-line="56" id="lnk9"><path codeLine="56" d="M210,359.4 C210,379.54 210,387.98 210,406.7" fill="none" id="TriggerDefinition-backto-TriggerExecutionLog" style="stroke:#181818;stroke-width:1;"/><polygon fill="#181818" points="210,347.4,206,353.4,210,359.4,214,353.4,210,347.4" style="stroke:#181818;stroke-width:1;"/><text fill="#000000" font-family="sans-serif" font-size="13" lengthAdjust="spacing" textLength="8.2202" x="201.7631" y="367.7129">1</text><text fill="#000000" font-family="sans-serif" font-size="13" lengthAdjust="spacing" textLength="22.7119" x="186.9858" y="396.1306">0..*</text></g><!--link TriggerDefinition to GMN10--><g class="link" data-entity-1="ent0003" data-entity-2="ent0011" data-link-type="association" data-source-line="60" id="lnk12"><path d="M317.33,108.65 C350.97,79.19 390.42,51.61 432.5,35.97 C513.11,6 736.99,11.72 819.5,35.97 C917.93,64.89 1014.59,137.41 1070.15,184.58" fill="none" id="TriggerDefinition-GMN10" style="stroke:#181818;stroke-width:1;stroke-dasharray:7,7;"/></g><?plantuml-src RLHDRzim3BtdLn0vzGF9jcjG54YN7ZBqrAQxkeh4k5hruKfKKcFOVnzbEMcTn1TJ5Fb4FZwf4V9Dr0ZZLT1rZU4n6OHvNGUi1U4O_ev60DA86A6FME16EqtQExYvEKJ2e_TqUylnmD-rLZDuVbukoie9YpDueg1TNJmaGesqQXlszxYhWwk4IEzKTymWwkTNxr7WRs4IHouTbGrXCD03Rj7CO7wm-mBZN9BUSlYTzmQ5wx42SZDgJZDOiB7IjXmocVIGEOatBYxBMk6n1xTSHLwN5kyTQMgNFHsNXpxkFr2cNFI3pvJyopIZI_PidpshpbCbNDnXG5NjDBtgKdKJF4yXngeMJOKV4b75RcFdmvlnGbLhD7vN1NnFcdExFULbikYeYiGyLKgq9OSdhMk7M5dDbgihbOB8XPJTTKGdiTAsuSOhXOIIEiIJ3ZxdsPSVKzXYsvaCdN1V-n-6w6n2OIkBTerX0FWvknvftqEBXllQnmvK-fLVrcaPmr2VTxe-I8MEjRqS2FZSB0U9PoHppSHIYgSJV-hy9SOY2IL8pE1Nx2W-eV4ehM_WFM7gITWBhgmEzHJAttJJzFP6QFCvgTFBFFunXgl91CRVfzEhyLcTSYPh486tNWdyvXHbjF1MQ0Vv6OcpqGHU1jVu1OHJNtpTZNq1coB16a5wbXNfjS4ffovq56mg21aCf71yU1QCIXBFrPUJxWiRkQ7uwfDH6LShj0qNxWWsFa3avwW3XMieayq6pmrssYc_opYd_1YzGTbApheehyItrAZyKsZu6boogC4Anuyfdzd2N5dcWI-93zCHSjUPkT5_?></g></svg>