<?plantuml 1.2026.2?><svg xmlns="http://www.w3.org/2000/svg" xmlns:xlink="http://www.w3.org/1999/xlink" contentStyleType="text/css" data-diagram-type="CLASS" height="530px" preserveAspectRatio="none" style="width:1428px;height:530px;background:#FFFFFF;" version="1.1" viewBox="0 0 1428 530" width="1428px" zoomAndPan="magnify"><defs/><g><!--cluster TriggerRule Aggregate--><g class="cluster" data-qualified-name="TriggerRule Aggregate" data-source-line="1" id="ent0002"><path d="M8.5,6 L190.0439,6 A3.75,3.75 0 0 1 192.5439,8.5 L199.5439,28.2969 L863.5,28.2969 A2.5,2.5 0 0 1 866,30.7969 L866,520.5 A2.5,2.5 0 0 1 863.5,523 L8.5,523 A2.5,2.5 0 0 1 6,520.5 L6,8.5 A2.5,2.5 0 0 1 8.5,6" fill="none" style="stroke:#000000;stroke-width:1.5;"/><line style="stroke:#000000;stroke-width:1.5;" x1="6" x2="199.5439" y1="28.2969" y2="28.2969"/><text fill="#000000" font-family="sans-serif" font-size="14" font-weight="bold" lengthAdjust="spacing" textLength="180.5439" x="10" y="20.9951">TriggerRule Aggregate</text></g><!--class TriggerDefinition--><g class="entity" data-qualified-name="TriggerRule Aggregate.TriggerDefinition" data-source-line="3" id="ent0003"><rect fill="#F1F1F1" height="251.8281" rx="2.5" ry="2.5" style="stroke:#181818;stroke-width:0.5;" width="393.0078" x="456.5" y="41"/><ellipse cx="589.688" cy="61.1328" fill="#ADD1B2" rx="11" ry="11" style="stroke:#181818;stroke-width:1;"/><path d="M592.6567,66.7734 Q592.0786,67.0703 591.438,67.2109 Q590.7974,67.3672 590.0942,67.3672 Q587.5942,67.3672 586.2661,65.7266 Q584.9536,64.0703 584.9536,60.9453 Q584.9536,57.8203 586.2661,56.1641 Q587.5942,54.5078 590.0942,54.5078 Q590.7974,54.5078 591.438,54.6641 Q592.0942,54.8203 592.6567,55.1172 L592.6567,57.8359 Q592.0317,57.2578 591.438,56.9922 Q590.8442,56.7109 590.2192,56.7109 Q588.8755,56.7109 588.188,57.7891 Q587.5005,58.8516 587.5005,60.9453 Q587.5005,63.0391 588.188,64.1172 Q588.8755,65.1797 590.2192,65.1797 Q590.8442,65.1797 591.438,64.9141 Q592.0317,64.6328 592.6567,64.0547 L592.6567,66.7734 Z " fill="#000000"/><text fill="#000000" font-family="sans-serif" font-size="12" font-style="italic" lengthAdjust="spacing" textLength="109.1719" x="614.668" y="57.1387">&#171;Aggregate Root&#187;</text><text fill="#000000" font-family="sans-serif" font-size="14" lengthAdjust="spacing" textLength="118.1318" x="610.188" y="72.9639">TriggerDefinition</text><line style="stroke:#181818;stroke-width:0.5;" x1="457.5" x2="848.5078" y1="81.2656" y2="81.2656"/><g data-visibility-modifier="PUBLIC_FIELD"><ellipse cx="467.5" cy="94.9141" fill="none" rx="3" ry="3" style="stroke:#038048;stroke-width:1;"/></g><text fill="#000000" font-family="sans-serif" font-size="14" lengthAdjust="spacing" textLength="57.3467" x="476.5" y="98.2607">id: UUID</text><g data-visibility-modifier="PUBLIC_FIELD"><ellipse cx="467.5" cy="111.2109" fill="none" rx="3" ry="3" style="stroke:#038048;stroke-width:1;"/></g><text fill="#000000" font-family="sans-serif" font-size="14" lengthAdjust="spacing" textLength="90.6514" x="476.5" y="114.5576">name: String</text><g data-visibility-modifier="PUBLIC_FIELD"><ellipse cx="467.5" cy="127.5078" fill="none" rx="3" ry="3" style="stroke:#038048;stroke-width:1;"/></g><text fill="#000000" font-family="sans-serif" font-size="14" lengthAdjust="spacing" textLength="128.0986" x="476.5" y="130.8545">targetType: String</text><g data-visibility-modifier="PUBLIC_FIELD"><ellipse cx="467.5" cy="143.8047" fill="none" rx="3" ry="3" style="stroke:#038048;stroke-width:1;"/></g><text fill="#000000" font-family="sans-serif" font-size="14" lengthAdjust="spacing" textLength="150.0146" x="476.5" y="147.1514">conditionType: String</text><g data-visibility-modifier="PUBLIC_FIELD"><ellipse cx="467.5" cy="160.1016" fill="none" rx="3" ry="3" style="stroke:#038048;stroke-width:1;"/></g><text fill="#000000" font-family="sans-serif" font-size="14" lengthAdjust="spacing" textLength="139.3506" x="476.5" y="163.4482">conditionValue: Int?</text><g data-visibility-modifier="PUBLIC_FIELD"><ellipse cx="467.5" cy="176.3984" fill="none" rx="3" ry="3" style="stroke:#038048;stroke-width:1;"/></g><text fill="#000000" font-family="sans-serif" font-size="14" lengthAdjust="spacing" textLength="155.0459" x="476.5" y="179.7451">conditionParams: Json</text><g data-visibility-modifier="PUBLIC_FIELD"><ellipse cx="467.5" cy="192.6953" fill="none" rx="3" ry="3" style="stroke:#038048;stroke-width:1;"/></g><text fill="#000000" font-family="sans-serif" font-size="14" lengthAdjust="spacing" textLength="120.4766" x="476.5" y="196.042">alertLevel: String</text><g data-visibility-modifier="PUBLIC_FIELD"><ellipse cx="467.5" cy="208.9922" fill="none" rx="3" ry="3" style="stroke:#038048;stroke-width:1;"/></g><text fill="#000000" font-family="sans-serif" font-size="14" lengthAdjust="spacing" textLength="120.5928" x="476.5" y="212.3389">isActive: Boolean</text><g data-visibility-modifier="PUBLIC_FIELD"><ellipse cx="467.5" cy="225.2891" fill="none" rx="3" ry="3" style="stroke:#038048;stroke-width:1;"/></g><text fill="#000000" font-family="sans-serif" font-size="14" lengthAdjust="spacing" textLength="146.0225" x="476.5" y="228.6357">createdAt: DateTime</text><line style="stroke:#181818;stroke-width:1;" x1="457.5" x2="848.5078" y1="235.9375" y2="235.9375"/><g data-visibility-modifier="PUBLIC_METHOD"><ellipse cx="467.5" cy="249.5859" fill="#84BE84" rx="3" ry="3" style="stroke:#038048;stroke-width:1;"/></g><text fill="#000000" font-family="sans-serif" font-size="14" lengthAdjust="spacing" textLength="67.5459" x="476.5" y="252.9326">activate()</text><g data-visibility-modifier="PUBLIC_METHOD"><ellipse cx="467.5" cy="265.8828" fill="#84BE84" rx="3" ry="3" style="stroke:#038048;stroke-width:1;"/></g><text fill="#000000" font-family="sans-serif" font-size="14" lengthAdjust="spacing" textLength="85.0459" x="476.5" y="269.2295">deactivate()</text><g data-visibility-modifier="PUBLIC_METHOD"><ellipse cx="467.5" cy="282.1797" fill="#84BE84" rx="3" ry="3" style="stroke:#038048;stroke-width:1;"/></g><text fill="#000000" font-family="sans-serif" font-size="14" lengthAdjust="spacing" textLength="367.0078" x="476.5" y="285.5264">evaluate(targetEntityId: UUID): TriggerExecutionLog</text></g><!--class TriggerConditionType--><g class="entity" data-qualified-name="TriggerRule Aggregate.TriggerConditionType" data-source-line="19" id="ent0004"><rect fill="#F1F1F1" height="145.7813" rx="2.5" ry="2.5" style="stroke:#181818;stroke-width:0.5;" width="200.7197" x="22.5" y="94"/><ellipse cx="45.2559" cy="110" fill="#EB937F" rx="11" ry="11" style="stroke:#181818;stroke-width:1;"/><path d="M49.3653,116 L41.6465,116 L41.6465,103.6094 L49.3653,103.6094 L49.3653,105.7656 L44.0997,105.7656 L44.0997,108.4375 L48.8653,108.4375 L48.8653,110.5938 L44.0997,110.5938 L44.0997,113.8438 L49.3653,113.8438 L49.3653,116 Z " fill="#000000"/><text fill="#000000" font-family="sans-serif" font-size="14" lengthAdjust="spacing" textLength="151.4844" x="60.9794" y="114.8467">TriggerConditionType</text><line style="stroke:#181818;stroke-width:0.5;" x1="23.5" x2="222.2197" y1="126" y2="126"/><text fill="#000000" font-family="sans-serif" font-size="14" lengthAdjust="spacing" textLength="147.458" x="28.5" y="142.9951">not_answered_within</text><text fill="#000000" font-family="sans-serif" font-size="14" lengthAdjust="spacing" textLength="159.4072" x="28.5" y="159.292">progress_gap_exceeds</text><text fill="#000000" font-family="sans-serif" font-size="14" lengthAdjust="spacing" textLength="178.4795" x="28.5" y="175.5889">workload_below_required</text><text fill="#000000" font-family="sans-serif" font-size="14" lengthAdjust="spacing" textLength="151.5459" x="28.5" y="191.8857">document_stale_days</text><text fill="#000000" font-family="sans-serif" font-size="14" lengthAdjust="spacing" textLength="188.7197" x="28.5" y="208.1826">assignee_missing_duration</text><text fill="#000000" font-family="sans-serif" font-size="14" lengthAdjust="spacing" textLength="183.0254" x="28.5" y="224.4795">absence_impact_detected</text><line style="stroke:#181818;stroke-width:0.5;" x1="23.5" x2="222.2197" y1="231.7813" y2="231.7813"/></g><!--class TriggerTargetType--><g class="entity" data-qualified-name="TriggerRule Aggregate.TriggerTargetType" data-source-line="28" id="ent0005"><rect fill="#F1F1F1" height="113.1875" rx="2.5" ry="2.5" style="stroke:#181818;stroke-width:0.5;" width="162.5527" x="258.5" y="110.5"/><ellipse cx="273.5" cy="126.5" fill="#EB937F" rx="11" ry="11" style="stroke:#181818;stroke-width:1;"/><path d="M277.6094,132.5 L269.8906,132.5 L269.8906,120.1094 L277.6094,120.1094 L277.6094,122.2656 L272.3438,122.2656 L272.3438,124.9375 L277.1094,124.9375 L277.1094,127.0938 L272.3438,127.0938 L272.3438,130.3438 L277.6094,130.3438 L277.6094,132.5 Z " fill="#000000"/><text fill="#000000" font-family="sans-serif" font-size="14" lengthAdjust="spacing" textLength="130.5527" x="287.5" y="131.3467">TriggerTargetType</text><line style="stroke:#181818;stroke-width:0.5;" x1="259.5" x2="420.0527" y1="142.5" y2="142.5"/><text fill="#000000" font-family="sans-serif" font-size="14" lengthAdjust="spacing" textLength="47.1064" x="264.5" y="159.4951">survey</text><text fill="#000000" font-family="sans-serif" font-size="14" lengthAdjust="spacing" textLength="35.9639" x="264.5" y="175.792">issue</text><text fill="#000000" font-family="sans-serif" font-size="14" lengthAdjust="spacing" textLength="48.8975" x="264.5" y="192.0889">project</text><text fill="#000000" font-family="sans-serif" font-size="14" lengthAdjust="spacing" textLength="102.4639" x="264.5" y="208.3857">team_member</text><line style="stroke:#181818;stroke-width:0.5;" x1="259.5" x2="420.0527" y1="215.6875" y2="215.6875"/></g><!--class AlertLevel--><g class="entity" data-qualified-name="TriggerRule Aggregate.AlertLevel" data-source-line="35" id="ent0006"><rect fill="#F1F1F1" height="80.5938" rx="2.5" ry="2.5" style="stroke:#181818;stroke-width:0.5;" width="102.5264" x="71.5" y="389.5"/><ellipse cx="86.5" cy="405.5" fill="#EB937F" rx="11" ry="11" style="stroke:#181818;stroke-width:1;"/><path d="M90.6094,411.5 L82.8906,411.5 L82.8906,399.1094 L90.6094,399.1094 L90.6094,401.2656 L85.3438,401.2656 L85.3438,403.9375 L90.1094,403.9375 L90.1094,406.0938 L85.3438,406.0938 L85.3438,409.3438 L90.6094,409.3438 L90.6094,411.5 Z " fill="#000000"/><text fill="#000000" font-family="sans-serif" font-size="14" lengthAdjust="spacing" textLength="70.5264" x="100.5" y="410.3467">AlertLevel</text><line style="stroke:#181818;stroke-width:0.5;" x1="72.5" x2="173.0264" y1="421.5" y2="421.5"/><text fill="#000000" font-family="sans-serif" font-size="14" lengthAdjust="spacing" textLength="23.2559" x="77.5" y="438.4951">red</text><text fill="#000000" font-family="sans-serif" font-size="14" lengthAdjust="spacing" textLength="44.6934" x="77.5" y="454.792">yellow</text><line style="stroke:#181818;stroke-width:0.5;" x1="72.5" x2="173.0264" y1="462.0938" y2="462.0938"/></g><!--class TriggerExecutionLog--><g class="entity" data-qualified-name="TriggerRule Aggregate.TriggerExecutionLog" data-source-line="40" id="ent0007"><rect fill="#F1F1F1" height="154.0469" rx="2.5" ry="2.5" style="stroke:#181818;stroke-width:0.5;" width="242.2686" x="532" y="353"/><ellipse cx="576.5225" cy="373.1328" fill="#ADD1B2" rx="11" ry="11" style="stroke:#181818;stroke-width:1;"/><path d="M579.4912,378.7734 Q578.9131,379.0703 578.2725,379.2109 Q577.6318,379.3672 576.9287,379.3672 Q574.4287,379.3672 573.1006,377.7266 Q571.7881,376.0703 571.7881,372.9453 Q571.7881,369.8203 573.1006,368.1641 Q574.4287,366.5078 576.9287,366.5078 Q577.6318,366.5078 578.2725,366.6641 Q578.9287,366.8203 579.4912,367.1172 L579.4912,369.8359 Q578.8662,369.2578 578.2725,368.9922 Q577.6787,368.7109 577.0537,368.7109 Q575.71,368.7109 575.0225,369.7891 Q574.335,370.8516 574.335,372.9453 Q574.335,375.0391 575.0225,376.1172 Q575.71,377.1797 577.0537,377.1797 Q577.6787,377.1797 578.2725,376.9141 Q578.8662,376.6328 579.4912,376.0547 L579.4912,378.7734 Z " fill="#000000"/><text fill="#000000" font-family="sans-serif" font-size="12" font-style="italic" lengthAdjust="spacing" textLength="49.8457" x="644.4614" y="369.1387">&#171;Entity&#187;</text><text fill="#000000" font-family="sans-serif" font-size="14" lengthAdjust="spacing" textLength="144.7236" x="597.0225" y="384.9639">TriggerExecutionLog</text><line style="stroke:#181818;stroke-width:0.5;" x1="533" x2="773.2686" y1="393.2656" y2="393.2656"/><g data-visibility-modifier="PUBLIC_FIELD"><ellipse cx="543" cy="406.9141" fill="none" rx="3" ry="3" style="stroke:#038048;stroke-width:1;"/></g><text fill="#000000" font-family="sans-serif" font-size="14" lengthAdjust="spacing" textLength="62.8154" x="552" y="410.2607">id: BigInt</text><g data-visibility-modifier="PUBLIC_FIELD"><ellipse cx="543" cy="423.2109" fill="none" rx="3" ry="3" style="stroke:#038048;stroke-width:1;"/></g><text fill="#000000" font-family="sans-serif" font-size="14" lengthAdjust="spacing" textLength="172.6553" x="552" y="426.5576">triggerDefinitionId: UUID</text><g data-visibility-modifier="PUBLIC_FIELD"><ellipse cx="543" cy="439.5078" fill="none" rx="3" ry="3" style="stroke:#038048;stroke-width:1;"/></g><text fill="#000000" font-family="sans-serif" font-size="14" lengthAdjust="spacing" textLength="141.2715" x="552" y="442.8545">targetEntityId: UUID</text><g data-visibility-modifier="PUBLIC_FIELD"><ellipse cx="543" cy="455.8047" fill="none" rx="3" ry="3" style="stroke:#038048;stroke-width:1;"/></g><text fill="#000000" font-family="sans-serif" font-size="14" lengthAdjust="spacing" textLength="157.165" x="552" y="459.1514">triggeredAt: DateTime</text><g data-visibility-modifier="PUBLIC_FIELD"><ellipse cx="543" cy="472.1016" fill="none" rx="3" ry="3" style="stroke:#038048;stroke-width:1;"/></g><text fill="#000000" font-family="sans-serif" font-size="14" lengthAdjust="spacing" textLength="216.2686" x="552" y="475.4482">status: TriggerExecutionStatus</text><g data-visibility-modifier="PUBLIC_FIELD"><ellipse cx="543" cy="488.3984" fill="none" rx="3" ry="3" style="stroke:#038048;stroke-width:1;"/></g><text fill="#000000" font-family="sans-serif" font-size="14" lengthAdjust="spacing" textLength="105.8818" x="552" y="491.7451">metadata: Json</text><line style="stroke:#181818;stroke-width:0.5;" x1="533" x2="773.2686" y1="499.0469" y2="499.0469"/></g><!--class TriggerExecutionStatus--><g class="entity" data-qualified-name="TriggerRule Aggregate.TriggerExecutionStatus" data-source-line="49" id="ent0008"><rect fill="#F1F1F1" height="129.4844" rx="2.5" ry="2.5" style="stroke:#181818;stroke-width:0.5;" width="196.083" x="210" y="365.5"/><ellipse cx="225" cy="381.5" fill="#EB937F" rx="11" ry="11" style="stroke:#181818;stroke-width:1;"/><path d="M229.1094,387.5 L221.3906,387.5 L221.3906,375.1094 L229.1094,375.1094 L229.1094,377.2656 L223.8438,377.2656 L223.8438,379.9375 L228.6094,379.9375 L228.6094,382.0938 L223.8438,382.0938 L223.8438,385.3438 L229.1094,385.3438 L229.1094,387.5 Z " fill="#000000"/><text fill="#000000" font-family="sans-serif" font-size="14" lengthAdjust="spacing" textLength="164.083" x="239" y="386.3467">TriggerExecutionStatus</text><line style="stroke:#181818;stroke-width:0.5;" x1="211" x2="405.083" y1="397.5" y2="397.5"/><text fill="#000000" font-family="sans-serif" font-size="14" lengthAdjust="spacing" textLength="52.7461" x="216" y="414.4951">queued</text><text fill="#000000" font-family="sans-serif" font-size="14" lengthAdjust="spacing" textLength="69.8086" x="216" y="430.792">evaluated</text><text fill="#000000" font-family="sans-serif" font-size="14" lengthAdjust="spacing" textLength="64.7773" x="216" y="447.0889">triggered</text><text fill="#000000" font-family="sans-serif" font-size="14" lengthAdjust="spacing" textLength="54.5645" x="216" y="463.3857">skipped</text><text fill="#000000" font-family="sans-serif" font-size="14" lengthAdjust="spacing" textLength="38.7871" x="216" y="479.6826">failed</text><line style="stroke:#181818;stroke-width:0.5;" x1="211" x2="405.083" y1="486.9844" y2="486.9844"/></g><g class="entity" data-qualified-name="GMN10" data-source-line="61" id="ent0011"><path d="M885,124 L885,163 L849.78,167 L885,171 L885,209.6641 A0,0 0 0 0 885,209.6641 L1421.0234,209.6641 A0,0 0 0 0 1421.0234,209.6641 L1421.0234,134 L1411.0234,124 L885,124 A0,0 0 0 0 885,124" fill="#FEFFDD" style="stroke:#181818;stroke-width:0.5;"/><path d="M1411.0234,124 L1411.0234,134 L1421.0234,134 L1411.0234,124" fill="#FEFFDD" style="stroke:#181818;stroke-width:0.5;"/><text fill="#000000" font-family="sans-serif" font-size="13" lengthAdjust="spacing" textLength="94.6118" x="891" y="141.0669">Domain Rules:</text><text fill="#000000" font-family="sans-serif" font-size="13" lengthAdjust="spacing" textLength="394.4561" x="891" y="156.1997">- `conditionType` and `conditionValue` must be compatible.</text><text fill="#000000" font-family="sans-serif" font-size="13" lengthAdjust="spacing" textLength="350.1431" x="891" y="171.3325">- Disabled rules cannot produce TriggerExecutionLog.</text><text fill="#000000" font-family="sans-serif" font-size="13" lengthAdjust="spacing" textLength="480.1875" x="891" y="186.4653">- Evaluation should be idempotent for same rule + target + time window.</text><text fill="#000000" font-family="sans-serif" font-size="13" lengthAdjust="spacing" textLength="515.0234" x="891" y="201.5981">- TriggerDefinition lifecycle (create/update/delete) is managed by Admin actor.</text></g><!--reverse link TriggerDefinition to TriggerExecutionLog--><g class="link" data-entity-1="ent0003" data-entity-2="ent0007" data-link-type="composition" data-source-line="57" id="lnk9"><path codeLine="57" d="M653,305.15 C653,325.56 653,334.14 653,352.9" fill="none" id="TriggerDefinition-backto-TriggerExecutionLog" style="stroke:#181818;stroke-width:1;"/><polygon fill="#181818" points="653,293.15,649,299.15,653,305.15,657,299.15,653,293.15" style="stroke:#181818;stroke-width:1;"/><text fill="#000000" font-family="sans-serif" font-size="13" lengthAdjust="spacing" textLength="8.271" x="644.7764" y="312.9523">1</text><text fill="#000000" font-family="sans-serif" font-size="13" lengthAdjust="spacing" textLength="23.0356" x="628.8928" y="341.9076">0..*</text></g><?plantuml-src VLHBSnen3BxpApISyXXeUsKowP32WKuEdOJqQemjDYv-RFo0x7Jwtokl5ve5fboGBUbRwTCdrrniUOKmN7fLLUYVaaQOLfN7YaSSmk_1041e7W9q4JFSAAkYSXRkxewHyEHSlB-dUA3VhP8JU7bPpCh9SeCJU8vUsQhSHEuhZCkcFhaNpieM-p-kdrmdyYri_7hY-S4zDs42tuEpnSKr-lY8EzHzC1Mc8geTmJmufv5tuS8ZzIAdSG8pCfRAOEiOZJgud4IEg-jobdXwWpkgBfzBXtCRLMmM7HlNamE9ytSKAPVyw795VpBBQ9Cv-BzzvA4ZrRh8k0rxz2ZPNiLNLQgklQCXXC0gNZDy5uWoj8wzyrljk6Hhr6xFFBubHRcjJpgH3Dh8GYIEcEHDoQ51gyeYCgF8iXMJoVDSIF6k0rg1J9cQ6cSI8uhO8fvri3nEk2i_9B_3fZK9Ek6Xzby4qTeHkM46pHfz3t1wd667TEYXGKrz7M9x8lt8BycqZA4lpmTLaOGwEPvAUz7JxwLPzX8lIEQMY8qfd4_ykRqlCGOZbppoesJFQ3n9wnfuIvWw4Ww2AwTZFONohQhhpjvmfVzDwdoNXr-6S3CQmV3pU7mplAXJoYGD8f3hDOBRdACCPivmPI6_8c4o6C6gjz0hu5P-k6itUGKcXGXh1E58Lb6jDOufTQO29rE2ps0WkAMFPy789F1IVJbfNjZ83OLNbxJCk4gYgQbm6s7ZF0HwZLfGk8KosMpGt62lh7JxZ7FEZrOR58sWhAloIdnAjSn_4ZMjmJM96Wotz9RIDnkOIaCyq98uFnuWTPsP6_m5?></g></svg>