<?plantuml 1.2026.2?><svg xmlns="http://www.w3.org/2000/svg" xmlns:xlink="http://www.w3.org/1999/xlink" contentStyleType="text/css" data-diagram-type="CLASS" height="488px" preserveAspectRatio="none" style="width:2292px;height:488px;background:#FFFFFF;" version="1.1" viewBox="0 0 2292 488" width="2292px" zoomAndPan="magnify"><defs/><g><!--cluster Visualization Read Models--><g class="cluster" data-qualified-name="Visualization Read Models" data-source-line="1" id="ent0002"><path d="M8.5,70.52 L216.8408,70.52 A3.75,3.75 0 0 1 219.3408,73.02 L226.3408,92.8169 L1168.5,92.8169 A2.5,2.5 0 0 1 1171,95.3169 L1171,479.02 A2.5,2.5 0 0 1 1168.5,481.52 L8.5,481.52 A2.5,2.5 0 0 1 6,479.02 L6,73.02 A2.5,2.5 0 0 1 8.5,70.52" fill="none" style="stroke:#000000;stroke-width:1.5;"/><line style="stroke:#000000;stroke-width:1.5;" x1="6" x2="226.3408" y1="92.8169" y2="92.8169"/><text fill="#000000" font-family="sans-serif" font-size="14" font-weight="bold" lengthAdjust="spacing" textLength="207.3408" x="10" y="85.5151">Visualization Read Models</text></g><g class="entity" data-qualified-name="Visualization Read Models.DesignNote" data-source-line="4" id="ent0003"><path d="M22.5,171.52 L22.5,242.0512 L379.9194,242.0512 L379.9194,181.52 L369.9194,171.52 L22.5,171.52" fill="#FEFFDD" style="stroke:#181818;stroke-width:0.5;"/><path d="M369.9194,171.52 L369.9194,181.52 L379.9194,181.52 L369.9194,171.52" fill="#FEFFDD" style="stroke:#181818;stroke-width:1;"/><text fill="#000000" font-family="sans-serif" font-size="13" lengthAdjust="spacing" textLength="121.3989" x="28.5" y="188.5869">&#21487;&#35222;&#21270;&#12395;&#12362;&#12369;&#12427;&#33394;&#34920;&#31034;&#12398;&#35373;&#35336;&#26041;&#37341;:</text><text fill="#000000" font-family="sans-serif" font-size="13" lengthAdjust="spacing" textLength="336.4194" x="28.5" y="203.7197">- &#12460;&#12531;&#12488;&#12481;&#12515;&#12540;&#12488;&#12539;&#12459;&#12531;&#12496;&#12531;&#12508;&#12540;&#12489;&#12391;&#12399; AlertLevel (yellow / red) &#12434;&#20877;&#21033;&#29992;</text><text fill="#000000" font-family="sans-serif" font-size="13" lengthAdjust="spacing" textLength="318.8936" x="28.5" y="218.8525">- alertLevel &#12364; null &#12398;&#22580;&#21512;&#12399;&#12300;&#27491;&#24120; (on track)&#12301;&#8594; UI &#12391;&#32209;&#33394;&#34920;&#31034;</text><text fill="#000000" font-family="sans-serif" font-size="13" lengthAdjust="spacing" textLength="230.1152" x="28.5" y="233.9853">- &#12527;&#12540;&#12463;&#12525;&#12540;&#12489;&#34920;&#31034;&#12399;&#29420;&#33258;&#12398; WorkloadLevel &#12434;&#20351;&#29992;</text></g><!--class AlertLevel--><g class="entity" data-qualified-name="Visualization Read Models.AlertLevel" data-source-line="10" id="ent0004"><rect fill="#F1F1F1" height="88.8594" rx="2.5" ry="2.5" style="stroke:#181818;stroke-width:0.5;" width="102.5264" x="886.5" y="372.52"/><ellipse cx="901.5" cy="392.6528" fill="#EB937F" rx="11" ry="11" style="stroke:#181818;stroke-width:1;"/><path d="M905.6094,398.6528 L897.8906,398.6528 L897.8906,386.2622 L905.6094,386.2622 L905.6094,388.4184 L900.3438,388.4184 L900.3438,391.0903 L905.1094,391.0903 L905.1094,393.2466 L900.3438,393.2466 L900.3438,396.4966 L905.6094,396.4966 L905.6094,398.6528 Z " fill="#000000"/><text fill="#000000" font-family="sans-serif" font-size="12" font-style="italic" lengthAdjust="spacing" textLength="55.957" x="922.7847" y="388.6587">&#171;shared&#187;</text><text fill="#000000" font-family="sans-serif" font-size="14" lengthAdjust="spacing" textLength="70.5264" x="915.5" y="404.4839">AlertLevel</text><line style="stroke:#181818;stroke-width:0.5;" x1="887.5" x2="988.0264" y1="412.7856" y2="412.7856"/><text fill="#000000" font-family="sans-serif" font-size="14" lengthAdjust="spacing" textLength="44.6934" x="892.5" y="429.7807">yellow</text><text fill="#000000" font-family="sans-serif" font-size="14" lengthAdjust="spacing" textLength="23.2559" x="892.5" y="446.0776">red</text><line style="stroke:#181818;stroke-width:0.5;" x1="887.5" x2="988.0264" y1="453.3794" y2="453.3794"/></g><!--class IssueProgressView--><g class="entity" data-qualified-name="Visualization Read Models.IssueProgressView" data-source-line="15" id="ent0005"><rect fill="#F1F1F1" height="202.9375" rx="2.5" ry="2.5" style="stroke:#181818;stroke-width:0.5;" width="182.6523" x="971.5" y="105.52"/><ellipse cx="995.6402" cy="125.6528" fill="#ADD1B2" rx="11" ry="11" style="stroke:#181818;stroke-width:1;"/><path d="M998.6089,131.2934 Q998.0308,131.5903 997.3902,131.7309 Q996.7496,131.8872 996.0464,131.8872 Q993.5464,131.8872 992.2183,130.2466 Q990.9058,128.5903 990.9058,125.4653 Q990.9058,122.3403 992.2183,120.6841 Q993.5464,119.0278 996.0464,119.0278 Q996.7496,119.0278 997.3902,119.1841 Q998.0464,119.3403 998.6089,119.6372 L998.6089,122.3559 Q997.9839,121.7778 997.3902,121.5122 Q996.7964,121.2309 996.1714,121.2309 Q994.8277,121.2309 994.1402,122.3091 Q993.4527,123.3716 993.4527,125.4653 Q993.4527,127.5591 994.1402,128.6372 Q994.8277,129.6997 996.1714,129.6997 Q996.7964,129.6997 997.3902,129.4341 Q997.9839,129.1528 998.6089,128.5747 L998.6089,131.2934 Z " fill="#000000"/><text fill="#000000" font-family="sans-serif" font-size="12" font-style="italic" lengthAdjust="spacing" textLength="85.3477" x="1034.1679" y="121.6587">&#171;Read Model&#187;</text><text fill="#000000" font-family="sans-serif" font-size="14" lengthAdjust="spacing" textLength="130.3408" x="1011.6713" y="137.4839">IssueProgressView</text><line style="stroke:#181818;stroke-width:0.5;" x1="972.5" x2="1153.1523" y1="145.7856" y2="145.7856"/><g data-visibility-modifier="PUBLIC_FIELD"><ellipse cx="982.5" cy="159.4341" fill="none" rx="3" ry="3" style="stroke:#038048;stroke-width:1;"/></g><text fill="#000000" font-family="sans-serif" font-size="14" lengthAdjust="spacing" textLength="93.5498" x="991.5" y="162.7807">issueId: UUID</text><g data-visibility-modifier="PUBLIC_FIELD"><ellipse cx="982.5" cy="175.7309" fill="none" rx="3" ry="3" style="stroke:#038048;stroke-width:1;"/></g><text fill="#000000" font-family="sans-serif" font-size="14" lengthAdjust="spacing" textLength="78.3193" x="991.5" y="179.0776">title: String</text><g data-visibility-modifier="PUBLIC_FIELD"><ellipse cx="982.5" cy="192.0278" fill="none" rx="3" ry="3" style="stroke:#038048;stroke-width:1;"/></g><text fill="#000000" font-family="sans-serif" font-size="14" lengthAdjust="spacing" textLength="108.6982" x="991.5" y="195.3745">startDate: Date</text><g data-visibility-modifier="PUBLIC_FIELD"><ellipse cx="982.5" cy="208.3247" fill="none" rx="3" ry="3" style="stroke:#038048;stroke-width:1;"/></g><text fill="#000000" font-family="sans-serif" font-size="14" lengthAdjust="spacing" textLength="102.4639" x="991.5" y="211.6714">dueDate: Date</text><g data-visibility-modifier="PUBLIC_FIELD"><ellipse cx="982.5" cy="224.6216" fill="none" rx="3" ry="3" style="stroke:#038048;stroke-width:1;"/></g><text fill="#000000" font-family="sans-serif" font-size="14" lengthAdjust="spacing" textLength="88.71" x="991.5" y="227.9682">progress: Int</text><g data-visibility-modifier="PUBLIC_FIELD"><ellipse cx="982.5" cy="240.9184" fill="none" rx="3" ry="3" style="stroke:#038048;stroke-width:1;"/></g><text fill="#000000" font-family="sans-serif" font-size="14" lengthAdjust="spacing" textLength="133" x="991.5" y="244.2651">status: IssueStatus</text><g data-visibility-modifier="PUBLIC_FIELD"><ellipse cx="982.5" cy="257.2153" fill="none" rx="3" ry="3" style="stroke:#038048;stroke-width:1;"/></g><text fill="#000000" font-family="sans-serif" font-size="14" lengthAdjust="spacing" textLength="156.6523" x="991.5" y="260.562">alertLevel: AlertLevel?</text><g data-visibility-modifier="PUBLIC_FIELD"><ellipse cx="982.5" cy="273.5122" fill="none" rx="3" ry="3" style="stroke:#038048;stroke-width:1;"/></g><text fill="#000000" font-family="sans-serif" font-size="14" lengthAdjust="spacing" textLength="93.9053" x="991.5" y="276.8589">teamId: UUID</text><g data-visibility-modifier="PUBLIC_FIELD"><ellipse cx="982.5" cy="289.8091" fill="none" rx="3" ry="3" style="stroke:#038048;stroke-width:1;"/></g><text fill="#000000" font-family="sans-serif" font-size="14" lengthAdjust="spacing" textLength="137.8467" x="991.5" y="293.1557">assigneeIds: UUID[]</text><line style="stroke:#181818;stroke-width:0.5;" x1="972.5" x2="1153.1523" y1="300.4575" y2="300.4575"/></g><!--class WorkloadLevel--><g class="entity" data-qualified-name="Visualization Read Models.WorkloadLevel" data-source-line="27" id="ent0006"><rect fill="#F1F1F1" height="96.8906" rx="2.5" ry="2.5" style="stroke:#181818;stroke-width:0.5;" width="135.3936" x="467.5" y="368.52"/><ellipse cx="482.5" cy="384.52" fill="#EB937F" rx="11" ry="11" style="stroke:#181818;stroke-width:1;"/><path d="M486.6094,390.52 L478.8906,390.52 L478.8906,378.1294 L486.6094,378.1294 L486.6094,380.2856 L481.3438,380.2856 L481.3438,382.9575 L486.1094,382.9575 L486.1094,385.1138 L481.3438,385.1138 L481.3438,388.3638 L486.6094,388.3638 L486.6094,390.52 Z " fill="#000000"/><text fill="#000000" font-family="sans-serif" font-size="14" lengthAdjust="spacing" textLength="103.3936" x="496.5" y="389.3667">WorkloadLevel</text><line style="stroke:#181818;stroke-width:0.5;" x1="468.5" x2="601.8936" y1="400.52" y2="400.52"/><text fill="#000000" font-family="sans-serif" font-size="14" lengthAdjust="spacing" textLength="40.7422" x="473.5" y="417.5151">green</text><text fill="#000000" font-family="sans-serif" font-size="14" lengthAdjust="spacing" textLength="44.6934" x="473.5" y="433.812">yellow</text><text fill="#000000" font-family="sans-serif" font-size="14" lengthAdjust="spacing" textLength="23.2559" x="473.5" y="450.1089">red</text><line style="stroke:#181818;stroke-width:0.5;" x1="468.5" x2="601.8936" y1="457.4106" y2="457.4106"/></g><!--class MemberWorkloadView--><g class="entity" data-qualified-name="Visualization Read Models.MemberWorkloadView" data-source-line="33" id="ent0007"><rect fill="#F1F1F1" height="202.9375" rx="2.5" ry="2.5" style="stroke:#181818;stroke-width:0.5;" width="239.5615" x="415" y="105.52"/><ellipse cx="452.6138" cy="125.6528" fill="#ADD1B2" rx="11" ry="11" style="stroke:#181818;stroke-width:1;"/><path d="M455.5826,131.2934 Q455.0044,131.5903 454.3638,131.7309 Q453.7232,131.8872 453.0201,131.8872 Q450.5201,131.8872 449.1919,130.2466 Q447.8794,128.5903 447.8794,125.4653 Q447.8794,122.3403 449.1919,120.6841 Q450.5201,119.0278 453.0201,119.0278 Q453.7232,119.0278 454.3638,119.1841 Q455.0201,119.3403 455.5826,119.6372 L455.5826,122.3559 Q454.9576,121.7778 454.3638,121.5122 Q453.7701,121.2309 453.1451,121.2309 Q451.8013,121.2309 451.1138,122.3091 Q450.4263,123.3716 450.4263,125.4653 Q450.4263,127.5591 451.1138,128.6372 Q451.8013,129.6997 453.1451,129.6997 Q453.7701,129.6997 454.3638,129.4341 Q454.9576,129.1528 455.5826,128.5747 L455.5826,131.2934 Z " fill="#000000"/><text fill="#000000" font-family="sans-serif" font-size="12" font-style="italic" lengthAdjust="spacing" textLength="85.3477" x="507.6196" y="121.6587">&#171;Read Model&#187;</text><text fill="#000000" font-family="sans-serif" font-size="14" lengthAdjust="spacing" textLength="157.3086" x="471.6391" y="137.4839">MemberWorkloadView</text><line style="stroke:#181818;stroke-width:0.5;" x1="416" x2="653.5615" y1="145.7856" y2="145.7856"/><g data-visibility-modifier="PUBLIC_FIELD"><ellipse cx="426" cy="159.4341" fill="none" rx="3" ry="3" style="stroke:#038048;stroke-width:1;"/></g><text fill="#000000" font-family="sans-serif" font-size="14" lengthAdjust="spacing" textLength="116.7305" x="435" y="162.7807">memberId: UUID</text><g data-visibility-modifier="PUBLIC_FIELD"><ellipse cx="426" cy="175.7309" fill="none" rx="3" ry="3" style="stroke:#038048;stroke-width:1;"/></g><text fill="#000000" font-family="sans-serif" font-size="14" lengthAdjust="spacing" textLength="90.6514" x="435" y="179.0776">name: String</text><g data-visibility-modifier="PUBLIC_FIELD"><ellipse cx="426" cy="192.0278" fill="none" rx="3" ry="3" style="stroke:#038048;stroke-width:1;"/></g><text fill="#000000" font-family="sans-serif" font-size="14" lengthAdjust="spacing" textLength="105.1982" x="435" y="195.3745">issueCount: Int</text><g data-visibility-modifier="PUBLIC_FIELD"><ellipse cx="426" cy="208.3247" fill="none" rx="3" ry="3" style="stroke:#038048;stroke-width:1;"/></g><text fill="#000000" font-family="sans-serif" font-size="14" lengthAdjust="spacing" textLength="132.5283" x="435" y="211.6714">assignedPoints: Int</text><g data-visibility-modifier="PUBLIC_FIELD"><ellipse cx="426" cy="224.6216" fill="none" rx="3" ry="3" style="stroke:#038048;stroke-width:1;"/></g><text fill="#000000" font-family="sans-serif" font-size="14" lengthAdjust="spacing" textLength="144.4912" x="435" y="227.9682">completedPoints: Int</text><g data-visibility-modifier="PUBLIC_FIELD"><ellipse cx="426" cy="240.9184" fill="none" rx="3" ry="3" style="stroke:#038048;stroke-width:1;"/></g><text fill="#000000" font-family="sans-serif" font-size="14" lengthAdjust="spacing" textLength="143.582" x="435" y="244.2651">inProgressPoints: Int</text><g data-visibility-modifier="PUBLIC_FIELD"><ellipse cx="426" cy="257.2153" fill="none" rx="3" ry="3" style="stroke:#038048;stroke-width:1;"/></g><text fill="#000000" font-family="sans-serif" font-size="14" lengthAdjust="spacing" textLength="144.8398" x="435" y="260.562">notStartedPoints: Int</text><g data-visibility-modifier="PUBLIC_FIELD"><ellipse cx="426" cy="273.5122" fill="none" rx="3" ry="3" style="stroke:#038048;stroke-width:1;"/></g><text fill="#000000" font-family="sans-serif" font-size="14" lengthAdjust="spacing" textLength="144.9424" x="435" y="276.8589">workloadPercent: Int</text><g data-visibility-modifier="PUBLIC_FIELD"><ellipse cx="426" cy="289.8091" fill="none" rx="3" ry="3" style="stroke:#038048;stroke-width:1;"/></g><text fill="#000000" font-family="sans-serif" font-size="14" lengthAdjust="spacing" textLength="213.5615" x="435" y="293.1557">workloadLevel: WorkloadLevel</text><line style="stroke:#181818;stroke-width:0.5;" x1="416" x2="653.5615" y1="300.4575" y2="300.4575"/></g><!--class BoardIssueView--><g class="entity" data-qualified-name="Visualization Read Models.BoardIssueView" data-source-line="45" id="ent0008"><rect fill="#F1F1F1" height="154.0469" rx="2.5" ry="2.5" style="stroke:#181818;stroke-width:0.5;" width="246.124" x="690" y="130.02"/><ellipse cx="753.2495" cy="150.1528" fill="#ADD1B2" rx="11" ry="11" style="stroke:#181818;stroke-width:1;"/><path d="M756.2183,155.7934 Q755.6401,156.0903 754.9995,156.2309 Q754.3589,156.3872 753.6558,156.3872 Q751.1558,156.3872 749.8276,154.7466 Q748.5151,153.0903 748.5151,149.9653 Q748.5151,146.8403 749.8276,145.1841 Q751.1558,143.5278 753.6558,143.5278 Q754.3589,143.5278 754.9995,143.6841 Q755.6558,143.8403 756.2183,144.1372 L756.2183,146.8559 Q755.5933,146.2778 754.9995,146.0122 Q754.4058,145.7309 753.7808,145.7309 Q752.437,145.7309 751.7495,146.8091 Q751.062,147.8716 751.062,149.9653 Q751.062,152.0591 751.7495,153.1372 Q752.437,154.1997 753.7808,154.1997 Q754.4058,154.1997 754.9995,153.9341 Q755.5933,153.6528 756.2183,153.0747 L756.2183,155.7934 Z " fill="#000000"/><text fill="#000000" font-family="sans-serif" font-size="12" font-style="italic" lengthAdjust="spacing" textLength="85.3477" x="786.6382" y="146.1587">&#171;Read Model&#187;</text><text fill="#000000" font-family="sans-serif" font-size="14" lengthAdjust="spacing" textLength="111.125" x="773.7495" y="161.9839">BoardIssueView</text><line style="stroke:#181818;stroke-width:0.5;" x1="691" x2="935.124" y1="170.2856" y2="170.2856"/><g data-visibility-modifier="PUBLIC_FIELD"><ellipse cx="701" cy="183.9341" fill="none" rx="3" ry="3" style="stroke:#038048;stroke-width:1;"/></g><text fill="#000000" font-family="sans-serif" font-size="14" lengthAdjust="spacing" textLength="93.5498" x="710" y="187.2807">issueId: UUID</text><g data-visibility-modifier="PUBLIC_FIELD"><ellipse cx="701" cy="200.2309" fill="none" rx="3" ry="3" style="stroke:#038048;stroke-width:1;"/></g><text fill="#000000" font-family="sans-serif" font-size="14" lengthAdjust="spacing" textLength="78.3193" x="710" y="203.5776">title: String</text><g data-visibility-modifier="PUBLIC_FIELD"><ellipse cx="701" cy="216.5278" fill="none" rx="3" ry="3" style="stroke:#038048;stroke-width:1;"/></g><text fill="#000000" font-family="sans-serif" font-size="14" lengthAdjust="spacing" textLength="110.291" x="710" y="219.8745">deadline: Date?</text><g data-visibility-modifier="PUBLIC_FIELD"><ellipse cx="701" cy="232.8247" fill="none" rx="3" ry="3" style="stroke:#038048;stroke-width:1;"/></g><text fill="#000000" font-family="sans-serif" font-size="14" lengthAdjust="spacing" textLength="88.71" x="710" y="236.1714">progress: Int</text><g data-visibility-modifier="PUBLIC_FIELD"><ellipse cx="701" cy="249.1216" fill="none" rx="3" ry="3" style="stroke:#038048;stroke-width:1;"/></g><text fill="#000000" font-family="sans-serif" font-size="14" lengthAdjust="spacing" textLength="156.6523" x="710" y="252.4682">alertLevel: AlertLevel?</text><g data-visibility-modifier="PUBLIC_FIELD"><ellipse cx="701" cy="265.4184" fill="none" rx="3" ry="3" style="stroke:#038048;stroke-width:1;"/></g><text fill="#000000" font-family="sans-serif" font-size="14" lengthAdjust="spacing" textLength="220.124" x="710" y="268.7651">assignees: AssigneeSummary[]</text><line style="stroke:#181818;stroke-width:0.5;" x1="691" x2="935.124" y1="276.0669" y2="276.0669"/></g><g class="entity" data-qualified-name="GMN12" data-source-line="60" id="ent0013"><path d="M1190,134.02 L1190,203.02 L1154.74,207.02 L1190,211.02 L1190,280.2153 A0,0 0 0 0 1190,280.2153 L1547.9209,280.2153 A0,0 0 0 0 1547.9209,280.2153 L1547.9209,144.02 L1537.9209,134.02 L1190,134.02 A0,0 0 0 0 1190,134.02" fill="#FEFFDD" style="stroke:#181818;stroke-width:0.5;"/><path d="M1537.9209,134.02 L1537.9209,144.02 L1547.9209,144.02 L1537.9209,134.02" fill="#FEFFDD" style="stroke:#181818;stroke-width:0.5;"/><text fill="#000000" font-family="sans-serif" font-size="13" lengthAdjust="spacing" textLength="120.0723" x="1196" y="151.0869">&#38334;&#20516;&#12525;&#12472;&#12483;&#12463; (&#12460;&#12531;&#12488;&#12481;&#12515;&#12540;&#12488;):</text><text fill="#000000" font-family="sans-serif" font-size="13" lengthAdjust="spacing" textLength="336.9209" x="1196" y="166.2197">expectedProgress = (daysElapsed / daysDue) * 100</text><text fill="#000000" font-family="sans-serif" font-size="13" lengthAdjust="spacing" textLength="4.1323" x="1196" y="181.3525">&#160;</text><text fill="#000000" font-family="sans-serif" font-size="13" lengthAdjust="spacing" textLength="262.8945" x="1196" y="196.4853">IF actualProgress &gt;= expectedProgress:</text><text fill="#000000" font-family="sans-serif" font-size="13" lengthAdjust="spacing" textLength="189.6553" x="1204.2646" y="211.6181">alertLevel = null  (UI: &#128994; green)</text><text fill="#000000" font-family="sans-serif" font-size="13" lengthAdjust="spacing" textLength="334.3882" x="1196" y="226.751">ELSE IF actualProgress &gt;= expectedProgress * 0.8:</text><text fill="#000000" font-family="sans-serif" font-size="13" lengthAdjust="spacing" textLength="206.9907" x="1204.2646" y="241.8838">alertLevel = yellow (UI: &#128993; yellow)</text><text fill="#000000" font-family="sans-serif" font-size="13" lengthAdjust="spacing" textLength="36.3022" x="1196" y="257.0166">ELSE:</text><text fill="#000000" font-family="sans-serif" font-size="13" lengthAdjust="spacing" textLength="179.5752" x="1204.2646" y="272.1494">alertLevel = red    (UI: &#128308; red)</text></g><g class="entity" data-qualified-name="GMN15" data-source-line="72" id="ent0016"><path d="M1583,179.52 L1583,234.9184 L1857.0684,234.9184 L1857.0684,189.52 L1847.0684,179.52 L1583,179.52" fill="#FEFFDD" style="stroke:#181818;stroke-width:0.5;"/><path d="M1847.0684,179.52 L1847.0684,189.52 L1857.0684,189.52 L1847.0684,179.52" fill="#FEFFDD" style="stroke:#181818;stroke-width:1;"/><text fill="#000000" font-family="sans-serif" font-size="13" lengthAdjust="spacing" textLength="120.0723" x="1589" y="196.5869">&#38334;&#20516;&#12525;&#12472;&#12483;&#12463; (&#12459;&#12531;&#12496;&#12531;&#12508;&#12540;&#12489;):</text><text fill="#000000" font-family="sans-serif" font-size="13" lengthAdjust="spacing" textLength="206.375" x="1589" y="211.7197">&#12460;&#12531;&#12488;&#12481;&#12515;&#12540;&#12488;&#12392;&#21516;&#19968;&#12398; AlertLevel &#21028;&#23450;&#12434;&#20351;&#29992;&#12290;</text><text fill="#000000" font-family="sans-serif" font-size="13" lengthAdjust="spacing" textLength="253.0684" x="1589" y="226.8525">&#36861;&#21152;&#34920;&#31034;: deadline &#12414;&#12391; 2&#26085;&#26410;&#28288;&#12398;&#22580;&#21512;&#12399; &#9201;&#65039; &#26178;&#38291;&#35686;&#21578;&#12434;&#20341;&#35352;&#12290;</text></g><g class="entity" data-qualified-name="GMN18" data-source-line="78" id="ent0019"><path d="M1892.5,134.02 L1892.5,280.2153 L2285.5615,280.2153 L2285.5615,144.02 L2275.5615,134.02 L1892.5,134.02" fill="#FEFFDD" style="stroke:#181818;stroke-width:0.5;"/><path d="M2275.5615,134.02 L2275.5615,144.02 L2285.5615,144.02 L2275.5615,134.02" fill="#FEFFDD" style="stroke:#181818;stroke-width:1;"/><text fill="#000000" font-family="sans-serif" font-size="13" lengthAdjust="spacing" textLength="112.271" x="1898.5" y="151.0869">&#38334;&#20516;&#12525;&#12472;&#12483;&#12463; (&#12527;&#12540;&#12463;&#12525;&#12540;&#12489;):</text><text fill="#000000" font-family="sans-serif" font-size="13" lengthAdjust="spacing" textLength="372.0615" x="1898.5" y="166.2197">workloadPercent = assignedPoints / capacityPoints * 100</text><text fill="#000000" font-family="sans-serif" font-size="13" lengthAdjust="spacing" textLength="4.1323" x="1898.5" y="181.3525">&#160;</text><text fill="#000000" font-family="sans-serif" font-size="13" lengthAdjust="spacing" textLength="195.9458" x="1898.5" y="196.4853">IF workloadPercent &lt;= 100%:</text><text fill="#000000" font-family="sans-serif" font-size="13" lengthAdjust="spacing" textLength="204.5215" x="1906.7646" y="211.6181">workloadLevel = green  (&#128994; &#20313;&#35029;&#12354;&#12426;)</text><text fill="#000000" font-family="sans-serif" font-size="13" lengthAdjust="spacing" textLength="232.0005" x="1898.5" y="226.751">ELSE IF workloadPercent &lt;= 150%:</text><text fill="#000000" font-family="sans-serif" font-size="13" lengthAdjust="spacing" textLength="235.2632" x="1906.7646" y="241.8838">workloadLevel = yellow (&#128993; &#12461;&#12515;&#12497;&#12471;&#12486;&#12451;&#20184;&#36817;)</text><text fill="#000000" font-family="sans-serif" font-size="13" lengthAdjust="spacing" textLength="36.3022" x="1898.5" y="257.0166">ELSE:</text><text fill="#000000" font-family="sans-serif" font-size="13" lengthAdjust="spacing" textLength="188.7476" x="1906.7646" y="272.1494">workloadLevel = red    (&#128308; &#36942;&#36000;&#33655;)</text></g><!--link IssueProgressView to AlertLevel--><g class="link" data-entity-1="ent0005" data-entity-2="ent0004" data-link-type="dependency" data-source-line="54" id="lnk9"><path codeLine="54" d="M1002.51,308.67 C989.05,331.07 978.5598,348.5267 967.3498,367.1867" fill="none" id="IssueProgressView-to-AlertLevel" style="stroke:#181818;stroke-width:1;"/><polygon fill="#181818" points="964.26,372.33,972.3236,366.675,966.8348,368.044,965.4659,362.5552,964.26,372.33" style="stroke:#181818;stroke-width:1;"/></g><!--link BoardIssueView to AlertLevel--><g class="link" data-entity-1="ent0008" data-entity-2="ent0004" data-link-type="dependency" data-source-line="55" id="lnk10"><path codeLine="55" d="M858.84,284.29 C876.67,313.97 893.3689,341.7575 908.7089,367.2775" fill="none" id="BoardIssueView-to-AlertLevel" style="stroke:#181818;stroke-width:1;"/><polygon fill="#181818" points="911.8,372.42,910.5916,362.6456,909.2241,368.1346,903.735,366.767,911.8,372.42" style="stroke:#181818;stroke-width:1;"/></g><!--link MemberWorkloadView to WorkloadLevel--><g class="link" data-entity-1="ent0007" data-entity-2="ent0006" data-link-type="dependency" data-source-line="56" id="lnk11"><path codeLine="56" d="M535,308.67 C535,329.51 535,344.53 535,362.38" fill="none" id="MemberWorkloadView-to-WorkloadLevel" style="stroke:#181818;stroke-width:1;"/><polygon fill="#181818" points="535,368.38,539,359.38,535,363.38,531,359.38,535,368.38" style="stroke:#181818;stroke-width:1;"/></g><!--link BoardIssueView to GMN15--><g class="link" data-entity-1="ent0008" data-entity-2="ent0016" data-link-type="association" data-source-line="72" id="lnk17"><path d="M860.63,129.8 C888.02,92.98 926.03,52.65 971.5,32.52 C1030.12,6.57 1489.38,7.73 1548.5,32.52 C1619.79,62.41 1676.4,138 1703.17,179.2" fill="none" id="BoardIssueView-GMN15" style="stroke:#181818;stroke-width:1;stroke-dasharray:7,7;"/></g><!--link MemberWorkloadView to GMN18--><g class="link" data-entity-1="ent0007" data-entity-2="ent0019" data-link-type="association" data-source-line="78" id="lnk20"><path d="M600.41,105.49 C624.84,76.39 655.32,48.29 690.5,32.52 C749.66,6 1796.02,11.94 1857.5,32.52 C1918,52.77 1975.34,95.74 2017.82,133.97" fill="none" id="MemberWorkloadView-GMN18" style="stroke:#181818;stroke-width:1;stroke-dasharray:7,7;"/></g><?plantuml-src fLRVRzjK57xlNt4qQLB2L2X8I5FKTXgqI94sL15rF4nxkCINp9fZH_OrfI2as9Qwh6lN7uomeQ5rj6nXMrenXXesklulktNgFi6VmBdNTc8dpa3YnRNFlUUxvtpdotTR8-Lhf4BXr2NLieccVaMOQkZm2IKAN3GKgbcduEknCG3TO1I81JFKKYlwn_Y5GG1_RIzusFHNcjnvmfrbxcnmzsPmurdme7Myyu8xkq6h7RGQtUOV9zT_BCYKSU3kK-xznhq6znpkRNFlJ_d-ahjFP7nTFk_9-0tkFEBE7fpNgCakq2-e1hb5gcd60hm39bNoYBRfBwtwZL-ERxUY0qX_CtTMGBSryRBhRpttrnk8nkihtVQst-b03fjb9fAGv_NLrqkRC5_4dO-EzpTwJSH5UtkY81UVxR2okCUzuvjFW-kFyG3ur32lQGPHehFTpQE3mx0igYkImp7vRbUJ3KrEMbS9zZ8zZLoBqy86vIk6yUyt8gsi4Sk2ecNPTCuqAYQrh4igNS3q_hXw46TKiQ-e561-lZWJXfZAD5g04ZDLlHA6B4PCDaCOXiKp32es7GpLeWCBKDHPBvNP8Y0EAicFSA7FVY7HvRce1aggwQgmALGKnLgjC7pvIjon92hDQTWTraBrVwNg8gr-Hiqu_mrSLUN6T5awgGvm9HdzqB1rbc0XgbwPCrIT9Uaf6zMQHbd6Ygh7unjQGeMKn4GoiXQYDkQeMQQf4XQI11NIVAK9-S0WfYBdzR-5es2cfkgHICwDLCaRnH2F7XFEHwybkrebvc9V0yDw7n-VJa3Xbe6sXjOpT23sf8d2mwJ7cMhbAWFZy-634Uca-SglxmW7S3lSyz0D89VfPddXTVJB6YsBMKOWC0KvXInQingfMLH10nDVCpRDmrlmxiI4RFSZ86M6LjnBcfuQ0WgDDE5oKw77GMw-M82_xz__AVo5v77Vx8NIx7z3nI8ctZwRWHtvRGp-80h4w1aP-5CKiIZZzdFfr6Dz3qmpdPxVI9epBWT9S_PruhJyzPMZJbtOSi9h_SQEl_j3pvbvtKM4uF30NzuA_Rm0iRJn8dY5Tm6yr_t-v-wznzqNzUGT0g_NVlshimRTk-v9yzkW_T3VM9QmlmUjEm9sLBV3QXpLyT2D8ziTC09aE-r1AAiogP6ooXQZG59SWzcJKsBnT3Z3b9CWi1GHZb4gwkZWRh3z7NTSxYudXPM5-Fuen5XAKaRSRSjvuVyC-znRukxsqSixmU56MbY34B6sfAvEd5l1iwrWTJ-Xhdy0?></g></svg>